<svg width="78" height="87" viewBox="0 0 78 87" fill="none" xmlns="http://www.w3.org/2000/svg">
<path d="M60.4805 69.5C60.4834 69.5072 60.4863 69.515 60.4893 69.5225C60.5751 69.737 60.6984 70.0479 60.8457 70.4307C61.1407 71.1969 61.5331 72.2514 61.9258 73.4053C62.3189 74.5604 62.7099 75.81 63.002 76.9668C63.2964 78.1329 63.4814 79.17 63.4814 79.9141C63.4814 80.5173 63.1679 81.1465 62.332 81.7793C61.4878 82.4183 60.1549 83.0227 58.2432 83.5498C54.4247 84.6026 48.4428 85.3091 39.8467 85.4775C31.2723 85.6456 24.689 84.8404 20.1133 83.7979C17.8246 83.2764 16.0444 82.6968 14.7725 82.1543C14.1364 81.883 13.6342 81.6236 13.2617 81.3896C12.9756 81.21 12.7847 81.0572 12.668 80.9385L12.5752 80.8311C12.5405 80.7838 12.4776 80.6042 12.5088 80.1787C12.5379 79.7832 12.6396 79.2751 12.8027 78.6826C13.1281 77.501 13.6748 76.0587 14.2656 74.6504C14.855 73.2456 15.4817 71.8891 15.9619 70.8828C16.2018 70.3801 16.405 69.9655 16.5479 69.6768C16.5802 69.6113 16.6098 69.5521 16.6357 69.5H60.4805Z" fill="#BB6C22" stroke="#BB6C22"/>
<path d="M37.1124 64.5C42.9228 64.5 48.8562 65.016 53.3253 65.9053C55.564 66.3507 57.4082 66.8844 58.6808 67.4805C59.3183 67.7791 59.7856 68.0812 60.0861 68.374C60.3846 68.6651 60.4816 68.9089 60.4816 69.1074C60.4814 69.5883 60.076 70.2061 58.9943 70.8857C57.9459 71.5444 56.401 72.1705 54.463 72.7109C50.5935 73.7899 45.2593 74.5 39.4601 74.5C33.6551 74.5 27.8226 73.8871 23.4542 72.9014C21.2664 72.4077 19.4721 71.8259 18.2365 71.1953C17.6177 70.8795 17.1637 70.5637 16.8712 70.2607C16.5801 69.9591 16.4816 69.7064 16.4816 69.5C16.4816 69.0167 16.8673 68.4234 17.9044 67.7852C18.9135 67.1642 20.4065 66.5866 22.296 66.0947C26.0681 65.1129 31.3072 64.5 37.1124 64.5Z" fill="#C8813F" stroke="#BB6C22"/>
<path d="M38.9816 24.5C52.532 24.5 63.4816 35.0403 63.4816 48C63.4816 60.9597 52.532 71.5 38.9816 71.5C25.4312 71.5 14.4816 60.9597 14.4816 48C14.4816 35.0403 25.4312 24.5 38.9816 24.5Z" fill="#82487C" stroke="#82487C"/>
<ellipse cx="36.9816" cy="45" rx="21" ry="20" fill="#B34FA9"/>
<path d="M30.5197 31.5C30.7216 31.5 30.8366 31.5567 30.9161 31.6299C31.0064 31.713 31.0961 31.8603 31.1632 32.1094C31.3009 32.6205 31.2966 33.3808 31.2042 34.3115C31.113 35.2304 30.9461 36.2402 30.797 37.2383C30.6502 38.2209 30.5197 39.1982 30.5197 40C30.5197 41.2695 29.5611 42.5136 28.1671 43.4775C26.7848 44.4334 25.1326 45 24.0197 45C23.4811 45 23.1809 44.8683 22.9962 44.6992C22.804 44.5232 22.6638 44.2402 22.5792 43.7959C22.4945 43.3505 22.4759 42.7997 22.4825 42.1455C22.4857 41.8331 22.4956 41.4845 22.504 41.1201L22.5197 40C22.5197 39.3815 22.836 38.5369 23.4249 37.5732C24.0041 36.6256 24.8087 35.6241 25.6964 34.709C26.5842 33.7938 27.5424 32.9782 28.42 32.3955C29.3223 31.7965 30.0568 31.5001 30.5197 31.5Z" fill="#FFF5F5" stroke="#FFF5F5"/>
<path d="M25.1947 47.7751C25.3344 47.8913 25.5127 48.0842 25.7224 48.3472C25.9565 48.641 26.1984 48.9768 26.4474 49.3141C26.6898 49.6424 26.9419 49.9769 27.1765 50.2307C27.4772 50.5562 27.5975 51.0518 27.5594 51.5698C27.52 52.1054 27.3243 52.5118 27.1743 52.6507C27.1632 52.661 27.1533 52.6662 27.1473 52.6704C27.1213 52.6623 27.0555 52.6361 26.9421 52.5435C26.8117 52.437 26.6621 52.2838 26.4805 52.0845L25.8858 51.424C25.7437 51.2703 25.5913 50.9843 25.4585 50.5849C25.3293 50.1965 25.2324 49.7442 25.1772 49.2982C25.1218 48.8509 25.1097 48.4282 25.1406 48.0991C25.153 47.9672 25.1731 47.8591 25.1947 47.7751Z" fill="white" stroke="white"/>
<path d="M59 11.5C63.0526 9.7593 64.1843 8.07299 64.5 4C65.2042 8.34853 66.2725 10.1239 70 11.5C66.7436 12.3567 65.44 13.8125 64.5 19C64.065 15.3707 63.6265 13.4155 59 11.5Z" fill="#FFFCFC" stroke="#FFFCFC" stroke-width="0.3"/>
<path d="M9 8.5C13.0526 6.7593 14.1843 5.07299 14.5 1C15.2042 5.34853 16.2725 7.12388 20 8.5C16.7436 9.35671 15.44 10.8125 14.5 16C14.065 12.3707 13.6265 10.4155 9 8.5Z" fill="#FFFCFC" stroke="#FFFCFC" stroke-width="0.3"/>
<path d="M1 64.5C5.05263 62.7593 6.18432 61.073 6.5 57C7.20415 61.3485 8.27246 63.1239 12 64.5C8.74363 65.3567 7.43995 66.8125 6.5 72C6.06496 68.3707 5.62654 66.4155 1 64.5Z" fill="#FFFCFC" stroke="#FFFCFC" stroke-width="0.3"/>
<path d="M58 80.5C60.9474 79.2235 61.7704 77.9869 62 75C62.5121 78.1889 63.2891 79.4908 66 80.5C63.6317 81.1283 62.6836 82.1958 62 86C61.6836 83.3385 61.3648 81.9047 58 80.5Z" fill="#FFFCFC" stroke="#FFFCFC" stroke-width="0.3"/>
<path d="M72 20C73.8421 19.0716 74.3565 18.1723 74.5 16C74.8201 18.3192 75.3057 19.2661 77 20C75.5198 20.4569 74.9273 21.2333 74.5 24C74.3023 22.0644 74.103 21.0216 72 20Z" fill="#FFFCFC" stroke="#FFFCFC" stroke-width="0.3"/>
<path d="M30 43C31.4737 42.0716 31.8852 41.1723 32 39C32.2561 41.3192 32.6445 42.2661 34 43C32.8159 43.4569 32.3418 44.2333 32 47C31.8418 45.0644 31.6824 44.0216 30 43Z" fill="#FFFCFC" stroke="#FFFCFC" stroke-width="0.3"/>
<path d="M51 57C52.4737 56.0716 52.8852 55.1723 53 53C53.2561 55.3192 53.6445 56.2661 55 57C53.8159 57.4569 53.3418 58.2333 53 61C52.8418 59.0644 52.6824 58.0216 51 57Z" fill="#FFFCFC" stroke="#FFFCFC" stroke-width="0.3"/>
</svg>
