<svg width="164" height="258" viewBox="0 0 164 258" fill="none" xmlns="http://www.w3.org/2000/svg">
<path d="M-6 114.5C-30.1956 99.2714 15.332 51.368 -11.5 41.5C-32.2483 33.8695 -63 65 -63 65V-11L-11.5 -15.5C-11.5 -15.5 6.55825 24.9559 28 41.5C48.2116 57.0949 63.9724 59.967 89 65C118.289 70.8899 141.924 46.651 165.5 65C202.471 93.774 115.424 129.375 120 176C121.212 188.352 121.179 196.038 127 207C144.782 240.487 223 221.5 223 221.5C223 221.5 188.055 249.988 161 254.5C130.744 259.545 105.658 260.721 84 239C61.1065 216.041 87.2843 185.037 71 157L70.7007 156.485C60.4575 138.846 53.3494 126.607 34.5 118.5C19.8998 112.221 7.45076 122.966 -6 114.5Z" fill="#AABCCD" fill-opacity="0.1"/>
<path d="M21 141C6.51841 169.76 -1.6229 160.752 -7 192.5C-8.52244 201.489 -11 215.5 -11 215.5C-11 215.5 2.45733 180.508 21 168C36.3204 157.666 48.0605 156.221 66.5 155C97.6846 152.935 112.897 186.9 143 178.5C165.324 172.271 175.273 159.675 189 141C205.494 118.561 212 73.5 212 73.5V-2L148.5 -21L119 -24C119 -24 116.748 -10.2912 119 -2C123.27 13.7228 142.782 12.2441 148.5 27.5C154.85 44.4411 151.314 57.4315 143 73.5C134.936 89.0858 127.95 90.6422 110.5 92.5C92.3469 94.4326 87.5 88 70.5 79C58.6944 72.75 49.9956 70.6965 38.5 77.5C14 92 30.1347 122.859 21 141Z" fill="#AABCCD" fill-opacity="0.1"/>
</svg>
