<?xml version="1.0" encoding="UTF-8"?>
<svg id="Layer_1" data-name="Layer 1" xmlns="http://www.w3.org/2000/svg" viewBox="0 0 541 541">
  <defs>
    <style>
      .cls-1, .cls-2 {
        fill: #d7191b;
      }

      .cls-3 {
        fill: #f5f2a3;
      }

      .cls-2 {
        opacity: .35;
      }

      .cls-4 {
        fill: #fff;
      }

      .cls-5 {
        fill: #991632;
      }
    </style>
  </defs>
  <path class="cls-1" d="M345.01,260.93s-80.56,8.6-84.49,75.91c-3.92,67.3,58.54,103.98,58.54,103.98,0,0-3.24,2.47.21,8.93,3.45,6.46,70.47,18.23,120.5-19.5,0,0,2.8-4.35-1.41-8.74,0,0,38.37-73.66-.41-127.81-38.78-54.15-92.94-32.76-92.94-32.76Z"/>
  <path class="cls-5" d="M328.46,278.11l35.72-5.78s-19.87-9.13-35.72,5.78Z"/>
  <path class="cls-3" d="M341.15,275.99l-42.63-216.19s3.68-5.57,11.61-1.88l41.68,216.4-10.66,1.67Z"/>
  <ellipse class="cls-3" cx="304.45" cy="59.34" rx="5.92" ry="2.68" transform="translate(-5.57 49.4) rotate(-9.19)"/>
  <path class="cls-2" d="M344.28,255.69s-87.97,9.59-92.72,80.26c-4.74,70.67,63.17,108.74,63.17,108.74,0,0-3.56,2.62.17,9.38,3.72,6.76,76.77,18.64,131.63-21.3,0,0,3.09-4.59-1.48-9.16,0,0,42.38-77.58.43-134.16-41.95-56.58-101.19-33.75-101.19-33.75Z"/>
  <path class="cls-4" d="M292.73,301.4h0s-20.58,17.62-13.11,41.01c2.97,9.3,13.81,26.09,21.8,24.79s17.19-14.5,28.42-15.15c11.23-.64,19.67-42.65,11.26-48.71-8.41-6.06-48.38-1.94-48.38-1.94Z"/>
  <path class="cls-1" d="M217.66,270.94s-80.28-10.98-100.23,53.42c-19.96,64.4,31.88,114.99,31.88,114.99,0,0-3.74,1.62-1.94,8.72,1.8,7.1,64.03,34.6,121.66,9.98,0,0,3.77-3.55.72-8.82,0,0,54.93-62.3,30.27-124.18-24.66-61.88-82.36-54.11-82.36-54.11Z"/>
  <path class="cls-5" d="M197.47,283.64l36.06,2.96s-17.1-13.63-36.06-2.96Z"/>
  <path class="cls-3" d="M210.3,284.63l10.49-220.11s4.91-4.52,11.72.96l-11.47,220.08-10.75-.93Z"/>
  <ellipse class="cls-3" cx="226.66" cy="65.51" rx="2.68" ry="5.92" transform="translate(142.84 286.05) rotate(-85.31)"/>
  <path class="cls-2" d="M218.21,265.68s-87.7-11.8-109.27,55.67c-21.56,67.47,35.23,120.72,35.23,120.72,0,0-4.08,1.69-2.09,9.14,1.99,7.45,70.05,36.52,132.89,10.9,0,0,4.1-3.71.76-9.25,0,0,59.76-65.15,32.61-130.13-27.15-64.99-90.14-57.05-90.14-57.05Z"/>
  <path class="cls-4" d="M157.2,297.68h0s-24.21,12.17-22.56,36.67c.65,9.74,7.14,28.64,15.22,29.3,8.07.66,20.17-9.96,31.22-7.89s29.33-36.68,22.62-44.59c-6.71-7.9-46.5-13.49-46.5-13.49Z"/>
</svg>