<?xml version="1.0" encoding="UTF-8"?>
<svg id="Layer_1" data-name="Layer 1" xmlns="http://www.w3.org/2000/svg" viewBox="0 0 541 541">
  <defs>
    <style>
      .cls-1 {
        fill: #f5f2a3;
      }

      .cls-2 {
        stroke-width: 26.95px;
      }

      .cls-2, .cls-3 {
        fill: none;
        stroke: #fff;
        stroke-linecap: round;
        stroke-miterlimit: 10;
      }

      .cls-3 {
        stroke-width: 38.5px;
      }
    </style>
  </defs>
  <path class="cls-1" d="M390.31,97.77c.85,8.56,17.42,24.55,3.56,35.64-6.33-1.53-10.59-6.04-13.44-11.11-.01-.02-.02-.03-.02-.04-4.79-8.56-5.58-18.69-5.58-18.69-12.88-17.87-11.69-28.45-5.91-34.11.68-.67,1.42-1.26,2.21-1.79,8.62,1.4,17.07,9.21,19.18,30.1Z"/>
  <path class="cls-1" d="M400.2,133.92c-.05,0-.11.01-.16.01,13.8-11.97-4.3-37.89-4.3-37.89-2.71-21.82-9.64-29.34-18.4-31.14,2.48-.67,5.03-.95,7.38-.92,14.01.21,22.64,12.08,28.87,27.12,5.11,12.37,9.51,41.33-13.39,42.82Z"/>
  <path class="cls-1" d="M383.45,177.89s-3.93-21.72-38.58-49.32c-21.22-16.91-99.07-63.85-202.8-2.31-103.73,61.54-90.04,164.37-68.97,201.29,21.07,36.91,51.47,54.82,80.85,55.38,60.9,1.15,36.09-61.16,85.81-69.93,0,0,183.17-20.73,143.69-135.1Z"/>
  <path class="cls-1" d="M451.81,332.56s.13,11.48,5.05,15.43c0,0-6.85,1.34-6.62,2.75s21.76-3.63,20.1-5.62-7.28-.27-7.28-.27c0,0,2.01-7.47-4.79-14.82l-6.47,2.53Z"/>
  <path class="cls-1" d="M394.46,143.47c-46.84,20.73-4,213.77,62.08,191.83,66.08-21.94-7.51-215.98-62.08-191.83Z"/>
  <path class="cls-1" d="M235.8,331.73s-38.12,35.9-36.59,50.6c1.52,14.69,35.89,40.56,74.69,16.82,38.8-23.75-21.25-85.7-38.09-67.41Z"/>
  <path class="cls-1" d="M395.48,340.68c5.22-1,7.76,2.41,8.55,7.17,6.94,41.69-41.07,82.26-73.16,101.01-82.89,48.43-176.1,36.41-223.83-51.72-10.72-19.8,4.81-5.4,10.68-1.19,11.07,7.93,29.51,20.79,43.61,17.19,5.88-1.5,21.74-14.97,25.99-14.76,1.97.1,16.52,10.55,20.8,12.52,55.11,25.39,123.29.7,161.52-42.86,5.64-6.43,17.86-25.83,25.85-27.36Z"/>
  <path class="cls-1" d="M251.81,258.78s.13,11.48,5.05,15.43c0,0-6.85,1.34-6.62,2.75.23,1.41,21.76-3.63,20.1-5.62-1.65-1.99-7.28-.27-7.28-.27,0,0,2.01-7.47-4.79-14.82l-6.47,2.53Z"/>
  <path class="cls-1" d="M401.01,344.12s3.35-3.87,2.8-6.55c0,0,2.79,1.44,3.13.91.34-.53-8.7-4.79-8.71-3.67-.01,1.12,2.47,2.1,2.47,2.1,0,0-2.92,1.94-2.71,6.28l3.02.94Z"/>
  <path class="cls-1" d="M281.74,313.8s-16.49,12.17-1.76,35.28c14.73,23.11,5.53,30.83,27.51,33.23,21.98,2.4,43.35-28.93,35.45-46.45-7.9-17.52-28.88-42.67-61.2-22.06Z"/>
  <path class="cls-1" d="M333.3,296.65s-8.57,10.8,17.8,40.11c20.31,22.57,44.97-4.42,44.94-17.08-.02-9.32-3.82-20.27-11.03-29.28-6.19-7.74-34.07-20.77-51.71,6.25Z"/>
  <path class="cls-1" d="M393.87,133.41s-.02.02-.04.03c-.9.72-1.94,1.42-3.12,2.1-19.27,11.06-37.3-14.17-39.8-26.99-2.5-12.82-6.46-29.41,4.57-37.07,4.04-2.81,9.86-4.74,15.62-3.82,0,0,.02.01.03.01,8.62,1.4,17.07,9.21,19.18,30.1.85,8.56,17.42,24.55,3.56,35.64Z"/>
  <path class="cls-3" d="M94.93,294.66s2.54,25.68,24.92,36.51"/>
  <path class="cls-2" d="M413.25,171.36s22.75,12.17,24.2,36.99"/>
</svg>