<?xml version="1.0" encoding="UTF-8"?>
<svg id="Layer_1" data-name="Layer 1" xmlns="http://www.w3.org/2000/svg" viewBox="0 0 541 541">
  <defs>
    <style>
      .cls-1 {
        fill: #a4bbce;
      }

      .cls-2 {
        fill: #a1b8cc;
      }

      .cls-3 {
        fill: #fff;
      }

      .cls-4 {
        fill: #1d347d;
      }
    </style>
  </defs>
  <path class="cls-1" d="M52.58,512.72s82.33,54.78,99.31-55.59c16.99-110.36,17.13-293.82,100.76-359.6,72.92-57.36,276.51-35.19,276.51-35.19l-93.8-15.05s-65.89-46-140.58,14.77c-73.92,60.15-73.71,144.49-84.7,224.18-23.6,171.14-68.74,218.39-89.11,232.7-28.92,20.31-68.4-6.23-68.4-6.23Z"/>
  <g>
    <path class="cls-2" d="M194.02,361.15s-46.01,220.43-120.38,161.4c0,0,74.89-51.32,80.79-83.2s39.6-78.2,39.6-78.2Z"/>
    <path class="cls-4" d="M248.74,100.92c72.92-57.36,280.42-38.57,280.42-38.57l-103.13-53.39S371.21.04,293.75,62.61"/>
    <polygon class="cls-3" points="179.65 248.47 218.16 221.7 221.04 202.88 183.99 228.72 179.65 248.47"/>
    <polygon class="cls-3" points="177.85 258.75 216.87 231.4 217.34 228.4 178.82 254.56 177.85 258.75"/>
    <path class="cls-4" d="M154.42,439.34s-39.91,81.66-126.49,10.91l-23.85,37.72,69.55,34.57s66.98,4.41,80.79-83.2Z"/>
    <path class="cls-4" d="M154.42,439.34s-45.27,79.78-88.76,82.22c0,0,71.67,55.57,89.06-82.41"/>
  </g>
</svg>