<?xml version="1.0" encoding="UTF-8"?>
<svg id="Layer_1" data-name="Layer 1" xmlns="http://www.w3.org/2000/svg" viewBox="0 0 541 541">
  <defs>
    <style>
      .cls-1 {
        fill: none;
        stroke: #183884;
        stroke-miterlimit: 10;
        stroke-width: 7.67px;
      }

      .cls-2 {
        fill: #abbcce;
      }

      .cls-3 {
        font-size: 91.86px;
      }

      .cls-3, .cls-4 {
        fill: #183884;
        font-family: ZebrawoodStd-Fill, 'Zebrawood Std';
      }

      .cls-4 {
        font-size: 41.28px;
      }

      .cls-5 {
        letter-spacing: 0em;
      }

      .cls-6 {
        letter-spacing: 0em;
      }
    </style>
  </defs>
  <path class="cls-2" d="M516.87,269.65s-371.55,225.79-371.52,225.81c0,0,0,0,0,0,.04,0,.07-.04.07-.04.6-.74-7.1-12.2-16.42-13.81,0,0-4.03-.7-20.72,6.93-.32-6.77-2.46-10.17-4.48-12.03-1.5-1.38-3.32-2.26-3.84-4.46-.63-2.63,1.43-3.67.8-6.15-.18-.69-.37-1.12-5.68-5.61.26-5.48-.54-6.47-.54-6.47-.98-1.21-2.12-.69-4.49-1.8-2.02-.95-3.17-2.25-4.67-3.96-3.81-4.33-5.55-9.72-6.21-12.09,0,0,.76-2.21.15-3.49-1-2.08-5.82-2.13-5.82-2.13,0,0-4.06-12.27-4.06-12.27-.96-5.32-1.11-5.61-1.36-5.97-1.75-2.52-4.45-.72-7.66-3.28-2.27-1.81-5.84-10.04-4.53-7.45,1.36-7.08.11-9.13.11-9.13-2.01-3.31-8.16-4.1-8.16-4.1,0,0-1.81-4.84-4.2-8.78,0,0-3.14-5.16-8.19-9.75-1.19-6.46-2.37-7.63-2.37-7.63-1.31-1.29-3.67-2.3-3.67-2.3,0,0-.39-3.41-.86-5.14-.48-1.77-1.26-2.66-8.19-9.75-2.76-2.82-3.25-3.3-3.84-4.46-1.33-2.59-.92-4.12-1.87-6.8-.6-1.7-1.8-3.99-4.43-6.35,1.06-.39,15.05-5.73,18.32-20.2,2.05-9.06-3.42-20.58-3.44-20.57.12-.15.16-.2.16-.2,0,0-.16.19-.16.2.04.36,363.77-220.95,370.69-225.31.02-.01.04-.02.06-.04,2.16-1.15,8.42,12.13,16.47,16.05,4.49,2.19,12.37,2.85,26.87-6.13.68,3.94,2.1,6.53,3.28,8.18,0,0,1.03,1.45,6.18,6.44,0,0-2.49,4.92-1.12,7.48,1.34,2.5,5.21.59,7.66,3.28,2.51,2.75-.35,6.1,2.55,9.78,1.54,1.96,4.67,3.96,4.67,3.96,0,0-.13,4.06,1.04,7.3,1.62,4.49,5.86,7.77,5.86,7.77,0,0-.4,3.41.03,5.65,1.03,5.27,7.69,8.92,7.69,8.92.02,7.46.71,8.63.71,8.63,2.24,3.75,8.66,4.93,8.66,4.93,0,0,.11,4.61,1.54,8.13,0,0,.79,1.95,7.69,8.92,0,0-.32,3.98.54,6.47,1.48,4.29,6.67,3.78,8.01,7.59,1.07,3.02-1.43,4.32-.29,6.98,1.64,3.85,7.42,2.43,9.67,6.59,1.56,2.9-.63,4.71,1.04,7.3,2.13,3.3,6.24,1.21,9.49,4.43,4.06,4.01,3.23,12.77,3.23,12.77h0s-17.27,8.27-21.06,18.49c-1.98,5.34-1.32,14.03,10.63,28.67Z"/>
  <rect class="cls-1" x="64.02" y="190.58" width="416.36" height="173.32" rx="28.71" ry="28.71" transform="translate(-104.4 181.71) rotate(-31.29)"/>
  <line class="cls-1" x1="350.58" y1="129.35" x2="440.1" y2="276.64"/>
  <text class="cls-3" transform="translate(126.07 403.39) rotate(-31.29)"><tspan class="cls-5" x="0" y="0">T</tspan><tspan x="57.96" y="0">IC</tspan><tspan class="cls-6" x="143.21" y="0">K</tspan><tspan x="203.1" y="0">ET</tspan></text>
  <text class="cls-4" transform="translate(467.23 238.54) rotate(-121.29)"><tspan x="0" y="0">532025</tspan></text>
</svg>