<?xml version="1.0" encoding="UTF-8"?>
<svg id="Layer_1" data-name="Layer 1" xmlns="http://www.w3.org/2000/svg" viewBox="0 0 541 541">
  <defs>
    <style>
      .cls-1 {
        fill: #d7191b;
      }

      .cls-2 {
        fill: #8d2577;
      }

      .cls-3 {
        fill: #263c82;
      }

      .cls-4 {
        fill: #f5f2a3;
      }

      .cls-5 {
        fill: #fff;
      }

      .cls-6 {
        fill: #183884;
      }

      .cls-7 {
        fill: #ffb1ce;
      }
    </style>
  </defs>
  <g>
    <path class="cls-7" d="M265.61,428.61c-7.99,20.04-21.07,33.38-30.01,41.06-6.01,1.23-13.65,2.25-22.51,2.08-7.22-.13-13.55-1.01-18.76-2.08-4.15-3.06-9.87-7.84-15.82-14.51-5.58-6.27-11.1-14.03-15.45-23.49-20.83-45.33,2.23-92.77,18.34-156.39,8.76-34.6,18.67-86.61,19.18-154.18-2.73-.96-7.39-3.01-11.74-7.45-2.23-2.28-4.41-5.21-6.18-8.96-5.94-12.57-4.24-27.89,1.67-38.47,9.23-16.53,25.67-16,28.76-15.9,3.49.11,14.74.47,22.93,11.29,9.47,12.52,10.16,32.87,3.75,43.6-4.99,8.35-16.67,14.88-16.67,14.88-.18,67.84,10.29,119.43,19.59,153.46,17.03,62.29,41.72,107.95,22.93,155.08Z"/>
    <path class="cls-2" d="M200.74,121.13s-.42,22.53-1.67,41.69c0,0-1.06,16.28-6.67,60.03,7.91,2.51,14.3,2.76,18.76,2.5,8.99-.53,20.01-3.75,20.01-3.75h0s-5.55-42.24-7.5-89.63c-.23-5.52-.36-9.91-.42-12.09,0,0-6.09,2.45-12.51,2.5-4.79.04-10-1.25-10-1.25Z"/>
    <path class="cls-6" d="M209.08,224.51c5.29.2,12.8-.18,22.09-2.92.07.08.09.1.09.1,0,0-.08-.1-.09-.1-.21.04,9.17,42.1,9.17,42.1h0s-12.97,3.84-25.43,4.59c-15.54.93-30.85-2.92-30.85-2.92h0s7.92-42.52,7.92-42.52h0c13.66,1.54,17.09,1.67,17.09,1.67Z"/>
    <path class="cls-2" d="M272.44,390.43h0c0,10.76,0,16.9-1.25,22.93-1.65,7.96-5.42,15.42-5.42,15.42h0s-26.59,8.63-53.78,8.75c-25.65.11-49.71-7.36-49.89-6.45-.02.09.19.24.28.19.63-.29-4.6-9.21-6.67-20.43-1.6-8.69-1.23-18.34-1.25-18.34,0,0,0,0,0,0,0,.2,30.17,9.28,58.78,9.59,13.4.15,33.95-1.55,59.2-11.67Z"/>
  </g>
  <g>
    <path class="cls-3" d="M390.48,406.52c-7.99,20.04-21.07,33.38-30.01,41.06-6.01,1.23-13.65,2.25-22.51,2.08-7.22-.13-13.55-1.01-18.76-2.08-4.15-3.06-9.87-7.84-15.82-14.51-5.58-6.27-11.1-14.03-15.45-23.49-20.83-45.33,2.23-92.77,18.34-156.39,8.76-34.6,18.67-86.61,19.18-154.18-2.73-.96-7.39-3.01-11.74-7.45-2.23-2.28-4.41-5.21-6.18-8.96-5.94-12.57-4.24-27.89,1.67-38.47,9.23-16.53,25.67-16,28.76-15.9,3.49.11,14.74.47,22.93,11.29,9.47,12.52,10.16,32.87,3.75,43.6-4.99,8.35-16.67,14.88-16.67,14.88-.18,67.84,10.29,119.43,19.59,153.46,17.03,62.29,41.72,107.95,22.93,155.08Z"/>
    <path class="cls-5" d="M325.61,99.04s-.42,22.53-1.67,41.69c0,0-1.06,16.28-6.67,60.03,7.91,2.51,14.3,2.76,18.76,2.5,8.99-.53,20.01-3.75,20.01-3.75h0s-5.55-42.24-7.5-89.63c-.23-5.52-.36-9.91-.42-12.09,0,0-6.09,2.45-12.51,2.5-4.79.04-10-1.25-10-1.25Z"/>
  </g>
  <g>
    <path class="cls-4" d="M327.71,465.4c-7.32,18.37-19.31,30.59-27.51,37.63-5.5,1.13-12.51,2.06-20.63,1.91-6.62-.12-12.42-.93-17.19-1.91-3.8-2.81-9.05-7.19-14.49-13.3-5.12-5.74-10.17-12.86-14.16-21.53-19.09-41.54,2.04-85.02,16.81-143.32,8.03-31.71,17.11-79.37,17.57-141.3-2.5-.88-6.78-2.76-10.76-6.83-2.05-2.09-4.04-4.78-5.67-8.21-5.44-11.52-3.88-25.56,1.53-35.26,8.46-15.15,23.53-14.66,26.36-14.57,3.2.1,13.51.43,21.01,10.34,8.68,11.47,9.31,30.13,3.44,39.96-4.57,7.65-15.28,13.64-15.28,13.63-.16,62.17,9.43,109.45,17.96,140.64,15.61,57.08,38.23,98.93,21.01,142.12Z"/>
    <path class="cls-6" d="M314.28,488.5c-1.22,1.53-3.89,4.76-7.66,8.56-2.4,2.42-4.6,4.41-6.42,5.97-5.81,1.17-13.16,2.11-21.64,1.95-6.77-.13-12.73-.92-17.69-1.91-3.99-2.72-9.5-7.01-14.91-13.3-2.97-3.45-9.28-11.41-13.59-23.03-3.87-10.42-5.68-22.55-5.88-23.94,0-.02-.03-.07-.02-.13.38-1.7,27.05,7.22,55.4,6.49,0,0,22.81.2,51.57-5.73h0s-.63,4.71-1.53,8.79c-.58,2.61-1.15,4.46-1.91,6.88-.86,2.74-2.21,7.02-4.2,11.46-3.66,8.13-8.09,13.67-11.52,17.95Z"/>
    <path class="cls-1" d="M291.86,449.16c-4.39-7.95-8.95-17.39-13.05-28.27-3.81-10.11-6.49-19.53-8.4-27.89,2.3-9.04,5.17-18.78,8.79-29.04,3.75-10.66,7.78-20.39,11.8-29.14,4.42,9.03,8.84,19.01,13.03,29.9,3.75,9.75,6.85,19.08,9.44,27.84-2.42,8.62-5.4,17.86-9.05,27.56-4.01,10.64-8.29,20.33-12.55,29.03Z"/>
    <path class="cls-1" d="M327.71,444.58c-4.74-17.37-9.48-34.74-14.22-52.11,1.62-6.59,3-14.81,3.14-24.3.08-5.32-.24-10.19-.76-14.52,4.08,12.61,8.15,25.21,12.23,37.82,3.8,11.75,5.04,16.81,5.35,23.69.57,12.57-2.87,22.87-5.73,29.42Z"/>
    <path class="cls-1" d="M244.42,446.49c-2.86-7.73-5.66-16.55-8.02-26.36-2.44-10.12-3.99-19.5-4.97-27.89,2.8-9.2,5.97-18.77,9.55-28.65,3.6-9.94,7.32-19.37,11.08-28.27,2.15,9.24,4.78,19.09,8.02,29.42,3.21,10.21,6.63,19.7,10.12,28.43-4.38,6.98-8.86,14.82-13.17,23.53-5.26,10.6-9.37,20.65-12.61,29.8Z"/>
    <path class="cls-6" d="M265.44,237.13h0c-1.11,11.92-1.91,18.72-1.91,18.72s-.21,1.82-.47,3.86c-.64,5-1.46,10.21-3.73,25.17,7.71,1.69,13.97,1.78,18.34,1.53,8.93-.52,19.86-3.06,19.87-3.06h0s-1.32-9.42-1.91-13.75c-2.38-17.38-4.2-33.6-4.2-33.62h0c-5.53,1.89-10.1,2.3-13.37,2.29-5.32-.01-12.61-1.15-12.61-1.15Z"/>
  </g>
</svg>