<?xml version="1.0" encoding="UTF-8"?>
<svg id="Layer_1" data-name="Layer 1" xmlns="http://www.w3.org/2000/svg" viewBox="0 0 541 541">
  <defs>
    <style>
      .cls-1 {
        fill: #d7191b;
      }

      .cls-2 {
        fill: #8d2577;
      }

      .cls-3 {
        fill: #f5f2a3;
      }

      .cls-4 {
        fill: #183884;
      }

      .cls-5 {
        fill: #d72027;
      }

      .cls-6 {
        fill: #f7f29a;
      }
    </style>
  </defs>
  <g>
    <path class="cls-4" d="M397.81,489.62c-36.51,7.32-82.35,13.29-135.23,12.79-45.96-.44-86.27-5.65-119.39-12.11,15.32-80.36,30.64-160.73,45.96-241.09,10.42-54.66,15.82-82.96,15.82-82.96,0,0-30.05-5.41-30.05-5.41,0,0,8.35-41.94,8.35-41.94h27.55c-.1-3.9.35-9.66,3.29-15.98,7.11-15.27,27.38-30.85,53.47-30.02,32.53,1.04,47.48,26.73,48.42,28.41,3.82,6.86,4.81,13.23,5.01,17.59,18.37.9,27.55,1.35,27.55,1.35,0,0,13.36,41.94,13.36,41.94,0,0-31.72,4.74-31.72,4.74,0,0,23.61,112.65,67.62,322.7Z"/>
    <g>
      <path class="cls-1" d="M266.74,36.37v24.81c8.33,2.46,14.75,2.32,19.11,1.71,1.06-.15,5.13-1.04,13.25-2.81,7.44-1.63,8.35-1.9,11-2.32,7.85-1.25,8.07-.22,13.44-1.19,9.81-1.77,17.72-6.75,17.67-6.86,0-.02-.2.04-.98.35-.74.11-3.31.48-6.49.66-2.89.17-6.11.29-10.19-.46-3.12-.57-5.68-1.47-7.17-2-1.75-.62-2.29-.89-3.39-1.34-2.76-1.13-5.1-1.41-12.2-1.95-12.23-.93-12.45-.55-15.1-1.02-10.13-1.79-18.93-7.57-18.93-7.57Z"/>
      <rect class="cls-6" x="264.24" y="36.16" width="2.5" height="36.73"/>
    </g>
    <path class="cls-5" d="M162.39,213.97c7.34-9.59,47.01-10.98,35.06-9.18,0,0-1.07,4.91-2.03,10.6-1.26,7.5-1.38,14.07-1.31,15.28,1.07,19.21,161.71,25.43,185.33,70.96,2.41,4.64,9.21,17.98,4.17,29.22,0,0-1.5,3.35-16.08,18.16h0c-25-31.49-50.41-47.62-69.9-56.56-58.35-26.79-108.57-9.87-130.23-44.24-6.06-9.62-11.6-25.62-5.01-34.23Z"/>
  </g>
  <path class="cls-5" d="M266.61,74.5s-11.84,1.22-20.18,4.04c-3.69,1.25-16.7,6.18-24.22,18.17-5.11,8.15-8.07,20.18-8.07,20.18h16.15c3.19-9.05,4.81-13.62,6.06-16.15,1.4-2.83,4.39-8.76,10.09-14.13,2.24-2.11,3.7-3.34,20.18-12.11Z"/>
  <path class="cls-5" d="M264.73,74.5h0s11.84,1.22,20.18,4.04c3.69,1.25,16.7,6.18,24.22,18.17,5.11,8.15,8.07,20.18,8.07,20.18h-2.02c-4.71,0-9.42,0-14.13,0h0c-3.19-9.05-4.81-13.62-6.06-16.15-1.4-2.83-4.39-8.76-10.09-14.13-2.24-2.11-3.7-3.34-20.18-12.11Z"/>
  <path class="cls-5" d="M264.6,74.5c-4.55,7.43-6.83,13.83-8.07,18.17-.91,3.2-1.42,5.18-4.04,24.22h28.26c.21-5.8-.21-16.65-6.06-28.26-3.16-6.27-6.97-10.92-10.09-14.13Z"/>
  <path class="cls-3" d="M188.45,124.96h0l-3.3,15.18c-1.1,5.06-2.2,10.12-3.3,15.18h0c.06,0,10.23,1.65,21.47,1.9,4.75.1,11.56,0,11.56,0h0s3.28-32.26,3.3-32.25c0,0,0,.02,0,.02,0,0,0-.02,0-.02,0,0-2.14.04-5.27.06-1.18,0-2.15,0-3.03,0-3.56,0-5.95-.04-8.21-.07-6.92-.07-13.21,0-13.21,0Z"/>
  <path class="cls-3" d="M346.04,124.65h0s0,0,3.44,15.32c1.15,5.11,2.3,10.22,3.44,15.32h0c-.06,0-10.67,1.67-22.38,1.92-4.95.1-12.05,0-12.05,0h0s-3.42-32.58-3.44-32.57c0,0,0,.02,0,.02,0,0,0-.02,0-.02,0,0,2.23.04,5.49.06,1.23,0,2.24,0,3.16,0,3.71,0,6.2-.04,8.56-.07,7.22-.07,13.77,0,13.77,0Z"/>
  <path class="cls-3" d="M228.77,124.96h0s-4.54,32.29-4.54,32.29h34.06s2.23-31.75,2.27-32.29h-31.79Z"/>
  <path class="cls-3" d="M302.72,124.96h0s4.54,32.29,4.54,32.29h-34.06s-2.23-31.75-2.27-32.29h0c.57,0,31.79,0,31.79,0Z"/>
  <path class="cls-5" d="M270.93,167.35c-6.72,58.7-10.11,109.29-11.94,143.59-1.35,25.26-2.1,40.97-5.97,191.46h41.79c.32-45.83-.32-131.64-8.96-223.37-4.67-49.56-10.31-86.34-14.93-111.68Z"/>
  <path class="cls-5" d="M302.94,167.35c10.48,58.27,19.55,120.96,26.24,187.71,5,49.89,8.23,97.74,10.09,143.31,14.13-1.35,28.26-2.69,42.39-4.04-4.63-38.64-11.14-79.84-20.18-123.12-15.99-76.56-36.75-144.76-58.53-203.86Z"/>
  <path class="cls-5" d="M239.84,167.33c-10.48,58.27-19.55,120.96-26.24,187.71-5,49.89-8.23,97.74-10.09,143.31-14.13-1.35-28.26-2.69-42.39-4.04,4.63-38.64,11.14-79.84,20.18-123.12,15.99-76.56,36.75-144.76,58.53-203.86Z"/>
  <path class="cls-2" d="M159.64,225.88h0s5.92,7.9,6.06,8.07c13.91,18.51,66.61,28.26,66.61,28.26,26.86,4.97,48.57,8.98,70.64,16.15,36.46,11.83,76.42,33.06,74.68,50.46-.66,6.6-8.07,20.18-8.07,20.18h0c-33.73-32.7-38.35-36.33-38.35-36.33-30.56-24.02-64.79-30.86-72.66-32.29-9.44-1.71-40.53-6.46-62.57-12.11-3.21-.82-11.99-3.17-20.18-10.09-6.22-5.25-9.39-10.84-10.09-12.11-2.39-4.34-3.59-8.41-4.04-10.09-1.14-4.28-2.02-10.09-2.02-10.09Z"/>
  <rect class="cls-3" x="182.09" y="241.04" width="3.57" height="58.53" rx=".89" ry=".89" transform="translate(-67.75 61.59) rotate(-16.1)"/>
  <rect class="cls-3" x="217.5" y="257.85" width="3.57" height="46.07" rx=".89" ry=".89" transform="translate(-35.89 32.15) rotate(-7.75)"/>
  <rect class="cls-3" x="259" y="266.3" width="3.57" height="46.49" rx=".89" ry=".89" transform="translate(29.05 -23.74) rotate(5.52)"/>
  <rect class="cls-3" x="299.73" y="279.6" width="3.57" height="49.61" rx=".89" ry=".89" transform="translate(84.37 -64.95) rotate(14.28)"/>
  <rect class="cls-3" x="333.29" y="293.2" width="3.57" height="49.61" rx=".89" ry=".89" transform="translate(170.76 -113.74) rotate(25.66)"/>
  <rect class="cls-3" x="359.47" y="318.11" width="3.57" height="49.61" rx=".89" ry=".89" transform="translate(321.16 -153.56) rotate(41.88)"/>
  <rect class="cls-2" x="228.26" y="431.76" width="88.81" height="8.07"/>
  <rect class="cls-2" x="222.21" y="447.91" width="100.92" height="8.07"/>
  <rect class="cls-2" x="218.17" y="464.05" width="108.99" height="8.07"/>
  <rect class="cls-2" x="214.14" y="480.2" width="117.07" height="8.07"/>
  <rect class="cls-2" x="210.1" y="496.35" width="125.14" height="8.07"/>
  <rect class="cls-2" x="272.71" y="466.12" width="72.38" height="4.23" transform="translate(777.13 159.33) rotate(90)"/>
  <rect class="cls-2" x="200.09" y="466.54" width="72.38" height="4.23" transform="translate(704.93 232.38) rotate(90)"/>
  <rect class="cls-2" x="248.45" y="377.26" width="50.46" height="54.5"/>
  <path class="cls-3" d="M321.11,389.37c-13.88-2.24-30.18-3.92-48.44-4.04-19.95-.13-37.65,1.65-52.48,4.04v-60.55c13.25,4.9,22.4,3.84,28.26,2.02,10-3.11,22.2-12.11,22.2-12.11,15.73,11.08,18.17,12.11,18.17,12.11,6.17,2.61,16.12,3.73,32.29-4.04v62.57Z"/>
  <rect class="cls-3" x="306.91" y="373.15" width="3.57" height="46.49" rx=".89" ry=".89" transform="translate(39.55 -27.85) rotate(5.52)"/>
  <rect class="cls-3" x="232.23" y="373.15" width="3.57" height="46.49" rx=".89" ry=".89" transform="translate(505.06 768.44) rotate(174.48)"/>
</svg>