<?xml version="1.0" encoding="UTF-8"?>
<svg id="Layer_1" data-name="Layer 1" xmlns="http://www.w3.org/2000/svg" viewBox="0 0 541 541">
  <defs>
    <style>
      .cls-1 {
        fill: #f5f2a3;
      }

      .cls-2 {
        fill: #fff;
      }

      .cls-3 {
        fill: #ffb1ce;
      }
    </style>
  </defs>
  <polygon class="cls-1" points="221.91 327.15 136.71 463.98 238.9 339.29 221.91 327.15"/>
  <path class="cls-3" d="M238.9,339.29s22.8,15.94,76.14,4.82c53.35-11.11,64.73-68.58,84.48-67.1,19.75,1.49,59.49-20.6,60.5-60.88,0,0,32.16-34.44-5.39-71.97-37.55-37.53-49.78-42.48-49.78-42.48,0,0-5.97-13.72-24.77-22.73-18.8-9.01-42.55-5.78-42.55-5.78,0,0-6.69-13.6-28.65-17.3-21.96-3.69-31.21-3.99-46.19,14.33,0,0-28.52,5.5-38.54,24.83-10.02,19.34-12.28,36.64-12.28,36.64,0,0-13,19.1-15.63,29.84-2.62,10.74-1.12,43.98-1.12,43.98,0,0-7.75,24.11-10.14,40.7-2.38,16.59,18.58,81.44,53.91,93.07Z"/>
  <path class="cls-2" d="M250.81,79.3s-30.03,13.66-32.69,54.8c0,0-24.02,23.26-16.89,71.46,0,0-13.55,38.38-4.7,55.09,0,0,35.88-39.18,33.96-62.81-1.92-23.63,6.49-49.28,19.31-58.92,12.82-9.64,52.91-51.25,42.47-63.65-10.44-12.4-18.49-8.75-22.18-4.95-3.7,3.79-19.28,8.99-19.28,8.99Z"/>
  <path class="cls-2" d="M385.31,103.57s-5.23,13.82-23.96,12.03c-18.73-1.79-37.47-13.41-37.47-13.41,0,0,16.42,19.55,39.27,26.39,22.85,6.84,22.16-25.01,22.16-25.01Z"/>
  <path class="cls-2" d="M413.66,112.7s9.02,21.27,1.58,25.33c0,0,30-.06-1.58-25.33Z"/>
</svg>