<?xml version="1.0" encoding="UTF-8"?>
<svg id="Layer_1" data-name="Layer 1" xmlns="http://www.w3.org/2000/svg" viewBox="0 0 541 541">
  <defs>
    <style>
      .cls-1 {
        stroke-width: .84px;
      }

      .cls-1, .cls-2 {
        stroke-linecap: round;
        stroke-linejoin: round;
      }

      .cls-1, .cls-2, .cls-3 {
        fill: none;
        stroke: #183884;
      }

      .cls-2 {
        stroke-width: 2.52px;
      }

      .cls-4 {
        fill: #fff;
      }

      .cls-5, .cls-6 {
        fill: #183884;
      }

      .cls-6 {
        font-family: ZebrawoodStd-Fill, 'Zebrawood Std';
        font-size: 45.49px;
      }

      .cls-3 {
        stroke-miterlimit: 10;
        stroke-width: 3.36px;
      }
    </style>
  </defs>
  <polygon class="cls-5" points="128.21 202.36 128.21 315.18 122.35 315.76 122.35 203.33 128.21 202.36"/>
  <rect class="cls-4" x="119.74" y="263.72" width="304.88" height="1.36"/>
  <polygon class="cls-5" points="126.73 167.91 259.7 74.83 262.86 83.55 171.01 159.39 126.73 167.91"/>
  <polygon class="cls-5" points="414.27 167.91 280.5 71.87 276.31 80.82 377.6 161.49 414.27 167.91"/>
  <path class="cls-4" d="M266.25,164.45l-159.53,22.74v216.33l77.33,82.22h169.98l80.24-82.22v-216.33l-168.02-22.74ZM212.67,310.88l-90.31,4.88v-112.43l90.31-8.14v115.68ZM320.82,298.75h-94.99v-109.95h94.99v109.95ZM422.75,315.76l-90.31-4.88v-117.28l90.31,7.86v114.31Z"/>
  <rect class="cls-2" x="227.24" y="309.27" width="94.99" height="163.62"/>
  <text class="cls-6" transform="translate(249.76 364.7)"><tspan x="0" y="0">53</tspan></text>
  <path class="cls-5" d="M97.87,179.33s61.1-20.68,175.43-20.3c114.34.39,192.14,17.56,192.14,17.56l-30.78,13.96s-70.92-15.15-160.71-14.38c-89.79.77-167.11,13.93-167.11,13.93l-8.97-10.78Z"/>
  <path class="cls-4" d="M75.56,176.59s64.73-29.02,186.01-29.02,203.87,29.02,203.87,29.02l-13.39,18.6s-94.49-25.3-189.73-23.81c-95.24,1.49-174.85,23.81-174.85,23.81l-11.9-18.6Z"/>
  <circle class="cls-4" cx="270.5" cy="73.39" r="18.14"/>
  <circle class="cls-3" cx="270.5" cy="73.39" r="14.79"/>
  <rect class="cls-1" x="224.42" y="312.49" width="94.99" height="163.62"/>
  <path class="cls-5" d="M125.71,328.06l-1.2,68.67s-.63-1.53-.63-1.53l69.22,71.68-.3-.12s20.27.42,20.27.42c0,0-20.27.42-20.27.42-.3.26-71.75-69.33-71.98-69.34-.41-.4-.62-.92-.63-1.45-.04-.1-1.17-68.65-1.2-68.75.06-4.47,6.63-4.57,6.72,0h0Z"/>
  <path class="cls-5" d="M426.12,328.06s-1.24,68.7-1.23,68.74c0,.56-.25,1.07-.62,1.43-.35.13-71.55,69.35-71.96,69.29,0,0-19.87-.35-19.87-.35,0,0,19.87-.35,19.87-.35,0,0-.25.1-.25.1l69.19-71.71s-.63,1.51-.62,1.51c0,0-1.23-68.67-1.23-68.67.03-4.46,6.65-4.58,6.72,0h0Z"/>
</svg>