<?xml version="1.0" encoding="UTF-8"?>
<svg id="Layer_1" data-name="Layer 1" xmlns="http://www.w3.org/2000/svg" viewBox="0 0 541 541">
  <defs>
    <style>
      .cls-1, .cls-2 {
        fill: #d7191b;
      }

      .cls-2 {
        font-family: ZebrawoodStd-Fill, 'Zebrawood Std';
        font-size: 44.92px;
      }

      .cls-3 {
        stroke-miterlimit: 10;
        stroke-width: 1.15px;
      }

      .cls-3, .cls-4, .cls-5 {
        fill: none;
        stroke: #d7191b;
      }

      .cls-4 {
        stroke-width: .86px;
      }

      .cls-4, .cls-5 {
        stroke-linecap: round;
        stroke-linejoin: round;
      }

      .cls-5 {
        stroke-width: .29px;
      }

      .cls-6 {
        fill: #ffb1ce;
      }
    </style>
  </defs>
  <polygon class="cls-1" points="129.99 203.21 129.99 314.62 124.21 315.19 124.21 204.17 129.99 203.21"/>
  <rect class="cls-6" x="121.63" y="263.8" width="301.06" height="1.35"/>
  <polygon class="cls-1" points="128.53 169.19 259.83 77.28 262.95 85.89 172.25 160.78 128.53 169.19"/>
  <polygon class="cls-1" points="412.47 169.19 280.38 74.36 276.23 83.19 376.26 162.86 412.47 169.19"/>
  <path class="cls-6" d="M266.31,165.78l-157.53,22.46v213.62l76.36,81.19h167.85l79.23-81.19v-213.62l-165.92-22.46ZM213.39,310.37l-89.18,4.82v-111.02l89.18-8.04v114.24ZM320.19,298.39h-93.8v-108.58h93.8v108.58ZM420.85,315.19l-89.18-4.82v-115.81l89.18,7.76v112.87Z"/>
  <rect class="cls-4" x="227.78" y="308.79" width="93.8" height="161.57"/>
  <text class="cls-2" transform="translate(250.03 363.53)"><tspan x="0" y="0">53</tspan></text>
  <path class="cls-1" d="M100.03,180.47s60.33-20.43,173.24-20.04c112.9.38,189.73,17.34,189.73,17.34l-30.4,13.78s-70.04-14.96-158.7-14.2c-88.66.76-165.01,13.76-165.01,13.76l-8.86-10.64Z"/>
  <path class="cls-6" d="M78,177.77s63.92-28.65,183.68-28.65,201.32,28.65,201.32,28.65l-13.23,18.37s-93.31-24.98-187.36-23.51-172.66,23.51-172.66,23.51l-11.76-18.37Z"/>
  <circle class="cls-6" cx="270.5" cy="75.86" r="17.91"/>
  <circle class="cls-3" cx="270.5" cy="75.86" r="14.61"/>
  <rect class="cls-5" x="224.99" y="311.96" width="93.8" height="161.57"/>
  <path class="cls-1" d="M125.35,327.34l-.41,67.81c-1.55-2.38,69.23,70.02,68.93,69.46-.46,0,19.97.05,19.91.1,0,0-20.01.14-20.01.14-.44-.63-70.34-68.87-70.3-69.71,0,0-.41-67.81-.41-67.81.03-1.44,2.24-1.6,2.3,0h0Z"/>
  <path class="cls-1" d="M422,327.34s-.42,67.81-.42,67.82c.2.69-70.04,69.22-70.29,69.68,0,0-19.62-.12-19.62-.12,0,0,19.62-.12,19.62-.12-.51.58,70.3-71.67,68.84-69.44,0,0-.42-67.81-.42-67.81,0-.63.51-1.15,1.14-1.16.64,0,1.16.52,1.16,1.16h0Z"/>
</svg>