<svg width="852" height="481" viewBox="0 0 852 481" fill="none" xmlns="http://www.w3.org/2000/svg">
<g clip-path="url(#clip0_19_18)">
<path d="M774.971 429.272C774.971 429.272 49.3385 430.405 49.3592 430.468C49.431 430.482 49.4836 430.465 49.4836 430.465C50.9749 430.009 50.4406 408.27 38.3705 398.937C38.3705 398.937 40.8101 398.269 10.172 394.865C15.5468 386.072 7.01354 377.993 5.69295 374.075C4.72119 371.156 2.84186 368.617 3.97596 365.449C5.32904 361.631 9.20462 361.942 10.4065 358.316C10.7509 357.302 10.8433 356.609 7.04296 346.8C12.1407 340.089 11.8399 338.209 11.8399 338.209C11.4662 335.905 9.37401 335.683 6.90936 332.418C4.80578 329.648 4.26036 327.097 3.57257 323.779C1.81099 315.342 3.92355 307.185 5.00606 303.672C5.00606 303.672 7.99994 301.47 8.2237 299.39C8.564 295.986 1.64255 292.156 1.64255 292.156L6.34639 273.504C9.52347 266.047 9.57198 265.559 9.52359 264.9C9.17002 260.348 3.71502 260.511 1.29593 254.777C-0.423022 250.71 1.51036 237.541 1.17605 241.84C9.22692 233.965 9.20369 230.397 9.20369 230.397C9.15025 224.644 0.963028 218.844 0.963028 218.844C0.963028 218.844 2.51813 211.327 2.44996 204.489C2.44996 204.489 2.35449 195.53 -0.97999 185.791C2.86934 176.716 2.15345 174.326 2.15345 174.326C1.37184 171.669 -1.15735 168.547 -1.15735 168.547C-1.15735 168.547 1.20879 163.938 2.03358 161.389C2.87322 158.777 2.50863 157.055 -1.39637 142.69C-2.96003 136.985 -3.23776 135.985 -3.11336 134.064C-2.81534 129.75 -0.896588 128.152 0.0508454 124.029C0.640896 121.406 0.89041 117.581 -0.872997 112.556C0.993186 112.893 25.7959 117.082 42.9493 101.372C53.7028 91.5375 55.7301 72.7225 55.6767 72.7236C55.9753 72.6386 56.0805 72.6049 56.0805 72.6049L55.6767 72.7236C55.4327 73.2162 765.629 72.7085 779.361 72.6049C779.396 72.6042 784.742 78.0224 784.795 78.0213C788.899 78.2641 786.504 99.9012 794.766 111.139C799.363 117.409 810.168 124.395 838.833 124.398C836.437 129.905 836.249 134.28 836.512 137.277C836.512 137.277 836.759 139.913 839.89 150.238C839.89 150.238 832.063 154.508 831.835 158.805C831.621 163.008 838.856 163.624 840.063 168.928C841.311 174.357 834.304 176.346 835.319 183.257C835.863 186.94 838.655 191.896 838.655 191.896C838.655 191.896 834.974 196.927 833.871 201.918C832.343 208.853 835.642 216.298 835.642 216.298C835.642 216.298 832.126 220.287 830.831 223.444C827.778 230.898 834.248 240.712 834.248 240.712C827.853 250.14 827.858 252.168 827.858 252.168C827.856 258.645 836.112 265.167 836.112 265.167C836.112 265.167 832.312 271.081 831.341 276.62C831.341 276.62 830.808 279.697 834.758 293.888C834.758 293.888 830.869 298.656 829.961 302.48C828.398 309.054 836.332 312.454 835.002 318.315C833.937 322.96 829.225 322.651 828.585 326.894C827.642 333.03 837.218 335.766 836.884 342.754C836.647 347.633 831.923 348.205 832.099 352.776C832.334 358.604 840.066 359.178 841.991 365.788C844.384 374.022 835.668 384.427 835.668 384.427C835.668 384.427 803.622 381.367 789.368 391.308C781.922 396.497 774.708 393.335 779.361 421.127L774.971 429.272Z" fill="#D72027"/>
<path d="M700.433 106.691H130.567C87.7281 106.691 53 140.759 53 182.783V326.668C53 368.692 87.7281 402.76 130.567 402.76H700.433C743.272 402.76 778 368.692 778 326.668V182.783C778 140.759 743.272 106.691 700.433 106.691Z" stroke="#F7F29A" stroke-width="8" stroke-miterlimit="10"/>
<path d="M119 369.781C119 369.991 118.895 370.096 118.685 370.096L116.725 370.096C115.325 370.096 114.123 369.933 113.12 369.606C112.117 369.279 111.242 368.859 110.495 368.346C109.725 367.833 109.025 367.284 108.395 366.701C107.765 366.118 107.135 365.569 106.505 365.056C105.852 364.543 105.152 364.123 104.405 363.796C103.635 363.469 102.737 363.306 101.71 363.306L101.045 363.306C99.9483 363.306 99.1783 363.481 98.735 363.831C98.2917 364.158 98.07 364.718 98.07 365.511C98.07 366.351 98.385 366.934 99.015 367.261C99.645 367.588 100.543 367.739 101.71 367.716C101.92 367.716 102.025 367.821 102.025 368.031L102.025 369.606C102.025 369.816 101.92 369.921 101.71 369.921C99.7733 369.944 98.315 369.594 97.335 368.871C96.355 368.124 95.865 366.993 95.865 365.476C95.865 364.006 96.2967 362.898 97.16 362.151C98.0233 361.381 99.3767 360.996 101.22 360.996C102.62 360.996 103.798 361.159 104.755 361.486C105.712 361.813 106.54 362.233 107.24 362.746C107.917 363.236 108.558 363.773 109.165 364.356C109.772 364.939 110.413 365.488 111.09 366.001C111.743 366.491 112.525 366.899 113.435 367.226C114.345 367.553 115.453 367.716 116.76 367.716L116.76 361.346C116.76 361.159 116.865 361.066 117.075 361.066L118.685 361.066C118.895 361.066 119 361.159 119 361.346L119 369.781ZM119.21 339.434C119.21 341.068 118.673 342.304 117.6 343.144C116.503 343.984 114.928 344.404 112.875 344.404L102.2 344.404C100.123 344.404 98.5483 343.984 97.475 343.144C96.4017 342.304 95.865 341.068 95.865 339.434C95.865 337.824 96.4017 336.599 97.475 335.759C98.5483 334.919 100.123 334.499 102.2 334.499L112.875 334.499C114.928 334.499 116.503 334.919 117.6 335.759C118.673 336.599 119.21 337.824 119.21 339.434ZM117.005 339.434C117.005 338.524 116.667 337.859 115.99 337.439C115.29 337.019 114.228 336.809 112.805 336.809L102.305 336.809C100.858 336.809 99.7967 337.019 99.12 337.439C98.42 337.859 98.07 338.524 98.07 339.434C98.07 340.344 98.42 341.021 99.12 341.464C99.7967 341.884 100.858 342.094 102.305 342.094L112.805 342.094C114.228 342.094 115.29 341.884 115.99 341.464C116.667 341.021 117.005 340.344 117.005 339.434ZM119 317.548C119 317.758 118.895 317.863 118.685 317.863L116.725 317.863C115.325 317.863 114.123 317.699 113.12 317.373C112.117 317.046 111.242 316.626 110.495 316.113C109.725 315.599 109.025 315.051 108.395 314.468C107.765 313.884 107.135 313.336 106.505 312.823C105.852 312.309 105.152 311.889 104.405 311.563C103.635 311.236 102.737 311.073 101.71 311.073L101.045 311.073C99.9483 311.073 99.1783 311.248 98.735 311.598C98.2917 311.924 98.07 312.484 98.07 313.278C98.07 314.118 98.385 314.701 99.015 315.028C99.645 315.354 100.543 315.506 101.71 315.483C101.92 315.483 102.025 315.588 102.025 315.798L102.025 317.373C102.025 317.583 101.92 317.688 101.71 317.688C99.7733 317.711 98.315 317.361 97.335 316.638C96.355 315.891 95.865 314.759 95.865 313.243C95.865 311.773 96.2967 310.664 97.16 309.918C98.0233 309.148 99.3767 308.763 101.22 308.763C102.62 308.763 103.798 308.926 104.755 309.253C105.712 309.579 106.54 309.999 107.24 310.513C107.917 311.003 108.558 311.539 109.165 312.123C109.772 312.706 110.413 313.254 111.09 313.768C111.743 314.258 112.525 314.666 113.435 314.993C114.345 315.319 115.453 315.483 116.76 315.483L116.76 309.113C116.76 308.926 116.865 308.833 117.075 308.833L118.685 308.833C118.895 308.833 119 308.926 119 309.113L119 317.548ZM119.21 288.181C119.21 289.207 118.988 290.059 118.545 290.736C118.078 291.412 117.413 291.902 116.55 292.206C115.663 292.509 114.59 292.649 113.33 292.626C113.213 292.626 113.132 292.602 113.085 292.556C113.038 292.486 113.015 292.404 113.015 292.311L113.015 290.736C113.015 290.549 113.12 290.456 113.33 290.456C114.45 290.479 115.348 290.327 116.025 290.001C116.678 289.674 117.005 289.044 117.005 288.111C117.005 287.201 116.643 286.536 115.92 286.116C115.173 285.696 114.053 285.486 112.56 285.486L110.915 285.486C109.935 285.486 109.142 285.579 108.535 285.766C107.905 285.929 107.438 286.209 107.135 286.606C106.832 286.979 106.68 287.481 106.68 288.111C106.68 288.671 106.797 289.266 107.03 289.896C107.263 290.526 107.567 291.144 107.94 291.751C108.033 291.867 108.057 291.972 108.01 292.066C107.94 292.159 107.847 292.206 107.73 292.206L96.39 291.471C96.18 291.471 96.075 291.366 96.075 291.156L96.075 284.366C96.075 284.156 96.18 284.051 96.39 284.051L98 284.051C98.21 284.051 98.315 284.156 98.315 284.366L98.315 289.441L105.14 289.896C104.953 289.429 104.813 288.997 104.72 288.601C104.627 288.204 104.58 287.784 104.58 287.341C104.58 285.964 105.163 284.926 106.33 284.226C107.473 283.526 109.305 283.176 111.825 283.176C114.205 283.176 116.037 283.596 117.32 284.436C118.58 285.276 119.21 286.524 119.21 288.181ZM119.21 261.887C119.21 263.521 118.673 264.757 117.6 265.597C116.503 266.437 114.928 266.857 112.875 266.857L102.2 266.857C100.123 266.857 98.5483 266.437 97.475 265.597C96.4017 264.757 95.865 263.521 95.865 261.887C95.865 260.277 96.4017 259.052 97.475 258.212C98.5483 257.372 100.123 256.952 102.2 256.952L112.875 256.952C114.928 256.952 116.503 257.372 117.6 258.212C118.673 259.052 119.21 260.277 119.21 261.887ZM117.005 261.887C117.005 260.977 116.667 260.312 115.99 259.892C115.29 259.472 114.228 259.262 112.805 259.262L102.305 259.262C100.858 259.262 99.7967 259.472 99.12 259.892C98.42 260.312 98.07 260.977 98.07 261.887C98.07 262.797 98.42 263.474 99.12 263.917C99.7967 264.337 100.858 264.547 102.305 264.547L112.805 264.547C114.228 264.547 115.29 264.337 115.99 263.917C116.667 263.474 117.005 262.797 117.005 261.887ZM119.21 236.221C119.21 237.248 118.988 238.099 118.545 238.776C118.078 239.453 117.413 239.943 116.55 240.246C115.663 240.549 114.59 240.689 113.33 240.666C113.213 240.666 113.132 240.643 113.085 240.596C113.038 240.526 113.015 240.444 113.015 240.351L113.015 238.776C113.015 238.589 113.12 238.496 113.33 238.496C114.45 238.519 115.348 238.368 116.025 238.041C116.678 237.714 117.005 237.084 117.005 236.151C117.005 235.241 116.643 234.576 115.92 234.156C115.173 233.736 114.053 233.526 112.56 233.526L110.915 233.526C109.935 233.526 109.142 233.619 108.535 233.806C107.905 233.969 107.438 234.249 107.135 234.646C106.832 235.019 106.68 235.521 106.68 236.151C106.68 236.711 106.797 237.306 107.03 237.936C107.263 238.566 107.567 239.184 107.94 239.791C108.033 239.908 108.057 240.013 108.01 240.106C107.94 240.199 107.847 240.246 107.73 240.246L96.39 239.511C96.18 239.511 96.075 239.406 96.075 239.196L96.075 232.406C96.075 232.196 96.18 232.091 96.39 232.091L98 232.091C98.21 232.091 98.315 232.196 98.315 232.406L98.315 237.481L105.14 237.936C104.953 237.469 104.813 237.038 104.72 236.641C104.627 236.244 104.58 235.824 104.58 235.381C104.58 234.004 105.163 232.966 106.33 232.266C107.473 231.566 109.305 231.216 111.825 231.216C114.205 231.216 116.037 231.636 117.32 232.476C118.58 233.316 119.21 234.564 119.21 236.221ZM119 215.177C119 215.387 118.895 215.492 118.685 215.492L117.075 215.492C116.865 215.492 116.76 215.387 116.76 215.177L116.76 212.062L98.84 212.027L100.065 215.107C100.088 215.177 100.088 215.247 100.065 215.317C100.018 215.364 99.9483 215.387 99.855 215.387L98.21 215.387C98.07 215.387 97.965 215.317 97.895 215.177L96.04 210.662C95.97 210.546 95.935 210.429 95.935 210.312L95.935 210.067C95.935 209.857 96.04 209.752 96.25 209.752L116.76 209.752L116.76 206.917C116.76 206.707 116.865 206.602 117.075 206.602L118.685 206.602C118.895 206.602 119 206.707 119 206.917L119 215.177ZM119 189.375C119 189.469 118.965 189.527 118.895 189.55C118.825 189.574 118.732 189.574 118.615 189.55L98.315 184.16L98.315 189.27L101.29 189.27C101.5 189.27 101.605 189.375 101.605 189.585L101.605 191.23C101.605 191.44 101.5 191.545 101.29 191.545L96.39 191.545C96.18 191.545 96.075 191.44 96.075 191.23L96.075 181.64C96.075 181.454 96.18 181.36 96.39 181.36L96.565 181.36C96.7517 181.36 96.8917 181.372 96.985 181.395L118.79 187.205C118.93 187.275 119 187.38 119 187.52L119 189.375ZM119.21 161.784C119.21 162.811 118.988 163.663 118.545 164.339C118.078 165.016 117.413 165.506 116.55 165.809C115.663 166.113 114.59 166.253 113.33 166.229C113.213 166.229 113.132 166.206 113.085 166.159C113.038 166.089 113.015 166.008 113.015 165.914L113.015 164.339C113.015 164.153 113.12 164.059 113.33 164.059C114.45 164.083 115.348 163.931 116.025 163.604C116.678 163.278 117.005 162.648 117.005 161.714C117.005 160.804 116.643 160.139 115.92 159.719C115.173 159.299 114.053 159.089 112.56 159.089L110.915 159.089C109.935 159.089 109.142 159.183 108.535 159.369C107.905 159.533 107.438 159.813 107.135 160.209C106.832 160.583 106.68 161.084 106.68 161.714C106.68 162.274 106.797 162.869 107.03 163.499C107.263 164.129 107.567 164.748 107.94 165.354C108.033 165.471 108.057 165.576 108.01 165.669C107.94 165.763 107.847 165.809 107.73 165.809L96.39 165.074C96.18 165.074 96.075 164.969 96.075 164.759L96.075 157.969C96.075 157.759 96.18 157.654 96.39 157.654L98 157.654C98.21 157.654 98.315 157.759 98.315 157.969L98.315 163.044L105.14 163.499C104.953 163.033 104.813 162.601 104.72 162.204C104.627 161.808 104.58 161.388 104.58 160.944C104.58 159.568 105.163 158.529 106.33 157.829C107.473 157.129 109.305 156.779 111.825 156.779C114.205 156.779 116.037 157.199 117.32 158.039C118.58 158.879 119.21 160.128 119.21 161.784ZM119.21 136.226C119.21 137.836 118.685 138.979 117.635 139.656C116.562 140.333 115.127 140.671 113.33 140.671C113.12 140.671 113.015 140.566 113.015 140.356L113.015 138.781C113.015 138.571 113.12 138.466 113.33 138.466C114.543 138.466 115.465 138.291 116.095 137.941C116.702 137.591 117.005 136.973 117.005 136.086C117.005 135.246 116.702 134.616 116.095 134.196C115.465 133.753 114.508 133.531 113.225 133.531L112.14 133.531C110.903 133.531 109.958 133.741 109.305 134.161C108.628 134.581 108.29 135.374 108.29 136.541L108.29 137.661C108.29 137.871 108.197 137.976 108.01 137.976L106.47 137.976C106.26 137.976 106.155 137.871 106.155 137.661L106.155 136.506C106.155 135.666 105.817 135.013 105.14 134.546C104.44 134.056 103.448 133.811 102.165 133.811L101.15 133.811C100.007 133.811 99.2133 134.009 98.77 134.406C98.3033 134.779 98.07 135.339 98.07 136.086C98.07 136.949 98.3733 137.568 98.98 137.941C99.5867 138.291 100.497 138.454 101.71 138.431C101.92 138.431 102.025 138.536 102.025 138.746L102.025 140.321C102.025 140.531 101.92 140.636 101.71 140.636C99.7733 140.636 98.315 140.251 97.335 139.481C96.355 138.711 95.865 137.544 95.865 135.981C95.865 134.511 96.3083 133.403 97.195 132.656C98.0817 131.909 99.505 131.536 101.465 131.536C103.005 131.536 104.23 131.758 105.14 132.201C106.027 132.621 106.657 133.169 107.03 133.846L107.1 133.846C107.473 133.029 108.092 132.388 108.955 131.921C109.818 131.454 111.078 131.221 112.735 131.221C114.905 131.221 116.527 131.664 117.6 132.551C118.673 133.414 119.21 134.639 119.21 136.226Z" fill="#F7F29A"/>
<path d="M245.175 256C244.695 256 244.455 255.64 244.455 254.92V178.48C244.455 177.76 244.735 177.4 245.295 177.4H272.415C272.975 177.4 273.255 177.76 273.255 178.48V183.88C273.255 184.6 272.975 184.96 272.415 184.96H252.255V213.52H269.775C270.415 213.52 270.735 213.88 270.735 214.6V219.64C270.735 220.36 270.415 220.72 269.775 220.72H252.255V254.92C252.255 255.64 252.015 256 251.535 256H245.175ZM282.887 256C282.407 256 282.167 255.64 282.167 254.92L283.127 178.48C283.127 177.76 283.447 177.4 284.087 177.4H293.447C294.087 177.4 294.447 177.68 294.527 178.24L305.927 225.16L317.447 178.24C317.527 177.68 317.887 177.4 318.527 177.4H327.887C328.447 177.4 328.727 177.76 328.727 178.48L329.807 254.92C329.807 255.64 329.527 256 328.967 256H322.967C322.327 256 322.007 255.64 322.007 254.92L321.527 204.52C321.527 202.2 321.527 199.64 321.527 196.84C321.527 194.04 321.567 191.36 321.647 188.8H321.527C321.047 191.28 320.487 193.76 319.847 196.24C319.207 198.72 318.567 201.16 317.927 203.56L307.247 244.12C307.167 244.68 306.807 244.96 306.167 244.96H305.687C305.127 244.96 304.807 244.68 304.727 244.12L293.807 203.44C293.167 201.04 292.567 198.64 292.007 196.24C291.447 193.76 290.927 191.28 290.447 188.8H290.207C290.367 191.36 290.447 194.04 290.447 196.84C290.447 199.56 290.447 202.08 290.447 204.4L289.847 254.92C289.847 255.64 289.567 256 289.007 256H282.887ZM359.009 256.72C353.009 256.72 348.369 254.88 345.089 251.2C341.889 247.52 340.289 241.96 340.289 234.52V199.12C340.289 191.52 341.889 185.88 345.089 182.2C348.369 178.52 353.009 176.68 359.009 176.68C365.009 176.68 369.649 178.52 372.929 182.2C376.209 185.88 377.849 191.52 377.849 199.12V234.52C377.849 241.96 376.209 247.52 372.929 251.2C369.649 254.88 365.009 256.72 359.009 256.72ZM359.009 249.16C362.609 249.16 365.329 247.96 367.169 245.56C369.089 243.08 370.049 239.2 370.049 233.92V199.6C370.049 194.24 369.089 190.36 367.169 187.96C365.329 185.48 362.609 184.24 359.009 184.24C355.489 184.24 352.769 185.48 350.849 187.96C349.009 190.36 348.089 194.24 348.089 199.6V233.92C348.089 239.2 349.009 243.08 350.849 245.56C352.769 247.96 355.489 249.16 359.009 249.16ZM418.099 256.72C413.779 256.72 410.339 255.76 407.779 253.84C405.219 251.92 403.459 249.32 402.499 246.04C401.539 242.68 401.219 238.88 401.539 234.64C401.619 233.84 401.899 233.44 402.379 233.44H408.379C409.019 233.44 409.299 233.84 409.219 234.64C408.659 239.52 409.179 243.16 410.779 245.56C412.459 247.96 415.019 249.16 418.459 249.16C421.579 249.16 423.899 248.24 425.419 246.4C427.019 244.48 427.819 241.52 427.819 237.52C427.819 234 427.339 231.12 426.379 228.88C425.419 226.56 423.739 224.52 421.339 222.76L411.619 215.08C408.339 212.52 405.899 209.64 404.299 206.44C402.779 203.16 402.019 199.24 402.019 194.68C402.099 189 403.539 184.6 406.339 181.48C409.219 178.28 413.179 176.68 418.219 176.68C424.139 176.68 428.459 178.6 431.179 182.44C433.979 186.28 435.059 191.52 434.419 198.16C434.419 199.04 434.139 199.48 433.579 199.48H427.459C426.899 199.48 426.659 199.04 426.739 198.16C427.219 193.68 426.699 190.24 425.179 187.84C423.659 185.44 421.379 184.24 418.339 184.24C415.779 184.24 413.739 185.08 412.219 186.76C410.699 188.44 409.899 191 409.819 194.44C409.819 197.64 410.379 200.36 411.499 202.6C412.619 204.84 414.339 206.88 416.659 208.72L426.019 216.04C428.339 217.8 430.179 219.68 431.539 221.68C432.979 223.6 434.019 225.84 434.659 228.4C435.299 230.88 435.619 233.8 435.619 237.16C435.619 243.24 434.179 248.04 431.299 251.56C428.499 255 424.099 256.72 418.099 256.72ZM454.694 256C454.134 256 453.854 255.64 453.854 254.92V184.96H441.254C440.614 184.96 440.294 184.6 440.294 183.88V178.48C440.294 177.76 440.614 177.4 441.254 177.4H474.254C474.814 177.4 475.094 177.76 475.094 178.48V183.88C475.094 184.6 474.814 184.96 474.254 184.96H461.654V254.92C461.654 255.64 461.334 256 460.694 256H454.694ZM473.656 256C473.096 256 472.856 255.6 472.936 254.8L488.536 178.24C488.616 177.68 488.976 177.4 489.616 177.4H498.016C498.656 177.4 499.016 177.68 499.096 178.24L514.816 254.8C514.896 255.6 514.656 256 514.096 256H507.496C507.016 256 506.696 255.76 506.536 255.28L496.816 203.32C496.256 200.52 495.696 197.76 495.136 195.04C494.656 192.24 494.216 189.44 493.816 186.64H493.576C493.176 189.44 492.736 192.24 492.256 195.04C491.856 197.76 491.376 200.56 490.816 203.44L481.096 255.28C481.016 255.76 480.736 256 480.256 256H473.656ZM483.256 236.68L484.696 229.12H502.696L504.376 236.68H483.256ZM536.034 256.72C530.274 256.72 526.034 254.84 523.314 251.08C520.594 247.24 519.234 241.48 519.234 233.8V200.08C519.234 192.48 520.834 186.68 524.034 182.68C527.234 178.68 531.834 176.68 537.834 176.68C544.154 176.68 548.914 178.88 552.114 183.28C555.314 187.68 556.594 193.76 555.954 201.52C555.954 202.16 555.674 202.48 555.114 202.48H548.874C548.234 202.48 547.994 202.16 548.154 201.52C548.714 196.08 548.074 191.84 546.234 188.8C544.394 185.76 541.674 184.24 538.074 184.24C534.394 184.24 531.634 185.56 529.794 188.2C527.954 190.84 527.034 194.92 527.034 200.44V233.2C527.034 238.88 527.834 242.96 529.434 245.44C531.034 247.92 533.714 249.16 537.474 249.16C541.234 249.16 544.074 247.64 545.994 244.6C547.914 241.56 548.874 236.88 548.874 230.56V223.84H538.914C538.354 223.84 538.074 223.48 538.074 222.76V217.48C538.074 216.76 538.354 216.4 538.914 216.4H555.594C556.154 216.4 556.434 216.76 556.434 217.48V240.64C556.434 244.16 556.474 246.96 556.554 249.04C556.634 251.04 556.794 252.96 557.034 254.8C557.114 255.6 556.874 256 556.314 256H551.394C550.754 256 550.434 255.72 550.434 255.16C550.274 254.12 550.154 252.92 550.074 251.56C549.994 250.2 549.914 248.48 549.834 246.4H549.714C548.674 249.6 546.994 252.12 544.674 253.96C542.434 255.8 539.554 256.72 536.034 256.72ZM570.024 256C569.384 256 569.064 255.64 569.064 254.92V178.48C569.064 177.76 569.344 177.4 569.904 177.4H597.024C597.584 177.4 597.864 177.76 597.864 178.48V183.88C597.864 184.6 597.584 184.96 597.024 184.96H576.864V212.32H595.344C595.904 212.32 596.184 212.68 596.184 213.4V218.44C596.184 219.16 595.904 219.52 595.344 219.52H576.864V248.44H597.024C597.584 248.44 597.864 248.8 597.864 249.52V254.92C597.864 255.64 597.584 256 597.024 256H570.024Z" fill="#F7F29A"/>
<path d="M654 284H188" stroke="#F7F29A" stroke-width="5" stroke-miterlimit="10"/>
<path d="M658 148L192 148" stroke="#F7F29A" stroke-width="5" stroke-miterlimit="10"/>
<path d="M155 105.802L155 406.316" stroke="#F7F29A" stroke-width="5" stroke-miterlimit="10"/>
<path d="M675 106.691L675 407.205" stroke="#F7F29A" stroke-width="5" stroke-miterlimit="10"/>
<path d="M319.79 374C319.25 374 318.98 373.73 318.98 373.19V369.05C318.98 368.51 319.25 368.24 319.79 368.24H327.8L327.89 322.16L319.97 325.31C319.79 325.37 319.61 325.37 319.43 325.31C319.31 325.19 319.25 325.01 319.25 324.77V320.54C319.25 320.18 319.43 319.91 319.79 319.73L331.4 314.96C331.7 314.78 332 314.69 332.3 314.69H332.93C333.47 314.69 333.74 314.96 333.74 315.5V368.24H341.03C341.57 368.24 341.84 368.51 341.84 369.05V373.19C341.84 373.73 341.57 374 341.03 374H319.79ZM347.681 374C347.141 374 346.871 373.73 346.871 373.19V368.15C346.871 364.55 347.291 361.46 348.131 358.88C348.971 356.3 350.051 354.05 351.371 352.13C352.691 350.15 354.101 348.35 355.601 346.73C357.101 345.11 358.511 343.49 359.831 341.87C361.151 340.19 362.231 338.39 363.071 336.47C363.911 334.49 364.331 332.18 364.331 329.54V327.83C364.331 325.01 363.881 323.03 362.981 321.89C362.141 320.75 360.701 320.18 358.661 320.18C356.501 320.18 355.001 320.99 354.161 322.61C353.321 324.23 352.931 326.54 352.991 329.54C352.991 330.08 352.721 330.35 352.181 330.35H348.131C347.591 330.35 347.321 330.08 347.321 329.54C347.261 324.56 348.161 320.81 350.021 318.29C351.941 315.77 354.851 314.51 358.751 314.51C362.531 314.51 365.381 315.62 367.301 317.84C369.281 320.06 370.271 323.54 370.271 328.28C370.271 331.88 369.851 334.91 369.011 337.37C368.171 339.83 367.091 341.96 365.771 343.76C364.511 345.5 363.131 347.15 361.631 348.71C360.131 350.27 358.721 351.92 357.401 353.66C356.141 355.34 355.091 357.35 354.251 359.69C353.411 362.03 352.991 364.88 352.991 368.24H369.371C369.851 368.24 370.091 368.51 370.091 369.05V373.19C370.091 373.73 369.851 374 369.371 374H347.681ZM380.716 340.97C379.456 340.97 378.466 340.64 377.746 339.98C377.086 339.32 376.756 338.33 376.756 337.01V336.29C376.756 335.03 377.086 334.07 377.746 333.41C378.466 332.69 379.456 332.33 380.716 332.33C382.036 332.33 383.026 332.69 383.686 333.41C384.346 334.07 384.676 335.03 384.676 336.29V337.01C384.676 338.33 384.346 339.32 383.686 339.98C383.026 340.64 382.036 340.97 380.716 340.97ZM380.716 374.54C379.456 374.54 378.466 374.21 377.746 373.55C377.086 372.89 376.756 371.9 376.756 370.58V369.86C376.756 368.54 377.086 367.55 377.746 366.89C378.466 366.23 379.456 365.9 380.716 365.9C382.036 365.9 383.026 366.23 383.686 366.89C384.346 367.55 384.676 368.54 384.676 369.86V370.58C384.676 371.9 384.346 372.89 383.686 373.55C383.026 374.21 382.036 374.54 380.716 374.54ZM390.806 374C390.266 374 389.996 373.73 389.996 373.19V369.05C389.996 368.51 390.266 368.24 390.806 368.24H398.816L398.906 322.16L390.986 325.31C390.806 325.37 390.626 325.37 390.446 325.31C390.326 325.19 390.266 325.01 390.266 324.77V320.54C390.266 320.18 390.446 319.91 390.806 319.73L402.416 314.96C402.716 314.78 403.016 314.69 403.316 314.69H403.946C404.486 314.69 404.756 314.96 404.756 315.5V368.24H412.046C412.586 368.24 412.856 368.51 412.856 369.05V373.19C412.856 373.73 412.586 374 412.046 374H390.806ZM427.362 374.54C424.722 374.54 422.532 373.97 420.792 372.83C419.052 371.63 417.792 369.92 417.012 367.7C416.232 365.42 415.872 362.66 415.932 359.42C415.932 359.12 415.992 358.91 416.112 358.79C416.292 358.67 416.502 358.61 416.742 358.61H420.792C421.272 358.61 421.512 358.88 421.512 359.42C421.452 362.3 421.842 364.61 422.682 366.35C423.522 368.03 425.142 368.87 427.542 368.87C429.882 368.87 431.592 367.94 432.672 366.08C433.752 364.16 434.292 361.28 434.292 357.44V353.21C434.292 350.69 434.052 348.65 433.572 347.09C433.152 345.47 432.432 344.27 431.412 343.49C430.452 342.71 429.162 342.32 427.542 342.32C426.102 342.32 424.572 342.62 422.952 343.22C421.332 343.82 419.742 344.6 418.182 345.56C417.882 345.8 417.612 345.86 417.372 345.74C417.132 345.56 417.012 345.32 417.012 345.02L418.902 315.86C418.902 315.32 419.172 315.05 419.712 315.05H437.172C437.712 315.05 437.982 315.32 437.982 315.86V320C437.982 320.54 437.712 320.81 437.172 320.81H424.122L422.952 338.36C424.152 337.88 425.262 337.52 426.282 337.28C427.302 337.04 428.382 336.92 429.522 336.92C433.062 336.92 435.732 338.42 437.532 341.42C439.332 344.36 440.232 349.07 440.232 355.55C440.232 361.67 439.152 366.38 436.992 369.68C434.832 372.92 431.622 374.54 427.362 374.54ZM459.244 374C458.824 374 458.614 373.73 458.614 373.19V315.86C458.614 315.32 458.824 315.05 459.244 315.05H467.884C472.984 315.05 476.704 316.52 479.044 319.46C481.444 322.34 482.644 326.9 482.644 333.14C482.644 338.96 481.444 343.43 479.044 346.55C476.644 349.61 473.104 351.14 468.424 351.14H464.464V373.19C464.464 373.73 464.254 374 463.834 374H459.244ZM464.464 345.56H467.884C471.004 345.56 473.254 344.57 474.634 342.59C476.074 340.61 476.794 337.52 476.794 333.32C476.794 328.76 476.074 325.52 474.634 323.6C473.254 321.62 471.124 320.63 468.244 320.63H464.464V345.56ZM489.283 374C488.923 374 488.743 373.73 488.743 373.19L489.463 315.86C489.463 315.32 489.703 315.05 490.183 315.05H497.203C497.683 315.05 497.953 315.26 498.013 315.68L506.563 350.87L515.203 315.68C515.263 315.26 515.533 315.05 516.013 315.05H523.033C523.453 315.05 523.663 315.32 523.663 315.86L524.473 373.19C524.473 373.73 524.263 374 523.843 374H519.343C518.863 374 518.623 373.73 518.623 373.19L518.263 335.39C518.263 333.65 518.263 331.73 518.263 329.63C518.263 327.53 518.293 325.52 518.353 323.6H518.263C517.903 325.46 517.483 327.32 517.003 329.18C516.523 331.04 516.043 332.87 515.563 334.67L507.553 365.09C507.493 365.51 507.223 365.72 506.743 365.72H506.383C505.963 365.72 505.723 365.51 505.663 365.09L497.473 334.58C496.993 332.78 496.543 330.98 496.123 329.18C495.703 327.32 495.313 325.46 494.953 323.6H494.773C494.893 325.52 494.953 327.53 494.953 329.63C494.953 331.67 494.953 333.56 494.953 335.3L494.503 373.19C494.503 373.73 494.293 374 493.873 374H489.283Z" fill="#F7F29A"/>
<path d="M726 147.59C727.212 155.314 728.422 163.039 729.634 170.764C733.172 169.398 736.707 168.032 740.245 166.666C737.748 169.057 735.252 171.447 732.756 173.838C742.503 174.72 752.253 175.603 762 176.485C752.356 177.31 742.712 178.135 733.066 178.961C735.666 181.294 738.268 183.629 740.868 185.962C737.02 184.54 733.169 183.116 729.321 181.693C728.215 189.589 727.106 197.485 726 205.381C724.716 197.485 723.429 189.589 722.145 181.693C718.92 183.174 715.695 184.653 712.47 186.133C714.237 183.629 716.007 181.125 717.775 178.62C708.516 177.908 699.259 177.198 690 176.486L717.371 173.617C715.216 171.357 713.061 169.098 710.909 166.837C714.757 168.146 718.607 169.456 722.455 170.764C723.636 163.039 724.817 155.314 726 147.59Z" fill="#F7F29A"/>
<path d="M726 225.83C727.212 233.555 728.422 241.279 729.634 249.004C733.172 247.638 736.707 246.272 740.245 244.906C737.748 247.297 735.252 249.687 732.756 252.078C742.503 252.96 752.253 253.843 762 254.725C752.356 255.55 742.712 256.375 733.066 257.201C735.666 259.535 738.268 261.869 740.868 264.202C737.02 262.78 733.169 261.356 729.321 259.933C728.215 267.829 727.106 275.725 726 283.621C724.716 275.725 723.429 267.829 722.145 259.933C718.92 261.414 715.695 262.893 712.47 264.373C714.237 261.869 716.007 259.365 717.775 256.861C708.516 256.149 699.259 255.438 690 254.726L717.371 251.857C715.216 249.598 713.061 247.338 710.909 245.077C714.757 246.387 718.607 247.696 722.455 249.004C723.636 241.279 724.817 233.555 726 225.83Z" fill="#F7F29A"/>
<path d="M726 304.959C727.212 312.684 728.422 320.409 729.634 328.134C733.172 326.768 736.707 325.402 740.245 324.036C737.748 326.427 735.252 328.817 732.756 331.208C742.503 332.089 752.253 332.972 762 333.854C752.356 334.679 742.712 335.504 733.066 336.331C735.666 338.664 738.268 340.999 740.868 343.332C737.02 341.909 733.169 340.485 729.321 339.063C728.215 346.959 727.106 354.854 726 362.75C724.716 354.854 723.429 346.959 722.145 339.063C718.92 340.543 715.695 342.022 712.47 343.503C714.237 340.999 716.007 338.494 717.775 335.99C708.516 335.278 699.259 334.567 690 333.855L717.371 330.987C715.216 328.727 713.061 326.468 710.909 324.207C714.757 325.516 718.607 326.826 722.455 328.134C723.636 320.409 724.817 312.684 726 304.959Z" fill="#F7F29A"/>
</g>
<defs>
<clipPath id="clip0_19_18">
<rect width="852" height="481" fill="white"/>
</clipPath>
</defs>
</svg>
