<?xml version="1.0" encoding="UTF-8"?>
<svg id="Layer_1" data-name="Layer 1" xmlns="http://www.w3.org/2000/svg" viewBox="0 0 541 541">
  <defs>
    <style>
      .cls-1 {
        fill: #8d2577;
      }

      .cls-2 {
        fill: #263c82;
      }

      .cls-3 {
        fill: none;
        stroke: #8d2577;
        stroke-miterlimit: 10;
        stroke-width: 2.9px;
      }

      .cls-4 {
        fill: #f5f2a3;
      }

      .cls-5 {
        fill: #abbcce;
      }

      .cls-6 {
        fill: #fff;
      }

      .cls-7 {
        fill: #822674;
      }

      .cls-8 {
        fill: #d72027;
      }

      .cls-9 {
        fill: #f6afcb;
      }

      .cls-10 {
        fill: #d72027;
      }
    </style>
  </defs>
  <g>
    <g>
      <path class="cls-7" d="M236.11,299.05c.19,1.59,1.25,2.71,1.66,3.1,4.61,4.38,12.98-1.73,17.95,1.6,5.22,3.49-.33,12.71,5.89,18.28,3.01,2.7,7.87,3.7,11.55,2.76,6.38-1.63,11.27-9.61,11.27-9.61h0c-10.22,1.82-11.13,1.32-11.13,1.32-4.27-2.38,1.17-11.03-3.66-20.8-.75-1.52-3.8-7.69-10.15-9.6-10.3-3.1-24.12,6.61-23.38,12.96Z"/>
      <path class="cls-7" d="M120.17,281.7c.6,2.42,3.36,4.71,6.24,4.94,6.54.51,10.73-9.88,14.18-8.61,1.27.47,1.86,2.9,3.03,7.75.84,3.49,1.14,6.18,1.18,6.58.89,8.28-.55,9.64.17,15.16,1,7.69,4.22,8.51,3.11,12.12-1.71,5.53-9.56,4.41-12.72,9.28-6.53,10.07,12.77,36.84,18.56,34.86,2.66-.91,3.74-8.34.82-11.42-1.33-1.4-2.72-1.09-4.95-2-6.48-2.65-10.87-11.88-8.45-15.43,1.51-2.21,4.28-.19,12.09-2.65,5.46-1.72,11.31-4.98,11.31-4.98,0,0,11.6,5.16,22.8,5.61,13.76.54,27.37-6.02,27.37-6.02,0,0,2.35,10.23,9.16,15.92,2.56,2.14,7.46,4.37,12.8,5.67,3.47.85,4.04.47,5.27,1.4,4.23,3.21.36,9.89,3.93,16.98,2.72,5.41,8.98,9.48,11.6,8.08,2.75-1.47,2.66-9.58-.8-11.96-1.46-1-2.3-.15-3.55-1.09-2.67-2-.22-6.86-1.66-15.53-.83-5.03-2.12-6.19-2.69-6.63-1.92-1.45-3.52-.53-6.63-2.07-.97-.48-3.94-1.96-4.75-4.43-1.08-3.27,2.58-5.46,4.7-10.72,3.18-7.86.16-15.79-.36-17.17-2.74-7.19-8.48-11.04-10.89-12.6-20.97-13.63-44.37,8.11-60.49-4.15-10.07-7.66-7.44-22.97-24.97-31.5-.17-.08-6.22-3.02-6.22-3.02,0,0-1.36-3.29-1.36-3.29,0,0-3.15,4.76-4.26,4.33-.39-.15-.09-.77-.74-2.67-.32-.95-.87-2.19-.87-2.19,0,0-2.85,5.06-4.61,9.37-2.96,7.24-1.04,7.94-3.82,13.77-2.17,4.56-4.15,5.83-3.54,8.29Z"/>
      <path class="cls-7" d="M134.5,254.73c.12.57,1.5.66,2.77.84,7.18,1.01,14.34,5.37,18.48,9.98,2.04,2.28,3.19,4.45,4.66,7.23,2.77,5.24,2.29,6.56,4.34,9.9,3.31,5.36,9.21,9.48,10.97,8.31,1.17-.77.85-4.1-.59-6.3-1.74-2.66-3.95-1.86-5.71-4.41-1.86-2.71-.08-4.65-2.02-7.26-1.67-2.26-3.36-1.29-5.42-3.43-3.13-3.24-.64-6.89-3.39-9.5-2.69-2.56-5.9.13-9.12-2.88-1.46-1.37-1.79-2.85-4.17-4.28-.62-.37-1.62-.96-2.99-1.21-3.9-.7-8.05,1.93-7.82,2.99Z"/>
    </g>
    <g>
      <path class="cls-7" d="M421.22,296.91c.19,1.59,1.25,2.71,1.66,3.1,4.61,4.38,12.98-1.73,17.95,1.6,5.22,3.49-.33,12.71,5.89,18.28,3.01,2.7,7.87,3.7,11.55,2.76,6.38-1.63,11.27-9.61,11.27-9.61h0c-10.22,1.82-11.13,1.32-11.13,1.32-4.27-2.38,1.17-11.03-3.66-20.8-.75-1.52-3.8-7.69-10.15-9.6-10.3-3.1-24.12,6.61-23.38,12.96Z"/>
      <path class="cls-7" d="M305.28,279.56c.6,2.42,3.36,4.71,6.24,4.94,6.54.51,10.73-9.88,14.18-8.61,1.27.47,1.86,2.9,3.03,7.75.84,3.49,1.14,6.18,1.18,6.58.89,8.28-.55,9.64.17,15.16,1,7.69,4.22,8.51,3.11,12.12-1.71,5.53-9.56,4.41-12.72,9.28-6.53,10.07,12.77,36.84,18.56,34.86,2.66-.91,3.74-8.34.82-11.42-1.33-1.4-2.72-1.09-4.95-2-6.48-2.65-10.87-11.88-8.45-15.43,1.51-2.21,4.28-.19,12.09-2.65,5.46-1.72,11.31-4.98,11.31-4.98,0,0,11.6,5.16,22.8,5.61,13.76.54,27.37-6.02,27.37-6.02,0,0,2.35,10.23,9.16,15.92,2.56,2.14,7.46,4.37,12.8,5.67,3.47.85,4.04.47,5.27,1.4,4.23,3.21.36,9.89,3.93,16.98,2.72,5.41,8.98,9.48,11.6,8.08,2.75-1.47,2.66-9.58-.8-11.96-1.46-1-2.3-.15-3.55-1.09-2.67-2-.22-6.86-1.66-15.53-.83-5.03-2.12-6.19-2.69-6.63-1.92-1.45-3.52-.53-6.63-2.07-.97-.48-3.94-1.96-4.75-4.43-1.08-3.27,2.58-5.46,4.7-10.72,3.18-7.86.16-15.79-.36-17.17-2.74-7.19-8.48-11.04-10.89-12.6-20.97-13.63-44.37,8.11-60.49-4.15-10.07-7.66-7.44-22.97-24.97-31.5-.17-.08-6.22-3.02-6.22-3.02,0,0-1.36-3.29-1.36-3.29,0,0-3.15,4.76-4.26,4.33-.39-.15-.09-.77-.74-2.67-.32-.95-.87-2.19-.87-2.19,0,0-2.85,5.06-4.61,9.37-2.96,7.24-1.04,7.94-3.82,13.77-2.17,4.56-4.15,5.83-3.54,8.29Z"/>
      <path class="cls-7" d="M319.6,252.59c.12.57,1.5.66,2.77.84,7.18,1.01,14.34,5.37,18.48,9.98,2.04,2.28,3.19,4.45,4.66,7.23,2.77,5.24,2.29,6.56,4.34,9.9,3.31,5.36,9.21,9.48,10.97,8.31,1.17-.77.85-4.1-.59-6.3-1.74-2.66-3.95-1.86-5.71-4.41-1.86-2.71-.08-4.65-2.02-7.26-1.67-2.26-3.36-1.29-5.42-3.43-3.13-3.24-.64-6.89-3.39-9.5-2.69-2.56-5.9.13-9.12-2.88-1.46-1.37-1.79-2.85-4.17-4.28-.62-.37-1.62-.96-2.99-1.21-3.9-.7-8.05,1.93-7.82,2.99Z"/>
    </g>
    <path class="cls-8" d="M512.92,155.26c-.22,12.81-.45,25.63-.67,38.44-67.52,8.86-149.29,16.04-239.55,16.21-119.67.22-202.5-12.01-221.99-14.95-.01,0-.15-.02-.17-.03.17-13.89.33-27.79.5-41.68,45.57-8.54,103.83-24.75,166.02-56.9,29.64-15.32,55.3-31.75,77.15-47.65,19.82,15.72,43.2,32.12,70.34,47.65,55.06,31.51,107.12,48.91,148.35,58.9Z"/>
    <rect class="cls-10" x="100.32" y="170.75" width="9.99" height="244.58"/>
    <rect class="cls-10" x="371.35" y="201.27" width="9.99" height="230.16"/>
    <rect class="cls-10" x="274.03" y="175.32" width="9.99" height="222.96"/>
    <rect class="cls-10" x="454.88" y="185.61" width="9.99" height="214.87"/>
    <rect class="cls-10" x="183" y="179.85" width="9.99" height="226.38"/>
    <rect class="cls-6" x="69.95" y="400.37" width="429.02" height="51.76"/>
    <rect class="cls-2" x="53.9" y="422.2" width="461.04" height="33.8"/>
    <g>
      <path class="cls-2" d="M233.64,321.32c-.19,1.59-1.25,2.71-1.66,3.1-4.61,4.38-12.98-1.73-17.95,1.6-5.22,3.49.33,12.71-5.89,18.28-3.01,2.7-7.87,3.7-11.55,2.76-6.38-1.63-11.27-9.61-11.27-9.61h0c10.22,1.82,11.13,1.32,11.13,1.32,4.27-2.38-1.17-11.03,3.66-20.8.75-1.52,3.8-7.69,10.15-9.6,10.3-3.1,24.12,6.61,23.38,12.96Z"/>
      <path class="cls-9" d="M349.58,303.96c-.6,2.42-3.36,4.71-6.24,4.94-6.54.51-10.73-9.88-14.18-8.61-1.27.47-1.86,2.9-3.03,7.75-.84,3.49-1.14,6.18-1.18,6.58-.89,8.28.55,9.64-.17,15.16-1,7.69-4.22,8.51-3.11,12.12,1.71,5.53,9.56,4.41,12.72,9.28,6.53,10.07-12.77,36.84-18.56,34.86-2.66-.91-3.74-8.34-.82-11.42,1.33-1.4,2.72-1.09,4.95-2,6.48-2.65,10.87-11.88,8.45-15.43-1.51-2.21-4.28-.19-12.09-2.65-5.46-1.72-11.31-4.98-11.31-4.98,0,0-11.6,5.16-22.8,5.61-13.76.54-27.37-6.02-27.37-6.02,0,0-2.35,10.23-9.16,15.92-2.56,2.14-7.46,4.37-12.8,5.67-3.47.85-4.04.47-5.27,1.4-4.23,3.21-.36,9.89-3.93,16.98-2.72,5.41-8.98,9.48-11.6,8.08-2.75-1.47-2.66-9.58.8-11.96,1.46-1,2.3-.15,3.55-1.09,2.67-2,.22-6.86,1.66-15.53.83-5.03,2.12-6.19,2.69-6.63,1.92-1.45,3.52-.53,6.63-2.07.97-.48,3.94-1.96,4.75-4.43,1.08-3.27-2.58-5.46-4.7-10.72-3.18-7.86-.16-15.79.36-17.17,2.74-7.19,8.48-11.04,10.89-12.6,20.97-13.63,44.37,8.11,60.49-4.15,10.07-7.66,7.44-22.97,24.97-31.5.17-.08,6.22-3.02,6.22-3.02,0,0,1.36-3.29,1.36-3.29,0,0,3.15,4.76,4.26,4.33.39-.15.09-.77.74-2.67.32-.95.87-2.19.87-2.19,0,0,2.85,5.06,4.61,9.37,2.96,7.24,1.04,7.94,3.82,13.77,2.17,4.56,4.15,5.83,3.54,8.29Z"/>
      <path class="cls-2" d="M335.26,277c-.12.57-1.5.66-2.77.84-7.18,1.01-14.34,5.37-18.48,9.98-2.04,2.28-3.19,4.45-4.66,7.23-2.77,5.24-2.29,6.56-4.34,9.9-3.31,5.36-9.21,9.48-10.97,8.31-1.17-.77-.85-4.1.59-6.3,1.74-2.66,3.95-1.86,5.71-4.41,1.86-2.71.08-4.65,2.02-7.26,1.67-2.26,3.36-1.29,5.42-3.43,3.13-3.24.64-6.89,3.39-9.5,2.69-2.56,5.9.13,9.12-2.88,1.46-1.37,1.79-2.85,4.17-4.28.62-.37,1.62-.96,2.99-1.21,3.9-.7,8.05,1.93,7.82,2.99Z"/>
      <g>
        <path class="cls-3" d="M347.88,299c-1.93,1.83-3.45,2.78-4.42,3.28-.24.12-.44.22-.69.31-1.7.62-3.35.19-4.35-.19-.88,2.06-4.75,10.46-14.15,14.39-9.22,3.85-20.17,1.9-28.39-4.93"/>
        <path class="cls-3" d="M327.48,279.06c-.07,2.56.15,6.54,1.82,11.02,2.53,6.79,6.98,10.86,9.2,12.64"/>
        <path class="cls-3" d="M330.27,300.58c-2.36-3.73-1.91-8.49.89-11.4,3.28-3.4,9.14-3.62,13.01-.08"/>
      </g>
      <path class="cls-5" d="M290.18,339.05c-1.53,1.1-5.71,3.74-11.5,3.46-.74-.04-6.53-.4-11.27-4.68-9.13-8.24-7.92-25.11-3.83-26.78.71-.29,1.09.05,4,.89,4.08,1.18,7.19,1.62,10.37,2.08,0,0,4.41.63,11.93.48.93-.02,1.71-.08,2.64-.34,1.22-.35,1.49-.71,1.98-.7,1.48.03,2.8,3.4,3.3,5.79,1.19,5.75-.56,14.73-7.62,19.8Z"/>
      <path class="cls-1" d="M289.08,336.9c-4.59,3.57-10.09,3.21-10.8,3.16-.73-.06-5.27-.48-9.12-3.82-8.44-7.31-7.4-23.25-3.47-24.83.52-.21.83-.07,3.08.49,3.68.9,7.28,1.61,9.32,1.92,5.03.76,9.86.49,10.73.44,3.22-.19,3.55-.51,4.3-.09,3.99,2.23,4.01,16.48-4.04,22.74Z"/>
    </g>
    <g>
      <path class="cls-2" d="M414.49,300.17c-.19,1.59-1.25,2.71-1.66,3.1-4.61,4.38-12.98-1.73-17.95,1.6-5.22,3.49.33,12.71-5.89,18.28-3.01,2.7-7.87,3.7-11.55,2.76-6.38-1.63-11.27-9.61-11.27-9.61h0c10.22,1.82,11.13,1.32,11.13,1.32,4.27-2.38-1.17-11.03,3.66-20.8.75-1.52,3.8-7.69,10.15-9.6,10.3-3.1,24.12,6.61,23.38,12.96Z"/>
      <path class="cls-9" d="M530.43,282.81c-.6,2.42-3.36,4.71-6.24,4.94-6.54.51-10.73-9.88-14.18-8.61-1.27.47-1.86,2.9-3.03,7.75-.84,3.49-1.14,6.18-1.18,6.58-.89,8.28.55,9.64-.17,15.16-1,7.69-4.22,8.51-3.11,12.12,1.71,5.53,9.56,4.41,12.72,9.28,6.53,10.07-12.77,36.84-18.56,34.86-2.66-.91-3.74-8.34-.82-11.42,1.33-1.4,2.72-1.09,4.95-2,6.48-2.65,10.87-11.88,8.45-15.43-1.51-2.21-4.28-.19-12.09-2.65-5.46-1.72-11.31-4.98-11.31-4.98,0,0-11.6,5.16-22.8,5.61-13.76.54-27.37-6.02-27.37-6.02,0,0-2.35,10.23-9.16,15.92-2.56,2.14-7.46,4.37-12.8,5.67-3.47.85-4.04.47-5.27,1.4-4.23,3.21-.36,9.89-3.93,16.98-2.72,5.41-8.98,9.48-11.6,8.08-2.75-1.47-2.66-9.58.8-11.96,1.46-1,2.3-.15,3.55-1.09,2.67-2,.22-6.86,1.66-15.53.83-5.03,2.12-6.19,2.69-6.63,1.92-1.45,3.52-.53,6.63-2.07.97-.48,3.94-1.96,4.75-4.43,1.08-3.27-2.58-5.46-4.7-10.72-3.18-7.86-.16-15.79.36-17.17,2.74-7.19,8.48-11.04,10.89-12.6,20.97-13.63,44.37,8.11,60.49-4.15,10.07-7.66,7.44-22.97,24.97-31.5.17-.08,6.22-3.02,6.22-3.02,0,0,1.36-3.29,1.36-3.29,0,0,3.15,4.76,4.26,4.33.39-.15.09-.77.74-2.67.32-.95.87-2.19.87-2.19,0,0,2.85,5.06,4.61,9.37,2.96,7.24,1.04,7.94,3.82,13.77,2.17,4.56,4.15,5.83,3.54,8.29Z"/>
      <path class="cls-2" d="M516.11,255.85c-.12.57-1.5.66-2.77.84-7.18,1.01-14.34,5.37-18.48,9.98-2.04,2.28-3.19,4.45-4.66,7.23-2.77,5.24-2.29,6.56-4.34,9.9-3.31,5.36-9.21,9.48-10.97,8.31-1.17-.77-.85-4.1.59-6.3,1.74-2.66,3.95-1.86,5.71-4.41,1.86-2.71.08-4.65,2.02-7.26,1.67-2.26,3.36-1.29,5.42-3.43,3.13-3.24.64-6.89,3.39-9.5,2.69-2.56,5.9.13,9.12-2.88,1.46-1.37,1.79-2.85,4.17-4.28.62-.37,1.62-.96,2.99-1.21,3.9-.7,8.05,1.93,7.82,2.99Z"/>
      <g>
        <path class="cls-3" d="M528.72,277.85c-1.93,1.83-3.45,2.78-4.42,3.28-.24.12-.44.22-.69.31-1.7.62-3.35.19-4.35-.19-.88,2.06-4.75,10.46-14.15,14.39-9.22,3.85-20.17,1.9-28.39-4.93"/>
        <path class="cls-3" d="M508.33,257.91c-.07,2.56.15,6.54,1.82,11.02,2.53,6.79,6.98,10.86,9.2,12.64"/>
        <path class="cls-3" d="M511.12,279.43c-2.36-3.73-1.91-8.49.89-11.4,3.28-3.4,9.14-3.62,13.01-.08"/>
      </g>
      <path class="cls-5" d="M471.03,317.9c-1.53,1.1-5.71,3.74-11.5,3.46-.74-.04-6.53-.4-11.27-4.68-9.13-8.24-7.92-25.11-3.83-26.78.71-.29,1.09.05,4,.89,4.08,1.18,7.19,1.62,10.37,2.08,0,0,4.41.63,11.93.48.93-.02,1.71-.08,2.64-.34,1.22-.35,1.49-.71,1.98-.7,1.48.03,2.8,3.4,3.3,5.79,1.19,5.75-.56,14.73-7.62,19.8Z"/>
      <path class="cls-1" d="M469.92,315.75c-4.59,3.57-10.09,3.21-10.8,3.16-.73-.06-5.27-.48-9.12-3.82-8.44-7.31-7.4-23.25-3.47-24.83.52-.21.83-.07,3.08.49,3.68.9,7.28,1.61,9.32,1.92,5.03.76,9.86.49,10.73.44,3.22-.19,3.55-.51,4.3-.09,3.99,2.23,4.01,16.48-4.04,22.74Z"/>
    </g>
    <g>
      <path class="cls-2" d="M58.46,300.17c-.19,1.59-1.25,2.71-1.66,3.1-4.61,4.38-12.98-1.73-17.95,1.6-5.22,3.49.33,12.71-5.89,18.28-3.01,2.7-7.87,3.7-11.55,2.76-6.38-1.63-11.27-9.61-11.27-9.61h0c10.22,1.82,11.13,1.32,11.13,1.32,4.27-2.38-1.17-11.03,3.66-20.8.75-1.52,3.8-7.69,10.15-9.6,10.3-3.1,24.12,6.61,23.38,12.96Z"/>
      <path class="cls-9" d="M174.4,282.81c-.6,2.42-3.36,4.71-6.24,4.94-6.54.51-10.73-9.88-14.18-8.61-1.27.47-1.86,2.9-3.03,7.75-.84,3.49-1.14,6.18-1.18,6.58-.89,8.28.55,9.64-.17,15.16-1,7.69-4.22,8.51-3.11,12.12,1.71,5.53,9.56,4.41,12.72,9.28,6.53,10.07-12.77,36.84-18.56,34.86-2.66-.91-3.74-8.34-.82-11.42,1.33-1.4,2.72-1.09,4.95-2,6.48-2.65,10.87-11.88,8.45-15.43-1.51-2.21-4.28-.19-12.09-2.65-5.46-1.72-11.31-4.98-11.31-4.98,0,0-11.6,5.16-22.8,5.61-13.76.54-27.37-6.02-27.37-6.02,0,0-2.35,10.23-9.16,15.92-2.56,2.14-7.46,4.37-12.8,5.67-3.47.85-4.04.47-5.27,1.4-4.23,3.21-.36,9.89-3.93,16.98-2.72,5.41-8.98,9.48-11.6,8.08-2.75-1.47-2.66-9.58.8-11.96,1.46-1,2.3-.15,3.55-1.09,2.67-2,.22-6.86,1.66-15.53.83-5.03,2.12-6.19,2.69-6.63,1.92-1.45,3.52-.53,6.63-2.07.97-.48,3.94-1.96,4.75-4.43,1.08-3.27-2.58-5.46-4.7-10.72-3.18-7.86-.16-15.79.36-17.17,2.74-7.19,8.48-11.04,10.89-12.6,20.97-13.63,44.37,8.11,60.49-4.15,10.07-7.66,7.44-22.97,24.97-31.5.17-.08,6.22-3.02,6.22-3.02,0,0,1.36-3.29,1.36-3.29,0,0,3.15,4.76,4.26,4.33.39-.15.09-.77.74-2.67.32-.95.87-2.19.87-2.19,0,0,2.85,5.06,4.61,9.37,2.96,7.24,1.04,7.94,3.82,13.77,2.17,4.56,4.15,5.83,3.54,8.29Z"/>
      <path class="cls-2" d="M160.08,255.85c-.12.57-1.5.66-2.77.84-7.18,1.01-14.34,5.37-18.48,9.98-2.04,2.28-3.19,4.45-4.66,7.23-2.77,5.24-2.29,6.56-4.34,9.9-3.31,5.36-9.21,9.48-10.97,8.31-1.17-.77-.85-4.1.59-6.3,1.74-2.66,3.95-1.86,5.71-4.41,1.86-2.71.08-4.65,2.02-7.26,1.67-2.26,3.36-1.29,5.42-3.43,3.13-3.24.64-6.89,3.39-9.5,2.69-2.56,5.9.13,9.12-2.88,1.46-1.37,1.79-2.85,4.17-4.28.62-.37,1.62-.96,2.99-1.21,3.9-.7,8.05,1.93,7.82,2.99Z"/>
      <g>
        <path class="cls-3" d="M172.69,277.85c-1.93,1.83-3.45,2.78-4.42,3.28-.24.12-.44.22-.69.31-1.7.62-3.35.19-4.35-.19-.88,2.06-4.75,10.46-14.15,14.39-9.22,3.85-20.17,1.9-28.39-4.93"/>
        <path class="cls-3" d="M152.3,257.91c-.07,2.56.15,6.54,1.82,11.02,2.53,6.79,6.98,10.86,9.2,12.64"/>
        <path class="cls-3" d="M155.09,279.43c-2.36-3.73-1.91-8.49.89-11.4,3.28-3.4,9.14-3.62,13.01-.08"/>
      </g>
      <path class="cls-5" d="M115,317.9c-1.53,1.1-5.71,3.74-11.5,3.46-.74-.04-6.53-.4-11.27-4.68-9.13-8.24-7.92-25.11-3.83-26.78.71-.29,1.09.05,4,.89,4.08,1.18,7.19,1.62,10.37,2.08,0,0,4.41.63,11.93.48.93-.02,1.71-.08,2.64-.34,1.22-.35,1.49-.71,1.98-.7,1.48.03,2.8,3.4,3.3,5.79,1.19,5.75-.56,14.73-7.62,19.8Z"/>
      <path class="cls-1" d="M113.89,315.75c-4.59,3.57-10.09,3.21-10.8,3.16-.73-.06-5.27-.48-9.12-3.82-8.44-7.31-7.4-23.25-3.47-24.83.52-.21.83-.07,3.08.49,3.68.9,7.28,1.61,9.32,1.92,5.03.76,9.86.49,10.73.44,3.22-.19,3.55-.51,4.3-.09,3.99,2.23,4.01,16.48-4.04,22.74Z"/>
    </g>
  </g>
  <path class="cls-4" d="M49.66,154.4c43.83,5.94,81.02,9.31,108.92,11.35,122.43,8.91,215.85,2.82,251.87,0,42.64-3.34,77.84-7.84,102.11-11.35.18-.71,6.58-26.31,6.75-27.02,1.53-6.12,2.32-9.29,2.32-9.29,0,0-5.65,7.49-13.61,11.35-1.97.96-4.16,2.02-6.81,2.27-9.81.94-13.28-11.28-22.69-13.61-15.85-3.93-23.05,16.23-43.11,15.88-16.99-.3-20.13-14.91-36.31-13.61-15.4,1.23-16.88,14.82-31.77,15.88-16.98,1.22-21.05-16.03-38.57-15.88-17.88.15-21.09,18.15-38.57,18.15-17.69,0-21.39-18.45-38.57-18.15-17.7.3-21.03,20.01-38.57,20.42-17.86.42-21.7-19.83-40.84-20.42-18.61-.58-22.15,18.32-40.84,18.15-21.13-.19-29.61-24.46-45.38-20.42-10.88,2.79-11.36,15.5-22.69,18.15-10.84,2.53-22.12-6.36-29.5-13.61"/>
</svg>