<?xml version="1.0" encoding="UTF-8"?>
<svg id="Layer_1" data-name="Layer 1" xmlns="http://www.w3.org/2000/svg" viewBox="0 0 541 541">
  <defs>
    <style>
      .cls-1 {
        fill: #8d2577;
      }

      .cls-2 {
        fill: #f5f2a3;
      }

      .cls-3 {
        fill: #fff;
      }
    </style>
  </defs>
  <g>
    <path class="cls-1" d="M479.89,441.92c-42.61,18.35-113.15,42.07-202.42,42.08-88.03,0-157.75-23.06-200.2-41.1v-62.77h402.62v61.8Z"/>
    <ellipse class="cls-2" cx="278.58" cy="382.25" rx="201.31" ry="41.57"/>
  </g>
  <polygon class="cls-1" points="444.43 384.05 338.05 393.74 325.84 422.15 248.72 399.3 135.13 403.3 193.85 379.49 135.86 353.55 249.27 361.68 327.02 341.66 338.39 370.49 444.43 384.05"/>
  <rect class="cls-3" x="98.42" y="164.57" width="9.11" height="223.11"/>
  <rect class="cls-3" x="275.09" y="171.07" width="9.11" height="255"/>
  <rect class="cls-3" x="374.09" y="158.46" width="9.11" height="255"/>
  <rect class="cls-3" x="180" y="163.65" width="9.11" height="255"/>
  <rect class="cls-3" x="323.5" y="121.2" width="9.11" height="231.27"/>
  <rect class="cls-3" x="236.02" y="121.2" width="9.11" height="231.27"/>
  <rect class="cls-3" x="147.88" y="157.44" width="9.11" height="206.51"/>
  <rect class="cls-3" x="447.92" y="177.72" width="9.11" height="209.96"/>
  <rect class="cls-3" x="406.21" y="167.95" width="9.11" height="196"/>
  <path class="cls-1" d="M492.05,151.11c.37,12.45.73,24.89,1.1,37.34-63.61,11.32-139.83,20.13-223.9,20.07-96.86-.07-176.32-11.89-212.07-17.34,0,0-.15-.02-.16-.02.16-13.16.32-26.31.47-39.47,37.29-3.93,93.52-14.92,152.98-47.96,29.26-16.26,52.79-34.25,71.08-50.58,18.44,16.14,42,33.9,71.08,50.12,53.54,29.87,103.89,42.29,139.42,47.84Z"/>
  <path class="cls-2" d="M224.46,169.55c-13.89,0-28.7-.45-44.31-1.54-14.81-1.03-28.81-2.52-41.94-4.31,20.88-8.91,46.95-22.36,74.21-42.7,31.46-23.49,53.93-48.27,69.14-67.84-19.03,38.8-38.06,77.6-57.09,116.4Z"/>
  <path class="cls-2" d="M337.07,170.44c13.89,0,28.7-.45,44.31-1.54,14.81-1.03,28.81-2.52,41.94-4.31-20.88-8.91-46.95-22.36-74.21-42.7-31.46-23.49-53.93-48.27-69.14-67.84,19.03,38.8,38.06,77.6,57.09,116.4Z"/>
</svg>