<?xml version="1.0" encoding="UTF-8"?>
<svg id="Layer_1" data-name="Layer 1" xmlns="http://www.w3.org/2000/svg" viewBox="0 0 541 541">
  <defs>
    <style>
      .cls-1 {
        fill: #d7191b;
      }

      .cls-2 {
        fill: #c11720;
      }

      .cls-3, .cls-4 {
        fill: #f5f2a3;
      }

      .cls-4 {
        stroke: #d7191b;
        stroke-linecap: round;
        stroke-linejoin: round;
      }

      .cls-4, .cls-5 {
        stroke-width: 2.7px;
      }

      .cls-6 {
        fill: #fff;
      }

      .cls-5, .cls-7 {
        fill: none;
        stroke: #f5f2a3;
        stroke-miterlimit: 10;
      }

      .cls-7 {
        stroke-width: 5.39px;
      }

      .cls-8 {
        opacity: .63;
      }

      .cls-9 {
        fill: #e8c97c;
      }
    </style>
  </defs>
  <polygon class="cls-3" points="134.49 184.55 227.81 117.36 393.6 120.6 329.45 223.68 134.49 184.55"/>
  <path class="cls-3" d="M392.77,131.81s-8.25,3.89-13.58-7.33c-5.34-11.22-7.78-18.24-18.44-13.17,0,0-10.1-17.12-24.44-17.12-7.64,0-14.78,1.48-18.1,1.88-3.31.41-8.24-11.38-22.67-6.44,0,0-2.1-7.46-8.71-6.45-6.61,1.01-7.5,9.83-3.52,14.88,0,0-8.45-1.14-13.47-.13,0,0-6.39-10.1-16.72-8.83,0,0-4.46.75-7.78,4.32,0,0-3.96-12.95-14.03-12.73-10.07.22-13.92,4.28-15,6.79,0,0-5.71,3.47-6.89,8.37-1.18,4.9,4.19,9.98,4.19,9.98,0,0-1.74,3.58-4.66,3.94s-3.3-4.34-14.2-1.22c-10.9,3.12-9.61,13.65-6.42,18.6,0,0-8.9,1.69-13.34,5.79-4.44,4.11-5.83,13.78-5.83,13.78,0,0-8.18-.81-12.74.74-4.56,1.55-1.43,7.93-1.43,7.93l-2.44,10.79s-1.23-3.61-4.96-3.35c-3.73.26-11.13,7.7-11.13,10.87,0,3.17.12,12.26.12,12.26l159.55,26.59,51.18-4.14,45.48-76.58Z"/>
  <path class="cls-6" d="M372.66,147.1s-11.3-13.22-18.14-12.1c-6.83,1.13-6.33,6.31-6.33,6.31,0,0-4.4-5.73-7.75-4.58,0,0-8.46-.11-11.64-8.71-3.17-8.6-9.94-13.45-15.35-12.21-5.41,1.24-14.88,14.03-14.88,14.03,0,0-1.66-9.11-4.44-11.11-2.79-2-10,.15-10,.15,0,0-7.22-7.58-10.29-7.08-3.07.51-3.14,6.48-3.14,6.48,0,0-1.31-5.63-3.75-5.64,0,0,.31-13.09-13.06-11.24-13.38,1.86-13.63,13.12-13.63,13.12,0,0-10.86-4.17-17.01-3.16-6.15,1.01-9.01,11.31-9.01,11.31,0,0-11.83-7.87-23.52,6.33,0,0-9.13,4.46-9.02,11.38,0,0-7.39-4.47-13.27,6.68,0,0-5.48-2.48-12.03.35-6.55,2.83-4.1,14.59-4.1,14.59,0,0-4.89-2-8.65-1.38-3.76.62-12.32,12.56-7.44,22.98,4.88,10.42,7.54,18.06,7.54,18.06l186.48,24.34,42.42-78.93Z"/>
  <polygon class="cls-6" points="324.39 199.44 334.79 167.7 393.6 120.6 391.12 405.15 331.14 477.29 176.33 448.58 134.49 184.55 324.39 199.44"/>
  <polygon class="cls-1" points="165.38 186.97 192.25 451.92 176.33 448.58 134.49 184.55 165.38 186.97"/>
  <polygon class="cls-1" points="182.21 188.29 209.51 454.73 234.85 459.43 209.17 190.4 182.21 188.29"/>
  <polygon class="cls-1" points="231.71 192.17 256.84 463.51 284.66 468.67 262.58 194.59 231.71 192.17"/>
  <polygon class="cls-1" points="284.66 197.22 303.46 472.16 331.14 477.29 324.39 199.44 284.66 197.22"/>
  <g>
    <path class="cls-4" d="M174.97,260.93s29.92,3.86,57.01-11.35c0,0,15.02,14.56,58.5,16.36l17.1,38.17-9.62,42.98s-46.8-3.02-63.29,3.61c0,0-29.97-15.54-56.3-9.74l-14.88-45.8,11.47-34.24Z"/>
    <path class="cls-1" d="M183.37,269.74s25.69,2.85,49.1-9.5c0,0,12.8,11.5,50.16,12.6l14.41,30.32-8.6,34.37s-40.21-2.05-54.43,3.37c0,0-25.64-12.17-48.32-7.33l-12.43-36.42,10.13-27.41Z"/>
    <g>
      <path class="cls-5" d="M206.4,299.22c-.21,5.96-4.6,10.71-13.39,10.4l-4.42-.16-.43,12.16-7.27-.26.43-12.16-2.8-.1.23-6.49,2.8.1.53-15,11.59.41c8.89.31,12.95,4.98,12.74,11.08ZM193.18,303.14c4.01.14,5.71-1.63,5.8-4.18.08-2.36-1.59-4.05-5.6-4.19l-4.27-.15-.29,8.36,4.37.15Z"/>
      <path class="cls-5" d="M208.92,305.52c.35-9.9,8.8-17.25,19.78-16.87,10.98.39,18.89,8.32,18.54,18.22-.35,9.9-8.8,17.25-19.78,16.87-10.93-.39-18.89-8.32-18.54-18.22ZM239.62,306.6c.22-6.25-4.6-10.99-11.16-11.22-6.56-.23-11.7,4.11-11.92,10.41-.22,6.25,4.6,10.99,11.16,11.22,6.56.23,11.7-4.16,11.92-10.41Z"/>
      <path class="cls-5" d="M278.15,301.75c-.21,5.96-4.6,10.71-13.39,10.4l-4.42-.16-.43,12.16-7.27-.26.43-12.16-2.79-.1.23-6.49,2.79.1.53-15,11.59.41c8.89.31,12.95,4.98,12.74,11.08ZM264.93,305.66c4.01.14,5.71-1.63,5.8-4.17.08-2.36-1.59-4.05-5.6-4.19l-4.27-.15-.29,8.36,4.37.15Z"/>
      <path class="cls-5" d="M281.21,321.49c.08-2.31,2.08-4.07,4.52-3.98,2.49.09,4.36,1.98,4.28,4.29-.08,2.31-2.13,4.06-4.57,3.98-2.44-.09-4.31-1.98-4.23-4.29ZM282.27,313.15l.77-21.87,6.61.23-.77,21.87-6.61-.23Z"/>
    </g>
    <g>
      <path class="cls-3" d="M209.39,295.19c-.21,5.96-4.6,10.71-13.39,10.4l-4.42-.16-.43,12.16-7.27-.26.43-12.16-2.8-.1.23-6.49,2.8.1.53-15,11.59.41c8.89.31,12.95,4.98,12.74,11.08ZM196.17,299.1c4.01.14,5.71-1.63,5.8-4.18.08-2.36-1.59-4.05-5.6-4.19l-4.27-.15-.29,8.36,4.37.15Z"/>
      <path class="cls-3" d="M211.91,301.48c.35-9.9,8.8-17.25,19.78-16.87,10.98.39,18.89,8.32,18.54,18.22-.35,9.9-8.8,17.25-19.78,16.87-10.93-.39-18.89-8.31-18.54-18.22ZM242.6,302.56c.22-6.25-4.6-10.99-11.16-11.22-6.55-.23-11.7,4.11-11.92,10.41-.22,6.25,4.6,10.99,11.16,11.22,6.56.23,11.7-4.16,11.92-10.41Z"/>
      <path class="cls-3" d="M281.13,297.71c-.21,5.96-4.6,10.71-13.39,10.4l-4.42-.16-.43,12.16-7.27-.26.43-12.16-2.8-.1.23-6.49,2.8.1.53-15,11.59.41c8.89.31,12.95,4.98,12.74,11.08ZM267.92,301.63c4.01.14,5.71-1.63,5.8-4.18.08-2.36-1.59-4.05-5.6-4.19l-4.27-.15-.29,8.36,4.37.15Z"/>
      <path class="cls-3" d="M284.2,317.45c.08-2.31,2.08-4.07,4.52-3.98,2.49.09,4.36,1.98,4.28,4.29-.08,2.31-2.13,4.06-4.57,3.98-2.44-.09-4.31-1.98-4.23-4.29ZM285.26,309.12l.77-21.87,6.61.23-.77,21.87-6.61-.23Z"/>
    </g>
  </g>
  <polygon class="cls-3" points="324.39 199.44 331.14 477.29 391.12 405.15 393.6 120.6 334.79 167.7 324.39 199.44"/>
  <polygon class="cls-2" points="344.06 160.35 348.83 456.01 362.4 439.84 359.53 147.89 344.06 160.35"/>
  <polygon class="cls-2" points="368.18 141.56 377.41 421.64 386.67 410.62 383.27 129.47 368.18 141.56"/>
  <path class="cls-7" d="M281.78,191.02s-4.88-8.07,2.42-11.89c0,0,3.51,2.68-1.86,5.98,0,0,.37,5.5,5.34,4.09,4.97-1.41,5.78-2.36,6.6-.36.82,2-9.93,5.37-12.49,2.18Z"/>
  <path class="cls-3" d="M196.29,145.19c.85-.05,1.69-.18,2.54-.18l-2.01-.04c.33,0,.66.04.99.1l-1.81-.41c.35.08.69.21,1.01.36l-1.51-.75c.62.32,1.15.76,1.65,1.24l-1.13-1.07c.73.69,1.45,1.41,2.21,2.07.74.52,1.54.84,2.41.96.95.28,1.92.36,2.91.24,1.1-.06,2.15-.3,3.14-.74,1-.3,1.91-.77,2.74-1.41l1.36-1.26c.75-.83,1.2-1.8,1.38-2.9l-.1-1.5c-.3-1.02-.9-1.82-1.79-2.41-.18-.15-.35-.31-.52-.47l1.13,1.07c-.79-.74-1.54-1.54-2.38-2.21-.24-.19-.5-.37-.77-.52-.73-.41-1.51-.84-2.31-1.11-.42-.14-.89-.22-1.32-.32s-.88-.22-1.33-.27c-.98-.11-1.98-.1-2.96-.07-.72.02-1.44.13-2.16.17-1.1.06-2.15.3-3.14.74-1,.3-1.91.77-2.74,1.41-.77.52-1.38,1.17-1.82,1.96-.52.63-.82,1.36-.91,2.19l.1,1.5c.3,1.02.9,1.82,1.79,2.41l1.51.75c1.24.41,2.51.56,3.82.45h0Z"/>
  <path class="cls-3" d="M195.14,180.52c2.11-.11,4.22-.21,6.34-.34.49-.03.97-.07,1.46-.09.55-.03,1.66.23-.06-.06-1.27-.22-.13,0,.21.14-.75-.29.28.2.4.28,1.55,1.01,3.13,1.99,4.76,2.87.29.16.58.31.87.46-.36-.21-.41-.23-.14-.07.37.25.77.47,1.16.69,1.59.88,3.08,1.24,4.94,1.2,2.83-.07,5.78-.85,8.27-2.21,1.37-.75,2.83-1.79,3.47-3.28.52-1.2.62-2.45,1.21-3.65.39-.79-.24.3.3-.49.22-.33.44-.67.65-1,.41-.64.79-1.3,1.24-1.9.15-.2.31-.4.48-.58l-.51.44c-2.53,1.95-2.76,1.37-1.46.86.91-.36,1.83-.74,2.69-1.21.56-.31,1.1-.64,1.63-1.01.58-.39.37-.25-.61.41l-3.83,1.48c-4.51,1.07,2.43-.7,2.75-.82,1.26-.49,2.57-1.09,3.61-1.98.71-.61,2.01-1.67,1.7-2.82s-1.98-1.5-2.88-1.6c-1.92-.2-3.93.04-5.77.56s-3.84,1.16-5.28,2.4l-.25.21,3.23-1.73-.26.09,4.16-1.11c-2.64.4-5.26,1.21-7.53,2.64-.33.2-.66.41-.99.63,2.34-1.12,3.03-1.49,2.05-1.12-.37.13-.74.27-1.1.42-2.76,1.15-5.18,2.71-6.81,5.25-1,1.55-2.11,3.09-2.92,4.74-.29.6-.5,1.19-.63,1.84-.06.29-.1.59-.18.88-.33,1.14-.68.43,1.06-.91l3.23-1.73-.17.07,4.16-1.11-.2.02,3.66-.12c.45-.01.85.11,1.2.37-.17-.1-.33-.2-.5-.3-.44-.27-.88-.52-1.33-.76-.28-.16-.56-.3-.84-.44.36.21.32.19-.13-.08-.36-.23-.72-.46-1.08-.68-1.63-.99-3.26-2.21-5.02-2.94-2.39-.99-5.1-.79-7.63-.64-2.11.12-4.22.22-6.34.34s-4.17.54-6.11,1.3c-1.33.52-3.39,1.46-4.29,2.69-.57.78-1.1,1.84-.14,2.62,1.07.87,2.8.98,4.09.91h0Z"/>
  <path class="cls-3" d="M240.53,133.71c.11,0,.21,0,.32.02l-1.37-.21c.19.03.37.09.54.16l-.96-.43c.87.39,1.54,1.13,2.09,1.88l-.47-.63c.52.71.95,1.48,1.31,2.28.16.35.33.66.53.98.17.27.38.56.41.89.18.46.49.74.95.85.57.3,1.18.44,1.85.43.89.06,1.78.02,2.66-.12,1.04-.09,2.07-.28,3.07-.58l2.05-.65c1.15-.41,2.24-.95,3.26-1.61.82-.6,1.9-1.34,1.78-2.5-.03-.31-.22-.6-.39-.86-.18-.28-.35-.55-.48-.86-.34-.78-.75-1.54-1.23-2.23-.54-.77-1.11-1.57-1.84-2.17-1.09-.9-2.66-1.37-4.06-1.37-.89-.06-1.78-.02-2.66.12-1.04.09-2.07.28-3.07.58-1.02.25-2,.6-2.95,1.04-.83.32-1.62.73-2.37,1.23l-1.08.87c-.53.43-.76.98-.71,1.63l.47.63c.71.42,1.49.63,2.33.64h0Z"/>
  <path class="cls-3" d="M265.17,165.26c3.24-.18,6.48-.35,9.71-.53,1.52-.08,3.05-.11,4.57-.26.31-.03.63-.06.94-.12.65-.05.26-.1-1.17-.13-.83.07-1.6-.1-2.31-.5.35.36.91.62,1.3.95l-1.09-.93c.57.54,1.01,1.14,1.4,1.82l-.62-1.2c.42.9.72,1.9,1.39,2.64,1.47,1.62,3.75,2.1,5.84,2.08,2.55-.02,5.21-.77,7.29-2.27.88-.63,1.53-1.44,2.32-2.15l-3.12,2.15c1.31-.73,2.7-1.32,3.91-2.22.7-.52,1.31-1.16,2-1.69-2.18,1.66.51-.45,1.14-1l.29-.26c.55-.48.39-.35-.48.4.32-.17.65-.49.94-.72.67-.43.42-.3-.75.39.76-.34.44-.23-.96.32.41-.06.83-.24,1.22-.34.42-.11.85-.18,1.27-.29-2.5.65-.87.15-.19.06.83-.11,1.65-.14,2.48-.22.59-.05,1.18-.16,1.77-.22.29-.03.59-.03.88-.07-1.53-.02-1.92-.01-1.19.04-.88-.06-1.71-.29-2.48-.71l-1.09-.93.12.12c2.68,2.62,7.33,2.34,10.51.77,1.54-.76,3.33-1.82,4.08-3.45.55-1.2.88-2.84-.2-3.9-2.61-2.56-6.39-2.55-9.8-2.09-2.86.38-5.68.59-8.51,1.28-2.01.49-3.94,1.18-5.74,2.2s-3.11,2.14-4.6,3.44c-.2.17-.39.34-.58.51-.41.36-.19.17.68-.57l-1.38,1.17c-.71.63.28-.22.47-.38-1.06.9,1.25-.59.5-.25-1.48.68-2.87,1.54-4.06,2.65-.14.13-.26.25-.39.39-.62.67-.62.32.64-.46l3.77-1.71-.21.05,4.12-.4-.23-.04,3.26.96-.26-.15,1.09.93c-.16-.14-.29-.32-.37-.52l.62,1.2c-1-2.34-2.14-3.96-4.24-5.45-2.66-1.9-5.78-1.75-8.89-1.49-4.63.4-9.3.51-13.95.76-1.95.11-4.3.97-5.89,2.1-1.12.79-2.71,2.31-2.83,3.82-.3,3.84,4.14,4.58,7.04,4.42h0Z"/>
  <path class="cls-3" d="M347.86,144.74c-.86.05-1.72.11-2.58.15-2.11.1-4.03.57-5.97,1.39-.85.36-1.62.9-2.39,1.38-.31.19-.61.4-.89.63-.97.75-1.92,1.58-2.67,2.56-1.16,1.51-1.92,3.11-2.72,4.8-.28.59-.59,1.17-.81,1.79-.61,1.76-.81,2.75-.53,4.6.19.8.6,1.44,1.24,1.92.56.64,1.25,1.08,2.09,1.32.91.35,1.85.5,2.82.45,1.06.09,2.11-.02,3.14-.34,1.87-.57,3.88-1.48,5.1-3.08l.93-1.43c.47-.98.58-1.99.33-3.04-.02-.09-.03-.18-.03-.27l.11,1.53c0-.34.05-.66.14-1l-.44,1.52c.26-.86.71-1.64,1.08-2.46.39-.87.78-1.74,1.3-2.54l-.93,1.43c.3-.44.62-.84,1.01-1.21l-1.35,1.28c.47-.42.98-.81,1.52-1.15l-1.72,1.05c.22-.13.44-.24.67-.33l-2.03.75c.24-.09.48-.16.74-.2l-2.13.36c1.2-.17,2.45-.16,3.66-.22,1.1-.05,2.15-.3,3.14-.74,1-.3,1.91-.77,2.73-1.43.77-.53,1.38-1.19,1.82-1.99.52-.65.82-1.39.9-2.23.07-1.58-.53-3.1-1.91-3.99-1.59-1.03-3.46-1.36-5.34-1.26h0Z"/>
  <path class="cls-3" d="M153.67,154.28c.09,1.67.18,3.35.27,5.02-.13.82.02,1.56.45,2.23.27.76.76,1.36,1.48,1.8.73.53,1.54.87,2.43,1.01.95.29,1.92.39,2.92.27l2.13-.36c1.37-.36,2.61-.96,3.74-1.81l1.35-1.28c.74-.86,1.2-1.85,1.36-2.97-.09-1.67-.18-3.35-.27-5.02.13-.82-.02-1.56-.45-2.23-.27-.76-.76-1.36-1.48-1.8-.73-.53-1.54-.87-2.43-1.01-.95-.29-1.92-.39-2.92-.27l-2.13.36c-1.37.36-2.61.96-3.74,1.81l-1.35,1.28c-.74.86-1.2,1.85-1.36,2.97h0Z"/>
  <path class="cls-3" d="M312.56,130.74s.06,0,.09,0l-1.99.03s.06,0,.09,0l-1.78-.3s.09.02.13.03l-1.47-.61c.07.03.14.07.2.12l-1.08-.9c.17.14.3.33.4.52l-.61-1.16c.31.59.48,1.27.57,1.93.16,1.15.32,2.32.38,3.49.18.7.56,1.24,1.15,1.61.55.55,1.23.9,2.02,1.06.91.27,1.84.36,2.77.29,1.06.04,2.1-.1,3.12-.41l2.03-.72c1.17-.51,2.22-1.22,3.13-2.12l.97-1.27c.5-.82.64-1.7.44-2.63-.05-.92-.19-1.83-.3-2.75-.06-.51-.11-1.01-.23-1.52-.22-.89-.65-1.77-1.15-2.52-.06-.09-.13-.17-.21-.25-.18-.18-.49-.41-.62-.51-.16-.13-.41-.38-.64-.52s-.77-.33-.84-.36c-.43-.18-.54-.24-.85-.34-1.11-.36-2.86-.41-3.98-.27-1.09.09-2.14.34-3.14.75-.99.29-1.91.73-2.76,1.33-.76.46-1.39,1.05-1.87,1.78-.52.55-.84,1.2-.98,1.95l.05,1.31c.29.91.85,1.59,1.69,2.06l1.47.61c1.24.32,2.49.41,3.77.27h0Z"/>
  <path class="cls-6" d="M322.8,43.64s-9.63-12.46-15.81-2.99c-6.18,9.48,9.1,14.9,7.68,14.11-1.42-.79-6.53,6.88.41,10.37,6.94,3.5,11.24-5.8,11.24-5.8,0,0,3.98,3.1,8.62-3.25,4.64-6.35.15-11.14.15-11.14,0,0-6.06-9.83-12.29-1.31Z"/>
  <path class="cls-6" d="M371.66,24.67s4.38-15.13-6.92-14.53c-11.3.61-6.66,16.14-6.86,14.53-.2-1.61-9.4-1.21-8.13,6.46,1.27,7.67,11.31,5.65,11.31,5.65,0,0-.15,5.04,7.71,5.04,7.87,0,9.08-6.46,9.08-6.46,0,0,4.36-10.69-6.19-10.69Z"/>
  <g class="cls-8">
    <path class="cls-9" d="M320.86,50.8h.08c-.43-.03-.86-.06-1.29-.08.13,0,.26.03.39.06l-1.06-.28c.24.07.46.17.68.29l-.76-.46c.88.54,1.53,1.39,2.07,2.25l-.39-.63c.42.69.75,1.41,1.07,2.15.22.52.72.99.77,1.58.13.42.39.7.77.86.42.3.9.47,1.43.51.68.11,1.35.12,2.03.03.79-.03,1.56-.16,2.32-.38,1.37-.4,2.86-.91,3.94-1.87l.78-.77c.39-.44.54-.94.45-1.52-.03-.33-.23-.63-.4-.91-.19-.31-.34-.6-.48-.93-.41-.98-.94-1.9-1.53-2.79-.39-.59-.85-1.17-1.4-1.62-.46-.39-1-.72-1.55-.97-1-.45-2.13-.54-3.21-.56-.77,0-1.52.09-2.26.28-.8.13-1.57.36-2.32.67-.67.24-1.3.58-1.87,1-.51.29-.95.67-1.32,1.13l-.43.77c-.16.53-.03.99.37,1.37l.76.46c.76.27,1.54.39,2.35.36h0Z"/>
  </g>
  <g class="cls-8">
    <path class="cls-9" d="M366.63,31.79c.23.47.25.97.18,1.49l.08-.54c-.24,1.48-1.09,2.83-2,3.99l.47-.59c-.37.46-.79.9-1.11,1.39-.18.28-.34.58-.55.85l.47-.59c-.07.09-.15.17-.24.24l.82-.62-.06.04c-.41.26-1.56,1.04-1.37,1.75s1.57.82,2.06.83c1.44.04,2.91-.19,4.29-.58s2.78-.87,4-1.65c.75-.48,1.28-.99,1.76-1.73.18-.27.33-.57.53-.83l-.47.59c.92-1.12,1.85-2.24,2.45-3.58.23-.51.41-1.04.5-1.59.12-.69.21-1.38-.1-2.03-.35-.72-1.4-.79-2.06-.83-1.38-.08-2.97.2-4.29.58s-2.82.83-4,1.65l-.82.62c-.39.29-.58.67-.55,1.14h0Z"/>
  </g>
</svg>