<svg width="852" height="541" viewBox="0 0 852 541" fill="none" xmlns="http://www.w3.org/2000/svg">
<g clip-path="url(#clip0_17_2)">
<path d="M774.755 484.275C774.755 484.275 49.1225 485.551 49.1432 485.621C49.215 485.637 49.2676 485.618 49.2676 485.618C50.7589 485.105 50.2245 460.655 38.1545 450.157C38.1545 450.157 40.5941 449.405 9.95599 445.576C15.3308 435.687 6.79754 426.601 5.47695 422.194C4.50519 418.91 2.62586 416.055 3.75996 412.492C5.11303 408.198 8.98862 408.547 10.1905 404.469C10.5349 403.329 10.6273 402.548 6.82695 391.517C11.9247 383.968 11.6239 381.853 11.6239 381.853C11.2502 379.263 9.158 379.012 6.69336 375.34C4.58977 372.225 4.04435 369.356 3.35657 365.624C1.59499 356.135 3.70754 346.96 4.79006 343.008C4.79006 343.008 7.78393 340.531 8.00769 338.192C8.34799 334.364 1.42655 330.056 1.42655 330.056L6.13039 309.078C9.30747 300.69 9.35597 300.141 9.30759 299.4C8.95402 294.28 3.49901 294.464 1.07992 288.014C-0.639025 283.44 1.29436 268.628 0.960051 273.464C9.01092 264.607 8.98769 260.593 8.98769 260.593C8.93425 254.122 0.747024 247.599 0.747024 247.599C0.747024 247.599 2.30213 239.144 2.23395 231.454C2.23395 231.454 2.13849 221.377 -1.19599 210.423C2.65333 200.216 1.93744 197.527 1.93744 197.527C1.15584 194.54 -1.37335 191.029 -1.37335 191.029C-1.37335 191.029 0.992792 185.844 1.81757 182.977C2.65721 180.039 2.29263 178.103 -1.61237 161.946C-3.17603 155.529 -3.45376 154.404 -3.32937 152.243C-3.03134 147.391 -1.11259 145.595 -0.165158 140.957C0.424893 138.007 0.674407 133.704 -1.089 128.052C0.777183 128.432 25.5799 133.143 42.7333 115.474C53.4868 104.412 55.5141 83.2503 55.4607 83.2516C55.7593 83.1561 55.8645 83.1182 55.8645 83.1182L55.4607 83.2516C55.2167 83.8056 770.848 83.2347 784.579 83.1182C784.615 83.1173 784.526 89.2114 784.579 89.2102C788.683 89.4833 786.288 113.819 794.55 126.459C799.147 133.511 809.952 141.369 838.617 141.372C836.221 147.566 836.033 152.486 836.296 155.857C836.296 155.857 836.543 158.822 839.674 170.436C839.674 170.436 831.847 175.238 831.619 180.071C831.405 184.798 838.64 185.491 839.847 191.457C841.095 197.563 834.088 199.799 835.103 207.573C835.647 211.716 838.439 217.29 838.439 217.29C838.439 217.29 834.758 222.948 833.655 228.562C832.127 236.362 835.426 244.735 835.426 244.735C835.426 244.735 831.91 249.222 830.615 252.772C827.562 261.156 834.032 272.195 834.032 272.195C827.637 282.799 827.642 285.08 827.642 285.08C827.64 292.365 835.896 299.7 835.896 299.7C835.896 299.7 832.096 306.352 831.125 312.582C831.125 312.582 830.592 316.043 834.542 332.004C834.542 332.004 830.653 337.367 829.745 341.668C828.182 349.062 836.116 352.886 834.786 359.478C833.721 364.702 829.009 364.355 828.369 369.127C827.426 376.029 837.002 379.106 836.668 386.965C836.431 392.453 831.707 393.096 831.884 398.238C832.118 404.793 839.85 405.439 841.775 412.873C844.168 422.134 835.452 433.837 835.452 433.837C835.452 433.837 803.406 430.395 789.152 441.576C781.706 447.413 774.492 443.856 779.145 475.114L774.755 484.275Z" fill="#D72027"/>
<path d="M700.433 120H130.567C87.7281 120 53 158.317 53 205.584V367.416C53 414.683 87.7281 453 130.567 453H700.433C743.272 453 778 414.683 778 367.416V205.584C778 158.317 743.272 120 700.433 120Z" stroke="#F7F29A" stroke-width="11" stroke-miterlimit="10"/>
<path d="M135.167 308C134.634 308 134.367 307.7 134.367 307.1V243.4C134.367 242.8 134.634 242.5 135.167 242.5H149.367C155.767 242.5 160.501 244 163.567 247C166.701 249.933 168.267 254.4 168.267 260.4C168.267 265.267 167.367 269.2 165.567 272.2C163.767 275.2 161.301 277.267 158.167 278.4V278.5L170.867 306.9C171.267 307.633 171.067 308 170.267 308H163.967C163.567 308 163.267 307.8 163.067 307.4L150.767 279.7H141.567V307.1C141.567 307.7 141.301 308 140.767 308H135.167ZM141.567 273.4H149.167C153.367 273.4 156.401 272.4 158.267 270.4C160.134 268.333 161.067 265.167 161.067 260.9C161.067 256.567 160.134 253.533 158.267 251.8C156.401 250 153.401 249.1 149.267 249.1H141.567V273.4ZM173.877 308C173.277 308 173.077 307.667 173.277 307L189.777 243.2C189.911 242.733 190.244 242.5 190.777 242.5H198.477C198.944 242.5 199.277 242.733 199.477 243.2L216.177 307C216.311 307.667 216.077 308 215.477 308H209.377C209.044 308 208.744 307.767 208.477 307.3L197.577 263.3C197.044 261.1 196.511 258.933 195.977 256.8C195.511 254.6 195.044 252.4 194.577 250.2H194.377C193.911 252.4 193.444 254.567 192.977 256.7C192.511 258.833 192.011 261 191.477 263.2L180.677 307.3C180.544 307.767 180.244 308 179.777 308H173.877ZM183.077 292.2L184.577 285.5H204.377L206.077 292.2H183.077ZM240.167 308.8C233.901 308.8 229.201 307 226.067 303.4C222.934 299.733 221.367 294.267 221.367 287V243.4C221.367 242.8 221.667 242.5 222.267 242.5H227.767C228.301 242.5 228.567 242.8 228.567 243.4V287.1C228.567 292.167 229.534 295.933 231.467 298.4C233.401 300.867 236.301 302.1 240.167 302.1C244.034 302.1 246.901 300.867 248.767 298.4C250.701 295.933 251.667 292.167 251.667 287.1V243.4C251.667 242.8 251.934 242.5 252.467 242.5H257.967C258.567 242.5 258.867 242.8 258.867 243.4V287.1C258.867 294.167 257.267 299.567 254.067 303.3C250.934 306.967 246.301 308.8 240.167 308.8ZM281.079 308C280.612 308 280.346 307.767 280.279 307.3L266.579 243.5C266.446 242.833 266.679 242.5 267.279 242.5H273.079C273.479 242.5 273.746 242.733 273.879 243.2L282.279 283.6C282.812 286.133 283.279 288.867 283.679 291.8C284.146 294.667 284.546 297.233 284.879 299.5H285.079C285.546 297.233 286.012 295 286.479 292.8C287.012 290.533 287.512 288.267 287.979 286L294.379 257.2L291.679 244.5C291.612 244.167 291.646 243.933 291.779 243.8C291.979 243.6 292.212 243.5 292.479 243.5H298.179C298.646 243.5 298.946 243.767 299.079 244.3L307.579 286.2C308.046 288.467 308.479 290.7 308.879 292.9C309.279 295.1 309.679 297.3 310.079 299.5H310.179C310.512 297.233 310.879 294.767 311.279 292.1C311.746 289.367 312.212 286.567 312.679 283.7L320.779 243.2C320.912 242.733 321.212 242.5 321.679 242.5H327.579C328.179 242.5 328.412 242.833 328.279 243.5L314.979 307.2C314.846 307.733 314.579 308 314.179 308H306.379C305.979 308 305.712 307.733 305.579 307.2L300.379 281.8C299.912 279.667 299.479 277.6 299.079 275.6C298.679 273.533 298.312 271.467 297.979 269.4H297.779C297.379 271.467 296.946 273.533 296.479 275.6C296.079 277.6 295.612 279.633 295.079 281.7L289.279 307.2C289.146 307.733 288.879 308 288.479 308H281.079ZM346.534 308C345.934 308 345.734 307.667 345.934 307L362.434 243.2C362.567 242.733 362.9 242.5 363.434 242.5H371.134C371.6 242.5 371.934 242.733 372.134 243.2L388.834 307C388.967 307.667 388.734 308 388.134 308H382.034C381.7 308 381.4 307.767 381.134 307.3L370.234 263.3C369.7 261.1 369.167 258.933 368.634 256.8C368.167 254.6 367.7 252.4 367.234 250.2H367.034C366.567 252.4 366.1 254.567 365.634 256.7C365.167 258.833 364.667 261 364.134 263.2L353.334 307.3C353.2 307.767 352.9 308 352.434 308H346.534ZM355.734 292.2L357.234 285.5H377.034L378.734 292.2H355.734ZM396.007 308C395.474 308 395.207 307.7 395.207 307.1V243.4C395.207 242.8 395.474 242.5 396.007 242.5H401.607C401.874 242.5 402.074 242.6 402.207 242.8C402.34 242.933 402.407 243.133 402.407 243.4V301.2H423.107C423.64 301.2 423.907 301.533 423.907 302.2V307.1C423.907 307.7 423.64 308 423.107 308H396.007ZM433.119 308C432.519 308 432.219 307.7 432.219 307.1V243.4C432.219 242.8 432.485 242.5 433.019 242.5H460.719C461.252 242.5 461.519 242.8 461.519 243.4V248.3C461.519 248.967 461.252 249.3 460.719 249.3H439.419V271.4H458.919C459.452 271.4 459.719 271.7 459.719 272.3V277C459.719 277.6 459.452 277.9 458.919 277.9H439.419V301.2H460.719C461.252 301.2 461.519 301.533 461.519 302.2V307.1C461.519 307.7 461.252 308 460.719 308H433.119ZM469.532 321.8C468.599 322.133 468.032 321.967 467.832 321.3L466.332 316.2C466.265 315.8 466.299 315.467 466.432 315.2C466.565 315 466.865 314.867 467.332 314.8C468.732 314.4 469.899 313.633 470.832 312.5C471.765 311.433 472.465 309.933 472.932 308C473.399 306 473.632 303.5 473.632 300.5V243.4C473.632 242.8 473.899 242.5 474.432 242.5H480.132C480.599 242.5 480.832 242.8 480.832 243.4V300.3C480.832 304.833 480.399 308.567 479.532 311.5C478.665 314.433 477.399 316.7 475.732 318.3C474.065 319.967 471.999 321.133 469.532 321.8ZM487.94 308C487.34 308 487.14 307.667 487.34 307L503.84 243.2C503.973 242.733 504.307 242.5 504.84 242.5H512.54C513.007 242.5 513.34 242.733 513.54 243.2L530.24 307C530.373 307.667 530.14 308 529.54 308H523.44C523.107 308 522.807 307.767 522.54 307.3L511.64 263.3C511.107 261.1 510.573 258.933 510.04 256.8C509.573 254.6 509.107 252.4 508.64 250.2H508.44C507.973 252.4 507.507 254.567 507.04 256.7C506.573 258.833 506.073 261 505.54 263.2L494.74 307.3C494.607 307.767 494.307 308 493.84 308H487.94ZM497.14 292.2L498.64 285.5H518.44L520.14 292.2H497.14ZM537.313 308C536.847 308 536.613 307.7 536.613 307.1V243.4C536.613 242.8 536.88 242.5 537.413 242.5H546.813C547.347 242.5 547.647 242.7 547.713 243.1L561.713 281.5C562.513 283.433 563.28 285.467 564.013 287.6C564.747 289.733 565.413 291.8 566.013 293.8C566.68 295.8 567.247 297.633 567.713 299.3H567.913C567.847 297.5 567.78 295.533 567.713 293.4C567.647 291.267 567.58 289.133 567.513 287C567.513 284.8 567.513 282.833 567.513 281.1V243.4C567.513 242.8 567.78 242.5 568.313 242.5H573.813C574.347 242.5 574.613 242.8 574.613 243.4V307.1C574.613 307.7 574.347 308 573.813 308H564.513C564.113 308 563.813 307.8 563.613 307.4L549.913 270.2C548.647 266.8 547.513 263.5 546.513 260.3C545.513 257.1 544.547 254.067 543.613 251.2H543.413C543.48 253.2 543.513 255.333 543.513 257.6C543.513 259.867 543.513 262.133 543.513 264.4C543.58 266.6 543.613 268.733 543.613 270.8V307.1C543.613 307.7 543.38 308 542.913 308H537.313ZM588.49 308C587.89 308 587.59 307.7 587.59 307.1V243.4C587.59 242.8 587.857 242.5 588.39 242.5H601.29C609.423 242.5 615.49 244.767 619.49 249.3C623.49 253.767 625.49 260.567 625.49 269.7V277.8C625.49 288 623.523 295.6 619.59 300.6C615.723 305.533 609.723 308 601.59 308H588.49ZM594.79 301.4H600.99C606.99 301.4 611.357 299.567 614.09 295.9C616.89 292.167 618.29 286.3 618.29 278.3V269.3C618.29 262.367 616.89 257.267 614.09 254C611.29 250.733 606.857 249.1 600.79 249.1H594.79V301.4ZM637.609 308C637.075 308 636.809 307.7 636.809 307.1V243.4C636.809 242.8 637.075 242.5 637.609 242.5H651.809C658.209 242.5 662.942 244 666.009 247C669.142 249.933 670.709 254.4 670.709 260.4C670.709 265.267 669.809 269.2 668.009 272.2C666.209 275.2 663.742 277.267 660.609 278.4V278.5L673.309 306.9C673.709 307.633 673.509 308 672.709 308H666.409C666.009 308 665.709 307.8 665.509 307.4L653.209 279.7H644.009V307.1C644.009 307.7 643.742 308 643.209 308H637.609ZM644.009 273.4H651.609C655.809 273.4 658.842 272.4 660.709 270.4C662.575 268.333 663.509 265.167 663.509 260.9C663.509 256.567 662.575 253.533 660.709 251.8C658.842 250 655.842 249.1 651.709 249.1H644.009V273.4ZM700.416 308.8C694.15 308.8 689.383 307.067 686.116 303.6C682.85 300.133 681.216 295.067 681.216 288.4V262.2C681.216 255.467 682.85 250.367 686.116 246.9C689.383 243.433 694.15 241.7 700.416 241.7C706.75 241.7 711.55 243.433 714.816 246.9C718.083 250.367 719.716 255.467 719.716 262.2V288.4C719.716 295.067 718.083 300.133 714.816 303.6C711.55 307.067 706.75 308.8 700.416 308.8ZM700.416 302.1C704.35 302.1 707.35 300.967 709.416 298.7C711.483 296.367 712.516 292.833 712.516 288.1V262.5C712.516 257.7 711.483 254.167 709.416 251.9C707.35 249.567 704.35 248.4 700.416 248.4C696.55 248.4 693.583 249.567 691.516 251.9C689.45 254.167 688.416 257.7 688.416 262.5V288.1C688.416 292.833 689.45 296.367 691.516 298.7C693.583 300.967 696.55 302.1 700.416 302.1Z" fill="#F7F29A"/>
<path d="M172 366C173.212 374.688 174.422 383.377 175.634 392.065C179.172 390.529 182.707 388.992 186.245 387.456C183.748 390.145 181.252 392.833 178.756 395.523C188.503 396.514 198.253 397.508 208 398.499C198.356 399.427 188.712 400.355 179.066 401.285C181.666 403.909 184.268 406.535 186.868 409.159C183.02 407.559 179.169 405.958 175.321 404.358C174.215 413.238 173.106 422.119 172 431C170.716 422.119 169.429 413.238 168.145 404.358C164.92 406.023 161.695 407.686 158.47 409.352C160.237 406.535 162.007 403.718 163.775 400.902C154.516 400.101 145.259 399.301 136 398.501L163.371 395.274C161.216 392.733 159.061 390.191 156.909 387.648C160.757 389.121 164.607 390.594 168.455 392.065C169.636 383.377 170.817 374.688 172 366Z" fill="#F7F29A"/>
<path d="M677 366C678.212 374.688 679.422 383.377 680.634 392.065C684.172 390.529 687.707 388.992 691.245 387.456C688.748 390.145 686.252 392.833 683.756 395.523C693.503 396.514 703.253 397.508 713 398.499C703.356 399.427 693.712 400.355 684.066 401.285C686.666 403.909 689.268 406.535 691.868 409.159C688.02 407.559 684.169 405.958 680.321 404.358C679.215 413.238 678.106 422.119 677 431C675.716 422.119 674.429 413.238 673.145 404.358C669.92 406.023 666.695 407.686 663.47 409.352C665.237 406.535 667.007 403.718 668.775 400.902C659.516 400.101 650.259 399.301 641 398.501L668.371 395.274C666.216 392.733 664.061 390.191 661.909 387.648C665.757 389.121 669.607 390.594 673.455 392.065C674.636 383.377 675.817 374.688 677 366Z" fill="#F7F29A"/>
<path d="M677 135C678.212 143.688 679.422 152.377 680.634 161.065C684.172 159.529 687.707 157.992 691.245 156.456C688.748 159.145 686.252 161.833 683.756 164.523C693.503 165.514 703.253 166.508 713 167.499C703.356 168.427 693.712 169.355 684.066 170.285C686.666 172.909 689.268 175.535 691.868 178.159C688.02 176.559 684.169 174.958 680.321 173.358C679.215 182.238 678.106 191.119 677 200C675.716 191.119 674.429 182.238 673.145 173.358C669.92 175.023 666.695 176.686 663.47 178.352C665.237 175.535 667.007 172.718 668.775 169.902C659.516 169.101 650.259 168.301 641 167.501L668.371 164.274C666.216 161.733 664.061 159.191 661.909 156.648C665.757 158.121 669.607 159.594 673.455 161.065C674.636 152.377 675.817 143.688 677 135Z" fill="#F7F29A"/>
<path d="M172 135C173.212 143.688 174.422 152.377 175.634 161.065C179.172 159.529 182.707 157.992 186.245 156.456C183.748 159.145 181.252 161.833 178.756 164.523C188.503 165.514 198.253 166.508 208 167.499C198.356 168.427 188.712 169.355 179.066 170.285C181.666 172.909 184.268 175.535 186.868 178.159C183.02 176.559 179.169 174.958 175.321 173.358C174.215 182.238 173.106 191.119 172 200C170.716 191.119 169.429 182.238 168.145 173.358C164.92 175.023 161.695 176.686 158.47 178.352C160.237 175.535 162.007 172.718 163.775 169.902C154.516 169.101 145.259 168.301 136 167.501L163.371 164.274C161.216 161.733 159.061 159.191 156.909 156.648C160.757 158.121 164.607 159.594 168.455 161.065C169.636 152.377 170.817 143.688 172 135Z" fill="#F7F29A"/>
<path d="M289.201 357.66C290.671 357.66 291.966 357.893 293.086 358.36C294.206 358.803 295.081 359.468 295.711 360.355C296.364 361.242 296.691 362.338 296.691 363.645C296.691 364.648 296.469 365.523 296.026 366.27C295.606 367.017 295.034 367.682 294.311 368.265C293.588 368.825 292.794 369.327 291.931 369.77C292.958 370.26 293.891 370.82 294.731 371.45C295.571 372.057 296.236 372.768 296.726 373.585C297.239 374.402 297.496 375.382 297.496 376.525C297.496 377.925 297.158 379.138 296.481 380.165C295.804 381.168 294.848 381.95 293.611 382.51C292.398 383.07 290.963 383.35 289.306 383.35C287.509 383.35 285.981 383.082 284.721 382.545C283.484 382.008 282.539 381.25 281.886 380.27C281.256 379.267 280.941 378.053 280.941 376.63C280.941 375.487 281.174 374.495 281.641 373.655C282.131 372.815 282.773 372.092 283.566 371.485C284.359 370.878 285.211 370.365 286.121 369.945C285.304 369.478 284.558 368.953 283.881 368.37C283.228 367.763 282.703 367.075 282.306 366.305C281.933 365.535 281.746 364.637 281.746 363.61C281.746 362.327 282.073 361.253 282.726 360.39C283.379 359.503 284.266 358.827 285.386 358.36C286.506 357.893 287.778 357.66 289.201 357.66ZM283.951 376.665C283.951 377.878 284.383 378.893 285.246 379.71C286.109 380.503 287.439 380.9 289.236 380.9C290.379 380.9 291.336 380.713 292.106 380.34C292.876 379.967 293.459 379.453 293.856 378.8C294.276 378.147 294.486 377.4 294.486 376.56C294.486 375.743 294.264 375.032 293.821 374.425C293.401 373.795 292.794 373.235 292.001 372.745C291.231 372.255 290.309 371.812 289.236 371.415L288.676 371.205C287.649 371.648 286.786 372.127 286.086 372.64C285.386 373.153 284.849 373.737 284.476 374.39C284.126 375.043 283.951 375.802 283.951 376.665ZM289.166 360.145C287.883 360.145 286.821 360.46 285.981 361.09C285.164 361.697 284.756 362.583 284.756 363.75C284.756 364.613 284.954 365.337 285.351 365.92C285.771 366.503 286.331 367.005 287.031 367.425C287.731 367.822 288.501 368.207 289.341 368.58C290.158 368.23 290.881 367.845 291.511 367.425C292.164 367.005 292.678 366.503 293.051 365.92C293.448 365.313 293.646 364.59 293.646 363.75C293.646 362.583 293.238 361.697 292.421 361.09C291.604 360.46 290.519 360.145 289.166 360.145ZM322.775 381.11C322.775 380.247 322.985 379.64 323.405 379.29C323.825 378.94 324.327 378.765 324.91 378.765C325.517 378.765 326.03 378.94 326.45 379.29C326.894 379.64 327.115 380.247 327.115 381.11C327.115 381.95 326.894 382.557 326.45 382.93C326.03 383.303 325.517 383.49 324.91 383.49C324.327 383.49 323.825 383.303 323.405 382.93C322.985 382.557 322.775 381.95 322.775 381.11ZM322.775 366.13C322.775 365.243 322.985 364.625 323.405 364.275C323.825 363.925 324.327 363.75 324.91 363.75C325.517 363.75 326.03 363.925 326.45 364.275C326.894 364.625 327.115 365.243 327.115 366.13C327.115 366.97 326.894 367.577 326.45 367.95C326.03 368.323 325.517 368.51 324.91 368.51C324.327 368.51 323.825 368.323 323.405 367.95C322.985 367.577 322.775 366.97 322.775 366.13ZM368.926 370.47C368.926 372.5 368.774 374.308 368.471 375.895C368.167 377.482 367.677 378.835 367.001 379.955C366.347 381.052 365.484 381.892 364.411 382.475C363.361 383.058 362.089 383.35 360.596 383.35C358.729 383.35 357.177 382.837 355.941 381.81C354.727 380.783 353.817 379.313 353.211 377.4C352.627 375.463 352.336 373.153 352.336 370.47C352.336 367.763 352.604 365.453 353.141 363.54C353.701 361.627 354.587 360.168 355.801 359.165C357.014 358.138 358.612 357.625 360.596 357.625C362.462 357.625 364.014 358.138 365.251 359.165C366.487 360.168 367.409 361.627 368.016 363.54C368.622 365.453 368.926 367.763 368.926 370.47ZM355.416 370.47C355.416 372.757 355.579 374.658 355.906 376.175C356.256 377.692 356.804 378.835 357.551 379.605C358.321 380.352 359.336 380.725 360.596 380.725C361.856 380.725 362.859 380.352 363.606 379.605C364.376 378.858 364.936 377.727 365.286 376.21C365.636 374.67 365.811 372.757 365.811 370.47C365.811 368.183 365.636 366.293 365.286 364.8C364.936 363.283 364.376 362.152 363.606 361.405C362.859 360.635 361.856 360.25 360.596 360.25C359.336 360.25 358.321 360.635 357.551 361.405C356.804 362.152 356.256 363.283 355.906 364.8C355.579 366.293 355.416 368.183 355.416 370.47ZM409.955 370.47C409.955 372.5 409.803 374.308 409.5 375.895C409.197 377.482 408.707 378.835 408.03 379.955C407.377 381.052 406.513 381.892 405.44 382.475C404.39 383.058 403.118 383.35 401.625 383.35C399.758 383.35 398.207 382.837 396.97 381.81C395.757 380.783 394.847 379.313 394.24 377.4C393.657 375.463 393.365 373.153 393.365 370.47C393.365 367.763 393.633 365.453 394.17 363.54C394.73 361.627 395.617 360.168 396.83 359.165C398.043 358.138 399.642 357.625 401.625 357.625C403.492 357.625 405.043 358.138 406.28 359.165C407.517 360.168 408.438 361.627 409.045 363.54C409.652 365.453 409.955 367.763 409.955 370.47ZM396.445 370.47C396.445 372.757 396.608 374.658 396.935 376.175C397.285 377.692 397.833 378.835 398.58 379.605C399.35 380.352 400.365 380.725 401.625 380.725C402.885 380.725 403.888 380.352 404.635 379.605C405.405 378.858 405.965 377.727 406.315 376.21C406.665 374.67 406.84 372.757 406.84 370.47C406.84 368.183 406.665 366.293 406.315 364.8C405.965 363.283 405.405 362.152 404.635 361.405C403.888 360.635 402.885 360.25 401.625 360.25C400.365 360.25 399.35 360.635 398.58 361.405C397.833 362.152 397.285 363.283 396.935 364.8C396.608 366.293 396.445 368.183 396.445 370.47ZM470.764 358.01C474.031 358.01 476.411 358.652 477.904 359.935C479.398 361.218 480.144 363.027 480.144 365.36C480.144 366.387 479.969 367.378 479.619 368.335C479.293 369.268 478.744 370.108 477.974 370.855C477.204 371.602 476.178 372.197 474.894 372.64C473.611 373.06 472.036 373.27 470.169 373.27H467.299V383H464.149V358.01H470.764ZM470.484 360.705H467.299V370.575H469.819C471.406 370.575 472.724 370.412 473.774 370.085C474.824 369.735 475.606 369.187 476.119 368.44C476.633 367.693 476.889 366.713 476.889 365.5C476.889 363.89 476.376 362.688 475.349 361.895C474.323 361.102 472.701 360.705 470.484 360.705ZM517.366 383L509.141 361.09H509.001C509.047 361.557 509.082 362.152 509.106 362.875C509.152 363.598 509.187 364.392 509.211 365.255C509.234 366.095 509.246 366.958 509.246 367.845V383H506.341V358.01H510.996L518.696 378.485H518.836L526.676 358.01H531.296V383H528.181V367.635C528.181 366.818 528.192 366.013 528.216 365.22C528.239 364.403 528.274 363.645 528.321 362.945C528.367 362.222 528.402 361.615 528.426 361.125H528.286L519.956 383H517.366ZM215.496 427H212.346V404.775H204.541V402.01H223.266V404.775H215.496V427ZM267.145 427H263.995V415.345H251.185V427H248.035V402.01H251.185V412.58H263.995V402.01H267.145V427ZM302.012 427H292.982V425.18L295.922 424.515V404.53L292.982 403.83V402.01H302.012V403.83L299.072 404.53V424.515L302.012 425.18V427ZM342.012 420.315C342.012 421.808 341.651 423.08 340.927 424.13C340.204 425.157 339.166 425.95 337.812 426.51C336.482 427.07 334.907 427.35 333.087 427.35C332.154 427.35 331.256 427.303 330.392 427.21C329.552 427.117 328.782 426.988 328.082 426.825C327.382 426.638 326.764 426.417 326.227 426.16V423.15C327.067 423.523 328.106 423.862 329.342 424.165C330.602 424.468 331.897 424.62 333.227 424.62C334.464 424.62 335.502 424.457 336.342 424.13C337.182 423.803 337.812 423.337 338.232 422.73C338.652 422.123 338.862 421.412 338.862 420.595C338.862 419.778 338.687 419.09 338.337 418.53C337.987 417.97 337.381 417.457 336.517 416.99C335.677 416.5 334.499 415.987 332.982 415.45C331.909 415.053 330.964 414.633 330.147 414.19C329.354 413.723 328.689 413.198 328.152 412.615C327.616 412.032 327.207 411.367 326.927 410.62C326.671 409.873 326.542 409.01 326.542 408.03C326.542 406.7 326.881 405.568 327.557 404.635C328.234 403.678 329.167 402.943 330.357 402.43C331.571 401.917 332.959 401.66 334.522 401.66C335.899 401.66 337.159 401.788 338.302 402.045C339.446 402.302 340.484 402.64 341.417 403.06L340.437 405.755C339.574 405.382 338.629 405.067 337.602 404.81C336.599 404.553 335.549 404.425 334.452 404.425C333.402 404.425 332.527 404.577 331.827 404.88C331.127 405.183 330.602 405.615 330.252 406.175C329.902 406.712 329.727 407.342 329.727 408.065C329.727 408.905 329.902 409.605 330.252 410.165C330.602 410.725 331.174 411.227 331.967 411.67C332.761 412.113 333.834 412.592 335.187 413.105C336.657 413.642 337.894 414.225 338.897 414.855C339.924 415.462 340.694 416.197 341.207 417.06C341.744 417.923 342.012 419.008 342.012 420.315ZM403.157 427H394.127V425.18L397.067 424.515V404.53L394.127 403.83V402.01H403.157V403.83L400.217 404.53V424.515L403.157 425.18V427ZM443.157 420.315C443.157 421.808 442.795 423.08 442.072 424.13C441.349 425.157 440.31 425.95 438.957 426.51C437.627 427.07 436.052 427.35 434.232 427.35C433.299 427.35 432.4 427.303 431.537 427.21C430.697 427.117 429.927 426.988 429.227 426.825C428.527 426.638 427.909 426.417 427.372 426.16V423.15C428.212 423.523 429.25 423.862 430.487 424.165C431.747 424.468 433.042 424.62 434.372 424.62C435.609 424.62 436.647 424.457 437.487 424.13C438.327 423.803 438.957 423.337 439.377 422.73C439.797 422.123 440.007 421.412 440.007 420.595C440.007 419.778 439.832 419.09 439.482 418.53C439.132 417.97 438.525 417.457 437.662 416.99C436.822 416.5 435.644 415.987 434.127 415.45C433.054 415.053 432.109 414.633 431.292 414.19C430.499 413.723 429.834 413.198 429.297 412.615C428.76 412.032 428.352 411.367 428.072 410.62C427.815 409.873 427.687 409.01 427.687 408.03C427.687 406.7 428.025 405.568 428.702 404.635C429.379 403.678 430.312 402.943 431.502 402.43C432.715 401.917 434.104 401.66 435.667 401.66C437.044 401.66 438.304 401.788 439.447 402.045C440.59 402.302 441.629 402.64 442.562 403.06L441.582 405.755C440.719 405.382 439.774 405.067 438.747 404.81C437.744 404.553 436.694 404.425 435.597 404.425C434.547 404.425 433.672 404.577 432.972 404.88C432.272 405.183 431.747 405.615 431.397 406.175C431.047 406.712 430.872 407.342 430.872 408.065C430.872 408.905 431.047 409.605 431.397 410.165C431.747 410.725 432.319 411.227 433.112 411.67C433.905 412.113 434.979 412.592 436.332 413.105C437.802 413.642 439.039 414.225 440.042 414.855C441.069 415.462 441.839 416.197 442.352 417.06C442.889 417.923 443.157 419.008 443.157 420.315ZM500.416 427H497.266V402.01H511.231V404.775H500.416V413.63H510.566V416.395H500.416V427ZM551.412 427L548.402 419.265H538.497L535.522 427H532.337L542.102 401.905H544.937L554.667 427H551.412ZM544.657 408.905C544.587 408.718 544.47 408.38 544.307 407.89C544.144 407.4 543.98 406.898 543.817 406.385C543.677 405.848 543.56 405.44 543.467 405.16C543.35 405.627 543.222 406.105 543.082 406.595C542.965 407.062 542.837 407.493 542.697 407.89C542.58 408.287 542.475 408.625 542.382 408.905L539.547 416.465H547.457L544.657 408.905ZM597.355 427H593.645L584.79 415.065L582.235 417.305V427H579.085V402.01H582.235V414.33C582.935 413.537 583.647 412.743 584.37 411.95C585.094 411.157 585.817 410.363 586.54 409.57L593.295 402.01H596.97L587.065 412.895L597.355 427ZM635.72 427H621.755V402.01H635.72V404.775H624.905V412.58H635.09V415.31H624.905V424.235H635.72V427Z" fill="#F7F29A"/>
<path d="M249.554 178H233.034V175.445L239.579 168.83C240.839 167.57 241.9 166.45 242.764 165.47C243.627 164.49 244.28 163.533 244.724 162.6C245.167 161.643 245.389 160.605 245.389 159.485C245.389 158.108 244.98 157.07 244.164 156.37C243.347 155.647 242.285 155.285 240.979 155.285C239.765 155.285 238.692 155.495 237.759 155.915C236.849 156.335 235.915 156.918 234.959 157.665L233.314 155.6C233.967 155.04 234.679 154.538 235.449 154.095C236.242 153.652 237.094 153.302 238.004 153.045C238.937 152.788 239.929 152.66 240.979 152.66C242.542 152.66 243.884 152.928 245.004 153.465C246.124 154.002 246.987 154.772 247.594 155.775C248.224 156.755 248.539 157.933 248.539 159.31C248.539 160.29 248.387 161.223 248.084 162.11C247.78 162.973 247.349 163.825 246.789 164.665C246.229 165.505 245.552 166.357 244.759 167.22C243.965 168.083 243.09 168.982 242.134 169.915L236.919 175.06V175.2H249.554V178ZM290.688 165.47C290.688 167.5 290.536 169.308 290.233 170.895C289.929 172.482 289.439 173.835 288.763 174.955C288.109 176.052 287.246 176.892 286.173 177.475C285.123 178.058 283.851 178.35 282.358 178.35C280.491 178.35 278.939 177.837 277.703 176.81C276.489 175.783 275.579 174.313 274.973 172.4C274.389 170.463 274.098 168.153 274.098 165.47C274.098 162.763 274.366 160.453 274.903 158.54C275.463 156.627 276.349 155.168 277.563 154.165C278.776 153.138 280.374 152.625 282.358 152.625C284.224 152.625 285.776 153.138 287.013 154.165C288.249 155.168 289.171 156.627 289.778 158.54C290.384 160.453 290.688 162.763 290.688 165.47ZM277.178 165.47C277.178 167.757 277.341 169.658 277.668 171.175C278.018 172.692 278.566 173.835 279.313 174.605C280.083 175.352 281.098 175.725 282.358 175.725C283.618 175.725 284.621 175.352 285.368 174.605C286.138 173.858 286.698 172.727 287.048 171.21C287.398 169.67 287.573 167.757 287.573 165.47C287.573 163.183 287.398 161.293 287.048 159.8C286.698 158.283 286.138 157.152 285.368 156.405C284.621 155.635 283.618 155.25 282.358 155.25C281.098 155.25 280.083 155.635 279.313 156.405C278.566 157.152 278.018 158.283 277.668 159.8C277.341 161.293 277.178 163.183 277.178 165.47ZM331.612 178H315.092V175.445L321.637 168.83C322.897 167.57 323.959 166.45 324.822 165.47C325.685 164.49 326.339 163.533 326.782 162.6C327.225 161.643 327.447 160.605 327.447 159.485C327.447 158.108 327.039 157.07 326.222 156.37C325.405 155.647 324.344 155.285 323.037 155.285C321.824 155.285 320.75 155.495 319.817 155.915C318.907 156.335 317.974 156.918 317.017 157.665L315.372 155.6C316.025 155.04 316.737 154.538 317.507 154.095C318.3 153.652 319.152 153.302 320.062 153.045C320.995 152.788 321.987 152.66 323.037 152.66C324.6 152.66 325.942 152.928 327.062 153.465C328.182 154.002 329.045 154.772 329.652 155.775C330.282 156.755 330.597 157.933 330.597 159.31C330.597 160.29 330.445 161.223 330.142 162.11C329.839 162.973 329.407 163.825 328.847 164.665C328.287 165.505 327.61 166.357 326.817 167.22C326.024 168.083 325.149 168.982 324.192 169.915L318.977 175.06V175.2H331.612V178ZM364.066 162.67C365.77 162.67 367.251 162.962 368.511 163.545C369.771 164.128 370.74 164.968 371.416 166.065C372.116 167.138 372.466 168.457 372.466 170.02C372.466 171.747 372.093 173.24 371.346 174.5C370.6 175.737 369.526 176.693 368.126 177.37C366.75 178.023 365.081 178.35 363.121 178.35C361.838 178.35 360.625 178.233 359.481 178C358.361 177.767 357.416 177.428 356.646 176.985V174.08C357.486 174.593 358.501 175.002 359.691 175.305C360.905 175.585 362.06 175.725 363.156 175.725C364.393 175.725 365.466 175.538 366.376 175.165C367.31 174.768 368.033 174.173 368.546 173.38C369.06 172.563 369.316 171.548 369.316 170.335C369.316 168.702 368.815 167.453 367.811 166.59C366.808 165.703 365.221 165.26 363.051 165.26C362.398 165.26 361.651 165.318 360.811 165.435C359.971 165.552 359.295 165.668 358.781 165.785L357.241 164.805L358.186 153.01H370.716V155.81H360.811L360.216 163.055C360.613 162.985 361.15 162.903 361.826 162.81C362.503 162.717 363.25 162.67 364.066 162.67ZM413.776 165.47C413.776 167.5 413.624 169.308 413.321 170.895C413.017 172.482 412.527 173.835 411.851 174.955C411.197 176.052 410.334 176.892 409.261 177.475C408.211 178.058 406.939 178.35 405.446 178.35C403.579 178.35 402.027 177.837 400.791 176.81C399.577 175.783 398.667 174.313 398.061 172.4C397.477 170.463 397.186 168.153 397.186 165.47C397.186 162.763 397.454 160.453 397.991 158.54C398.551 156.627 399.437 155.168 400.651 154.165C401.864 153.138 403.462 152.625 405.446 152.625C407.312 152.625 408.864 153.138 410.101 154.165C411.337 155.168 412.259 156.627 412.866 158.54C413.472 160.453 413.776 162.763 413.776 165.47ZM400.266 165.47C400.266 167.757 400.429 169.658 400.756 171.175C401.106 172.692 401.654 173.835 402.401 174.605C403.171 175.352 404.186 175.725 405.446 175.725C406.706 175.725 407.709 175.352 408.456 174.605C409.226 173.858 409.786 172.727 410.136 171.21C410.486 169.67 410.661 167.757 410.661 165.47C410.661 163.183 410.486 161.293 410.136 159.8C409.786 158.283 409.226 157.152 408.456 156.405C407.709 155.635 406.706 155.25 405.446 155.25C404.186 155.25 403.171 155.635 402.401 156.405C401.654 157.152 401.106 158.283 400.756 159.8C400.429 161.293 400.266 163.183 400.266 165.47ZM446.125 162.67C447.828 162.67 449.31 162.962 450.57 163.545C451.83 164.128 452.798 164.968 453.475 166.065C454.175 167.138 454.525 168.457 454.525 170.02C454.525 171.747 454.152 173.24 453.405 174.5C452.658 175.737 451.585 176.693 450.185 177.37C448.808 178.023 447.14 178.35 445.18 178.35C443.897 178.35 442.683 178.233 441.54 178C440.42 177.767 439.475 177.428 438.705 176.985V174.08C439.545 174.593 440.56 175.002 441.75 175.305C442.963 175.585 444.118 175.725 445.215 175.725C446.452 175.725 447.525 175.538 448.435 175.165C449.368 174.768 450.092 174.173 450.605 173.38C451.118 172.563 451.375 171.548 451.375 170.335C451.375 168.702 450.873 167.453 449.87 166.59C448.867 165.703 447.28 165.26 445.11 165.26C444.457 165.26 443.71 165.318 442.87 165.435C442.03 165.552 441.353 165.668 440.84 165.785L439.3 164.805L440.245 153.01H452.775V155.81H442.87L442.275 163.055C442.672 162.985 443.208 162.903 443.885 162.81C444.562 162.717 445.308 162.67 446.125 162.67ZM489.954 178H486.944V160.535C486.944 159.858 486.944 159.287 486.944 158.82C486.968 158.353 486.991 157.922 487.014 157.525C487.038 157.105 487.061 156.673 487.084 156.23C486.711 156.603 486.373 156.918 486.069 157.175C485.766 157.432 485.381 157.758 484.914 158.155L482.254 160.325L480.644 158.26L487.399 153.01H489.954V178ZM523.319 178L533.574 155.81H520.099V153.01H536.864V155.39L526.714 178H523.319ZM569.213 162.67C570.916 162.67 572.398 162.962 573.658 163.545C574.918 164.128 575.886 164.968 576.563 166.065C577.263 167.138 577.613 168.457 577.613 170.02C577.613 171.747 577.24 173.24 576.493 174.5C575.746 175.737 574.673 176.693 573.273 177.37C571.896 178.023 570.228 178.35 568.268 178.35C566.985 178.35 565.771 178.233 564.628 178C563.508 177.767 562.563 177.428 561.793 176.985V174.08C562.633 174.593 563.648 175.002 564.838 175.305C566.051 175.585 567.206 175.725 568.303 175.725C569.54 175.725 570.613 175.538 571.523 175.165C572.456 174.768 573.18 174.173 573.693 173.38C574.206 172.563 574.463 171.548 574.463 170.335C574.463 168.702 573.961 167.453 572.958 166.59C571.955 165.703 570.368 165.26 568.198 165.26C567.545 165.26 566.798 165.318 565.958 165.435C565.118 165.552 564.441 165.668 563.928 165.785L562.388 164.805L563.333 153.01H575.863V155.81H565.958L565.363 163.055C565.76 162.985 566.296 162.903 566.973 162.81C567.65 162.717 568.396 162.67 569.213 162.67ZM617.872 158.855C617.872 159.975 617.662 160.943 617.242 161.76C616.822 162.577 616.216 163.242 615.422 163.755C614.652 164.268 613.742 164.63 612.692 164.84V164.98C614.699 165.213 616.192 165.843 617.172 166.87C618.152 167.897 618.642 169.238 618.642 170.895C618.642 172.342 618.304 173.637 617.627 174.78C616.951 175.9 615.901 176.775 614.477 177.405C613.077 178.035 611.269 178.35 609.052 178.35C607.746 178.35 606.532 178.245 605.412 178.035C604.292 177.848 603.219 177.498 602.192 176.985V174.115C603.242 174.628 604.374 175.037 605.587 175.34C606.801 175.62 607.967 175.76 609.087 175.76C611.327 175.76 612.937 175.328 613.917 174.465C614.921 173.578 615.422 172.365 615.422 170.825C615.422 169.775 615.142 168.935 614.582 168.305C614.046 167.652 613.252 167.173 612.202 166.87C611.152 166.567 609.892 166.415 608.422 166.415H606.007V163.79H608.457C609.834 163.79 610.977 163.592 611.887 163.195C612.821 162.798 613.521 162.25 613.987 161.55C614.477 160.827 614.722 159.998 614.722 159.065C614.722 157.852 614.314 156.918 613.497 156.265C612.681 155.588 611.572 155.25 610.172 155.25C609.286 155.25 608.481 155.343 607.757 155.53C607.034 155.693 606.357 155.938 605.727 156.265C605.121 156.568 604.502 156.93 603.872 157.35L602.332 155.25C602.939 154.783 603.627 154.352 604.397 153.955C605.191 153.558 606.066 153.243 607.022 153.01C607.979 152.777 609.017 152.66 610.137 152.66C612.751 152.66 614.687 153.243 615.947 154.41C617.231 155.577 617.872 157.058 617.872 158.855Z" fill="#F7F29A"/>
<path d="M654 340H188" stroke="#F7F29A" stroke-width="5" stroke-miterlimit="10"/>
<path d="M659 211L193 211" stroke="#F7F29A" stroke-width="5" stroke-miterlimit="10"/>
</g>
<defs>
<clipPath id="clip0_17_2">
<rect width="852" height="541" fill="white"/>
</clipPath>
</defs>
</svg>
