<svg width="218" height="172" viewBox="0 0 218 172" fill="none" xmlns="http://www.w3.org/2000/svg">
<g filter="url(#filter0_d_2573_2663)">
<rect x="71.9422" y="70.2084" width="17" height="66.9422" transform="rotate(90 71.9422 70.2084)" fill="url(#paint0_linear_2573_2663)"/>
</g>
<g filter="url(#filter1_d_2573_2663)">
<path d="M33.6364 85.147C32.0114 82.411 32.0114 79.0057 33.6364 76.2698L72.7239 10.4614C74.2901 7.82463 77.1299 6.20837 80.1968 6.20837H158.803C161.87 6.20837 164.71 7.82465 166.276 10.4615L205.364 76.2698C206.989 79.0057 206.989 82.411 205.364 85.147L166.276 150.955C164.71 153.592 161.87 155.208 158.803 155.208H80.1968C77.1299 155.208 74.2901 153.592 72.7239 150.955L33.6364 85.147Z" fill="#FED102"/>
<path d="M30.9678 86.7318C28.7625 83.0188 28.7625 78.3979 30.9678 74.6849L70.0547 8.87634C72.1802 5.29794 76.0344 3.10404 80.1964 3.10388H158.804C162.966 3.10403 166.82 5.29793 168.945 8.87634L208.032 74.6849C210.238 78.398 210.238 83.0188 208.032 86.7318L168.945 152.54C166.82 156.119 162.966 158.313 158.804 158.313H80.1964C76.0344 158.313 72.1802 156.119 70.0547 152.54L30.9678 86.7318Z" stroke="white" stroke-width="6.20833"/>
</g>
<path d="M77.877 58.3784C77.237 57.8584 76.597 57.4784 75.957 57.2384C75.317 56.9784 74.697 56.8484 74.097 56.8484C73.337 56.8484 72.717 57.0284 72.237 57.3884C71.757 57.7484 71.517 58.2184 71.517 58.7984C71.517 59.1984 71.637 59.5284 71.877 59.7884C72.117 60.0484 72.427 60.2784 72.807 60.4784C73.207 60.6584 73.647 60.8184 74.127 60.9584C74.627 61.0984 75.117 61.2484 75.597 61.4084C77.517 62.0484 78.917 62.9084 79.797 63.9884C80.697 65.0484 81.147 66.4384 81.147 68.1584C81.147 69.3184 80.947 70.3684 80.547 71.3084C80.167 72.2484 79.597 73.0584 78.837 73.7384C78.097 74.3984 77.177 74.9084 76.077 75.2684C74.997 75.6484 73.767 75.8384 72.387 75.8384C69.527 75.8384 66.877 74.9884 64.437 73.2884L66.957 68.5484C67.837 69.3284 68.707 69.9084 69.567 70.2884C70.427 70.6684 71.277 70.8584 72.117 70.8584C73.077 70.8584 73.787 70.6384 74.247 70.1984C74.727 69.7584 74.967 69.2584 74.967 68.6984C74.967 68.3584 74.907 68.0684 74.787 67.8284C74.667 67.5684 74.467 67.3384 74.187 67.1384C73.907 66.9184 73.537 66.7184 73.077 66.5384C72.637 66.3584 72.097 66.1584 71.457 65.9384C70.697 65.6984 69.947 65.4384 69.207 65.1584C68.487 64.8584 67.837 64.4684 67.257 63.9884C66.697 63.5084 66.237 62.9084 65.877 62.1884C65.537 61.4484 65.367 60.5184 65.367 59.3984C65.367 58.2784 65.547 57.2684 65.907 56.3684C66.287 55.4484 66.807 54.6684 67.467 54.0284C68.147 53.3684 68.967 52.8584 69.927 52.4984C70.907 52.1384 71.997 51.9584 73.197 51.9584C74.317 51.9584 75.487 52.1184 76.707 52.4384C77.927 52.7384 79.097 53.1884 80.217 53.7884L77.877 58.3784ZM83.8315 75.2084L87.6715 52.5884H93.4915L98.0215 64.6484L102.522 52.5884H108.342L112.182 75.2084H106.332L104.382 62.1884L99.0415 75.2084H96.7015L91.6315 62.1884L89.6815 75.2084H83.8315ZM128.206 66.8084L125.566 59.2784L122.926 66.8084H128.206ZM129.766 71.2784H121.366L120.016 75.2084H113.746L122.356 52.5884H128.776L137.386 75.2084H131.116L129.766 71.2784ZM145.839 62.6984H146.949C148.109 62.6984 148.999 62.4584 149.619 61.9784C150.239 61.4984 150.549 60.8084 150.549 59.9084C150.549 59.0084 150.239 58.3184 149.619 57.8384C148.999 57.3584 148.109 57.1184 146.949 57.1184H145.839V62.6984ZM158.769 75.2084H151.449L145.839 66.5084V75.2084H139.959V52.5884H149.109C150.369 52.5884 151.469 52.7784 152.409 53.1584C153.349 53.5184 154.119 54.0184 154.719 54.6584C155.339 55.2984 155.799 56.0384 156.099 56.8784C156.419 57.7184 156.579 58.6184 156.579 59.5784C156.579 61.2984 156.159 62.6984 155.319 63.7784C154.499 64.8384 153.279 65.5584 151.659 65.9384L158.769 75.2084ZM169.838 57.5684V75.2084H163.958V57.5684H159.128V52.5884H174.668V57.5684H169.838ZM80.5362 110.228H81.8862C82.9062 110.228 83.8162 110.068 84.6162 109.748C85.4162 109.428 86.0862 108.988 86.6262 108.428C87.1862 107.868 87.6062 107.208 87.8862 106.448C88.1862 105.668 88.3362 104.818 88.3362 103.898C88.3362 102.998 88.1862 102.158 87.8862 101.378C87.5862 100.598 87.1562 99.9284 86.5962 99.3684C86.0562 98.8084 85.3862 98.3684 84.5862 98.0484C83.7862 97.7284 82.8862 97.5684 81.8862 97.5684H80.5362V110.228ZM74.6562 92.5884H83.3562C84.8962 92.5884 86.3362 92.8984 87.6762 93.5184C89.0362 94.1384 90.2162 94.9684 91.2162 96.0084C92.2362 97.0284 93.0362 98.2284 93.6162 99.6084C94.1962 100.968 94.4862 102.398 94.4862 103.898C94.4862 105.378 94.1962 106.808 93.6162 108.188C93.0562 109.548 92.2662 110.748 91.2462 111.788C90.2462 112.828 89.0662 113.658 87.7062 114.278C86.3662 114.898 84.9162 115.208 83.3562 115.208H74.6562V92.5884ZM104.12 92.5884V115.208H98.2402V92.5884H104.12ZM114.726 92.5884V110.228H121.776V115.208H108.846V92.5884H114.726ZM130.692 92.5884V110.228H137.742V115.208H124.812V92.5884H130.692ZM145.47 103.898C145.47 104.798 145.64 105.628 145.98 106.388C146.32 107.148 146.78 107.808 147.36 108.368C147.94 108.928 148.61 109.368 149.37 109.688C150.15 109.988 150.97 110.138 151.83 110.138C152.69 110.138 153.5 109.988 154.26 109.688C155.04 109.368 155.72 108.928 156.3 108.368C156.9 107.808 157.37 107.148 157.71 106.388C158.05 105.628 158.22 104.798 158.22 103.898C158.22 102.998 158.05 102.168 157.71 101.408C157.37 100.648 156.9 99.9884 156.3 99.4284C155.72 98.8684 155.04 98.4384 154.26 98.1384C153.5 97.8184 152.69 97.6584 151.83 97.6584C150.97 97.6584 150.15 97.8184 149.37 98.1384C148.61 98.4384 147.94 98.8684 147.36 99.4284C146.78 99.9884 146.32 100.648 145.98 101.408C145.64 102.168 145.47 102.998 145.47 103.898ZM139.32 103.898C139.32 102.218 139.63 100.658 140.25 99.2184C140.87 97.7584 141.73 96.4884 142.83 95.4084C143.93 94.3284 145.24 93.4884 146.76 92.8884C148.3 92.2684 149.99 91.9584 151.83 91.9584C153.65 91.9584 155.33 92.2684 156.87 92.8884C158.41 93.4884 159.73 94.3284 160.83 95.4084C161.95 96.4884 162.82 97.7584 163.44 99.2184C164.06 100.658 164.37 102.218 164.37 103.898C164.37 105.578 164.06 107.148 163.44 108.608C162.82 110.048 161.95 111.308 160.83 112.388C159.73 113.468 158.41 114.318 156.87 114.938C155.33 115.538 153.65 115.838 151.83 115.838C149.99 115.838 148.3 115.538 146.76 114.938C145.24 114.318 143.93 113.468 142.83 112.388C141.73 111.308 140.87 110.048 140.25 108.608C139.63 107.148 139.32 105.578 139.32 103.898Z" fill="black"/>
<defs>
<filter id="filter0_d_2573_2663" x="0" y="67.2084" width="78.9422" height="29" filterUnits="userSpaceOnUse" color-interpolation-filters="sRGB">
<feFlood flood-opacity="0" result="BackgroundImageFix"/>
<feColorMatrix in="SourceAlpha" type="matrix" values="0 0 0 0 0 0 0 0 0 0 0 0 0 0 0 0 0 0 127 0" result="hardAlpha"/>
<feMorphology radius="2" operator="dilate" in="SourceAlpha" result="effect1_dropShadow_2573_2663"/>
<feOffset dx="1" dy="3"/>
<feGaussianBlur stdDeviation="2"/>
<feComposite in2="hardAlpha" operator="out"/>
<feColorMatrix type="matrix" values="0 0 0 0 0 0 0 0 0 0 0 0 0 0 0 0 0 0 0.1 0"/>
<feBlend mode="normal" in2="BackgroundImageFix" result="effect1_dropShadow_2573_2663"/>
<feBlend mode="normal" in="SourceGraphic" in2="effect1_dropShadow_2573_2663" result="shape"/>
</filter>
<filter id="filter1_d_2573_2663" x="21.2426" y="0" width="196.515" height="171.35" filterUnits="userSpaceOnUse" color-interpolation-filters="sRGB">
<feFlood flood-opacity="0" result="BackgroundImageFix"/>
<feColorMatrix in="SourceAlpha" type="matrix" values="0 0 0 0 0 0 0 0 0 0 0 0 0 0 0 0 0 0 127 0" result="hardAlpha"/>
<feOffset dy="4.96667"/>
<feGaussianBlur stdDeviation="2.48333"/>
<feComposite in2="hardAlpha" operator="out"/>
<feColorMatrix type="matrix" values="0 0 0 0 0 0 0 0 0 0 0 0 0 0 0 0 0 0 0.25 0"/>
<feBlend mode="normal" in2="BackgroundImageFix" result="effect1_dropShadow_2573_2663"/>
<feBlend mode="normal" in="SourceGraphic" in2="effect1_dropShadow_2573_2663" result="shape"/>
</filter>
<linearGradient id="paint0_linear_2573_2663" x1="71.9422" y1="103.679" x2="88.9422" y2="103.679" gradientUnits="userSpaceOnUse">
<stop stop-color="#909090"/>
<stop offset="0.2" stop-color="#D5D5D5"/>
<stop offset="0.788462" stop-color="#909090"/>
<stop offset="1" stop-color="#808080"/>
</linearGradient>
</defs>
</svg>
