<?xml version="1.0" encoding="UTF-8"?>
<svg id="Layer_1" data-name="Layer 1" xmlns="http://www.w3.org/2000/svg" viewBox="0 0 541 541">
  <defs>
    <style>
      .cls-1 {
        fill: #d7191b;
      }

      .cls-2 {
        fill: #f5f2a3;
      }
    </style>
  </defs>
  <g>
    <g>
      <path class="cls-1" d="M456.36,166.72c0,.09-1.88,89.85-2.65,183.54-.6,72.61-.54,150.37-.54,150.38,0,0-.03.01-.09.04-5.3,2.44-23.72,10.83-43.12,8.18-14.32-1.96-28.09-9.79-28.17-9.82,14.44-51.65,24.76-84.23,31.73-104.92,0,0,.26-.77,14.71-43.52h0c-67.55-49.14-71.7-52.63-77.23-57.59-28.06-25.19-77.07-78.41-65.03-98.53,7.53-12.58,33.59-1.56,84.02-6.22,37.71-3.48,67.56-13.74,86.37-21.54Z"/>
      <path class="cls-2" d="M438.49,355.56c.91-59.48,1.81-118.96,2.72-178.44-16.07,5.31-32.14,10.62-48.21,15.93,6.89,25.99,14.04,52.23,21.44,78.72,7.91,28.32,15.94,56.25,24.05,83.78Z"/>
      <path class="cls-2" d="M435.84,347.95c-15.27-21-32.49-48.81-46.99-83.48-10.07-24.07-16.75-46.49-21.27-65.98-16.97,1.93-33.93,3.85-50.9,5.78,13.45,23.38,31.23,50.32,54.56,78.28,22.38,26.81,44.72,48.39,64.59,65.4Z"/>
      <path class="cls-2" d="M443.01,503.32c-3.39.89-6.77,1.79-10.16,2.68-3.39.89-6.77,1.79-10.16,2.68,6.81-32.59,10.02-59.68,11.69-79.16,2.78-32.43,4.08-76.51,4.08-76.51h0l5.1-.07c.88,26.26,1.28,53.46,1.09,81.54-.16,23.59-.72,46.55-1.63,68.83Z"/>
      <path class="cls-2" d="M409.95,508.85c-2.84-.36-6.35-1.06-10.23-2.41-4.25-1.49-7.69-3.33-10.26-4.96,9-20.3,18.1-44.1,25.9-71.14,7.94-27.52,12.95-52.92,16.14-75.2,0,0,2.4.53,6.14,1.36-1.84,13.01-3.84,26.23-6,39.65-3.19,19.76-5.94,34.93-7.03,40.85-3.5,19.08-8.27,43.39-14.66,71.85Z"/>
      <polygon class="cls-2" points="439.09 322.42 431.36 341.12 411.23 343.23 426.63 356.36 422.42 376.16 439.67 365.57 457.19 375.7 452.45 356.02 467.5 342.48 447.32 340.91 439.09 322.42"/>
    </g>
    <g>
      <path class="cls-1" d="M89.24,172.89c0,.09,3.08,89.82,5.1,183.48,1.56,72.59,2.55,150.35,2.55,150.36,0,0,.03.01.09.04,5.34,2.37,23.87,10.52,43.23,7.6,14.29-2.15,27.96-10.17,28.03-10.19-15.13-51.46-25.88-83.9-33.13-104.48,0,0-.27-.77-15.29-43.32h0c66.89-50.04,70.99-53.58,76.45-58.61,27.72-25.56,76.02-79.43,63.71-99.39-7.7-12.48-33.61-1.12-84.1-5.1-37.75-2.98-67.74-12.84-86.65-20.39Z"/>
      <path class="cls-2" d="M109.62,361.48c-1.7-59.46-3.4-118.93-5.1-178.39,16.14,5.1,32.28,10.19,48.42,15.29-6.55,26.08-13.34,52.42-20.39,79-7.54,28.42-15.19,56.46-22.94,84.1Z"/>
      <path class="cls-2" d="M112.17,353.83c14.99-21.2,31.83-49.24,45.87-84.1,9.75-24.21,16.13-46.71,20.39-66.26,16.99,1.7,33.98,3.4,50.97,5.1-13.13,23.55-30.56,50.74-53.52,79-22.02,27.1-44.07,48.99-63.71,66.26Z"/>
      <path class="cls-2" d="M107.08,509.28c3.4.85,6.8,1.7,10.19,2.55,3.4.85,6.8,1.7,10.19,2.55-7.24-32.49-10.81-59.55-12.74-79-3.21-32.39-5.1-76.45-5.1-76.45h-5.1c-.53,26.27-.56,53.47,0,81.55.47,23.59,1.35,46.53,2.55,68.81Z"/>
      <path class="cls-2" d="M140.21,514.38c2.84-.4,6.34-1.14,10.19-2.55,4.23-1.54,7.64-3.43,10.19-5.1-9.27-20.18-18.68-43.85-26.84-70.79-8.3-27.41-13.66-52.74-17.14-74.98,0,0-2.4.57-6.12,1.44,2.01,12.98,4.19,26.17,6.53,39.56,3.45,19.72,6.41,34.85,7.57,40.76,3.75,19.04,8.85,43.28,15.61,71.65Z"/>
      <polygon class="cls-2" points="108.58 328.35 116.56 346.95 136.72 348.79 121.5 362.13 125.97 381.86 108.58 371.51 91.19 381.86 95.67 362.13 80.45 348.79 100.6 346.95 108.58 328.35"/>
    </g>
    <path class="cls-1" d="M466.4,169.07c.14,19.51-96.49,41.67-190.49,42.05-100.16.41-199.88-23.9-199.42-43.32.3-12.82,44.03-13.32,107.15-45.87,40.31-20.79,68.63-44.39,86.31-61.16,19.62,17.38,51.04,41.99,95.24,63.71,61.22,30.08,101.11,32.08,101.2,44.6Z"/>
    <path class="cls-2" d="M165.69,190.73c-11.06-.8-25.1-2.82-40.77-7.65-14.52-4.47-26.48-10.14-35.68-15.29,24.03-5.05,57.84-14.98,94.29-35.68,41.45-23.54,69.61-51.54,86.65-71.36-15.55,24.03-34.07,49.86-56.06,76.45-16.41,19.84-32.72,37.64-48.42,53.52Z"/>
    <path class="cls-2" d="M375,191.66c11.06-.8,25.1-2.82,40.77-7.65,14.52-4.47,26.48-10.14,35.68-15.29-24.03-5.05-57.84-14.98-94.29-35.68-41.45-23.54-69.61-51.54-86.65-71.36,15.55,24.03,34.07,49.86,56.06,76.45,16.41,19.84,32.72,37.64,48.42,53.52Z"/>
    <path class="cls-2" d="M226.85,198.38c13.73,1.53,29.11,2.55,45.87,2.55,13.82,0,29.21-.69,45.87-2.55-9.43-16.03-19.36-35.6-28.03-58.61-11.21-29.75-17.16-56.89-20.39-79-4.44,23.78-10.9,50.42-20.39,79-7.16,21.57-15.01,41.13-22.94,58.61Z"/>
  </g>
  <path class="cls-1" d="M262.67,16.36v45.92c15.42,4.56,27.3,4.29,35.37,3.17,1.97-.27,9.49-1.92,24.54-5.21,13.78-3.01,15.46-3.51,20.36-4.3,14.53-2.31,14.93-.41,24.89-2.2,18.16-3.27,32.8-12.5,32.72-12.7-.01-.03-.36.07-1.82.64-1.37.2-6.12.89-12.02,1.23-5.36.31-11.31.53-18.87-.86-5.78-1.06-10.52-2.73-13.27-3.71-3.24-1.15-4.24-1.64-6.28-2.48-5.12-2.1-9.44-2.61-22.59-3.61-22.64-1.73-23.05-1.02-27.96-1.89-18.75-3.31-35.05-14.02-35.05-14.02Z"/>
</svg>