<svg width="852" height="541" viewBox="0 0 852 541" fill="none" xmlns="http://www.w3.org/2000/svg">
<g clip-path="url(#clip0_17_2)">
<path d="M757.293 394.852C757.293 394.852 46.906 394.801 46.926 394.855C46.9958 394.867 47.047 394.852 47.047 394.852C48.4994 394.459 48.0371 375.791 36.3169 367.789C36.3169 367.789 38.6925 367.212 8.88851 364.324C14.1419 356.766 5.85986 349.838 4.58523 346.475C3.64739 343.969 1.82539 341.791 2.93736 339.069C4.26412 335.788 8.03451 336.051 9.21361 332.935C9.55144 332.065 9.64316 331.469 5.97122 323.05C10.9495 317.28 10.6618 315.666 10.6618 315.666C10.3042 313.688 8.26898 313.499 5.87937 310.698C3.83978 308.322 3.31582 306.132 2.65536 303.283C0.963594 296.04 3.04089 289.032 4.10357 286.013C4.10357 286.013 7.02266 284.119 7.24592 282.332C7.58608 279.409 0.861189 276.128 0.861189 276.128L5.48782 260.104C8.59912 253.696 8.64762 253.277 8.60228 252.711C8.27031 248.802 2.96178 248.948 0.623043 244.027C-1.03883 240.536 0.87742 229.224 0.540712 232.917C8.39566 226.145 8.38251 223.08 8.38251 223.08C8.34577 218.14 0.394417 213.168 0.394417 213.168C0.394417 213.168 1.92758 206.711 1.87938 200.839C1.87938 200.839 1.81024 193.144 -1.4086 184.784C2.36113 176.986 1.67086 174.934 1.67086 174.934C0.917345 172.654 -1.53545 169.976 -1.53545 169.976C-1.53545 169.976 0.779198 166.014 1.58853 163.825C2.41249 161.58 2.06228 160.102 -1.69945 147.77C-3.20587 142.872 -3.47346 142.013 -3.34733 140.364C-3.04588 136.658 -1.17457 135.284 -0.241714 131.742C0.339402 129.489 0.592344 126.203 -1.11025 121.89C0.704785 122.178 24.8284 125.747 41.5616 112.236C52.0516 103.777 54.0741 87.6167 54.0222 87.6178C54.313 87.5445 54.4154 87.5154 54.4154 87.5154L54.0222 87.6178C53.7835 88.0411 750.008 91.4428 763.37 91.3382C763.405 91.3375 763.439 91.3368 763.491 91.3358C767.484 91.5397 765.096 110.124 773.106 119.766C777.562 125.145 788.057 131.133 815.951 131.103C813.605 135.834 813.41 139.592 813.659 142.165C813.659 142.165 813.892 144.429 816.91 153.293C816.91 153.293 809.283 156.969 809.05 160.659C808.831 164.268 815.869 164.79 817.03 169.343C818.23 174.004 811.406 175.72 812.375 181.655C812.895 184.817 815.599 189.07 815.599 189.07C815.599 189.07 812.004 193.394 810.917 197.682C809.411 203.639 812.602 210.029 812.602 210.029C812.602 210.029 809.17 213.46 807.902 216.172C804.911 222.577 811.181 230.998 811.181 230.998C804.933 239.102 804.933 240.843 804.933 240.843C804.913 246.406 812.93 251.998 812.93 251.998C812.93 251.998 809.216 257.081 808.257 261.839C808.257 261.839 807.73 264.482 811.536 276.665C811.536 276.665 807.739 280.764 806.846 284.049C805.307 289.696 813.018 292.607 811.709 297.642C810.66 301.632 806.076 301.373 805.442 305.017C804.508 310.288 813.818 312.627 813.475 318.628C813.232 322.818 808.633 323.315 808.793 327.241C809.006 332.245 816.527 332.73 818.384 338.404C820.69 345.473 812.181 354.418 812.181 354.418C812.181 354.418 781.007 351.827 767.11 360.381C759.851 364.846 753.466 374.721 757.919 398.583L757.293 394.852Z" fill="#D72027"/>
<path d="M681.466 122H126.535C84.818 122 51 150.076 51 184.71V303.29C51 337.924 84.818 366 126.535 366H681.466C723.182 366 757 337.924 757 303.29V184.71C757 150.076 723.182 122 681.466 122Z" stroke="#F7F29A" stroke-width="5" stroke-miterlimit="10"/>
<path d="M281.757 215.45C286.207 215.45 289.857 216.025 292.707 217.175C295.607 218.275 297.757 219.95 299.157 222.2C300.557 224.45 301.257 227.275 301.257 230.675C301.257 233.525 300.732 235.9 299.682 237.8C298.632 239.7 297.282 241.225 295.632 242.375C294.032 243.475 292.332 244.35 290.532 245L305.232 269H297.357L284.382 246.875H273.732V269H266.982V215.45H281.757ZM281.382 221.3H273.732V241.175H281.757C284.657 241.175 287.032 240.8 288.882 240.05C290.732 239.25 292.082 238.1 292.932 236.6C293.832 235.1 294.282 233.225 294.282 230.975C294.282 228.625 293.807 226.75 292.857 225.35C291.957 223.95 290.557 222.925 288.657 222.275C286.757 221.625 284.332 221.3 281.382 221.3ZM347.238 269L340.788 252.425H319.563L313.188 269H306.363L327.288 215.225H333.363L354.213 269H347.238ZM332.763 230.225C332.613 229.825 332.363 229.1 332.013 228.05C331.663 227 331.313 225.925 330.963 224.825C330.663 223.675 330.413 222.8 330.213 222.2C329.963 223.2 329.688 224.225 329.388 225.275C329.138 226.275 328.863 227.2 328.563 228.05C328.313 228.9 328.088 229.625 327.888 230.225L321.813 246.425H338.763L332.763 230.225ZM396.26 215.45L377.135 269H370.385L351.26 215.45H358.31L370.385 249.8C370.935 251.25 371.41 252.65 371.81 254C372.21 255.35 372.56 256.65 372.86 257.9C373.21 259.1 373.51 260.3 373.76 261.5C374.01 260.3 374.285 259.075 374.585 257.825C374.935 256.575 375.31 255.275 375.71 253.925C376.16 252.575 376.635 251.15 377.135 249.65L389.135 215.45H396.26ZM417.456 241.775L431.406 215.45H438.681L420.831 248.225V269H414.081V248.525L396.231 215.45H403.581L417.456 241.775ZM488.436 269H480.561L451.911 224.525H451.611C451.661 225.425 451.711 226.425 451.761 227.525C451.861 228.625 451.936 229.825 451.986 231.125C452.036 232.375 452.086 233.675 452.136 235.025C452.186 236.375 452.211 237.725 452.211 239.075V269H445.986V215.45H453.786L482.361 259.775H482.661C482.611 259.175 482.561 258.35 482.511 257.3C482.461 256.2 482.411 255 482.361 253.7C482.311 252.35 482.261 250.975 482.211 249.575C482.161 248.175 482.136 246.875 482.136 245.675V215.45H488.436V269ZM518.13 269V215.45H524.88V263H548.28V269H518.13ZM587.386 269H557.461V215.45H587.386V221.375H564.211V238.1H586.036V243.95H564.211V263.075H587.386V269ZM641.586 269H633.711L605.061 224.525H604.761C604.811 225.425 604.861 226.425 604.911 227.525C605.011 228.625 605.086 229.825 605.136 231.125C605.186 232.375 605.236 233.675 605.286 235.025C605.336 236.375 605.361 237.725 605.361 239.075V269H599.136V215.45H606.936L635.511 259.775H635.811C635.761 259.175 635.711 258.35 635.661 257.3C635.611 256.2 635.561 255 635.511 253.7C635.461 252.35 635.411 250.975 635.361 249.575C635.311 248.175 635.286 246.875 635.286 245.675V215.45H641.586V269ZM689.718 269L683.268 252.425H662.043L655.668 269H648.843L669.768 215.225H675.843L696.693 269H689.718ZM675.243 230.225C675.093 229.825 674.843 229.1 674.493 228.05C674.143 227 673.793 225.925 673.443 224.825C673.143 223.675 672.893 222.8 672.693 222.2C672.443 223.2 672.168 224.225 671.868 225.275C671.618 226.275 671.343 227.2 671.043 228.05C670.793 228.9 670.568 229.625 670.368 230.225L664.293 246.425H681.243L675.243 230.225ZM733.944 269H704.019V215.45H733.944V221.375H710.769V238.1H732.594V243.95H710.769V263.075H733.944V269Z" fill="#F7F29A"/>
<path d="M135 327.72V334.751L98.6364 321.95V313.817L135 300.998V308.029L106.094 317.741V318.026L135 327.72ZM120.742 327.489V308.313H126.033V327.489H120.742ZM135 276.386V288.708H98.6364V276.137C98.6364 272.527 99.3643 269.426 100.82 266.833C102.264 264.229 104.342 262.229 107.053 260.832C109.763 259.435 113.007 258.737 116.783 258.737C120.571 258.737 123.826 259.441 126.548 260.85C129.271 262.246 131.36 264.265 132.816 266.904C134.272 269.532 135 272.693 135 276.386ZM129.3 282.121V276.705C129.3 274.172 128.839 272.059 127.915 270.367C126.98 268.674 125.589 267.401 123.743 266.549C121.884 265.697 119.564 265.271 116.783 265.271C114.001 265.271 111.693 265.697 109.858 266.549C108.011 267.401 106.632 268.662 105.721 270.331C104.798 271.988 104.336 274.048 104.336 276.51V282.121H129.3ZM98.6364 244.978V236.917L124.986 226.121V225.695L98.6364 214.9V206.839H135V213.16H110.018V213.497L134.893 223.547V228.27L109.964 238.319V238.657H135V244.978H98.6364ZM98.6364 185.578H135V192.165H98.6364V185.578ZM104.158 172.543H98.6364V143.53H104.158V154.769H135V161.303H104.158V172.543ZM177.818 259.497C181.736 259.497 185.092 260.231 187.886 261.698C190.667 263.154 192.798 265.143 194.278 267.664C195.757 270.174 196.497 273.021 196.497 276.205C196.497 279.389 195.757 282.242 194.278 284.763C192.786 287.272 190.65 289.261 187.868 290.729C185.074 292.185 181.724 292.913 177.818 292.913C173.9 292.913 170.55 292.185 167.768 290.729C164.975 289.261 162.838 287.272 161.359 284.763C159.879 282.242 159.139 279.389 159.139 276.205C159.139 273.021 159.879 270.174 161.359 267.664C162.838 265.143 164.975 263.154 167.768 261.698C170.55 260.231 173.9 259.497 177.818 259.497ZM177.818 266.119C175.06 266.119 172.734 266.552 170.84 267.416C168.934 268.268 167.496 269.452 166.526 270.967C165.543 272.482 165.052 274.228 165.052 276.205C165.052 278.182 165.543 279.927 166.526 281.443C167.496 282.958 168.934 284.147 170.84 285.012C172.734 285.864 175.06 286.29 177.818 286.29C180.576 286.29 182.908 285.864 184.814 285.012C186.708 284.147 188.146 282.958 189.129 281.443C190.099 279.927 190.585 278.182 190.585 276.205C190.585 274.228 190.099 272.482 189.129 270.967C188.146 269.452 186.708 268.268 184.814 267.416C182.908 266.552 180.576 266.119 177.818 266.119ZM159.636 215.886H196V221.745L171.231 238.88V239.181H196V245.769H159.636V239.874L184.423 222.757V222.438H159.636V215.886ZM196 201.208H159.636V177.558H165.158V194.621H175.031V178.783H180.553V194.621H190.478V177.416H196V201.208Z" fill="#F7F29A"/>
<g filter="url(#filter0_d_17_2)">
<path d="M320 318.483C320.522 322.498 321.042 326.512 321.564 330.527C323.087 329.817 324.608 329.107 326.131 328.397C325.057 329.64 323.982 330.882 322.908 332.125C327.103 332.583 331.299 333.042 335.495 333.5C331.344 333.929 327.193 334.358 323.041 334.787C324.16 336 325.28 337.213 326.399 338.426C324.743 337.686 323.086 336.946 321.43 336.207C320.953 340.31 320.476 344.414 320 348.518C319.447 344.414 318.893 340.31 318.341 336.207C316.953 336.976 315.565 337.745 314.176 338.515C314.937 337.213 315.699 335.912 316.46 334.61C312.475 334.24 308.491 333.871 304.505 333.501L316.286 332.01C315.359 330.835 314.431 329.661 313.505 328.486C315.161 329.167 316.818 329.847 318.474 330.527C318.983 326.512 319.491 322.498 320 318.483Z" fill="#F7F29A"/>
</g>
<g filter="url(#filter1_d_17_2)">
<path d="M682.5 318.483C683.012 322.498 683.524 326.512 684.036 330.527C685.532 329.817 687.026 329.107 688.522 328.397C687.466 329.64 686.411 330.882 685.356 332.125C689.476 332.583 693.598 333.042 697.718 333.5C693.641 333.929 689.565 334.358 685.487 334.787C686.586 336 687.686 337.213 688.785 338.426C687.158 337.686 685.531 336.946 683.904 336.207C683.436 340.31 682.968 344.414 682.5 348.518C681.957 344.414 681.413 340.31 680.87 336.207C679.507 336.976 678.144 337.745 676.78 338.515C677.528 337.213 678.276 335.912 679.023 334.61C675.109 334.24 671.196 333.871 667.282 333.501L678.852 332.01C677.941 330.835 677.031 329.661 676.121 328.486C677.747 329.167 679.375 329.847 681.001 330.527C681.501 326.512 682 322.498 682.5 318.483Z" fill="#F7F29A"/>
</g>
<path d="M354.141 329.14C354.771 329.14 355.326 329.24 355.806 329.44C356.286 329.63 356.661 329.915 356.931 330.295C357.211 330.675 357.351 331.145 357.351 331.705C357.351 332.135 357.256 332.51 357.066 332.83C356.886 333.15 356.641 333.435 356.331 333.685C356.021 333.925 355.681 334.14 355.311 334.33C355.751 334.54 356.151 334.78 356.511 335.05C356.871 335.31 357.156 335.615 357.366 335.965C357.586 336.315 357.696 336.735 357.696 337.225C357.696 337.825 357.551 338.345 357.261 338.785C356.971 339.215 356.561 339.55 356.031 339.79C355.511 340.03 354.896 340.15 354.186 340.15C353.416 340.15 352.761 340.035 352.221 339.805C351.691 339.575 351.286 339.25 351.006 338.83C350.736 338.4 350.601 337.88 350.601 337.27C350.601 336.78 350.701 336.355 350.901 335.995C351.111 335.635 351.386 335.325 351.726 335.065C352.066 334.805 352.431 334.585 352.821 334.405C352.471 334.205 352.151 333.98 351.861 333.73C351.581 333.47 351.356 333.175 351.186 332.845C351.026 332.515 350.946 332.13 350.946 331.69C350.946 331.14 351.086 330.68 351.366 330.31C351.646 329.93 352.026 329.64 352.506 329.44C352.986 329.24 353.531 329.14 354.141 329.14ZM351.891 337.285C351.891 337.805 352.076 338.24 352.446 338.59C352.816 338.93 353.386 339.1 354.156 339.1C354.646 339.1 355.056 339.02 355.386 338.86C355.716 338.7 355.966 338.48 356.136 338.2C356.316 337.92 356.406 337.6 356.406 337.24C356.406 336.89 356.311 336.585 356.121 336.325C355.941 336.055 355.681 335.815 355.341 335.605C355.011 335.395 354.616 335.205 354.156 335.035L353.916 334.945C353.476 335.135 353.106 335.34 352.806 335.56C352.506 335.78 352.276 336.03 352.116 336.31C351.966 336.59 351.891 336.915 351.891 337.285ZM354.126 330.205C353.576 330.205 353.121 330.34 352.761 330.61C352.411 330.87 352.236 331.25 352.236 331.75C352.236 332.12 352.321 332.43 352.491 332.68C352.671 332.93 352.911 333.145 353.211 333.325C353.511 333.495 353.841 333.66 354.201 333.82C354.551 333.67 354.861 333.505 355.131 333.325C355.411 333.145 355.631 332.93 355.791 332.68C355.961 332.42 356.046 332.11 356.046 331.75C356.046 331.25 355.871 330.87 355.521 330.61C355.171 330.34 354.706 330.205 354.126 330.205ZM368.53 339.19C368.53 338.82 368.62 338.56 368.8 338.41C368.98 338.26 369.195 338.185 369.445 338.185C369.705 338.185 369.925 338.26 370.105 338.41C370.295 338.56 370.39 338.82 370.39 339.19C370.39 339.55 370.295 339.81 370.105 339.97C369.925 340.13 369.705 340.21 369.445 340.21C369.195 340.21 368.98 340.13 368.8 339.97C368.62 339.81 368.53 339.55 368.53 339.19ZM368.53 332.77C368.53 332.39 368.62 332.125 368.8 331.975C368.98 331.825 369.195 331.75 369.445 331.75C369.705 331.75 369.925 331.825 370.105 331.975C370.295 332.125 370.39 332.39 370.39 332.77C370.39 333.13 370.295 333.39 370.105 333.55C369.925 333.71 369.705 333.79 369.445 333.79C369.195 333.79 368.98 333.71 368.8 333.55C368.62 333.39 368.53 333.13 368.53 332.77ZM388.308 334.63C388.308 335.5 388.243 336.275 388.113 336.955C387.983 337.635 387.773 338.215 387.483 338.695C387.203 339.165 386.833 339.525 386.373 339.775C385.923 340.025 385.378 340.15 384.738 340.15C383.938 340.15 383.273 339.93 382.743 339.49C382.223 339.05 381.833 338.42 381.573 337.6C381.323 336.77 381.198 335.78 381.198 334.63C381.198 333.47 381.313 332.48 381.543 331.66C381.783 330.84 382.163 330.215 382.683 329.785C383.203 329.345 383.888 329.125 384.738 329.125C385.538 329.125 386.203 329.345 386.733 329.785C387.263 330.215 387.658 330.84 387.918 331.66C388.178 332.48 388.308 333.47 388.308 334.63ZM382.518 334.63C382.518 335.61 382.588 336.425 382.728 337.075C382.878 337.725 383.113 338.215 383.433 338.545C383.763 338.865 384.198 339.025 384.738 339.025C385.278 339.025 385.708 338.865 386.028 338.545C386.358 338.225 386.598 337.74 386.748 337.09C386.898 336.43 386.973 335.61 386.973 334.63C386.973 333.65 386.898 332.84 386.748 332.2C386.598 331.55 386.358 331.065 386.028 330.745C385.708 330.415 385.278 330.25 384.738 330.25C384.198 330.25 383.763 330.415 383.433 330.745C383.113 331.065 382.878 331.55 382.728 332.2C382.588 332.84 382.518 333.65 382.518 334.63ZM405.892 334.63C405.892 335.5 405.827 336.275 405.697 336.955C405.567 337.635 405.357 338.215 405.067 338.695C404.787 339.165 404.417 339.525 403.957 339.775C403.507 340.025 402.962 340.15 402.322 340.15C401.522 340.15 400.857 339.93 400.327 339.49C399.807 339.05 399.417 338.42 399.157 337.6C398.907 336.77 398.782 335.78 398.782 334.63C398.782 333.47 398.897 332.48 399.127 331.66C399.367 330.84 399.747 330.215 400.267 329.785C400.787 329.345 401.472 329.125 402.322 329.125C403.122 329.125 403.787 329.345 404.317 329.785C404.847 330.215 405.242 330.84 405.502 331.66C405.762 332.48 405.892 333.47 405.892 334.63ZM400.102 334.63C400.102 335.61 400.172 336.425 400.312 337.075C400.462 337.725 400.697 338.215 401.017 338.545C401.347 338.865 401.782 339.025 402.322 339.025C402.862 339.025 403.292 338.865 403.612 338.545C403.942 338.225 404.182 337.74 404.332 337.09C404.482 336.43 404.557 335.61 404.557 334.63C404.557 333.65 404.482 332.84 404.332 332.2C404.182 331.55 403.942 331.065 403.612 330.745C403.292 330.415 402.862 330.25 402.322 330.25C401.782 330.25 401.347 330.415 401.017 330.745C400.697 331.065 400.462 331.55 400.312 332.2C400.172 332.84 400.102 333.65 400.102 334.63ZM431.954 329.29C433.354 329.29 434.374 329.565 435.014 330.115C435.654 330.665 435.974 331.44 435.974 332.44C435.974 332.88 435.899 333.305 435.749 333.715C435.609 334.115 435.374 334.475 435.044 334.795C434.714 335.115 434.274 335.37 433.724 335.56C433.174 335.74 432.499 335.83 431.699 335.83H430.469V340H429.119V329.29H431.954ZM431.834 330.445H430.469V334.675H431.549C432.229 334.675 432.794 334.605 433.244 334.465C433.694 334.315 434.029 334.08 434.249 333.76C434.469 333.44 434.579 333.02 434.579 332.5C434.579 331.81 434.359 331.295 433.919 330.955C433.479 330.615 432.784 330.445 431.834 330.445ZM451.926 340L448.401 330.61H448.341C448.361 330.81 448.376 331.065 448.386 331.375C448.406 331.685 448.421 332.025 448.431 332.395C448.441 332.755 448.446 333.125 448.446 333.505V340H447.201V329.29H449.196L452.496 338.065H452.556L455.916 329.29H457.896V340H456.561V333.415C456.561 333.065 456.566 332.72 456.576 332.38C456.586 332.03 456.601 331.705 456.621 331.405C456.641 331.095 456.656 330.835 456.666 330.625H456.606L453.036 340H451.926ZM486.566 340L483.041 330.61H482.981C483.001 330.81 483.016 331.065 483.026 331.375C483.046 331.685 483.061 332.025 483.071 332.395C483.081 332.755 483.086 333.125 483.086 333.505V340H481.841V329.29H483.836L487.136 338.065H487.196L490.556 329.29H492.536V340H491.201V333.415C491.201 333.065 491.206 332.72 491.216 332.38C491.226 332.03 491.241 331.705 491.261 331.405C491.281 331.095 491.296 330.835 491.306 330.625H491.246L487.676 340H486.566ZM511.17 340L509.88 336.685H505.635L504.36 340H502.995L507.18 329.245H508.395L512.565 340H511.17ZM508.275 332.245C508.245 332.165 508.195 332.02 508.125 331.81C508.055 331.6 507.985 331.385 507.915 331.165C507.855 330.935 507.805 330.76 507.765 330.64C507.715 330.84 507.66 331.045 507.6 331.255C507.55 331.455 507.495 331.64 507.435 331.81C507.385 331.98 507.34 332.125 507.3 332.245L506.085 335.485H509.475L508.275 332.245ZM526.045 340H522.175V339.22L523.435 338.935V330.37L522.175 330.07V329.29H526.045V330.07L524.785 330.37V338.935L526.045 339.22V340ZM545.603 340H544.028L538.298 331.105H538.238C538.248 331.285 538.258 331.485 538.268 331.705C538.288 331.925 538.303 332.165 538.313 332.425C538.323 332.675 538.333 332.935 538.343 333.205C538.353 333.475 538.358 333.745 538.358 334.015V340H537.113V329.29H538.673L544.388 338.155H544.448C544.438 338.035 544.428 337.87 544.418 337.66C544.408 337.44 544.398 337.2 544.388 336.94C544.378 336.67 544.368 336.395 544.358 336.115C544.348 335.835 544.343 335.575 544.343 335.335V329.29H545.603V340ZM575.616 337.135C575.616 337.775 575.461 338.32 575.151 338.77C574.841 339.21 574.396 339.55 573.816 339.79C573.246 340.03 572.571 340.15 571.791 340.15C571.391 340.15 571.006 340.13 570.636 340.09C570.276 340.05 569.946 339.995 569.646 339.925C569.346 339.845 569.081 339.75 568.851 339.64V338.35C569.211 338.51 569.656 338.655 570.186 338.785C570.726 338.915 571.281 338.98 571.851 338.98C572.381 338.98 572.826 338.91 573.186 338.77C573.546 338.63 573.816 338.43 573.996 338.17C574.176 337.91 574.266 337.605 574.266 337.255C574.266 336.905 574.191 336.61 574.041 336.37C573.891 336.13 573.631 335.91 573.261 335.71C572.901 335.5 572.396 335.28 571.746 335.05C571.286 334.88 570.881 334.7 570.531 334.51C570.191 334.31 569.906 334.085 569.676 333.835C569.446 333.585 569.271 333.3 569.151 332.98C569.041 332.66 568.986 332.29 568.986 331.87C568.986 331.3 569.131 330.815 569.421 330.415C569.711 330.005 570.111 329.69 570.621 329.47C571.141 329.25 571.736 329.14 572.406 329.14C572.996 329.14 573.536 329.195 574.026 329.305C574.516 329.415 574.961 329.56 575.361 329.74L574.941 330.895C574.571 330.735 574.166 330.6 573.726 330.49C573.296 330.38 572.846 330.325 572.376 330.325C571.926 330.325 571.551 330.39 571.251 330.52C570.951 330.65 570.726 330.835 570.576 331.075C570.426 331.305 570.351 331.575 570.351 331.885C570.351 332.245 570.426 332.545 570.576 332.785C570.726 333.025 570.971 333.24 571.311 333.43C571.651 333.62 572.111 333.825 572.691 334.045C573.321 334.275 573.851 334.525 574.281 334.795C574.721 335.055 575.051 335.37 575.271 335.74C575.501 336.11 575.616 336.575 575.616 337.135ZM590.164 340H588.814V330.475H585.469V329.29H593.494V330.475H590.164V340ZM609.774 340L608.484 336.685H604.239L602.964 340H601.599L605.784 329.245H606.999L611.169 340H609.774ZM606.879 332.245C606.849 332.165 606.799 332.02 606.729 331.81C606.659 331.6 606.589 331.385 606.519 331.165C606.459 330.935 606.409 330.76 606.369 330.64C606.319 330.84 606.264 331.045 606.204 331.255C606.154 331.455 606.099 331.64 606.039 331.81C605.989 331.98 605.944 332.125 605.904 332.245L604.689 335.485H608.079L606.879 332.245ZM625.991 334.345H629.696V339.595C629.116 339.785 628.531 339.925 627.941 340.015C627.351 340.105 626.681 340.15 625.931 340.15C624.821 340.15 623.886 339.93 623.126 339.49C622.366 339.04 621.786 338.405 621.386 337.585C620.996 336.755 620.801 335.775 620.801 334.645C620.801 333.525 621.021 332.555 621.461 331.735C621.901 330.915 622.531 330.28 623.351 329.83C624.181 329.37 625.181 329.14 626.351 329.14C626.951 329.14 627.516 329.195 628.046 329.305C628.586 329.415 629.086 329.57 629.546 329.77L629.036 330.94C628.656 330.77 628.226 330.625 627.746 330.505C627.276 330.385 626.786 330.325 626.276 330.325C625.426 330.325 624.696 330.5 624.086 330.85C623.476 331.2 623.011 331.7 622.691 332.35C622.371 332.99 622.211 333.755 622.211 334.645C622.211 335.495 622.346 336.25 622.616 336.91C622.896 337.56 623.331 338.07 623.921 338.44C624.511 338.8 625.286 338.98 626.246 338.98C626.566 338.98 626.846 338.97 627.086 338.95C627.336 338.92 627.561 338.885 627.761 338.845C627.971 338.805 628.166 338.765 628.346 338.725V335.545H625.991V334.345ZM647.239 340H641.254V329.29H647.239V330.475H642.604V333.82H646.969V334.99H642.604V338.815H647.239V340Z" fill="#F7F29A"/>
<path d="M398.173 155H388.733V153.54L392.473 149.76C393.193 149.04 393.8 148.4 394.293 147.84C394.787 147.28 395.16 146.733 395.413 146.2C395.667 145.653 395.793 145.06 395.793 144.42C395.793 143.633 395.56 143.04 395.093 142.64C394.627 142.227 394.02 142.02 393.273 142.02C392.58 142.02 391.967 142.14 391.433 142.38C390.913 142.62 390.38 142.953 389.833 143.38L388.893 142.2C389.267 141.88 389.673 141.593 390.113 141.34C390.567 141.087 391.053 140.887 391.573 140.74C392.107 140.593 392.673 140.52 393.273 140.52C394.167 140.52 394.933 140.673 395.573 140.98C396.213 141.287 396.707 141.727 397.053 142.3C397.413 142.86 397.593 143.533 397.593 144.32C397.593 144.88 397.507 145.413 397.333 145.92C397.16 146.413 396.913 146.9 396.593 147.38C396.273 147.86 395.887 148.347 395.433 148.84C394.98 149.333 394.48 149.847 393.933 150.38L390.953 153.32V153.4H398.173V155ZM421.679 147.84C421.679 149 421.592 150.033 421.419 150.94C421.245 151.847 420.965 152.62 420.579 153.26C420.205 153.887 419.712 154.367 419.099 154.7C418.499 155.033 417.772 155.2 416.919 155.2C415.852 155.2 414.965 154.907 414.259 154.32C413.565 153.733 413.045 152.893 412.699 151.8C412.365 150.693 412.199 149.373 412.199 147.84C412.199 146.293 412.352 144.973 412.659 143.88C412.979 142.787 413.485 141.953 414.179 141.38C414.872 140.793 415.785 140.5 416.919 140.5C417.985 140.5 418.872 140.793 419.579 141.38C420.285 141.953 420.812 142.787 421.159 143.88C421.505 144.973 421.679 146.293 421.679 147.84ZM413.959 147.84C413.959 149.147 414.052 150.233 414.239 151.1C414.439 151.967 414.752 152.62 415.179 153.06C415.619 153.487 416.199 153.7 416.919 153.7C417.639 153.7 418.212 153.487 418.639 153.06C419.079 152.633 419.399 151.987 419.599 151.12C419.799 150.24 419.899 149.147 419.899 147.84C419.899 146.533 419.799 145.453 419.599 144.6C419.399 143.733 419.079 143.087 418.639 142.66C418.212 142.22 417.639 142 416.919 142C416.199 142 415.619 142.22 415.179 142.66C414.752 143.087 414.439 143.733 414.239 144.6C414.052 145.453 413.959 146.533 413.959 147.84ZM445.064 155H435.624V153.54L439.364 149.76C440.084 149.04 440.691 148.4 441.184 147.84C441.677 147.28 442.051 146.733 442.304 146.2C442.557 145.653 442.684 145.06 442.684 144.42C442.684 143.633 442.451 143.04 441.984 142.64C441.517 142.227 440.911 142.02 440.164 142.02C439.471 142.02 438.857 142.14 438.324 142.38C437.804 142.62 437.271 142.953 436.724 143.38L435.784 142.2C436.157 141.88 436.564 141.593 437.004 141.34C437.457 141.087 437.944 140.887 438.464 140.74C438.997 140.593 439.564 140.52 440.164 140.52C441.057 140.52 441.824 140.673 442.464 140.98C443.104 141.287 443.597 141.727 443.944 142.3C444.304 142.86 444.484 143.533 444.484 144.32C444.484 144.88 444.397 145.413 444.224 145.92C444.051 146.413 443.804 146.9 443.484 147.38C443.164 147.86 442.777 148.347 442.324 148.84C441.871 149.333 441.371 149.847 440.824 150.38L437.844 153.32V153.4H445.064V155ZM463.609 146.24C464.583 146.24 465.429 146.407 466.149 146.74C466.869 147.073 467.423 147.553 467.809 148.18C468.209 148.793 468.409 149.547 468.409 150.44C468.409 151.427 468.196 152.28 467.769 153C467.343 153.707 466.729 154.253 465.929 154.64C465.143 155.013 464.189 155.2 463.069 155.2C462.336 155.2 461.643 155.133 460.989 155C460.349 154.867 459.809 154.673 459.369 154.42V152.76C459.849 153.053 460.429 153.287 461.109 153.46C461.803 153.62 462.463 153.7 463.089 153.7C463.796 153.7 464.409 153.593 464.929 153.38C465.463 153.153 465.876 152.813 466.169 152.36C466.463 151.893 466.609 151.313 466.609 150.62C466.609 149.687 466.323 148.973 465.749 148.48C465.176 147.973 464.269 147.72 463.029 147.72C462.656 147.72 462.229 147.753 461.749 147.82C461.269 147.887 460.883 147.953 460.589 148.02L459.709 147.46L460.249 140.72H467.409V142.32H461.749L461.409 146.46C461.636 146.42 461.943 146.373 462.329 146.32C462.716 146.267 463.143 146.24 463.609 146.24ZM492.015 147.84C492.015 149 491.928 150.033 491.755 150.94C491.581 151.847 491.301 152.62 490.915 153.26C490.541 153.887 490.048 154.367 489.435 154.7C488.835 155.033 488.108 155.2 487.255 155.2C486.188 155.2 485.301 154.907 484.595 154.32C483.901 153.733 483.381 152.893 483.035 151.8C482.701 150.693 482.535 149.373 482.535 147.84C482.535 146.293 482.688 144.973 482.995 143.88C483.315 142.787 483.821 141.953 484.515 141.38C485.208 140.793 486.121 140.5 487.255 140.5C488.321 140.5 489.208 140.793 489.915 141.38C490.621 141.953 491.148 142.787 491.495 143.88C491.841 144.973 492.015 146.293 492.015 147.84ZM484.295 147.84C484.295 149.147 484.388 150.233 484.575 151.1C484.775 151.967 485.088 152.62 485.515 153.06C485.955 153.487 486.535 153.7 487.255 153.7C487.975 153.7 488.548 153.487 488.975 153.06C489.415 152.633 489.735 151.987 489.935 151.12C490.135 150.24 490.235 149.147 490.235 147.84C490.235 146.533 490.135 145.453 489.935 144.6C489.735 143.733 489.415 143.087 488.975 142.66C488.548 142.22 487.975 142 487.255 142C486.535 142 485.955 142.22 485.515 142.66C485.088 143.087 484.775 143.733 484.575 144.6C484.388 145.453 484.295 146.533 484.295 147.84ZM510.5 146.24C511.473 146.24 512.32 146.407 513.04 146.74C513.76 147.073 514.313 147.553 514.7 148.18C515.1 148.793 515.3 149.547 515.3 150.44C515.3 151.427 515.087 152.28 514.66 153C514.233 153.707 513.62 154.253 512.82 154.64C512.033 155.013 511.08 155.2 509.96 155.2C509.227 155.2 508.533 155.133 507.88 155C507.24 154.867 506.7 154.673 506.26 154.42V152.76C506.74 153.053 507.32 153.287 508 153.46C508.693 153.62 509.353 153.7 509.98 153.7C510.687 153.7 511.3 153.593 511.82 153.38C512.353 153.153 512.767 152.813 513.06 152.36C513.353 151.893 513.5 151.313 513.5 150.62C513.5 149.687 513.213 148.973 512.64 148.48C512.067 147.973 511.16 147.72 509.92 147.72C509.547 147.72 509.12 147.753 508.64 147.82C508.16 147.887 507.773 147.953 507.48 148.02L506.6 147.46L507.14 140.72H514.3V142.32H508.64L508.3 146.46C508.527 146.42 508.833 146.373 509.22 146.32C509.607 146.267 510.033 146.24 510.5 146.24ZM535.545 155H533.825V145.02C533.825 144.633 533.825 144.307 533.825 144.04C533.839 143.773 533.852 143.527 533.865 143.3C533.879 143.06 533.892 142.813 533.905 142.56C533.692 142.773 533.499 142.953 533.325 143.1C533.152 143.247 532.932 143.433 532.665 143.66L531.145 144.9L530.225 143.72L534.085 140.72H535.545V155ZM554.611 155L560.471 142.32H552.771V140.72H562.351V142.08L556.551 155H554.611ZM580.836 146.24C581.809 146.24 582.656 146.407 583.376 146.74C584.096 147.073 584.649 147.553 585.036 148.18C585.436 148.793 585.636 149.547 585.636 150.44C585.636 151.427 585.423 152.28 584.996 153C584.569 153.707 583.956 154.253 583.156 154.64C582.369 155.013 581.416 155.2 580.296 155.2C579.563 155.2 578.869 155.133 578.216 155C577.576 154.867 577.036 154.673 576.596 154.42V152.76C577.076 153.053 577.656 153.287 578.336 153.46C579.029 153.62 579.689 153.7 580.316 153.7C581.023 153.7 581.636 153.593 582.156 153.38C582.689 153.153 583.103 152.813 583.396 152.36C583.689 151.893 583.836 151.313 583.836 150.62C583.836 149.687 583.549 148.973 582.976 148.48C582.403 147.973 581.496 147.72 580.256 147.72C579.883 147.72 579.456 147.753 578.976 147.82C578.496 147.887 578.109 147.953 577.816 148.02L576.936 147.46L577.476 140.72H584.636V142.32H578.976L578.636 146.46C578.863 146.42 579.169 146.373 579.556 146.32C579.943 146.267 580.369 146.24 580.836 146.24ZM608.641 144.06C608.641 144.7 608.521 145.253 608.281 145.72C608.041 146.187 607.695 146.567 607.241 146.86C606.801 147.153 606.281 147.36 605.681 147.48V147.56C606.828 147.693 607.681 148.053 608.241 148.64C608.801 149.227 609.081 149.993 609.081 150.94C609.081 151.767 608.888 152.507 608.501 153.16C608.115 153.8 607.515 154.3 606.701 154.66C605.901 155.02 604.868 155.2 603.601 155.2C602.855 155.2 602.161 155.14 601.521 155.02C600.881 154.913 600.268 154.713 599.681 154.42V152.78C600.281 153.073 600.928 153.307 601.621 153.48C602.315 153.64 602.981 153.72 603.621 153.72C604.901 153.72 605.821 153.473 606.381 152.98C606.955 152.473 607.241 151.78 607.241 150.9C607.241 150.3 607.081 149.82 606.761 149.46C606.455 149.087 606.001 148.813 605.401 148.64C604.801 148.467 604.081 148.38 603.241 148.38H601.861V146.88H603.261C604.048 146.88 604.701 146.767 605.221 146.54C605.755 146.313 606.155 146 606.421 145.6C606.701 145.187 606.841 144.713 606.841 144.18C606.841 143.487 606.608 142.953 606.141 142.58C605.675 142.193 605.041 142 604.241 142C603.735 142 603.275 142.053 602.861 142.16C602.448 142.253 602.061 142.393 601.701 142.58C601.355 142.753 601.001 142.96 600.641 143.2L599.761 142C600.108 141.733 600.501 141.487 600.941 141.26C601.395 141.033 601.895 140.853 602.441 140.72C602.988 140.587 603.581 140.52 604.221 140.52C605.715 140.52 606.821 140.853 607.541 141.52C608.275 142.187 608.641 143.033 608.641 144.06Z" fill="#F7F29A"/>
<path d="M694.063 302L304.063 302" stroke="#F7F29A" stroke-width="7" stroke-miterlimit="10"/>
<path d="M694.063 179L304.063 179" stroke="#F7F29A" stroke-width="7" stroke-miterlimit="10"/>
<path d="M234 120L235.017 366" stroke="#F7F29A" stroke-width="11" stroke-miterlimit="10"/>
<g filter="url(#filter2_d_17_2)">
<path d="M319.495 133C320.016 137.015 320.537 141.029 321.059 145.044C322.581 144.334 324.103 143.624 325.626 142.914C324.551 144.157 323.477 145.399 322.402 146.641C326.598 147.1 330.794 147.559 334.989 148.017C330.839 148.446 326.688 148.874 322.536 149.304C323.655 150.517 324.775 151.73 325.894 152.942C324.238 152.203 322.58 151.463 320.924 150.724C320.448 154.827 319.971 158.931 319.495 163.034C318.942 158.931 318.388 154.827 317.835 150.724C316.447 151.493 315.059 152.262 313.671 153.031C314.432 151.73 315.194 150.428 315.955 149.127C311.969 148.757 307.985 148.387 304 148.017L315.781 146.527C314.853 145.352 313.926 144.178 312.999 143.003C314.656 143.683 316.313 144.364 317.969 145.044C318.477 141.029 318.985 137.015 319.495 133Z" fill="#F7F29A"/>
</g>
<g filter="url(#filter3_d_17_2)">
<path d="M682.5 129.483C683.012 133.498 683.524 137.512 684.036 141.527C685.532 140.817 687.026 140.107 688.522 139.397C687.466 140.64 686.411 141.882 685.356 143.125C689.476 143.583 693.598 144.042 697.718 144.5C693.641 144.929 689.565 145.358 685.487 145.787C686.586 147 687.686 148.213 688.785 149.426C687.158 148.686 685.531 147.946 683.904 147.207C683.436 151.31 682.968 155.414 682.5 159.518C681.957 155.414 681.413 151.31 680.87 147.207C679.507 147.976 678.144 148.745 676.78 149.515C677.528 148.213 678.276 146.912 679.023 145.61C675.109 145.24 671.196 144.871 667.282 144.501L678.852 143.01C677.941 141.835 677.031 140.661 676.121 139.486C677.747 140.167 679.375 140.847 681.001 141.527C681.501 137.512 682 133.498 682.5 129.483Z" fill="#F7F29A"/>
</g>
</g>
<defs>
<filter id="filter0_d_17_2" x="288" y="315" width="64" height="45" filterUnits="userSpaceOnUse" color-interpolation-filters="sRGB">
<feFlood flood-opacity="0" result="BackgroundImageFix"/>
<feColorMatrix in="SourceAlpha" type="matrix" values="0 0 0 0 0 0 0 0 0 0 0 0 0 0 0 0 0 0 127 0" result="hardAlpha"/>
<feOffset dy="4"/>
<feGaussianBlur stdDeviation="2"/>
<feComposite in2="hardAlpha" operator="out"/>
<feColorMatrix type="matrix" values="0 0 0 0 0 0 0 0 0 0 0 0 0 0 0 0 0 0 0.25 0"/>
<feBlend mode="normal" in2="BackgroundImageFix" result="effect1_dropShadow_17_2"/>
<feBlend mode="normal" in="SourceGraphic" in2="effect1_dropShadow_17_2" result="shape"/>
</filter>
<filter id="filter1_d_17_2" x="651" y="315" width="63" height="45" filterUnits="userSpaceOnUse" color-interpolation-filters="sRGB">
<feFlood flood-opacity="0" result="BackgroundImageFix"/>
<feColorMatrix in="SourceAlpha" type="matrix" values="0 0 0 0 0 0 0 0 0 0 0 0 0 0 0 0 0 0 127 0" result="hardAlpha"/>
<feOffset dy="4"/>
<feGaussianBlur stdDeviation="2"/>
<feComposite in2="hardAlpha" operator="out"/>
<feColorMatrix type="matrix" values="0 0 0 0 0 0 0 0 0 0 0 0 0 0 0 0 0 0 0.25 0"/>
<feBlend mode="normal" in2="BackgroundImageFix" result="effect1_dropShadow_17_2"/>
<feBlend mode="normal" in="SourceGraphic" in2="effect1_dropShadow_17_2" result="shape"/>
</filter>
<filter id="filter2_d_17_2" x="300" y="129" width="64" height="45" filterUnits="userSpaceOnUse" color-interpolation-filters="sRGB">
<feFlood flood-opacity="0" result="BackgroundImageFix"/>
<feColorMatrix in="SourceAlpha" type="matrix" values="0 0 0 0 0 0 0 0 0 0 0 0 0 0 0 0 0 0 127 0" result="hardAlpha"/>
<feOffset dy="4"/>
<feGaussianBlur stdDeviation="2"/>
<feComposite in2="hardAlpha" operator="out"/>
<feColorMatrix type="matrix" values="0 0 0 0 0 0 0 0 0 0 0 0 0 0 0 0 0 0 0.25 0"/>
<feBlend mode="normal" in2="BackgroundImageFix" result="effect1_dropShadow_17_2"/>
<feBlend mode="normal" in="SourceGraphic" in2="effect1_dropShadow_17_2" result="shape"/>
</filter>
<filter id="filter3_d_17_2" x="651" y="126" width="63" height="45" filterUnits="userSpaceOnUse" color-interpolation-filters="sRGB">
<feFlood flood-opacity="0" result="BackgroundImageFix"/>
<feColorMatrix in="SourceAlpha" type="matrix" values="0 0 0 0 0 0 0 0 0 0 0 0 0 0 0 0 0 0 127 0" result="hardAlpha"/>
<feOffset dy="4"/>
<feGaussianBlur stdDeviation="2"/>
<feComposite in2="hardAlpha" operator="out"/>
<feColorMatrix type="matrix" values="0 0 0 0 0 0 0 0 0 0 0 0 0 0 0 0 0 0 0.25 0"/>
<feBlend mode="normal" in2="BackgroundImageFix" result="effect1_dropShadow_17_2"/>
<feBlend mode="normal" in="SourceGraphic" in2="effect1_dropShadow_17_2" result="shape"/>
</filter>
<clipPath id="clip0_17_2">
<rect width="852" height="541" fill="white"/>
</clipPath>
</defs>
</svg>
