<svg width="852" height="541" viewBox="0 0 852 541" fill="none" xmlns="http://www.w3.org/2000/svg">
<g clip-path="url(#clip0_17_2)">
<path d="M774.755 484.275C774.755 484.275 49.1225 485.551 49.1432 485.621C49.215 485.637 49.2676 485.618 49.2676 485.618C50.7589 485.105 50.2246 460.655 38.1545 450.157C38.1545 450.157 40.5941 449.405 9.95599 445.576C15.3308 435.687 6.79754 426.601 5.47695 422.194C4.50519 418.91 2.62586 416.055 3.75995 412.492C5.11303 408.198 8.98862 408.547 10.1905 404.469C10.5349 403.329 10.6273 402.548 6.82696 391.517C11.9247 383.968 11.6239 381.853 11.6239 381.853C11.2502 379.263 9.158 379.012 6.69336 375.34C4.58977 372.225 4.04435 369.356 3.35657 365.624C1.59499 356.135 3.70754 346.96 4.79006 343.008C4.79006 343.008 7.78393 340.531 8.00769 338.192C8.34799 334.364 1.42655 330.056 1.42655 330.056L6.13039 309.078C9.30747 300.69 9.35597 300.141 9.30759 299.4C8.95402 294.28 3.49901 294.464 1.07992 288.014C-0.639025 283.44 1.29436 268.628 0.960051 273.464C9.01092 264.607 8.98769 260.593 8.98769 260.593C8.93425 254.122 0.747024 247.599 0.747024 247.599C0.747024 247.599 2.30213 239.144 2.23395 231.454C2.23395 231.454 2.13849 221.377 -1.19599 210.423C2.65333 200.216 1.93744 197.527 1.93744 197.527C1.15584 194.54 -1.37335 191.029 -1.37335 191.029C-1.37335 191.029 0.992792 185.844 1.81757 182.977C2.65722 180.039 2.29263 178.103 -1.61237 161.946C-3.17603 155.529 -3.45376 154.404 -3.32937 152.243C-3.03134 147.391 -1.11259 145.595 -0.165157 140.957C0.424893 138.007 0.674407 133.704 -1.089 128.052C0.777184 128.432 25.5799 133.143 42.7333 115.474C53.4868 104.412 55.5141 83.2503 55.4607 83.2516C55.7593 83.1561 55.8645 83.1182 55.8645 83.1182L55.4607 83.2516C55.2167 83.8056 770.723 89.3297 784.455 89.2131C784.49 89.2123 784.526 89.2114 784.579 89.2102C788.683 89.4833 786.289 113.819 794.55 126.459C799.147 133.511 809.952 141.369 838.617 141.372C836.221 147.566 836.033 152.486 836.297 155.857C836.297 155.857 836.543 158.822 839.674 170.436C839.674 170.436 831.847 175.238 831.619 180.071C831.405 184.798 838.64 185.491 839.847 191.457C841.095 197.563 834.088 199.799 835.103 207.573C835.647 211.716 838.439 217.29 838.439 217.29C838.439 217.29 834.758 222.948 833.655 228.562C832.127 236.362 835.426 244.735 835.426 244.735C835.426 244.735 831.91 249.222 830.615 252.772C827.563 261.156 834.032 272.195 834.032 272.195C827.637 282.799 827.642 285.08 827.642 285.08C827.64 292.365 835.896 299.7 835.896 299.7C835.896 299.7 832.096 306.352 831.125 312.582C831.125 312.582 830.592 316.043 834.542 332.004C834.542 332.004 830.653 337.367 829.745 341.668C828.182 349.062 836.116 352.886 834.786 359.478C833.721 364.702 829.009 364.355 828.369 369.127C827.426 376.029 837.002 379.106 836.668 386.965C836.431 392.453 831.707 393.096 831.884 398.238C832.118 404.793 839.85 405.439 841.775 412.873C844.168 422.134 835.452 433.837 835.452 433.837C835.452 433.837 803.406 430.395 789.152 441.576C781.706 447.413 774.492 443.856 779.145 475.114L774.755 484.275Z" fill="#D72027"/>
<path d="M700.433 120H130.567C87.7281 120 53 158.317 53 205.584V367.416C53 414.683 87.7281 453 130.567 453H700.433C743.272 453 778 414.683 778 367.416V205.584C778 158.317 743.272 120 700.433 120Z" stroke="#F7F29A" stroke-width="11" stroke-miterlimit="10"/>
<path d="M160.733 248.74C166.073 248.74 170.453 249.43 173.873 250.81C177.353 252.13 179.933 254.14 181.613 256.84C183.293 259.54 184.133 262.93 184.133 267.01C184.133 270.43 183.503 273.28 182.243 275.56C180.983 277.84 179.363 279.67 177.383 281.05C175.463 282.37 173.423 283.42 171.263 284.2L188.903 313H179.453L163.883 286.45H151.103V313H143.003V248.74H160.733ZM160.283 255.76H151.103V279.61H160.733C164.213 279.61 167.063 279.16 169.283 278.26C171.503 277.3 173.123 275.92 174.143 274.12C175.223 272.32 175.763 270.07 175.763 267.37C175.763 264.55 175.193 262.3 174.053 260.62C172.973 258.94 171.293 257.71 169.013 256.93C166.733 256.15 163.823 255.76 160.283 255.76ZM239.31 313L231.57 293.11H206.1L198.45 313H190.26L215.37 248.47H222.66L247.68 313H239.31ZM221.94 266.47C221.76 265.99 221.46 265.12 221.04 263.86C220.62 262.6 220.2 261.31 219.78 259.99C219.42 258.61 219.12 257.56 218.88 256.84C218.58 258.04 218.25 259.27 217.89 260.53C217.59 261.73 217.26 262.84 216.9 263.86C216.6 264.88 216.33 265.75 216.09 266.47L208.8 285.91H229.14L221.94 266.47ZM298.137 248.74L275.187 313H267.087L244.137 248.74H252.597L267.087 289.96C267.747 291.7 268.317 293.38 268.797 295C269.277 296.62 269.697 298.18 270.057 299.68C270.477 301.12 270.837 302.56 271.137 304C271.437 302.56 271.767 301.09 272.127 299.59C272.547 298.09 272.997 296.53 273.477 294.91C274.017 293.29 274.587 291.58 275.187 289.78L289.587 248.74H298.137ZM323.572 280.33L340.312 248.74H349.042L327.622 288.07V313H319.522V288.43L298.102 248.74H306.922L323.572 280.33ZM408.748 313H399.298L364.918 259.63H364.558C364.618 260.71 364.678 261.91 364.738 263.23C364.858 264.55 364.948 265.99 365.008 267.55C365.068 269.05 365.128 270.61 365.188 272.23C365.248 273.85 365.278 275.47 365.278 277.09V313H357.808V248.74H367.168L401.458 301.93H401.818C401.758 301.21 401.698 300.22 401.638 298.96C401.578 297.64 401.518 296.2 401.458 294.64C401.398 293.02 401.338 291.37 401.278 289.69C401.218 288.01 401.188 286.45 401.188 285.01V248.74H408.748V313ZM444.38 313V248.74H452.48V305.8H480.56V313H444.38ZM527.488 313H491.578V248.74H527.488V255.85H499.678V275.92H525.868V282.94H499.678V305.89H527.488V313ZM592.527 313H583.077L548.697 259.63H548.337C548.397 260.71 548.457 261.91 548.517 263.23C548.637 264.55 548.727 265.99 548.787 267.55C548.847 269.05 548.907 270.61 548.967 272.23C549.027 273.85 549.057 275.47 549.057 277.09V313H541.587V248.74H550.947L585.237 301.93H585.597C585.537 301.21 585.477 300.22 585.417 298.96C585.357 297.64 585.297 296.2 585.237 294.64C585.177 293.02 585.117 291.37 585.057 289.69C584.997 288.01 584.967 286.45 584.967 285.01V248.74H592.527V313ZM650.286 313L642.546 293.11H617.076L609.426 313H601.236L626.346 248.47H633.636L658.656 313H650.286ZM632.916 266.47C632.736 265.99 632.436 265.12 632.016 263.86C631.596 262.6 631.176 261.31 630.756 259.99C630.396 258.61 630.096 257.56 629.856 256.84C629.556 258.04 629.226 259.27 628.866 260.53C628.566 261.73 628.236 262.84 627.876 263.86C627.576 264.88 627.306 265.75 627.066 266.47L619.776 285.91H640.116L632.916 266.47ZM703.357 313H667.447V248.74H703.357V255.85H675.547V275.92H701.737V282.94H675.547V305.89H703.357V313Z" fill="#F7F29A"/>
<path d="M172 366C173.212 374.688 174.422 383.377 175.634 392.065C179.172 390.529 182.707 388.992 186.245 387.456C183.748 390.145 181.252 392.833 178.756 395.523C188.503 396.514 198.253 397.508 208 398.499C198.356 399.427 188.712 400.355 179.066 401.285C181.666 403.909 184.268 406.535 186.868 409.159C183.02 407.559 179.169 405.958 175.321 404.358C174.215 413.238 173.106 422.119 172 431C170.716 422.119 169.429 413.238 168.145 404.358C164.92 406.023 161.695 407.686 158.47 409.352C160.237 406.535 162.007 403.718 163.775 400.902C154.516 400.101 145.259 399.301 136 398.501L163.371 395.274C161.216 392.733 159.061 390.191 156.909 387.648C160.757 389.121 164.607 390.594 168.455 392.065C169.636 383.377 170.817 374.688 172 366Z" fill="#F7F29A"/>
<path d="M677 366C678.212 374.688 679.422 383.377 680.634 392.065C684.172 390.529 687.707 388.992 691.245 387.456C688.748 390.145 686.252 392.833 683.756 395.523C693.503 396.514 703.253 397.508 713 398.499C703.356 399.427 693.712 400.355 684.066 401.285C686.666 403.909 689.268 406.535 691.868 409.159C688.02 407.559 684.169 405.958 680.321 404.358C679.215 413.238 678.106 422.119 677 431C675.716 422.119 674.429 413.238 673.145 404.358C669.92 406.023 666.695 407.686 663.47 409.352C665.237 406.535 667.007 403.718 668.775 400.902C659.516 400.101 650.259 399.301 641 398.501L668.371 395.274C666.216 392.733 664.061 390.191 661.909 387.648C665.757 389.121 669.607 390.594 673.455 392.065C674.636 383.377 675.817 374.688 677 366Z" fill="#F7F29A"/>
<path d="M677 135C678.212 143.688 679.422 152.377 680.634 161.065C684.172 159.529 687.707 157.992 691.245 156.456C688.748 159.145 686.252 161.833 683.756 164.523C693.503 165.514 703.253 166.508 713 167.499C703.356 168.427 693.712 169.355 684.066 170.285C686.666 172.909 689.268 175.535 691.868 178.159C688.02 176.559 684.169 174.958 680.321 173.358C679.215 182.238 678.106 191.119 677 200C675.716 191.119 674.429 182.238 673.145 173.358C669.92 175.023 666.695 176.686 663.47 178.352C665.237 175.535 667.007 172.718 668.775 169.902C659.516 169.101 650.259 168.301 641 167.501L668.371 164.274C666.216 161.733 664.061 159.191 661.909 156.648C665.757 158.121 669.607 159.594 673.455 161.065C674.636 152.377 675.817 143.688 677 135Z" fill="#F7F29A"/>
<path d="M172 135C173.212 143.688 174.422 152.377 175.634 161.065C179.172 159.529 182.707 157.992 186.245 156.456C183.748 159.145 181.252 161.833 178.756 164.523C188.503 165.514 198.253 166.508 208 167.499C198.356 168.427 188.712 169.355 179.066 170.285C181.666 172.909 184.268 175.535 186.868 178.159C183.02 176.559 179.169 174.958 175.321 173.358C174.215 182.238 173.106 191.119 172 200C170.716 191.119 169.429 182.238 168.145 173.358C164.92 175.023 161.695 176.686 158.47 178.352C160.237 175.535 162.007 172.718 163.775 169.902C154.516 169.101 145.259 168.301 136 167.501L163.371 164.274C161.216 161.733 159.061 159.191 156.909 156.648C160.757 158.121 164.607 159.594 168.455 161.065C169.636 152.377 170.817 143.688 172 135Z" fill="#F7F29A"/>
<path d="M289.201 357.66C290.671 357.66 291.966 357.893 293.086 358.36C294.206 358.803 295.081 359.468 295.711 360.355C296.364 361.242 296.691 362.338 296.691 363.645C296.691 364.648 296.469 365.523 296.026 366.27C295.606 367.017 295.034 367.682 294.311 368.265C293.588 368.825 292.794 369.327 291.931 369.77C292.958 370.26 293.891 370.82 294.731 371.45C295.571 372.057 296.236 372.768 296.726 373.585C297.239 374.402 297.496 375.382 297.496 376.525C297.496 377.925 297.158 379.138 296.481 380.165C295.804 381.168 294.848 381.95 293.611 382.51C292.398 383.07 290.963 383.35 289.306 383.35C287.509 383.35 285.981 383.082 284.721 382.545C283.484 382.008 282.539 381.25 281.886 380.27C281.256 379.267 280.941 378.053 280.941 376.63C280.941 375.487 281.174 374.495 281.641 373.655C282.131 372.815 282.773 372.092 283.566 371.485C284.359 370.878 285.211 370.365 286.121 369.945C285.304 369.478 284.558 368.953 283.881 368.37C283.228 367.763 282.703 367.075 282.306 366.305C281.933 365.535 281.746 364.637 281.746 363.61C281.746 362.327 282.073 361.253 282.726 360.39C283.379 359.503 284.266 358.827 285.386 358.36C286.506 357.893 287.778 357.66 289.201 357.66ZM283.951 376.665C283.951 377.878 284.383 378.893 285.246 379.71C286.109 380.503 287.439 380.9 289.236 380.9C290.379 380.9 291.336 380.713 292.106 380.34C292.876 379.967 293.459 379.453 293.856 378.8C294.276 378.147 294.486 377.4 294.486 376.56C294.486 375.743 294.264 375.032 293.821 374.425C293.401 373.795 292.794 373.235 292.001 372.745C291.231 372.255 290.309 371.812 289.236 371.415L288.676 371.205C287.649 371.648 286.786 372.127 286.086 372.64C285.386 373.153 284.849 373.737 284.476 374.39C284.126 375.043 283.951 375.802 283.951 376.665ZM289.166 360.145C287.883 360.145 286.821 360.46 285.981 361.09C285.164 361.697 284.756 362.583 284.756 363.75C284.756 364.613 284.954 365.337 285.351 365.92C285.771 366.503 286.331 367.005 287.031 367.425C287.731 367.822 288.501 368.207 289.341 368.58C290.158 368.23 290.881 367.845 291.511 367.425C292.164 367.005 292.678 366.503 293.051 365.92C293.448 365.313 293.646 364.59 293.646 363.75C293.646 362.583 293.238 361.697 292.421 361.09C291.604 360.46 290.519 360.145 289.166 360.145ZM322.775 381.11C322.775 380.247 322.985 379.64 323.405 379.29C323.825 378.94 324.327 378.765 324.91 378.765C325.517 378.765 326.03 378.94 326.45 379.29C326.894 379.64 327.115 380.247 327.115 381.11C327.115 381.95 326.894 382.557 326.45 382.93C326.03 383.303 325.517 383.49 324.91 383.49C324.327 383.49 323.825 383.303 323.405 382.93C322.985 382.557 322.775 381.95 322.775 381.11ZM322.775 366.13C322.775 365.243 322.985 364.625 323.405 364.275C323.825 363.925 324.327 363.75 324.91 363.75C325.517 363.75 326.03 363.925 326.45 364.275C326.894 364.625 327.115 365.243 327.115 366.13C327.115 366.97 326.894 367.577 326.45 367.95C326.03 368.323 325.517 368.51 324.91 368.51C324.327 368.51 323.825 368.323 323.405 367.95C322.985 367.577 322.775 366.97 322.775 366.13ZM368.926 370.47C368.926 372.5 368.774 374.308 368.471 375.895C368.167 377.482 367.677 378.835 367.001 379.955C366.347 381.052 365.484 381.892 364.411 382.475C363.361 383.058 362.089 383.35 360.596 383.35C358.729 383.35 357.177 382.837 355.941 381.81C354.727 380.783 353.817 379.313 353.211 377.4C352.627 375.463 352.336 373.153 352.336 370.47C352.336 367.763 352.604 365.453 353.141 363.54C353.701 361.627 354.587 360.168 355.801 359.165C357.014 358.138 358.612 357.625 360.596 357.625C362.462 357.625 364.014 358.138 365.251 359.165C366.487 360.168 367.409 361.627 368.016 363.54C368.622 365.453 368.926 367.763 368.926 370.47ZM355.416 370.47C355.416 372.757 355.579 374.658 355.906 376.175C356.256 377.692 356.804 378.835 357.551 379.605C358.321 380.352 359.336 380.725 360.596 380.725C361.856 380.725 362.859 380.352 363.606 379.605C364.376 378.858 364.936 377.727 365.286 376.21C365.636 374.67 365.811 372.757 365.811 370.47C365.811 368.183 365.636 366.293 365.286 364.8C364.936 363.283 364.376 362.152 363.606 361.405C362.859 360.635 361.856 360.25 360.596 360.25C359.336 360.25 358.321 360.635 357.551 361.405C356.804 362.152 356.256 363.283 355.906 364.8C355.579 366.293 355.416 368.183 355.416 370.47ZM409.955 370.47C409.955 372.5 409.803 374.308 409.5 375.895C409.197 377.482 408.707 378.835 408.03 379.955C407.377 381.052 406.513 381.892 405.44 382.475C404.39 383.058 403.118 383.35 401.625 383.35C399.758 383.35 398.207 382.837 396.97 381.81C395.757 380.783 394.847 379.313 394.24 377.4C393.657 375.463 393.365 373.153 393.365 370.47C393.365 367.763 393.633 365.453 394.17 363.54C394.73 361.627 395.617 360.168 396.83 359.165C398.043 358.138 399.642 357.625 401.625 357.625C403.492 357.625 405.043 358.138 406.28 359.165C407.517 360.168 408.438 361.627 409.045 363.54C409.652 365.453 409.955 367.763 409.955 370.47ZM396.445 370.47C396.445 372.757 396.608 374.658 396.935 376.175C397.285 377.692 397.833 378.835 398.58 379.605C399.35 380.352 400.365 380.725 401.625 380.725C402.885 380.725 403.888 380.352 404.635 379.605C405.405 378.858 405.965 377.727 406.315 376.21C406.665 374.67 406.84 372.757 406.84 370.47C406.84 368.183 406.665 366.293 406.315 364.8C405.965 363.283 405.405 362.152 404.635 361.405C403.888 360.635 402.885 360.25 401.625 360.25C400.365 360.25 399.35 360.635 398.58 361.405C397.833 362.152 397.285 363.283 396.935 364.8C396.608 366.293 396.445 368.183 396.445 370.47ZM470.764 358.01C474.031 358.01 476.411 358.652 477.904 359.935C479.398 361.218 480.144 363.027 480.144 365.36C480.144 366.387 479.969 367.378 479.619 368.335C479.293 369.268 478.744 370.108 477.974 370.855C477.204 371.602 476.178 372.197 474.894 372.64C473.611 373.06 472.036 373.27 470.169 373.27H467.299V383H464.149V358.01H470.764ZM470.484 360.705H467.299V370.575H469.819C471.406 370.575 472.724 370.412 473.774 370.085C474.824 369.735 475.606 369.187 476.119 368.44C476.633 367.693 476.889 366.713 476.889 365.5C476.889 363.89 476.376 362.688 475.349 361.895C474.323 361.102 472.701 360.705 470.484 360.705ZM517.366 383L509.141 361.09H509.001C509.047 361.557 509.082 362.152 509.106 362.875C509.152 363.598 509.187 364.392 509.211 365.255C509.234 366.095 509.246 366.958 509.246 367.845V383H506.341V358.01H510.996L518.696 378.485H518.836L526.676 358.01H531.296V383H528.181V367.635C528.181 366.818 528.192 366.013 528.216 365.22C528.239 364.403 528.274 363.645 528.321 362.945C528.367 362.222 528.402 361.615 528.426 361.125H528.286L519.956 383H517.366ZM239.714 427L231.489 405.09H231.349C231.396 405.557 231.431 406.152 231.454 406.875C231.501 407.598 231.536 408.392 231.559 409.255C231.582 410.095 231.594 410.958 231.594 411.845V427H228.689V402.01H233.344L241.044 422.485H241.184L249.024 402.01H253.644V427H250.529V411.635C250.529 410.818 250.541 410.013 250.564 409.22C250.587 408.403 250.622 407.645 250.669 406.945C250.716 406.222 250.751 405.615 250.774 405.125H250.634L242.304 427H239.714ZM297.122 427L294.112 419.265H284.207L281.232 427H278.047L287.812 401.905H290.647L300.377 427H297.122ZM290.367 408.905C290.297 408.718 290.18 408.38 290.017 407.89C289.854 407.4 289.69 406.898 289.527 406.385C289.387 405.848 289.27 405.44 289.177 405.16C289.06 405.627 288.932 406.105 288.792 406.595C288.675 407.062 288.547 407.493 288.407 407.89C288.29 408.287 288.185 408.625 288.092 408.905L285.257 416.465H293.167L290.367 408.905ZM331.83 427H322.8V425.18L325.74 424.515V404.53L322.8 403.83V402.01H331.83V403.83L328.89 404.53V424.515L331.83 425.18V427ZM377.466 427H373.791L360.421 406.245H360.281C360.304 406.665 360.327 407.132 360.351 407.645C360.397 408.158 360.432 408.718 360.456 409.325C360.479 409.908 360.502 410.515 360.526 411.145C360.549 411.775 360.561 412.405 360.561 413.035V427H357.656V402.01H361.296L374.631 422.695H374.771C374.747 422.415 374.724 422.03 374.701 421.54C374.677 421.027 374.654 420.467 374.631 419.86C374.607 419.23 374.584 418.588 374.561 417.935C374.537 417.282 374.526 416.675 374.526 416.115V402.01H377.466V427ZM447.498 420.315C447.498 421.808 447.136 423.08 446.413 424.13C445.689 425.157 444.651 425.95 443.298 426.51C441.968 427.07 440.393 427.35 438.573 427.35C437.639 427.35 436.741 427.303 435.878 427.21C435.038 427.117 434.268 426.988 433.568 426.825C432.868 426.638 432.249 426.417 431.713 426.16V423.15C432.553 423.523 433.591 423.862 434.828 424.165C436.088 424.468 437.383 424.62 438.713 424.62C439.949 424.62 440.988 424.457 441.828 424.13C442.668 423.803 443.298 423.337 443.718 422.73C444.138 422.123 444.348 421.412 444.348 420.595C444.348 419.778 444.173 419.09 443.823 418.53C443.473 417.97 442.866 417.457 442.003 416.99C441.163 416.5 439.984 415.987 438.468 415.45C437.394 415.053 436.449 414.633 435.633 414.19C434.839 413.723 434.174 413.198 433.638 412.615C433.101 412.032 432.693 411.367 432.413 410.62C432.156 409.873 432.028 409.01 432.028 408.03C432.028 406.7 432.366 405.568 433.043 404.635C433.719 403.678 434.653 402.943 435.843 402.43C437.056 401.917 438.444 401.66 440.008 401.66C441.384 401.66 442.644 401.788 443.788 402.045C444.931 402.302 445.969 402.64 446.903 403.06L445.923 405.755C445.059 405.382 444.114 405.067 443.088 404.81C442.084 404.553 441.034 404.425 439.938 404.425C438.888 404.425 438.013 404.577 437.313 404.88C436.613 405.183 436.088 405.615 435.738 406.175C435.388 406.712 435.213 407.342 435.213 408.065C435.213 408.905 435.388 409.605 435.738 410.165C436.088 410.725 436.659 411.227 437.453 411.67C438.246 412.113 439.319 412.592 440.673 413.105C442.143 413.642 443.379 414.225 444.383 414.855C445.409 415.462 446.179 416.197 446.693 417.06C447.229 417.923 447.498 419.008 447.498 420.315ZM481.442 427H478.292V404.775H470.487V402.01H489.212V404.775H481.442V427ZM527.199 427L524.189 419.265H514.284L511.309 427H508.124L517.889 401.905H520.724L530.454 427H527.199ZM520.444 408.905C520.374 408.718 520.257 408.38 520.094 407.89C519.931 407.4 519.767 406.898 519.604 406.385C519.464 405.848 519.347 405.44 519.254 405.16C519.137 405.627 519.009 406.105 518.869 406.595C518.752 407.062 518.624 407.493 518.484 407.89C518.367 408.287 518.262 408.625 518.169 408.905L515.334 416.465H523.244L520.444 408.905ZM565.039 413.805H573.684V426.055C572.331 426.498 570.966 426.825 569.589 427.035C568.212 427.245 566.649 427.35 564.899 427.35C562.309 427.35 560.127 426.837 558.354 425.81C556.581 424.76 555.227 423.278 554.294 421.365C553.384 419.428 552.929 417.142 552.929 414.505C552.929 411.892 553.442 409.628 554.469 407.715C555.496 405.802 556.966 404.32 558.879 403.27C560.816 402.197 563.149 401.66 565.879 401.66C567.279 401.66 568.597 401.788 569.834 402.045C571.094 402.302 572.261 402.663 573.334 403.13L572.144 405.86C571.257 405.463 570.254 405.125 569.134 404.845C568.037 404.565 566.894 404.425 565.704 404.425C563.721 404.425 562.017 404.833 560.594 405.65C559.171 406.467 558.086 407.633 557.339 409.15C556.592 410.643 556.219 412.428 556.219 414.505C556.219 416.488 556.534 418.25 557.164 419.79C557.817 421.307 558.832 422.497 560.209 423.36C561.586 424.2 563.394 424.62 565.634 424.62C566.381 424.62 567.034 424.597 567.594 424.55C568.177 424.48 568.702 424.398 569.169 424.305C569.659 424.212 570.114 424.118 570.534 424.025V416.605H565.039V413.805ZM614.618 427H600.653V402.01H614.618V404.775H603.803V412.58H613.988V415.31H603.803V424.235H614.618V427Z" fill="#F7F29A"/>
<path d="M249.554 178H233.034V175.445L239.579 168.83C240.839 167.57 241.9 166.45 242.764 165.47C243.627 164.49 244.28 163.533 244.724 162.6C245.167 161.643 245.389 160.605 245.389 159.485C245.389 158.108 244.98 157.07 244.164 156.37C243.347 155.647 242.285 155.285 240.979 155.285C239.765 155.285 238.692 155.495 237.759 155.915C236.849 156.335 235.915 156.918 234.959 157.665L233.314 155.6C233.967 155.04 234.679 154.538 235.449 154.095C236.242 153.652 237.094 153.302 238.004 153.045C238.937 152.788 239.929 152.66 240.979 152.66C242.542 152.66 243.884 152.928 245.004 153.465C246.124 154.002 246.987 154.772 247.594 155.775C248.224 156.755 248.539 157.933 248.539 159.31C248.539 160.29 248.387 161.223 248.084 162.11C247.78 162.973 247.349 163.825 246.789 164.665C246.229 165.505 245.552 166.357 244.759 167.22C243.965 168.083 243.09 168.982 242.134 169.915L236.919 175.06V175.2H249.554V178ZM290.688 165.47C290.688 167.5 290.536 169.308 290.233 170.895C289.929 172.482 289.439 173.835 288.763 174.955C288.109 176.052 287.246 176.892 286.173 177.475C285.123 178.058 283.851 178.35 282.358 178.35C280.491 178.35 278.939 177.837 277.703 176.81C276.489 175.783 275.579 174.313 274.973 172.4C274.389 170.463 274.098 168.153 274.098 165.47C274.098 162.763 274.366 160.453 274.903 158.54C275.463 156.627 276.349 155.168 277.563 154.165C278.776 153.138 280.374 152.625 282.358 152.625C284.224 152.625 285.776 153.138 287.013 154.165C288.249 155.168 289.171 156.627 289.778 158.54C290.384 160.453 290.688 162.763 290.688 165.47ZM277.178 165.47C277.178 167.757 277.341 169.658 277.668 171.175C278.018 172.692 278.566 173.835 279.313 174.605C280.083 175.352 281.098 175.725 282.358 175.725C283.618 175.725 284.621 175.352 285.368 174.605C286.138 173.858 286.698 172.727 287.048 171.21C287.398 169.67 287.573 167.757 287.573 165.47C287.573 163.183 287.398 161.293 287.048 159.8C286.698 158.283 286.138 157.152 285.368 156.405C284.621 155.635 283.618 155.25 282.358 155.25C281.098 155.25 280.083 155.635 279.313 156.405C278.566 157.152 278.018 158.283 277.668 159.8C277.341 161.293 277.178 163.183 277.178 165.47ZM331.612 178H315.092V175.445L321.637 168.83C322.897 167.57 323.959 166.45 324.822 165.47C325.685 164.49 326.339 163.533 326.782 162.6C327.225 161.643 327.447 160.605 327.447 159.485C327.447 158.108 327.039 157.07 326.222 156.37C325.405 155.647 324.344 155.285 323.037 155.285C321.824 155.285 320.75 155.495 319.817 155.915C318.907 156.335 317.974 156.918 317.017 157.665L315.372 155.6C316.025 155.04 316.737 154.538 317.507 154.095C318.3 153.652 319.152 153.302 320.062 153.045C320.995 152.788 321.987 152.66 323.037 152.66C324.6 152.66 325.942 152.928 327.062 153.465C328.182 154.002 329.045 154.772 329.652 155.775C330.282 156.755 330.597 157.933 330.597 159.31C330.597 160.29 330.445 161.223 330.142 162.11C329.839 162.973 329.407 163.825 328.847 164.665C328.287 165.505 327.61 166.357 326.817 167.22C326.024 168.083 325.149 168.982 324.192 169.915L318.977 175.06V175.2H331.612V178ZM364.066 162.67C365.77 162.67 367.251 162.962 368.511 163.545C369.771 164.128 370.74 164.968 371.416 166.065C372.116 167.138 372.466 168.457 372.466 170.02C372.466 171.747 372.093 173.24 371.346 174.5C370.6 175.737 369.526 176.693 368.126 177.37C366.75 178.023 365.081 178.35 363.121 178.35C361.838 178.35 360.625 178.233 359.481 178C358.361 177.767 357.416 177.428 356.646 176.985V174.08C357.486 174.593 358.501 175.002 359.691 175.305C360.905 175.585 362.06 175.725 363.156 175.725C364.393 175.725 365.466 175.538 366.376 175.165C367.31 174.768 368.033 174.173 368.546 173.38C369.06 172.563 369.316 171.548 369.316 170.335C369.316 168.702 368.815 167.453 367.811 166.59C366.808 165.703 365.221 165.26 363.051 165.26C362.398 165.26 361.651 165.318 360.811 165.435C359.971 165.552 359.295 165.668 358.781 165.785L357.241 164.805L358.186 153.01H370.716V155.81H360.811L360.216 163.055C360.613 162.985 361.15 162.903 361.826 162.81C362.503 162.717 363.25 162.67 364.066 162.67ZM413.776 165.47C413.776 167.5 413.624 169.308 413.321 170.895C413.017 172.482 412.527 173.835 411.851 174.955C411.197 176.052 410.334 176.892 409.261 177.475C408.211 178.058 406.939 178.35 405.446 178.35C403.579 178.35 402.027 177.837 400.791 176.81C399.577 175.783 398.667 174.313 398.061 172.4C397.477 170.463 397.186 168.153 397.186 165.47C397.186 162.763 397.454 160.453 397.991 158.54C398.551 156.627 399.437 155.168 400.651 154.165C401.864 153.138 403.462 152.625 405.446 152.625C407.312 152.625 408.864 153.138 410.101 154.165C411.337 155.168 412.259 156.627 412.866 158.54C413.472 160.453 413.776 162.763 413.776 165.47ZM400.266 165.47C400.266 167.757 400.429 169.658 400.756 171.175C401.106 172.692 401.654 173.835 402.401 174.605C403.171 175.352 404.186 175.725 405.446 175.725C406.706 175.725 407.709 175.352 408.456 174.605C409.226 173.858 409.786 172.727 410.136 171.21C410.486 169.67 410.661 167.757 410.661 165.47C410.661 163.183 410.486 161.293 410.136 159.8C409.786 158.283 409.226 157.152 408.456 156.405C407.709 155.635 406.706 155.25 405.446 155.25C404.186 155.25 403.171 155.635 402.401 156.405C401.654 157.152 401.106 158.283 400.756 159.8C400.429 161.293 400.266 163.183 400.266 165.47ZM446.125 162.67C447.828 162.67 449.31 162.962 450.57 163.545C451.83 164.128 452.798 164.968 453.475 166.065C454.175 167.138 454.525 168.457 454.525 170.02C454.525 171.747 454.152 173.24 453.405 174.5C452.658 175.737 451.585 176.693 450.185 177.37C448.808 178.023 447.14 178.35 445.18 178.35C443.897 178.35 442.683 178.233 441.54 178C440.42 177.767 439.475 177.428 438.705 176.985V174.08C439.545 174.593 440.56 175.002 441.75 175.305C442.963 175.585 444.118 175.725 445.215 175.725C446.452 175.725 447.525 175.538 448.435 175.165C449.368 174.768 450.092 174.173 450.605 173.38C451.118 172.563 451.375 171.548 451.375 170.335C451.375 168.702 450.873 167.453 449.87 166.59C448.867 165.703 447.28 165.26 445.11 165.26C444.457 165.26 443.71 165.318 442.87 165.435C442.03 165.552 441.353 165.668 440.84 165.785L439.3 164.805L440.245 153.01H452.775V155.81H442.87L442.275 163.055C442.672 162.985 443.208 162.903 443.885 162.81C444.562 162.717 445.308 162.67 446.125 162.67ZM489.954 178H486.944V160.535C486.944 159.858 486.944 159.287 486.944 158.82C486.968 158.353 486.991 157.922 487.014 157.525C487.038 157.105 487.061 156.673 487.084 156.23C486.711 156.603 486.373 156.918 486.069 157.175C485.766 157.432 485.381 157.758 484.914 158.155L482.254 160.325L480.644 158.26L487.399 153.01H489.954V178ZM523.319 178L533.574 155.81H520.099V153.01H536.864V155.39L526.714 178H523.319ZM569.213 162.67C570.916 162.67 572.398 162.962 573.658 163.545C574.918 164.128 575.886 164.968 576.563 166.065C577.263 167.138 577.613 168.457 577.613 170.02C577.613 171.747 577.24 173.24 576.493 174.5C575.746 175.737 574.673 176.693 573.273 177.37C571.896 178.023 570.228 178.35 568.268 178.35C566.985 178.35 565.771 178.233 564.628 178C563.508 177.767 562.563 177.428 561.793 176.985V174.08C562.633 174.593 563.648 175.002 564.838 175.305C566.051 175.585 567.206 175.725 568.303 175.725C569.54 175.725 570.613 175.538 571.523 175.165C572.456 174.768 573.18 174.173 573.693 173.38C574.206 172.563 574.463 171.548 574.463 170.335C574.463 168.702 573.961 167.453 572.958 166.59C571.955 165.703 570.368 165.26 568.198 165.26C567.545 165.26 566.798 165.318 565.958 165.435C565.118 165.552 564.441 165.668 563.928 165.785L562.388 164.805L563.333 153.01H575.863V155.81H565.958L565.363 163.055C565.76 162.985 566.296 162.903 566.973 162.81C567.65 162.717 568.396 162.67 569.213 162.67ZM617.872 158.855C617.872 159.975 617.662 160.943 617.242 161.76C616.822 162.577 616.216 163.242 615.422 163.755C614.652 164.268 613.742 164.63 612.692 164.84V164.98C614.699 165.213 616.192 165.843 617.172 166.87C618.152 167.897 618.642 169.238 618.642 170.895C618.642 172.342 618.304 173.637 617.627 174.78C616.951 175.9 615.901 176.775 614.477 177.405C613.077 178.035 611.269 178.35 609.052 178.35C607.746 178.35 606.532 178.245 605.412 178.035C604.292 177.848 603.219 177.498 602.192 176.985V174.115C603.242 174.628 604.374 175.037 605.587 175.34C606.801 175.62 607.967 175.76 609.087 175.76C611.327 175.76 612.937 175.328 613.917 174.465C614.921 173.578 615.422 172.365 615.422 170.825C615.422 169.775 615.142 168.935 614.582 168.305C614.046 167.652 613.252 167.173 612.202 166.87C611.152 166.567 609.892 166.415 608.422 166.415H606.007V163.79H608.457C609.834 163.79 610.977 163.592 611.887 163.195C612.821 162.798 613.521 162.25 613.987 161.55C614.477 160.827 614.722 159.998 614.722 159.065C614.722 157.852 614.314 156.918 613.497 156.265C612.681 155.588 611.572 155.25 610.172 155.25C609.286 155.25 608.481 155.343 607.757 155.53C607.034 155.693 606.357 155.938 605.727 156.265C605.121 156.568 604.502 156.93 603.872 157.35L602.332 155.25C602.939 154.783 603.627 154.352 604.397 153.955C605.191 153.558 606.066 153.243 607.022 153.01C607.979 152.777 609.017 152.66 610.137 152.66C612.751 152.66 614.687 153.243 615.947 154.41C617.231 155.577 617.872 157.058 617.872 158.855Z" fill="#F7F29A"/>
<path d="M654 340H188" stroke="#F7F29A" stroke-width="5" stroke-miterlimit="10"/>
<path d="M659 211L193 211" stroke="#F7F29A" stroke-width="5" stroke-miterlimit="10"/>
</g>
<defs>
<clipPath id="clip0_17_2">
<rect width="852" height="541" fill="white"/>
</clipPath>
</defs>
</svg>
