<svg width="62" height="61" viewBox="0 0 62 61" fill="none" xmlns="http://www.w3.org/2000/svg">
<ellipse cx="30.5966" cy="30.2345" rx="30.5966" ry="30.2345" fill="#FFBD5B"/>
<ellipse cx="30.7776" cy="30.4156" rx="27.1567" ry="26.7946" fill="#3B0434"/>
<circle cx="5.79345" cy="15.9319" r="1.08627" fill="#081940"/>
<circle cx="7.966" cy="12.3111" r="1.08627" fill="#081940"/>
<circle cx="11.2248" cy="9.05227" r="1.08627" fill="#081940"/>
<circle cx="14.1215" cy="6.87973" r="1.08627" fill="#081940"/>
<circle cx="17.3803" cy="4.70718" r="1.08627" fill="#081940"/>
<circle cx="21.0012" cy="3.25882" r="1.08627" fill="#081940"/>
<circle cx="24.6221" cy="2.17251" r="1.08627" fill="#081940"/>
<circle cx="28.6051" cy="1.81045" r="1.08627" fill="#081940"/>
<circle cx="32.5881" cy="1.81045" r="1.08627" fill="#081940"/>
<circle cx="36.209" cy="2.17251" r="1.08627" fill="#081940"/>
<circle cx="39.4678" cy="3.25882" r="1.08627" fill="#081940"/>
<circle cx="43.0887" cy="4.34506" r="1.08627" fill="#081940"/>
<circle cx="45.9854" cy="6.15554" r="1.08627" fill="#081940"/>
<circle cx="48.52" cy="7.96597" r="1.08627" fill="#081940"/>
<circle cx="51.0547" cy="10.1385" r="1.08627" fill="#081940"/>
<circle cx="53.5893" cy="13.0352" r="1.08627" fill="#081940"/>
<circle cx="55.3997" cy="15.9319" r="1.08627" fill="#081940"/>
<circle cx="57.2102" cy="18.8287" r="1.08627" fill="#081940"/>
<circle cx="58.2965" cy="22.0875" r="1.08627" fill="#081940"/>
<circle cx="59.0207" cy="25.3463" r="1.08627" fill="#081940"/>
<circle cx="59.3827" cy="28.243" r="1.08627" fill="#081940"/>
<circle cx="59.3827" cy="31.8639" r="1.08627" fill="#081940"/>
<circle cx="59.0207" cy="35.4848" r="1.08627" fill="#081940"/>
<circle cx="58.2965" cy="38.7436" r="1.08627" fill="#081940"/>
<circle cx="57.2102" cy="41.6403" r="1.08627" fill="#081940"/>
<circle cx="55.7618" cy="44.537" r="1.08627" fill="#081940"/>
<circle cx="53.9514" cy="47.0717" r="1.08627" fill="#081940"/>
<circle cx="51.7788" cy="49.9684" r="1.08627" fill="#081940"/>
<circle cx="49.2442" cy="52.141" r="1.08627" fill="#081940"/>
<circle cx="46.7096" cy="53.9514" r="1.08627" fill="#081940"/>
<circle cx="43.8129" cy="55.7619" r="1.08627" fill="#081940"/>
<circle cx="40.5541" cy="57.2102" r="1.08627" fill="#081940"/>
<circle cx="37.2952" cy="58.2965" r="1.08627" fill="#081940"/>
<circle cx="33.6743" cy="58.6585" r="1.08627" fill="#081940"/>
<circle cx="30.0535" cy="59.0206" r="1.08627" fill="#081940"/>
<circle cx="26.7946" cy="58.6585" r="1.08627" fill="#081940"/>
<circle cx="23.1737" cy="57.9344" r="1.08627" fill="#081940"/>
<circle cx="19.9149" cy="56.8481" r="1.08627" fill="#081940"/>
<circle cx="16.6561" cy="55.0376" r="1.08627" fill="#081940"/>
<circle cx="13.7594" cy="53.2272" r="1.08627" fill="#081940"/>
<circle cx="10.8627" cy="51.0547" r="1.08627" fill="#081940"/>
<circle cx="7.966" cy="48.158" r="1.08627" fill="#081940"/>
<circle cx="5.79345" cy="44.8991" r="1.08627" fill="#081940"/>
<circle cx="4.34506" cy="41.6403" r="1.08627" fill="#081940"/>
<circle cx="2.89671" cy="37.6574" r="1.08627" fill="#081940"/>
<circle cx="1.81047" cy="34.0364" r="1.08627" fill="#081940"/>
<circle cx="1.44836" cy="30.0534" r="1.08627" fill="#081940"/>
<circle cx="1.81047" cy="26.4325" r="1.08627" fill="#081940"/>
<circle cx="2.89671" cy="22.8117" r="1.08627" fill="#081940"/>
<circle cx="4.34506" cy="18.8287" r="1.08627" fill="#081940"/>
<path d="M31.0312 11.5029C31.4231 11.4785 31.7705 11.5847 32.0215 11.8359C32.2741 12.0888 32.4999 12.5599 32.5 13.4072V30.5H29.5V12.5742L29.5059 12.5049C29.5331 12.3372 29.6585 12.1226 29.9287 11.916C30.2278 11.6873 30.6337 11.5277 31.0312 11.5029Z" fill="#D0895D" stroke="#844C3A"/>
<path d="M22.9102 27.2031C24.8948 26.1302 27.6702 26.2729 30.79 27.7197L30.9863 27.8105L31.1865 27.7295C34.2211 26.5083 36.8886 26.1395 38.8447 27.0449C40.7524 27.928 42.1769 30.1249 42.499 34.5381C42.4883 39.9803 37.4103 44.5 31 44.5C24.5874 44.5 19.5071 39.977 19.5 34.5322C19.5887 30.6105 20.9467 28.2646 22.9102 27.2031Z" fill="#91E285" stroke="#50A767"/>
<g filter="url(#filter0_i_405_1738)">
<path d="M42.9216 32.9057C43.7217 40.6998 37.6561 45.3034 30 45.5C23.5194 45.5 18.346 39.542 18.346 33.6744C18.6126 23.6038 27.9667 28.2289 30.9207 28.8742C33.1558 29.3625 38.358 26.1517 41.135 28.328C42.0283 29.0281 42.7269 31.0086 42.9216 32.9057Z" fill="#FF0707"/>
</g>
<path d="M23.6292 27.7556C24.927 27.7452 26.3267 28.0533 27.6106 28.4167C28.2506 28.5978 28.8512 28.79 29.3938 28.9597C29.795 29.0851 30.1716 29.2004 30.5012 29.2868L30.8137 29.363C31.4948 29.5118 32.3402 29.3732 33.1829 29.1755C33.6156 29.0739 34.073 28.9506 34.5344 28.8249C34.9985 28.6985 35.4689 28.5693 35.9426 28.4538C36.8945 28.2218 37.8263 28.0524 38.6751 28.0641C39.4133 28.0744 40.0619 28.2215 40.6018 28.5632L40.8264 28.7214C41.164 28.986 41.5218 29.5518 41.8225 30.3454C42.0797 31.024 42.2765 31.818 42.384 32.6149L42.4241 32.9567C42.8084 36.7004 41.5481 39.6416 39.2962 41.6813C37.0316 43.7325 33.7267 44.9021 29.9905 44.9987C23.8208 44.9929 18.8535 39.298 18.846 33.6872C18.9108 31.2404 19.5252 29.7849 20.3635 28.9362C21.1984 28.0911 22.3359 27.7659 23.6292 27.7556Z" stroke="#921919"/>
<path d="M26 28.9919C26 30.0955 23.5461 28.3258 23.7177 32C22.7691 32 22 31.1053 22 30.0017C22 28.8981 22.7691 28.0034 23.7177 28.0034C24.6664 28.0034 26 27.8882 26 28.9919Z" fill="#FFB9B9"/>
<path d="M24.2519 33C22.2815 33.3333 23.7478 34 23.1259 34C22.5041 34 22 33.5523 22 33C22 32.4477 22.5041 32 23.1259 32C23.7478 32 26.2223 32.6667 24.2519 33Z" fill="#FFB9B9"/>
<defs>
<filter id="filter0_i_405_1738" x="18.346" y="23.2556" width="24.6467" height="22.2444" filterUnits="userSpaceOnUse" color-interpolation-filters="sRGB">
<feFlood flood-opacity="0" result="BackgroundImageFix"/>
<feBlend mode="normal" in="SourceGraphic" in2="BackgroundImageFix" result="shape"/>
<feColorMatrix in="SourceAlpha" type="matrix" values="0 0 0 0 0 0 0 0 0 0 0 0 0 0 0 0 0 0 127 0" result="hardAlpha"/>
<feOffset dy="-10"/>
<feGaussianBlur stdDeviation="2"/>
<feComposite in2="hardAlpha" operator="arithmetic" k2="-1" k3="1"/>
<feColorMatrix type="matrix" values="0 0 0 0 0 0 0 0 0 0 0 0 0 0 0 0 0 0 0.25 0"/>
<feBlend mode="normal" in2="shape" result="effect1_innerShadow_405_1738"/>
</filter>
</defs>
</svg>
