<svg width="62" height="61" viewBox="0 0 62 61" fill="none" xmlns="http://www.w3.org/2000/svg">
<ellipse cx="30.5966" cy="30.2345" rx="30.5966" ry="30.2345" fill="#FFBD5B"/>
<ellipse cx="30.7776" cy="30.4156" rx="27.1567" ry="26.7946" fill="#3B0434"/>
<circle cx="5.79342" cy="15.9319" r="1.08627" fill="#081940"/>
<circle cx="7.96597" cy="12.3111" r="1.08627" fill="#081940"/>
<circle cx="11.2248" cy="9.05227" r="1.08627" fill="#081940"/>
<circle cx="14.1215" cy="6.87973" r="1.08627" fill="#081940"/>
<circle cx="17.3803" cy="4.70718" r="1.08627" fill="#081940"/>
<circle cx="21.0012" cy="3.25882" r="1.08627" fill="#081940"/>
<circle cx="24.6221" cy="2.17254" r="1.08627" fill="#081940"/>
<circle cx="28.605" cy="1.81045" r="1.08627" fill="#081940"/>
<circle cx="32.5881" cy="1.81045" r="1.08627" fill="#081940"/>
<circle cx="36.209" cy="2.17254" r="1.08627" fill="#081940"/>
<circle cx="39.4677" cy="3.25882" r="1.08627" fill="#081940"/>
<circle cx="43.0886" cy="4.34509" r="1.08627" fill="#081940"/>
<circle cx="45.9854" cy="6.15551" r="1.08627" fill="#081940"/>
<circle cx="48.52" cy="7.96597" r="1.08627" fill="#081940"/>
<circle cx="51.0547" cy="10.1385" r="1.08627" fill="#081940"/>
<circle cx="53.5893" cy="13.0352" r="1.08627" fill="#081940"/>
<circle cx="55.3997" cy="15.9319" r="1.08627" fill="#081940"/>
<circle cx="57.2102" cy="18.8287" r="1.08627" fill="#081940"/>
<circle cx="58.2964" cy="22.0875" r="1.08627" fill="#081940"/>
<circle cx="59.0206" cy="25.3463" r="1.08627" fill="#081940"/>
<circle cx="59.3827" cy="28.243" r="1.08627" fill="#081940"/>
<circle cx="59.3827" cy="31.8639" r="1.08627" fill="#081940"/>
<circle cx="59.0206" cy="35.4848" r="1.08627" fill="#081940"/>
<circle cx="58.2964" cy="38.7436" r="1.08627" fill="#081940"/>
<circle cx="57.2102" cy="41.6403" r="1.08627" fill="#081940"/>
<circle cx="55.7618" cy="44.537" r="1.08627" fill="#081940"/>
<circle cx="53.9514" cy="47.0717" r="1.08627" fill="#081940"/>
<circle cx="51.7788" cy="49.9684" r="1.08627" fill="#081940"/>
<circle cx="49.2442" cy="52.141" r="1.08627" fill="#081940"/>
<circle cx="46.7096" cy="53.9514" r="1.08627" fill="#081940"/>
<circle cx="43.8128" cy="55.7618" r="1.08627" fill="#081940"/>
<circle cx="40.554" cy="57.2102" r="1.08627" fill="#081940"/>
<circle cx="37.2952" cy="58.2965" r="1.08627" fill="#081940"/>
<circle cx="33.6743" cy="58.6585" r="1.08627" fill="#081940"/>
<circle cx="30.0534" cy="59.0206" r="1.08627" fill="#081940"/>
<circle cx="26.7946" cy="58.6585" r="1.08627" fill="#081940"/>
<circle cx="23.1737" cy="57.9344" r="1.08627" fill="#081940"/>
<circle cx="19.9149" cy="56.8481" r="1.08627" fill="#081940"/>
<circle cx="16.6561" cy="55.0377" r="1.08627" fill="#081940"/>
<circle cx="13.7594" cy="53.2272" r="1.08627" fill="#081940"/>
<circle cx="10.8627" cy="51.0547" r="1.08627" fill="#081940"/>
<circle cx="7.96597" cy="48.158" r="1.08627" fill="#081940"/>
<circle cx="5.79342" cy="44.8991" r="1.08627" fill="#081940"/>
<circle cx="4.34503" cy="41.6403" r="1.08627" fill="#081940"/>
<circle cx="2.89668" cy="37.6573" r="1.08627" fill="#081940"/>
<circle cx="1.81044" cy="34.0364" r="1.08627" fill="#081940"/>
<circle cx="1.44833" cy="30.0534" r="1.08627" fill="#081940"/>
<circle cx="1.81044" cy="26.4326" r="1.08627" fill="#081940"/>
<circle cx="2.89668" cy="22.8117" r="1.08627" fill="#081940"/>
<circle cx="4.34503" cy="18.8287" r="1.08627" fill="#081940"/>
<g filter="url(#filter0_i_392_97)">
<path d="M25.0824 34.1207C27.52 35.4566 26.1074 37.3913 24.7576 40.1437C23.4078 42.8961 22.3691 45.0141 20.1943 44.0881C18.0195 43.1621 19.1693 40.8176 20.5191 38.0651C21.8689 35.3127 22.6447 32.7847 25.0824 34.1207Z" fill="#FD90C7"/>
</g>
<path d="M21.9059 36.3224C22.2032 35.726 22.4827 35.2368 22.7783 34.8783C23.0716 34.5228 23.3487 34.3358 23.6341 34.2756C23.8814 34.2234 24.2045 34.252 24.6457 34.4595L24.8417 34.5589C25.3905 34.8597 25.6646 35.162 25.7954 35.4464C25.9252 35.7291 25.9454 36.064 25.8515 36.4942C25.756 36.9316 25.5509 37.4302 25.2701 38.0124C25.131 38.3009 24.9775 38.6027 24.8142 38.9222C24.6516 39.2402 24.4796 39.5756 24.3087 39.9241C23.621 41.3265 23.0572 42.4645 22.4181 43.1561C22.1084 43.4912 21.8105 43.6864 21.5078 43.7659C21.2488 43.8338 20.942 43.8289 20.5586 43.6941L20.3899 43.6277C19.936 43.4344 19.7085 43.1931 19.5937 42.9381C19.4732 42.6705 19.4451 42.317 19.5276 41.8485C19.6968 40.8886 20.2807 39.6874 20.9681 38.2858C21.139 37.9374 21.3008 37.5921 21.4555 37.2631C21.6109 36.9327 21.7586 36.618 21.9059 36.3224Z" stroke="#893F5E"/>
<g filter="url(#filter1_i_392_97)">
<path d="M22.8124 33.7424C25.25 35.0784 23.8374 37.013 22.4876 39.7654C21.1378 42.5179 20.0991 44.6359 17.9243 43.7099C15.7495 42.7839 16.8993 40.4393 18.2491 37.6869C19.5989 34.9344 20.3747 32.4065 22.8124 33.7424Z" fill="#FD90C7"/>
</g>
<path d="M19.6359 35.9441C19.9332 35.3477 20.2127 34.8585 20.5083 34.5001C20.8016 34.1446 21.0787 33.9575 21.3641 33.8973C21.6114 33.8452 21.9345 33.8738 22.3757 34.0813L22.5717 34.1806C23.1205 34.4814 23.3947 34.7837 23.5254 35.0682C23.6552 35.3509 23.6754 35.6857 23.5815 36.1159C23.486 36.5534 23.2809 37.0519 23.0001 37.6342C22.861 37.9227 22.7075 38.2244 22.5442 38.5439C22.3816 38.8619 22.2096 39.1974 22.0387 39.5458C21.351 40.9482 20.7872 42.0862 20.1481 42.7779C19.8384 43.1129 19.5405 43.3081 19.2378 43.3876C18.9788 43.4555 18.672 43.4507 18.2886 43.3159L18.12 43.2495C17.6661 43.0561 17.4385 42.8148 17.3237 42.5599C17.2032 42.2923 17.1751 41.9388 17.2576 41.4703C17.4268 40.5104 18.0107 39.3092 18.6981 37.9075C18.869 37.5591 19.0308 37.2138 19.1855 36.8849C19.3409 36.5544 19.4886 36.2398 19.6359 35.9441Z" stroke="#893F5E"/>
<g filter="url(#filter2_i_392_97)">
<path d="M35.2431 33.7314C32.5868 34.5505 33.5822 36.7295 34.3517 39.6969C35.1213 42.6643 35.7134 44.9478 38.0299 44.4774C40.3463 44.007 39.6908 41.4793 38.9213 38.5119C38.1517 35.5444 37.8994 32.9122 35.2431 33.7314Z" fill="#FD90C7"/>
</g>
<path d="M37.9127 36.5261C37.7412 35.8821 37.5656 35.3468 37.348 34.9363C37.1321 34.5291 36.8982 34.2903 36.6308 34.174C36.399 34.0732 36.0767 34.0363 35.6028 34.151L35.3909 34.209C34.7929 34.3934 34.4636 34.6345 34.2784 34.8869C34.0945 35.1378 34.0074 35.4617 34.013 35.9021C34.0187 36.3498 34.1195 36.8793 34.2776 37.5061C34.356 37.8167 34.4457 38.1431 34.5416 38.4889C34.637 38.8331 34.7381 39.1962 34.8355 39.5719C35.2276 41.0838 35.5514 42.3118 36.0386 43.1178C36.2746 43.5082 36.5273 43.7593 36.8079 43.8979C37.048 44.0164 37.3494 44.0733 37.7521 44.0182L37.9307 43.9871C38.4142 43.8888 38.6856 43.6981 38.8492 43.4714C39.0209 43.2335 39.1195 42.8928 39.1327 42.4173C39.1598 41.443 38.829 40.149 38.4371 38.6379C38.3397 38.2622 38.2505 37.8915 38.165 37.5381C38.0792 37.1832 37.9976 36.8453 37.9127 36.5261Z" stroke="#893F5E"/>
<g filter="url(#filter3_i_392_97)">
<path d="M33.8411 34.9672C31.335 35.5269 32.0904 37.595 32.5797 40.3693C33.0689 43.1437 33.4454 45.2786 35.6128 45.0141C37.7802 44.7496 37.3634 42.3864 36.8742 39.612C36.3849 36.8376 36.3471 34.4076 33.8411 34.9672Z" fill="#FD90C7"/>
</g>
<path d="M36.0549 37.7271C35.9447 37.1252 35.8236 36.6258 35.6556 36.2387C35.4892 35.8555 35.2965 35.6292 35.0698 35.509C34.873 35.4049 34.5872 35.3467 34.1481 35.4167L33.9497 35.4557C33.3902 35.5807 33.0778 35.7747 32.8957 35.9846C32.7152 36.1928 32.613 36.4735 32.586 36.8712C32.5585 37.2765 32.6117 37.7647 32.7108 38.3496C32.7599 38.6393 32.819 38.9445 32.8818 39.2684C32.9441 39.5905 33.0104 39.9304 33.0724 40.282C33.3221 41.698 33.528 42.8396 33.9135 43.6063C34.0996 43.9763 34.3087 44.2179 34.5482 44.3601C34.7528 44.4815 35.0188 44.5534 35.3877 44.5323L35.5518 44.5183C35.9976 44.4639 36.2524 44.3108 36.4124 44.1236C36.581 43.9262 36.6957 43.6304 36.7425 43.2007C36.8386 42.3172 36.6313 41.1137 36.3817 39.6984C36.3197 39.3471 36.2652 39.0016 36.2126 38.6721C36.1598 38.3406 36.1095 38.0252 36.0549 37.7271Z" stroke="#893F5E"/>
<g filter="url(#filter4_i_392_97)">
<path d="M36.9695 34.0136C36.7804 37.7968 33.2431 37.2293 28.6463 37.2293C24.0496 37.2293 20.5123 37.2293 20.3231 34.0136C20.134 30.7978 24.0496 30.7978 28.6463 30.7978C33.2431 30.7978 37.1587 30.2303 36.9695 34.0136Z" fill="#FF9DCE"/>
</g>
<path d="M31.9093 31.2685C32.9134 31.2744 33.7855 31.3215 34.4972 31.4756C35.209 31.6296 35.7043 31.8783 36.0168 32.2412C36.2832 32.5507 36.4637 32.9984 36.4757 33.6816L36.4699 33.9883C36.4265 34.8555 36.1958 35.4083 35.8634 35.7783C35.5276 36.152 35.0346 36.3993 34.3517 36.5517C33.6651 36.705 32.8306 36.7529 31.8566 36.7588C30.8524 36.7648 29.8432 36.7295 28.6466 36.7295C26.3214 36.7295 24.3663 36.7251 22.963 36.3447C22.2724 36.1574 21.7637 35.8906 21.4191 35.5283C21.1251 35.2191 20.9203 34.809 20.8459 34.2383L20.8224 33.9843C20.7816 33.2909 20.9603 32.8273 21.2668 32.4912C21.5876 32.1393 22.0987 31.8724 22.8175 31.6836C24.2703 31.3019 26.3223 31.2978 28.6466 31.2978C29.8425 31.2978 30.8758 31.2625 31.9093 31.2685Z" stroke="#893F5E"/>
<g filter="url(#filter5_i_392_97)">
<path d="M36.9131 15.1002C33.9361 16.3168 35.1762 18.31 36.1992 21.1148C37.2223 23.9195 38.0095 26.0778 40.6179 25.2572C43.2262 24.4366 42.3548 22.0475 41.3318 19.2427C40.3087 16.4379 39.8901 13.8835 36.9131 15.1002Z" fill="#F199C5"/>
</g>
<path d="M40.1597 17.4165C39.9332 16.81 39.7115 16.3175 39.4503 15.9559C39.196 15.6039 38.9248 15.4032 38.6 15.3263C38.3062 15.2568 37.9077 15.2748 37.3507 15.4691L37.1021 15.5629C36.408 15.8466 36.0211 16.1519 35.809 16.4493C35.6047 16.7361 35.5277 17.0654 35.5549 17.4796C35.5831 17.908 35.7217 18.404 35.9319 18.9949C36.0361 19.2875 36.1537 19.5947 36.2801 19.9209C36.4056 20.245 36.5388 20.5875 36.6686 20.9434C37.1918 22.3778 37.6166 23.5208 38.2 24.2269C38.4782 24.5636 38.7721 24.7733 39.108 24.8697C39.4041 24.9545 39.775 24.9636 40.2555 24.8409L40.4682 24.78C41.046 24.5981 41.3752 24.3484 41.5648 24.0786C41.7551 23.8075 41.8453 23.4584 41.8368 23.0033C41.819 22.0555 41.3851 20.8472 40.8623 19.4138C40.7324 19.0578 40.6123 18.7059 40.4975 18.3712C40.3822 18.0348 40.2717 17.7164 40.1597 17.4165Z" stroke="#893F5E"/>
<path d="M22.7336 28.7651C23.2914 29.3105 23.7488 29.8022 24.0627 30.2608C24.3779 30.7213 24.5127 31.0989 24.5028 31.424C24.4946 31.6928 24.3851 31.9955 24.0618 32.3424L23.9096 32.4941C23.4616 32.911 23.0812 33.0594 22.7446 33.0738C22.3985 33.0886 22.0172 32.9653 21.5646 32.6813C21.1103 32.3963 20.624 31.975 20.0771 31.4522C19.5096 30.9097 18.9724 30.3541 18.2976 29.7016C16.9937 28.4409 15.9124 27.3901 15.3297 26.442C15.0434 25.9761 14.9065 25.5783 14.8997 25.2289C14.8941 24.937 14.9786 24.6387 15.2118 24.3203L15.3207 24.1824C15.6281 23.8223 15.9281 23.6952 16.2302 23.6844C16.5581 23.6728 16.9603 23.7963 17.4531 24.0817C18.449 24.6584 19.5901 25.7568 20.8934 27.017C21.5679 27.6692 22.1558 28.2002 22.7336 28.7651Z" fill="#FFBFDF" stroke="#893F5E"/>
<mask id="path-66-inside-1_392_97" fill="white">
<path d="M15.3226 23.7818C15.0586 23.9837 14.4287 23.3061 13.5657 22.4716C12.7026 21.6371 12.0385 20.9949 12.1972 20.7598C12.3559 20.5246 13.091 21.2354 13.9541 22.0699C14.8171 22.9044 15.5865 23.5798 15.3226 23.7818Z"/>
</mask>
<path d="M15.3226 23.7818C15.0586 23.9837 14.4287 23.3061 13.5657 22.4716C12.7026 21.6371 12.0385 20.9949 12.1972 20.7598C12.3559 20.5246 13.091 21.2354 13.9541 22.0699C14.8171 22.9044 15.5865 23.5798 15.3226 23.7818Z" fill="#F0D6E3"/>
<path d="M15.3226 23.7818L14.715 22.9875C15.0881 22.7021 15.4549 22.8617 15.4602 22.864C15.4842 22.8746 15.442 22.8579 15.3087 22.7469C15.0483 22.5301 14.7241 22.2007 14.2608 21.7527L13.5657 22.4716L12.8706 23.1905C13.2703 23.577 13.6925 24.0037 14.0288 24.2837C14.1939 24.4212 14.4126 24.5883 14.6559 24.6952C14.8805 24.7938 15.425 24.9624 15.9301 24.576L15.3226 23.7818ZM13.5657 22.4716L14.2608 21.7527C13.8157 21.3223 13.4729 20.9895 13.2552 20.7374C13.1419 20.6062 13.1128 20.5531 13.1162 20.56C13.1186 20.5647 13.1555 20.6359 13.1689 20.7556C13.184 20.8909 13.1689 21.1075 13.0262 21.3191L12.1972 20.7598L11.3682 20.2005C10.9983 20.7487 11.2525 21.3055 11.3292 21.4582C11.4396 21.6777 11.6006 21.8814 11.7414 22.0445C12.0319 22.3809 12.4526 22.7864 12.8706 23.1905L13.5657 22.4716ZM12.1972 20.7598L13.0262 21.3191C12.8475 21.5839 12.5651 21.7041 12.3218 21.7136C12.1368 21.7208 12.0177 21.6646 12.0107 21.6615C11.9881 21.6514 12.0366 21.6728 12.1816 21.7904C12.4512 22.009 12.8143 22.3589 13.259 22.7888L13.9541 22.0699L14.6492 21.351C14.2308 20.9465 13.7948 20.5236 13.4414 20.237C13.2749 20.102 13.0559 19.9376 12.8239 19.8343C12.7122 19.7846 12.5028 19.705 12.2439 19.7151C11.9267 19.7274 11.5866 19.8768 11.3682 20.2005L12.1972 20.7598ZM13.9541 22.0699L13.259 22.7888C13.7212 23.2358 14.0807 23.5674 14.316 23.8302C14.4413 23.9701 14.4523 24.0061 14.434 23.9666C14.4243 23.9455 14.3644 23.8159 14.377 23.6202C14.3929 23.3735 14.5168 23.1391 14.715 22.9875L15.3226 23.7818L15.9301 24.576C16.1943 24.3739 16.3519 24.0742 16.3729 23.7487C16.3906 23.4742 16.3072 23.2521 16.2489 23.1263C16.1336 22.8772 15.9478 22.6544 15.8059 22.4959C15.5067 22.1619 15.0499 21.7385 14.6492 21.351L13.9541 22.0699Z" fill="#893F5E" mask="url(#path-66-inside-1_392_97)"/>
<mask id="path-68-inside-2_392_97" fill="white">
<path d="M52.9941 26.5915C52.9528 26.9196 52.2831 26.8593 51.4117 26.845C50.5404 26.8307 49.8698 26.8197 49.8385 26.5398C49.8073 26.2599 50.5495 26.2721 51.4209 26.2863C52.2923 26.3006 53.0353 26.2635 52.9941 26.5915Z"/>
</mask>
<path d="M52.9941 26.5915C52.9528 26.9196 52.2831 26.8593 51.4117 26.845C50.5404 26.8307 49.8698 26.8197 49.8385 26.5398C49.8073 26.2599 50.5495 26.2721 51.4209 26.2863C52.2923 26.3006 53.0353 26.2635 52.9941 26.5915Z" fill="#F0D6E3"/>
<path d="M52.9941 26.5915L52.0019 26.4668C52.0192 26.3292 52.0754 26.1887 52.1715 26.0695C52.2613 25.9582 52.3575 25.9002 52.4122 25.8734C52.5002 25.8303 52.5359 25.8411 52.4287 25.8503C52.34 25.8579 52.2145 25.8601 52.0344 25.8576C51.947 25.8564 51.854 25.8543 51.7515 25.8519C51.6506 25.8496 51.5412 25.847 51.4281 25.8451L51.4117 26.845L51.3954 27.8449C51.7703 27.851 52.2505 27.8729 52.5997 27.843C52.774 27.828 53.0393 27.7933 53.2918 27.6696C53.593 27.5221 53.9235 27.2156 53.9863 26.7163L52.9941 26.5915ZM51.4117 26.845L51.4281 25.8451C50.9666 25.8376 50.6543 25.8306 50.4496 25.8018C50.342 25.7866 50.3573 25.7766 50.4238 25.8099C50.4638 25.83 50.5531 25.8812 50.6416 25.9854C50.7392 26.1003 50.8128 26.2537 50.8324 26.4288L49.8385 26.5398L48.8447 26.6509C48.9048 27.1885 49.284 27.4756 49.5262 27.5972C49.7545 27.7118 49.9978 27.7579 50.1706 27.7822C50.5268 27.8324 50.9855 27.8381 51.3954 27.8449L51.4117 26.845ZM49.8385 26.5398L50.8324 26.4288C50.8553 26.6337 50.8029 26.8521 50.6737 27.0318C50.562 27.1871 50.4339 27.257 50.3844 27.2809C50.3001 27.3215 50.2729 27.31 50.3945 27.2974C50.6113 27.2749 50.9438 27.2787 51.4045 27.2862L51.4209 26.2863L51.4373 25.2865C51.0266 25.2797 50.5523 25.2703 50.188 25.3081C50.0189 25.3256 49.7577 25.3627 49.5157 25.4794C49.3874 25.5412 49.1996 25.656 49.0499 25.8642C48.8827 26.0967 48.814 26.3759 48.8447 26.6509L49.8385 26.5398ZM51.4209 26.2863L51.4045 27.2862C51.6654 27.2905 51.8082 27.2897 52.021 27.2937C52.2072 27.2973 52.3404 27.3037 52.4348 27.3146C52.5561 27.3287 52.5071 27.3394 52.404 27.2824C52.3391 27.2465 52.213 27.1616 52.1144 26.9957C52.007 26.8149 51.9823 26.6223 52.0019 26.4668L52.9941 26.5915L53.9863 26.7163C54.0161 26.4788 53.9773 26.2155 53.8337 25.9739C53.699 25.7472 53.5148 25.6113 53.3724 25.5325C53.1144 25.3897 52.8328 25.3474 52.6647 25.3279C52.3097 25.2868 51.8141 25.2927 51.4373 25.2865L51.4209 26.2863Z" fill="#893F5E" mask="url(#path-68-inside-2_392_97)"/>
<mask id="path-70-inside-3_392_97" fill="white">
<path d="M52.9941 26.5915C52.9528 26.9196 52.2831 26.8593 51.4117 26.845C50.5404 26.8307 49.8698 26.8197 49.8385 26.5398C49.8073 26.2599 50.5495 26.2721 51.4209 26.2863C52.2923 26.3006 53.0353 26.2635 52.9941 26.5915Z"/>
</mask>
<path d="M52.9941 26.5915C52.9528 26.9196 52.2831 26.8593 51.4117 26.845C50.5404 26.8307 49.8698 26.8197 49.8385 26.5398C49.8073 26.2599 50.5495 26.2721 51.4209 26.2863C52.2923 26.3006 53.0353 26.2635 52.9941 26.5915Z" fill="#F0D6E3"/>
<path d="M52.9941 26.5915L52.0019 26.4668C52.0192 26.3292 52.0754 26.1887 52.1715 26.0695C52.2613 25.9582 52.3575 25.9002 52.4122 25.8734C52.5002 25.8303 52.5359 25.8411 52.4287 25.8503C52.34 25.8579 52.2145 25.8601 52.0344 25.8576C51.947 25.8564 51.854 25.8543 51.7515 25.8519C51.6506 25.8496 51.5412 25.847 51.4281 25.8451L51.4117 26.845L51.3954 27.8449C51.7703 27.851 52.2505 27.8729 52.5997 27.843C52.774 27.828 53.0393 27.7933 53.2918 27.6696C53.593 27.5221 53.9235 27.2156 53.9863 26.7163L52.9941 26.5915ZM51.4117 26.845L51.4281 25.8451C50.9666 25.8376 50.6543 25.8306 50.4496 25.8018C50.342 25.7866 50.3573 25.7766 50.4238 25.8099C50.4638 25.83 50.5531 25.8812 50.6416 25.9854C50.7392 26.1003 50.8128 26.2537 50.8324 26.4288L49.8385 26.5398L48.8447 26.6509C48.9048 27.1885 49.284 27.4756 49.5262 27.5972C49.7545 27.7118 49.9978 27.7579 50.1706 27.7822C50.5268 27.8324 50.9855 27.8381 51.3954 27.8449L51.4117 26.845ZM49.8385 26.5398L50.8324 26.4288C50.8553 26.6337 50.8029 26.8521 50.6737 27.0318C50.562 27.1871 50.4339 27.257 50.3844 27.2809C50.3001 27.3215 50.2729 27.31 50.3945 27.2974C50.6113 27.2749 50.9438 27.2787 51.4045 27.2862L51.4209 26.2863L51.4373 25.2865C51.0266 25.2797 50.5523 25.2703 50.188 25.3081C50.0189 25.3256 49.7577 25.3627 49.5157 25.4794C49.3874 25.5412 49.1996 25.656 49.0499 25.8642C48.8827 26.0967 48.814 26.3759 48.8447 26.6509L49.8385 26.5398ZM51.4209 26.2863L51.4045 27.2862C51.6654 27.2905 51.8082 27.2897 52.021 27.2937C52.2072 27.2973 52.3404 27.3037 52.4348 27.3146C52.5561 27.3287 52.5071 27.3394 52.404 27.2824C52.3391 27.2465 52.213 27.1616 52.1144 26.9957C52.007 26.8149 51.9823 26.6223 52.0019 26.4668L52.9941 26.5915L53.9863 26.7163C54.0161 26.4788 53.9773 26.2155 53.8337 25.9739C53.699 25.7472 53.5148 25.6113 53.3724 25.5325C53.1144 25.3897 52.8328 25.3474 52.6647 25.3279C52.3097 25.2868 51.8141 25.2927 51.4373 25.2865L51.4209 26.2863Z" fill="#893F5E" mask="url(#path-70-inside-3_392_97)"/>
<g filter="url(#filter6_i_392_97)">
<path d="M41.1463 23.5575C37.8631 21.9961 36.9981 24.7981 35.2481 28.1084C33.4982 31.4187 32.1515 33.9661 34.809 35.5452C37.4665 37.1244 38.9572 34.3046 40.7072 30.9943C42.4572 27.684 44.4295 25.1189 41.1463 23.5575Z" fill="#FF9DCE"/>
</g>
<path d="M41.5318 28.4246C41.9078 27.7012 42.1922 27.0659 42.328 26.5026C42.4621 25.9464 42.441 25.5046 42.2595 25.132C42.0992 24.8033 41.7842 24.4661 41.1993 24.1452L40.9311 24.0089C40.167 23.6456 39.6038 23.5653 39.1677 23.6379C38.7384 23.7093 38.3617 23.9403 37.9901 24.3442C37.6118 24.7555 37.2611 25.3215 36.8867 26.0177C36.7009 26.3632 36.5131 26.7328 36.3152 27.1239C36.1181 27.5133 35.9112 27.9236 35.69 28.3421C34.8005 30.0247 34.0743 31.4104 33.8679 32.564C33.7678 33.1238 33.7991 33.5884 33.9694 33.9851C34.1174 34.3298 34.3885 34.6657 34.8533 34.9815L35.0643 35.1151C35.652 35.4644 36.1233 35.5423 36.5196 35.4736C36.9245 35.4032 37.3266 35.167 37.7452 34.7495C38.6028 33.894 39.3758 32.4424 40.2649 30.7606C40.4861 30.3421 40.7109 29.9357 40.9254 29.5467C41.1406 29.1562 41.3452 28.7835 41.5318 28.4246Z" stroke="#893F5E"/>
<path d="M36.9143 18.3263C36.5598 17.7847 36.2349 17.3532 35.9004 17.058C35.5748 16.7707 35.2661 16.6347 34.9324 16.6313C34.6304 16.6282 34.2457 16.7336 33.7452 17.0459L33.5234 17.1921C32.9089 17.6218 32.5987 18.0049 32.4575 18.3417C32.3213 18.6664 32.3188 19.0046 32.4366 19.4027C32.5586 19.8143 32.803 20.2676 33.1383 20.7976C33.3043 21.0601 33.4868 21.3338 33.6819 21.6242C33.8758 21.9126 34.0812 22.2173 34.2863 22.5359C35.1126 23.8197 35.7789 24.841 36.5035 25.4012C36.8491 25.6683 37.182 25.8081 37.5309 25.8281C37.8384 25.8456 38.2022 25.7727 38.6438 25.5472L38.8379 25.4409C39.3614 25.1362 39.6275 24.82 39.7529 24.515C39.8788 24.2087 39.8899 23.8483 39.7813 23.4062C39.555 22.4857 38.8655 21.4027 38.0397 20.1198C37.8346 19.8011 37.6399 19.4843 37.4542 19.1831C37.2676 18.8804 37.0896 18.5942 36.9143 18.3263Z" fill="#FFBFDF" stroke="#893F5E"/>
<path d="M43.0507 23.7039C42.4066 23.6395 41.8668 23.6211 41.427 23.6959C40.9989 23.7686 40.6991 23.9234 40.4868 24.1809C40.2947 24.4139 40.1349 24.7794 40.0635 25.365L40.0379 25.6294C39.9861 26.3774 40.0893 26.8595 40.2626 27.181C40.4297 27.4909 40.6912 27.7053 41.0749 27.8638C41.4718 28.0275 41.978 28.1221 42.601 28.1943C42.9095 28.23 43.2372 28.26 43.5856 28.2906C43.9318 28.321 44.2979 28.3527 44.6746 28.3933C46.1926 28.5569 47.4058 28.6803 48.2968 28.4684C48.7218 28.3674 49.0397 28.1962 49.2744 27.9373C49.4812 27.7091 49.6531 27.3803 49.7551 26.895L49.7943 26.6772C49.8862 26.0785 49.8074 25.6728 49.6489 25.3837C49.4897 25.0933 49.2162 24.8582 48.8041 24.665C47.9458 24.2626 46.67 24.1186 45.1531 23.9551C44.7763 23.9145 44.4075 23.8669 44.0565 23.8222C43.7037 23.7772 43.3693 23.7358 43.0507 23.7039Z" fill="#FFBFDF" stroke="#893F5E"/>
<path d="M44.1578 25.1229C45.9307 24.5189 47.7519 24.9337 48.6977 25.6064" stroke="white" stroke-linecap="round"/>
<path d="M35.8346 18.8805C37.5765 20.508 38.7099 22.6488 39.0087 23.9678M38.6721 16.9888C39.9962 18.8805 40.6432 20.0206 40.9421 21.3396" stroke="white" stroke-linecap="round"/>
<path d="M17.4857 25.5011C20.0573 27.0242 22.1589 29.1822 23.5311 30.4574" stroke="white" stroke-linecap="round"/>
<path d="M38.4829 32.2213C39.0523 31.4439 39.4217 30.5691 39.9962 29.6628" stroke="white"/>
<path d="M38.4829 32.2213C39.0523 31.4439 39.4217 30.5691 39.9962 29.6628" stroke="white" stroke-linecap="round"/>
<path d="M25.7933 32.5015C25.7933 32.5015 27.1114 31.7623 31 32.081" stroke="white" stroke-linecap="round"/>
<defs>
<filter id="filter0_i_392_97" x="18.9803" y="33.7527" width="11.4296" height="14.556" filterUnits="userSpaceOnUse" color-interpolation-filters="sRGB">
<feFlood flood-opacity="0" result="BackgroundImageFix"/>
<feBlend mode="normal" in="SourceGraphic" in2="BackgroundImageFix" result="shape"/>
<feColorMatrix in="SourceAlpha" type="matrix" values="0 0 0 0 0 0 0 0 0 0 0 0 0 0 0 0 0 0 127 0" result="hardAlpha"/>
<feOffset dx="6" dy="4"/>
<feGaussianBlur stdDeviation="2"/>
<feComposite in2="hardAlpha" operator="arithmetic" k2="-1" k3="1"/>
<feColorMatrix type="matrix" values="0 0 0 0 1 0 0 0 0 0.47451 0 0 0 0 0.737255 0 0 0 1 0"/>
<feBlend mode="normal" in2="shape" result="effect1_innerShadow_392_97"/>
</filter>
<filter id="filter1_i_392_97" x="16.7103" y="33.3745" width="7.42963" height="14.556" filterUnits="userSpaceOnUse" color-interpolation-filters="sRGB">
<feFlood flood-opacity="0" result="BackgroundImageFix"/>
<feBlend mode="normal" in="SourceGraphic" in2="BackgroundImageFix" result="shape"/>
<feColorMatrix in="SourceAlpha" type="matrix" values="0 0 0 0 0 0 0 0 0 0 0 0 0 0 0 0 0 0 127 0" result="hardAlpha"/>
<feOffset dy="5"/>
<feGaussianBlur stdDeviation="2"/>
<feComposite in2="hardAlpha" operator="arithmetic" k2="-1" k3="1"/>
<feColorMatrix type="matrix" values="0 0 0 0 1 0 0 0 0 0.462745 0 0 0 0 0.729412 0 0 0 1 0"/>
<feBlend mode="normal" in2="shape" result="effect1_innerShadow_392_97"/>
</filter>
<filter id="filter2_i_392_97" x="33.5124" y="33.5799" width="10.1221" height="14.9591" filterUnits="userSpaceOnUse" color-interpolation-filters="sRGB">
<feFlood flood-opacity="0" result="BackgroundImageFix"/>
<feBlend mode="normal" in="SourceGraphic" in2="BackgroundImageFix" result="shape"/>
<feColorMatrix in="SourceAlpha" type="matrix" values="0 0 0 0 0 0 0 0 0 0 0 0 0 0 0 0 0 0 127 0" result="hardAlpha"/>
<feOffset dx="7" dy="4"/>
<feGaussianBlur stdDeviation="2"/>
<feComposite in2="hardAlpha" operator="arithmetic" k2="-1" k3="1"/>
<feColorMatrix type="matrix" values="0 0 0 0 1 0 0 0 0 0.447059 0 0 0 0 0.721569 0 0 0 1 0"/>
<feBlend mode="normal" in2="shape" result="effect1_innerShadow_392_97"/>
</filter>
<filter id="filter3_i_392_97" x="32.0788" y="34.8863" width="9.18753" height="14.15" filterUnits="userSpaceOnUse" color-interpolation-filters="sRGB">
<feFlood flood-opacity="0" result="BackgroundImageFix"/>
<feBlend mode="normal" in="SourceGraphic" in2="BackgroundImageFix" result="shape"/>
<feColorMatrix in="SourceAlpha" type="matrix" values="0 0 0 0 0 0 0 0 0 0 0 0 0 0 0 0 0 0 127 0" result="hardAlpha"/>
<feOffset dx="4" dy="4"/>
<feGaussianBlur stdDeviation="2"/>
<feComposite in2="hardAlpha" operator="arithmetic" k2="-1" k3="1"/>
<feColorMatrix type="matrix" values="0 0 0 0 1 0 0 0 0 0.435294 0 0 0 0 0.717647 0 0 0 1 0"/>
<feBlend mode="normal" in2="shape" result="effect1_innerShadow_392_97"/>
</filter>
<filter id="filter4_i_392_97" x="20.3166" y="30.7675" width="20.6596" height="6.492" filterUnits="userSpaceOnUse" color-interpolation-filters="sRGB">
<feFlood flood-opacity="0" result="BackgroundImageFix"/>
<feBlend mode="normal" in="SourceGraphic" in2="BackgroundImageFix" result="shape"/>
<feColorMatrix in="SourceAlpha" type="matrix" values="0 0 0 0 0 0 0 0 0 0 0 0 0 0 0 0 0 0 127 0" result="hardAlpha"/>
<feOffset dx="10"/>
<feGaussianBlur stdDeviation="2"/>
<feComposite in2="hardAlpha" operator="arithmetic" k2="-1" k3="1"/>
<feColorMatrix type="matrix" values="0 0 0 0 1 0 0 0 0 0.435294 0 0 0 0 0.717647 0 0 0 1 0"/>
<feBlend mode="normal" in2="shape" result="effect1_innerShadow_392_97"/>
</filter>
<filter id="filter5_i_392_97" x="35.0498" y="14.789" width="7.28741" height="14.6444" filterUnits="userSpaceOnUse" color-interpolation-filters="sRGB">
<feFlood flood-opacity="0" result="BackgroundImageFix"/>
<feBlend mode="normal" in="SourceGraphic" in2="BackgroundImageFix" result="shape"/>
<feColorMatrix in="SourceAlpha" type="matrix" values="0 0 0 0 0 0 0 0 0 0 0 0 0 0 0 0 0 0 127 0" result="hardAlpha"/>
<feOffset dy="4"/>
<feGaussianBlur stdDeviation="2"/>
<feComposite in2="hardAlpha" operator="arithmetic" k2="-1" k3="1"/>
<feColorMatrix type="matrix" values="0 0 0 0 1 0 0 0 0 0.439216 0 0 0 0 0.721569 0 0 0 1 0"/>
<feBlend mode="normal" in2="shape" result="effect1_innerShadow_392_97"/>
</filter>
<filter id="filter6_i_392_97" x="33.3113" y="23.1133" width="9.60324" height="22.883" filterUnits="userSpaceOnUse" color-interpolation-filters="sRGB">
<feFlood flood-opacity="0" result="BackgroundImageFix"/>
<feBlend mode="normal" in="SourceGraphic" in2="BackgroundImageFix" result="shape"/>
<feColorMatrix in="SourceAlpha" type="matrix" values="0 0 0 0 0 0 0 0 0 0 0 0 0 0 0 0 0 0 127 0" result="hardAlpha"/>
<feOffset dy="10"/>
<feGaussianBlur stdDeviation="5"/>
<feComposite in2="hardAlpha" operator="arithmetic" k2="-1" k3="1"/>
<feColorMatrix type="matrix" values="0 0 0 0 1 0 0 0 0 0.350755 0 0 0 0 0.675378 0 0 0 1 0"/>
<feBlend mode="normal" in2="shape" result="effect1_innerShadow_392_97"/>
</filter>
</defs>
</svg>
