<svg width="62" height="61" viewBox="0 0 62 61" fill="none" xmlns="http://www.w3.org/2000/svg">
<ellipse cx="30.5966" cy="30.2345" rx="30.5966" ry="30.2345" fill="#FFBD5B"/>
<ellipse cx="30.7776" cy="30.4156" rx="27.1567" ry="26.7946" fill="#3B0434"/>
<circle cx="5.79342" cy="15.9319" r="1.08627" fill="#081940"/>
<circle cx="7.96597" cy="12.3111" r="1.08627" fill="#081940"/>
<circle cx="11.2248" cy="9.05227" r="1.08627" fill="#081940"/>
<circle cx="14.1215" cy="6.87973" r="1.08627" fill="#081940"/>
<circle cx="17.3803" cy="4.70718" r="1.08627" fill="#081940"/>
<circle cx="21.0012" cy="3.25882" r="1.08627" fill="#081940"/>
<circle cx="24.6221" cy="2.17254" r="1.08627" fill="#081940"/>
<circle cx="28.605" cy="1.81045" r="1.08627" fill="#081940"/>
<circle cx="32.5881" cy="1.81045" r="1.08627" fill="#081940"/>
<circle cx="36.209" cy="2.17254" r="1.08627" fill="#081940"/>
<circle cx="39.4678" cy="3.25882" r="1.08627" fill="#081940"/>
<circle cx="43.0886" cy="4.34509" r="1.08627" fill="#081940"/>
<circle cx="45.9854" cy="6.15551" r="1.08627" fill="#081940"/>
<circle cx="48.52" cy="7.96597" r="1.08627" fill="#081940"/>
<circle cx="51.0547" cy="10.1385" r="1.08627" fill="#081940"/>
<circle cx="53.5892" cy="13.0352" r="1.08627" fill="#081940"/>
<circle cx="55.3997" cy="15.9319" r="1.08627" fill="#081940"/>
<circle cx="57.2102" cy="18.8287" r="1.08627" fill="#081940"/>
<circle cx="58.2964" cy="22.0875" r="1.08627" fill="#081940"/>
<circle cx="59.0206" cy="25.3463" r="1.08627" fill="#081940"/>
<circle cx="59.3827" cy="28.243" r="1.08627" fill="#081940"/>
<circle cx="59.3827" cy="31.8639" r="1.08627" fill="#081940"/>
<circle cx="59.0206" cy="35.4848" r="1.08627" fill="#081940"/>
<circle cx="58.2964" cy="38.7436" r="1.08627" fill="#081940"/>
<circle cx="57.2102" cy="41.6403" r="1.08627" fill="#081940"/>
<circle cx="55.7618" cy="44.537" r="1.08627" fill="#081940"/>
<circle cx="53.9514" cy="47.0717" r="1.08627" fill="#081940"/>
<circle cx="51.7788" cy="49.9684" r="1.08627" fill="#081940"/>
<circle cx="49.2442" cy="52.141" r="1.08627" fill="#081940"/>
<circle cx="46.7096" cy="53.9514" r="1.08627" fill="#081940"/>
<circle cx="43.8128" cy="55.7618" r="1.08627" fill="#081940"/>
<circle cx="40.554" cy="57.2102" r="1.08627" fill="#081940"/>
<circle cx="37.2952" cy="58.2965" r="1.08627" fill="#081940"/>
<circle cx="33.6743" cy="58.6585" r="1.08627" fill="#081940"/>
<circle cx="30.0534" cy="59.0206" r="1.08627" fill="#081940"/>
<circle cx="26.7946" cy="58.6585" r="1.08627" fill="#081940"/>
<circle cx="23.1737" cy="57.9344" r="1.08627" fill="#081940"/>
<circle cx="19.9149" cy="56.8481" r="1.08627" fill="#081940"/>
<circle cx="16.6561" cy="55.0377" r="1.08627" fill="#081940"/>
<circle cx="13.7594" cy="53.2272" r="1.08627" fill="#081940"/>
<circle cx="10.8627" cy="51.0547" r="1.08627" fill="#081940"/>
<circle cx="7.96597" cy="48.158" r="1.08627" fill="#081940"/>
<circle cx="5.79342" cy="44.8991" r="1.08627" fill="#081940"/>
<circle cx="4.34503" cy="41.6403" r="1.08627" fill="#081940"/>
<circle cx="2.89668" cy="37.6573" r="1.08627" fill="#081940"/>
<circle cx="1.81044" cy="34.0364" r="1.08627" fill="#081940"/>
<circle cx="1.44833" cy="30.0534" r="1.08627" fill="#081940"/>
<circle cx="1.81044" cy="26.4326" r="1.08627" fill="#081940"/>
<circle cx="2.89668" cy="22.8117" r="1.08627" fill="#081940"/>
<circle cx="4.34503" cy="18.8287" r="1.08627" fill="#081940"/>
<path d="M28 37C28 38.1046 27.1046 39 26 39C24.8954 39 24 38.6046 24 37.5C24.7693 37.1495 26.1408 34.7278 26.5 34C27.6046 34 28 35.8954 28 37Z" fill="#7F4F83"/>
<path d="M42.6279 38.5C42.6592 38.6052 42.6967 38.7315 42.7383 38.875C42.8685 39.3248 43.0425 39.944 43.2158 40.6211C43.5683 41.9983 43.9003 43.5422 43.9004 44.4199C43.9004 44.7255 43.7668 45.048 43.4023 45.3838C43.029 45.7277 42.4296 46.0677 41.5566 46.3701C39.9206 46.9368 37.4369 47.3358 34.0107 47.4648L33.3125 47.4873C29.5502 47.5853 26.673 47.1147 24.6855 46.5127C23.6909 46.2114 22.9259 45.879 22.3867 45.5732C21.8932 45.2934 21.6416 45.0652 21.5459 44.9395L21.5137 44.8916C21.5225 44.9076 21.4899 44.835 21.5039 44.5811C21.5164 44.3564 21.5603 44.064 21.6318 43.7188C21.7745 43.0301 22.0146 42.1869 22.2754 41.3604C22.5354 40.5364 22.8124 39.7402 23.0244 39.1494C23.1187 38.8867 23.1996 38.6649 23.2607 38.5H42.6279Z" fill="#910C0C" stroke="#910C0C"/>
<path d="M32.8857 36.5C35.5922 36.5 38.0871 36.7221 39.8936 37.0762C40.8006 37.254 41.5091 37.4605 41.9785 37.6758C42.2148 37.7841 42.364 37.8833 42.4463 37.9609C42.4731 37.9863 42.4861 38.0061 42.4941 38.0176C42.4886 38.0305 42.4768 38.053 42.4512 38.084C42.3946 38.1522 42.2895 38.2429 42.1113 38.3447C41.7537 38.5491 41.1918 38.7506 40.4268 38.9268C38.9048 39.2772 36.6919 39.5 33.9844 39.5C31.2778 39.5 28.5611 39.2779 26.5312 38.9219C25.5126 38.7432 24.6896 38.5344 24.1328 38.3135C23.8519 38.202 23.6671 38.0987 23.5615 38.0137C23.5472 38.0021 23.5378 37.9893 23.5283 37.9805C23.5352 37.9726 23.5426 37.9622 23.5527 37.9521C23.6293 37.8766 23.7685 37.7799 23.9922 37.6729C24.4384 37.4594 25.1165 37.2538 25.9941 37.0762C27.7416 36.7226 30.1788 36.5 32.8857 36.5Z" fill="#BB2222" stroke="#BB2222"/>
<path d="M49.1685 29.4832C48.5541 29.638 48.1213 29.8329 47.8046 30.0587C47.4262 30.3286 47.23 30.6299 47.0854 30.9113C46.9338 31.2065 46.8641 31.4117 46.7074 31.6091C46.5681 31.7846 46.3564 31.949 45.9337 32.0655C45.0313 32.3142 44.3412 32.3062 43.8651 32.1606C43.3931 32.0163 43.1399 31.7421 43.0572 31.4423C43.0247 31.3241 43.0431 31.1763 43.1446 30.9947C43.2468 30.8119 43.4255 30.6112 43.679 30.4088C44.1852 30.0047 44.9513 29.6235 45.8582 29.3735C46.7651 29.1236 47.6183 29.0584 48.2601 29.146C48.5815 29.19 48.8378 29.2708 49.0192 29.3754C49.0786 29.4096 49.1273 29.4465 49.1685 29.4832Z" fill="#9A72A7" stroke="#9A72A7" stroke-width="0.5"/>
<path d="M40.9589 25.6363C41.0939 26.2553 41.2748 26.6942 41.4903 27.018C41.7479 27.4048 42.0428 27.6106 42.3194 27.7642C42.6095 27.9252 42.8124 28.0014 43.0047 28.1644C43.1756 28.3092 43.3331 28.5261 43.436 28.9523C43.6556 29.8622 43.6255 30.5517 43.4647 31.023C43.3052 31.4901 43.0231 31.7343 42.7207 31.8073C42.6016 31.8361 42.4544 31.8129 42.2762 31.7056C42.0968 31.5976 41.9019 31.4125 41.7078 31.1527C41.3201 30.6338 40.9637 29.8558 40.743 28.9413C40.5223 28.0269 40.4845 27.172 40.5928 26.5334C40.647 26.2136 40.736 25.96 40.8464 25.782C40.8825 25.7238 40.9209 25.6763 40.9589 25.6363Z" fill="#9A72A7" stroke="#9A72A7" stroke-width="0.5"/>
<path d="M26 19C26 18 26.5 16.5 27.5 16.5C28.5 16.5 30 17 30 17C30 17 32 17 33.5 18C35 19 34.5219 22.5 34.5219 22.5L34.0577 29C34.0577 29 34.0357 31 35.0357 32C36.0357 33 37 33 38 33C39 33 43 31.5 43 31.5C42.7902 33.1079 42.3074 33.9805 41 35.5C39.472 37.165 38.7593 37.4835 37.5 38C34.2646 38.4716 31.5 39 29.5 38C27.5 37 27 36.5 26.5 35C26 33.5 25.5 32 26 30C26.5 28 29.3431 25.0061 28.5 24C27.6569 22.9939 26 20 26 19Z" fill="#B98EC7" stroke="#742159" stroke-width="0.5"/>
<circle cx="27" cy="13" r="2.7" fill="#FF1B1B" stroke="#A10000" stroke-width="0.6"/>
<path d="M26 13C26.3684 12.7679 26.4713 12.5431 26.5 12C26.564 12.5798 26.6611 12.8165 27 13C26.704 13.1142 26.5855 13.3083 26.5 14C26.4605 13.5161 26.4206 13.2554 26 13Z" fill="#D9D9D9" stroke="#D9D9D9" stroke-width="0.3"/>
<path d="M27 13C27.3684 12.7679 27.4713 12.5431 27.5 12C27.564 12.5798 27.6611 12.8165 28 13C27.704 13.1142 27.5855 13.3083 27.5 14C27.4605 13.5161 27.4206 13.2554 27 13Z" fill="#D9D9D9" stroke="#D9D9D9" stroke-width="0.3"/>
<path d="M25 13C25.3684 12.7679 25.4713 12.5431 25.5 12C25.564 12.5798 25.6611 12.8165 26 13C25.704 13.1142 25.5855 13.3083 25.5 14C25.4605 13.5161 25.4206 13.2554 25 13Z" fill="#D9D9D9" stroke="#D9D9D9" stroke-width="0.3"/>
<path d="M28 13C28.3684 12.7679 28.4713 12.5431 28.5 12C28.564 12.5798 28.6611 12.8165 29 13C28.704 13.1142 28.5855 13.3083 28.5 14C28.4605 13.5161 28.4206 13.2554 28 13Z" fill="#D9D9D9" stroke="#D9D9D9" stroke-width="0.3"/>
<ellipse cx="31.0942" cy="19.0936" rx="0.785998" ry="0.761228" transform="rotate(-44.0948 31.0942 19.0936)" fill="#15002C"/>
<path d="M30.9021 18.5774C30.994 18.4744 31.1521 18.4655 31.2551 18.5575C31.3581 18.6494 31.367 18.8074 31.2751 18.9104C31.1831 19.0134 31.0251 19.0224 30.9221 18.9304C30.8191 18.8385 30.8101 18.6804 30.9021 18.5774Z" fill="#F4D2FF"/>
<path d="M30.5632 35.6842C30.8217 35.4469 31.2385 35.375 31.7495 35.5164C32.2494 35.6548 32.8005 35.9912 33.277 36.5029C33.6668 37.2771 34.0296 37.5785 34.3512 37.7969C34.5139 37.9075 34.6245 37.9728 34.7307 38.0702C34.8003 38.1341 34.8667 38.2125 34.9306 38.3255C34.7806 38.4597 34.5695 38.5918 34.309 38.704C33.9792 38.8461 33.5891 38.9518 33.1892 38.9991C32.3729 39.0957 31.5932 38.9444 31.1669 38.4802C30.686 37.9564 30.3917 37.3689 30.295 36.8519C30.1976 36.3308 30.3047 35.9216 30.5632 35.6842Z" fill="#9A72A7" stroke="#742159" stroke-width="0.5"/>
</svg>
