<svg width="62" height="61" viewBox="0 0 62 61" fill="none" xmlns="http://www.w3.org/2000/svg">
<ellipse cx="30.5966" cy="30.2345" rx="30.5966" ry="30.2345" fill="#FFBD5B"/>
<ellipse cx="30.7776" cy="30.4156" rx="27.1567" ry="26.7946" fill="#3B0434"/>
<circle cx="5.79345" cy="15.9319" r="1.08627" fill="#081940"/>
<circle cx="7.966" cy="12.311" r="1.08627" fill="#081940"/>
<circle cx="11.2248" cy="9.05226" r="1.08627" fill="#081940"/>
<circle cx="14.1215" cy="6.87971" r="1.08627" fill="#081940"/>
<circle cx="17.3803" cy="4.70718" r="1.08627" fill="#081940"/>
<circle cx="21.0012" cy="3.25883" r="1.08627" fill="#081940"/>
<circle cx="24.6221" cy="2.17254" r="1.08627" fill="#081940"/>
<circle cx="28.6051" cy="1.81044" r="1.08627" fill="#081940"/>
<circle cx="32.5881" cy="1.81044" r="1.08627" fill="#081940"/>
<circle cx="36.209" cy="2.17254" r="1.08627" fill="#081940"/>
<circle cx="39.4678" cy="3.25883" r="1.08627" fill="#081940"/>
<circle cx="43.0887" cy="4.34507" r="1.08627" fill="#081940"/>
<circle cx="45.9854" cy="6.15551" r="1.08627" fill="#081940"/>
<circle cx="48.52" cy="7.96597" r="1.08627" fill="#081940"/>
<circle cx="51.0547" cy="10.1385" r="1.08627" fill="#081940"/>
<circle cx="53.5893" cy="13.0352" r="1.08627" fill="#081940"/>
<circle cx="55.3997" cy="15.9319" r="1.08627" fill="#081940"/>
<circle cx="57.2102" cy="18.8287" r="1.08627" fill="#081940"/>
<circle cx="58.2965" cy="22.0875" r="1.08627" fill="#081940"/>
<circle cx="59.0207" cy="25.3463" r="1.08627" fill="#081940"/>
<circle cx="59.3827" cy="28.243" r="1.08627" fill="#081940"/>
<circle cx="59.3827" cy="31.8639" r="1.08627" fill="#081940"/>
<circle cx="59.0207" cy="35.4848" r="1.08627" fill="#081940"/>
<circle cx="58.2965" cy="38.7436" r="1.08627" fill="#081940"/>
<circle cx="57.2102" cy="41.6403" r="1.08627" fill="#081940"/>
<circle cx="55.7618" cy="44.537" r="1.08627" fill="#081940"/>
<circle cx="53.9514" cy="47.0717" r="1.08627" fill="#081940"/>
<circle cx="51.7788" cy="49.9684" r="1.08627" fill="#081940"/>
<circle cx="49.2442" cy="52.141" r="1.08627" fill="#081940"/>
<circle cx="46.7096" cy="53.9514" r="1.08627" fill="#081940"/>
<circle cx="43.8129" cy="55.7618" r="1.08627" fill="#081940"/>
<circle cx="40.5541" cy="57.2102" r="1.08627" fill="#081940"/>
<circle cx="37.2952" cy="58.2965" r="1.08627" fill="#081940"/>
<circle cx="33.6743" cy="58.6585" r="1.08627" fill="#081940"/>
<circle cx="30.0535" cy="59.0206" r="1.08627" fill="#081940"/>
<circle cx="26.7946" cy="58.6585" r="1.08627" fill="#081940"/>
<circle cx="23.1737" cy="57.9344" r="1.08627" fill="#081940"/>
<circle cx="19.9149" cy="56.8481" r="1.08627" fill="#081940"/>
<circle cx="16.6561" cy="55.0376" r="1.08627" fill="#081940"/>
<circle cx="13.7594" cy="53.2272" r="1.08627" fill="#081940"/>
<circle cx="10.8627" cy="51.0547" r="1.08627" fill="#081940"/>
<circle cx="7.966" cy="48.158" r="1.08627" fill="#081940"/>
<circle cx="5.79345" cy="44.8991" r="1.08627" fill="#081940"/>
<circle cx="4.34506" cy="41.6403" r="1.08627" fill="#081940"/>
<circle cx="2.89671" cy="37.6574" r="1.08627" fill="#081940"/>
<circle cx="1.81047" cy="34.0364" r="1.08627" fill="#081940"/>
<circle cx="1.44836" cy="30.0534" r="1.08627" fill="#081940"/>
<circle cx="1.81047" cy="26.4326" r="1.08627" fill="#081940"/>
<circle cx="2.89671" cy="22.8117" r="1.08627" fill="#081940"/>
<circle cx="4.34506" cy="18.8287" r="1.08627" fill="#081940"/>
<path d="M31 42.5C36.6349 42.4112 44.5 40.5 45 39C45 40.5621 45.3162 42.0513 45 43C44.5 44.5 36.5226 45.9484 31 46C25.0905 46.0552 16.5 44.5 16 43C15.8419 42.5256 16 40.5621 16 39C16 40 24.9855 42.5947 31 42.5Z" fill="#1B3E8F" stroke="#1B3E8F" stroke-width="1.25"/>
<path d="M31 42.5C36.6349 42.4112 44.5 40.5 45 39C44.1445 38.1444 38.5703 36.9699 33.5 36.6082C32.6439 36.5472 31.8022 36.5093 31 36.5C30.3594 36.4926 29.6883 36.5042 29 36.5322C23.3083 36.7632 16.4461 38.1079 16 39C16 40 24.9855 42.5947 31 42.5Z" fill="#081940" stroke="#081940" stroke-width="1.25"/>
<path d="M27.5 32V26H35V32L33.5 36V36.6082V38L34.5 39H28L29 38V36.5322V36L27.5 32Z" fill="#D67821"/>
<path d="M16 26C16 26 16 33.9232 16 39M45 26C45 26 45 33.9232 45 39M29 38H33.5M29 38L28 39H34.5L33.5 38M29 38V36.5322V36L27.5 32V26H35V32L33.5 36V36.6082V38" stroke="#D67821" stroke-width="1.25"/>
<path d="M19.375 39C19.375 39.3452 19.6548 39.625 20 39.625C20.3452 39.625 20.625 39.3452 20.625 39H19.375ZM23.375 39.5C23.375 39.8452 23.6548 40.125 24 40.125C24.3452 40.125 24.625 39.8452 24.625 39.5H23.375ZM32.875 41C32.875 41.3452 33.1548 41.625 33.5 41.625C33.8452 41.625 34.125 41.3452 34.125 41H32.875ZM36.375 40C36.375 40.3452 36.6548 40.625 37 40.625C37.3452 40.625 37.625 40.3452 37.625 40H36.375ZM42.375 38.5C42.375 38.8452 42.6548 39.125 43 39.125C43.3452 39.125 43.625 38.8452 43.625 38.5H42.375ZM20 26H19.375V39H20H20.625V26H20ZM24 26H23.375V39.5H24H24.625V26H24ZM33.5 26H32.875V41H33.5H34.125V26H33.5ZM37 26H36.375V40H37H37.625V26H37ZM43 26H42.375V38.5H43H43.625V26H43Z" fill="#8C4706"/>
<path d="M18.5 33.5C19.1986 32.2775 21 30 21 32C21 34 22.6094 33.8813 21.5 35.5C20.9481 36.3053 20.4762 37.0171 19.5 37C18.3956 36.9806 17.5 36.6046 17.5 35.5C17.5 34.5 18.006 34.3645 18.5 33.5Z" fill="#D9D9D9"/>
<path d="M23.5 33.5C23 32.5 22.5 31 23 30.5C23.5 30 23.9978 32.2524 25 33C25.7 33.5221 25.6401 33.2044 26 34C26.4693 35.0373 26.5673 36.1036 25.5 36.5C23.9468 37.0769 24 34.5 23.5 33.5Z" fill="#D9D9D9"/>
<path d="M35.9998 33.4995C35.7413 32.7627 35.5122 32.1097 36 31.5C36.6099 30.7376 37.6303 31.0563 38.5 31.5C39.5142 32.0174 40.2761 32.8954 40 34C39.7991 34.8037 39.3057 35.3071 38.5 35.5C37.2841 35.7911 36.414 34.6798 36 33.5L35.9998 33.4995Z" fill="#D9D9D9"/>
<path d="M41.5 33C41.2632 32.0528 42.0547 31.2439 43 31C43.3781 30.9024 43.6245 30.8927 44 31C45.3142 31.3755 44.4398 33.2058 44 34.5C43.5093 35.9439 43.0069 37.7344 41.5 37.5C41.2182 37.4562 42 35 41.5 33Z" fill="#D9D9D9"/>
<path d="M18.5 33.5C19.1986 32.2775 21 30 21 32C21 34 22.6094 33.8813 21.5 35.5C20.9481 36.3053 20.4762 37.0171 19.5 37C18.3956 36.9806 17.5 36.6046 17.5 35.5C17.5 34.5 18.006 34.3645 18.5 33.5Z" stroke="#D9D9D9" stroke-width="0.25"/>
<path d="M23.5 33.5C23 32.5 22.5 31 23 30.5C23.5 30 23.9978 32.2524 25 33C25.7 33.5221 25.6401 33.2044 26 34C26.4693 35.0373 26.5673 36.1036 25.5 36.5C23.9468 37.0769 24 34.5 23.5 33.5Z" stroke="#D9D9D9" stroke-width="0.25"/>
<path d="M35.9998 33.4995C35.7413 32.7627 35.5122 32.1097 36 31.5C36.6099 30.7376 37.6303 31.0563 38.5 31.5C39.5142 32.0174 40.2761 32.8954 40 34C39.7991 34.8037 39.3057 35.3071 38.5 35.5C37.2841 35.7911 36.414 34.6798 36 33.5L35.9998 33.4995Z" stroke="#D9D9D9" stroke-width="0.25"/>
<path d="M41.5 33C41.2632 32.0528 42.0547 31.2439 43 31C43.3781 30.9024 43.6245 30.8927 44 31C45.3142 31.3755 44.4398 33.2058 44 34.5C43.5093 35.9439 43.0069 37.7344 41.5 37.5C41.2182 37.4562 42 35 41.5 33Z" stroke="#D9D9D9" stroke-width="0.25"/>
<path d="M31 15.5L46.5 22.5L42 22.5726L31 15.5L38.5 22.629L32.5 22.7258L31 15.5L26.5 22.8226L21 22.9113L31 15.5Z" fill="#D9D9D9"/>
<path d="M31 15.5L46.5 22.5L42 22.5726L31 15.5ZM31 15.5L38.5 22.629L32.5 22.7258L31 15.5ZM31 15.5L26.5 22.8226L21 22.9113L31 15.5Z" stroke="#D9D9D9" stroke-width="1.25"/>
<path d="M15.5 23L31 15.5L42 22.5726L38.5 22.629L31 15.5L32.5 22.7258L26.5 22.8226L31 15.5L21 22.9113L15.5 23Z" fill="#D51010"/>
<path d="M31 15.5L15.5 23L21 22.9113L31 15.5ZM31 15.5L42 22.5726L38.5 22.629L31 15.5ZM31 15.5L32.5 22.7258L26.5 22.8226L31 15.5Z" stroke="#D51010" stroke-width="1.25"/>
<path d="M46.5 22.5L42 22.5726L38.5 22.629L32.5 22.7258L26.5 22.8226L21 22.9113L15.5 23V26H16H27.5H35H45H46.5V22.5Z" fill="#FFBD5B" stroke="#FFBD5B" stroke-width="1.25"/>
</svg>
