<svg width="62" height="61" viewBox="0 0 62 61" fill="none" xmlns="http://www.w3.org/2000/svg">
<ellipse cx="30.5966" cy="30.2345" rx="30.5966" ry="30.2345" fill="#FFBD5B"/>
<ellipse cx="30.7776" cy="30.4156" rx="27.1567" ry="26.7946" fill="#3B0434"/>
<circle cx="5.79342" cy="15.9319" r="1.08627" fill="#081940"/>
<circle cx="7.96597" cy="12.3111" r="1.08627" fill="#081940"/>
<circle cx="11.2248" cy="9.05227" r="1.08627" fill="#081940"/>
<circle cx="14.1215" cy="6.87973" r="1.08627" fill="#081940"/>
<circle cx="17.3803" cy="4.70718" r="1.08627" fill="#081940"/>
<circle cx="21.0012" cy="3.25882" r="1.08627" fill="#081940"/>
<circle cx="24.6221" cy="2.17254" r="1.08627" fill="#081940"/>
<circle cx="28.605" cy="1.81045" r="1.08627" fill="#081940"/>
<circle cx="32.5881" cy="1.81045" r="1.08627" fill="#081940"/>
<circle cx="36.209" cy="2.17254" r="1.08627" fill="#081940"/>
<circle cx="39.4677" cy="3.25882" r="1.08627" fill="#081940"/>
<circle cx="43.0886" cy="4.34509" r="1.08627" fill="#081940"/>
<circle cx="45.9854" cy="6.15551" r="1.08627" fill="#081940"/>
<circle cx="48.52" cy="7.96597" r="1.08627" fill="#081940"/>
<circle cx="51.0547" cy="10.1385" r="1.08627" fill="#081940"/>
<circle cx="53.5893" cy="13.0352" r="1.08627" fill="#081940"/>
<circle cx="55.3997" cy="15.9319" r="1.08627" fill="#081940"/>
<circle cx="57.2102" cy="18.8287" r="1.08627" fill="#081940"/>
<circle cx="58.2964" cy="22.0875" r="1.08627" fill="#081940"/>
<circle cx="59.0206" cy="25.3463" r="1.08627" fill="#081940"/>
<circle cx="59.3827" cy="28.243" r="1.08627" fill="#081940"/>
<circle cx="59.3827" cy="31.8639" r="1.08627" fill="#081940"/>
<circle cx="59.0206" cy="35.4848" r="1.08627" fill="#081940"/>
<circle cx="58.2964" cy="38.7436" r="1.08627" fill="#081940"/>
<circle cx="57.2102" cy="41.6403" r="1.08627" fill="#081940"/>
<circle cx="55.7618" cy="44.537" r="1.08627" fill="#081940"/>
<circle cx="53.9514" cy="47.0717" r="1.08627" fill="#081940"/>
<circle cx="51.7788" cy="49.9684" r="1.08627" fill="#081940"/>
<circle cx="49.2442" cy="52.141" r="1.08627" fill="#081940"/>
<circle cx="46.7096" cy="53.9514" r="1.08627" fill="#081940"/>
<circle cx="43.8128" cy="55.7619" r="1.08627" fill="#081940"/>
<circle cx="40.554" cy="57.2102" r="1.08627" fill="#081940"/>
<circle cx="37.2952" cy="58.2965" r="1.08627" fill="#081940"/>
<circle cx="33.6743" cy="58.6585" r="1.08627" fill="#081940"/>
<circle cx="30.0534" cy="59.0206" r="1.08627" fill="#081940"/>
<circle cx="26.7946" cy="58.6585" r="1.08627" fill="#081940"/>
<circle cx="23.1737" cy="57.9344" r="1.08627" fill="#081940"/>
<circle cx="19.9149" cy="56.8481" r="1.08627" fill="#081940"/>
<circle cx="16.6561" cy="55.0376" r="1.08627" fill="#081940"/>
<circle cx="13.7594" cy="53.2272" r="1.08627" fill="#081940"/>
<circle cx="10.8627" cy="51.0547" r="1.08627" fill="#081940"/>
<circle cx="7.96597" cy="48.158" r="1.08627" fill="#081940"/>
<circle cx="5.79342" cy="44.8991" r="1.08627" fill="#081940"/>
<circle cx="4.34503" cy="41.6403" r="1.08627" fill="#081940"/>
<circle cx="2.89669" cy="37.6573" r="1.08627" fill="#081940"/>
<circle cx="1.81042" cy="34.0364" r="1.08627" fill="#081940"/>
<circle cx="1.44833" cy="30.0534" r="1.08627" fill="#081940"/>
<circle cx="1.81042" cy="26.4326" r="1.08627" fill="#081940"/>
<circle cx="2.89669" cy="22.8117" r="1.08627" fill="#081940"/>
<circle cx="4.34503" cy="18.8287" r="1.08627" fill="#081940"/>
<path d="M32 16.5L30.5 18.5" stroke="#3A182F" stroke-width="0.5"/>
<path d="M35.5 45.5001C34.9822 46.582 34.5208 47.366 33.5 47.5001L19 27L18 25.5C18 24.5 18.8207 24.0459 20 24.0001C20.3296 23.1488 20.6947 22.8564 22 23.0001L23 24.5001L37.5 44.5001C37.0262 45.6929 36.6338 45.6117 35.5 45.5001Z" fill="#C66000"/>
<path d="M35.5 45.5001C34.9822 46.582 34.5208 47.366 33.5 47.5001L19 27C18.6095 26.4142 18.3905 26.0858 18 25.5C18 24.5 18.8207 24.0459 20 24.0001M35.5 45.5001C36.6338 45.6117 37.0262 45.6929 37.5 44.5001L23 24.5001L22 23.0001C20.6947 22.8564 20.3296 23.1488 20 24.0001M35.5 45.5001L20 24.0001" stroke="#571D1D"/>
<path d="M35.7128 31.2733C34.9374 31.1964 34.3545 31.0862 34.0253 30.472L42.7932 16.5655L43.4496 15.5865C44.0497 15.3551 44.5222 15.7687 44.837 16.5034C45.4281 16.5148 45.6926 16.6779 45.9244 17.536L45.268 18.5151L36.8001 32.3059C35.9689 32.2825 35.922 32.0157 35.7128 31.2733Z" fill="#C66000"/>
<path d="M35.7128 31.2733C34.9374 31.1964 34.3545 31.0862 34.0253 30.472L42.7932 16.5655C43.0496 16.1831 43.1933 15.9688 43.4496 15.5865C44.0497 15.3551 44.5222 15.7687 44.837 16.5034M35.7128 31.2733C35.922 32.0157 35.9689 32.2825 36.8001 32.3059L45.268 18.5151L45.9244 17.536C45.6926 16.6779 45.4281 16.5148 44.837 16.5034M35.7128 31.2733L44.837 16.5034" stroke="#571D1D"/>
<path d="M20.5 25.5C20.5 26.0523 20.0523 26.5 19.5 26.5C18.9477 26.5 18.5 26.0523 18.5 25.5C18.5 24.9477 18.9477 24.5 19.5 24.5C20.0523 24.5 20.5 24.9477 20.5 25.5Z" fill="#571D1D"/>
<path d="M45 16C45 16.5523 44.5523 17 44 17C43.4477 17 43 16.5523 43 16C43 15.4477 43.4477 15 44 15C44.5523 15 45 15.4477 45 16Z" fill="#571D1D"/>
<path d="M46 17C46 17.5523 45.5523 18 45 18C44.4477 18 44 17.5523 44 17C44 16.4477 44.4477 16 45 16C45.5523 16 46 16.4477 46 17Z" fill="#571D1D"/>
<path d="M22 24C22 24.5523 21.5523 25 21 25C20.4477 25 20 24.5523 20 24C20 23.4477 20.4477 23 21 23C21.5523 23 22 23.4477 22 24Z" fill="#571D1D"/>
<path d="M32.1961 14.0663C32.1961 15.447 31.6565 16.0559 31.1042 16.0559C30.552 16.0559 29.6961 15.447 29.6961 14.0663C29.6961 12.6856 30.552 11.0559 31.1042 11.0559C31.6565 11.0559 32.1961 12.6856 32.1961 14.0663Z" fill="#833921"/>
<path d="M30.5 16C30.3788 14.2939 30.4999 13.1891 31 11" stroke="#3A182F" stroke-width="0.5"/>
<path d="M34.0615 16.7721C32.9286 17.5613 32.1206 17.4666 31.8049 17.0134C31.4892 16.5602 31.4996 15.5099 32.6326 14.7207C33.7655 13.9315 35.5919 13.7023 35.9076 14.1555C36.2233 14.6086 35.1945 15.9828 34.0615 16.7721Z" fill="#833921"/>
<path d="M33 16C33.7527 15.2025 34.4363 14.8866 36 14.5" stroke="#3A182F" stroke-width="0.5"/>
<path d="M29.9031 14.7532C31.0255 15.5573 31.2063 16.3506 30.8847 16.7995C30.563 17.2485 29.5696 17.5896 28.4472 16.7855C27.3248 15.9814 26.4985 14.3365 26.8201 13.8876C27.1418 13.4386 28.7807 13.9491 29.9031 14.7532Z" fill="#833921"/>
<path d="M27 14C27 14.5 28.2266 15.7129 29.5 16.5" stroke="#3A182F" stroke-width="0.5"/>
<path d="M28.8509 15.639C30.1584 15.1956 30.9084 15.511 31.0857 16.034C31.2631 16.557 30.9614 17.5631 29.6538 18.0066C28.3462 18.45 26.528 18.1629 26.3506 17.6399C26.1733 17.1169 27.5433 16.0825 28.8509 15.639Z" fill="#833921"/>
<path d="M26.5 17.5C27.4659 17.4629 28.012 17.3704 29 17" stroke="#3A182F" stroke-width="0.5"/>
<path d="M29.4423 17.9676C29.4866 16.5876 30.1865 16.0008 30.8831 16.0232C31.5796 16.0455 32.6395 16.6887 32.5952 18.0687C32.551 19.4487 31.4193 21.0429 30.7227 21.0206C30.0262 20.9983 29.398 19.3476 29.4423 17.9676Z" fill="#833921"/>
<path d="M30.5 21C30.6812 20.0908 30.8287 19.6094 31.5 19" stroke="#3A182F" stroke-width="0.5"/>
<path d="M31.5 17C30.9143 17.3789 30.5857 17.4231 30 17" stroke="#3A182F" stroke-width="0.5"/>
<path d="M32.031 18.0523C30.966 17.0949 30.8208 16.3117 31.153 15.9422C31.4852 15.5726 32.4697 15.4222 33.5347 16.3796C34.5997 17.337 35.342 19.0396 35.0098 19.4092C34.6776 19.7787 33.096 19.0097 32.031 18.0523Z" fill="#833921"/>
<path d="M34.5 19.5C34.3288 18.8387 34 18 33.5 18" stroke="#3A182F" stroke-width="0.5"/>
</svg>
