<svg width="62" height="61" viewBox="0 0 62 61" fill="none" xmlns="http://www.w3.org/2000/svg">
<ellipse cx="30.5966" cy="30.2345" rx="30.5966" ry="30.2345" fill="#FFBD5B"/>
<ellipse cx="30.7776" cy="30.4156" rx="27.1567" ry="26.7946" fill="#3B0434"/>
<circle cx="5.79342" cy="15.9319" r="1.08627" fill="#081940"/>
<circle cx="7.96597" cy="12.3111" r="1.08627" fill="#081940"/>
<circle cx="11.2248" cy="9.05227" r="1.08627" fill="#081940"/>
<circle cx="14.1215" cy="6.87973" r="1.08627" fill="#081940"/>
<circle cx="17.3803" cy="4.70718" r="1.08627" fill="#081940"/>
<circle cx="21.0012" cy="3.25882" r="1.08627" fill="#081940"/>
<circle cx="24.6221" cy="2.17254" r="1.08627" fill="#081940"/>
<circle cx="28.605" cy="1.81045" r="1.08627" fill="#081940"/>
<circle cx="32.5881" cy="1.81045" r="1.08627" fill="#081940"/>
<circle cx="36.209" cy="2.17254" r="1.08627" fill="#081940"/>
<circle cx="39.4677" cy="3.25882" r="1.08627" fill="#081940"/>
<circle cx="43.0886" cy="4.34509" r="1.08627" fill="#081940"/>
<circle cx="45.9854" cy="6.15551" r="1.08627" fill="#081940"/>
<circle cx="48.52" cy="7.96597" r="1.08627" fill="#081940"/>
<circle cx="51.0547" cy="10.1385" r="1.08627" fill="#081940"/>
<circle cx="53.5893" cy="13.0352" r="1.08627" fill="#081940"/>
<circle cx="55.3997" cy="15.9319" r="1.08627" fill="#081940"/>
<circle cx="57.2102" cy="18.8287" r="1.08627" fill="#081940"/>
<circle cx="58.2964" cy="22.0875" r="1.08627" fill="#081940"/>
<circle cx="59.0206" cy="25.3463" r="1.08627" fill="#081940"/>
<circle cx="59.3827" cy="28.243" r="1.08627" fill="#081940"/>
<circle cx="59.3827" cy="31.8639" r="1.08627" fill="#081940"/>
<circle cx="59.0206" cy="35.4848" r="1.08627" fill="#081940"/>
<circle cx="58.2964" cy="38.7436" r="1.08627" fill="#081940"/>
<circle cx="57.2102" cy="41.6403" r="1.08627" fill="#081940"/>
<circle cx="55.7618" cy="44.537" r="1.08627" fill="#081940"/>
<circle cx="53.9514" cy="47.0717" r="1.08627" fill="#081940"/>
<circle cx="51.7788" cy="49.9684" r="1.08627" fill="#081940"/>
<circle cx="49.2442" cy="52.141" r="1.08627" fill="#081940"/>
<circle cx="46.7096" cy="53.9514" r="1.08627" fill="#081940"/>
<circle cx="43.8128" cy="55.7618" r="1.08627" fill="#081940"/>
<circle cx="40.554" cy="57.2102" r="1.08627" fill="#081940"/>
<circle cx="37.2952" cy="58.2965" r="1.08627" fill="#081940"/>
<circle cx="33.6743" cy="58.6585" r="1.08627" fill="#081940"/>
<circle cx="30.0534" cy="59.0206" r="1.08627" fill="#081940"/>
<circle cx="26.7946" cy="58.6585" r="1.08627" fill="#081940"/>
<circle cx="23.1737" cy="57.9344" r="1.08627" fill="#081940"/>
<circle cx="19.9149" cy="56.8481" r="1.08627" fill="#081940"/>
<circle cx="16.6561" cy="55.0377" r="1.08627" fill="#081940"/>
<circle cx="13.7594" cy="53.2272" r="1.08627" fill="#081940"/>
<circle cx="10.8627" cy="51.0547" r="1.08627" fill="#081940"/>
<circle cx="7.96597" cy="48.158" r="1.08627" fill="#081940"/>
<circle cx="5.79342" cy="44.8991" r="1.08627" fill="#081940"/>
<circle cx="4.34503" cy="41.6403" r="1.08627" fill="#081940"/>
<circle cx="2.89669" cy="37.6573" r="1.08627" fill="#081940"/>
<circle cx="1.81042" cy="34.0364" r="1.08627" fill="#081940"/>
<circle cx="1.44833" cy="30.0534" r="1.08627" fill="#081940"/>
<circle cx="1.81042" cy="26.4326" r="1.08627" fill="#081940"/>
<circle cx="2.89669" cy="22.8117" r="1.08627" fill="#081940"/>
<circle cx="4.34503" cy="18.8287" r="1.08627" fill="#081940"/>
<path d="M17.5301 24.3228C17.9069 24.3958 21.7398 22.7365 21.7354 22.5073C21.7309 22.2781 22.5 27.5 22.5 27.5C20.3983 26.9249 17.1532 24.2499 17.5301 24.3228Z" fill="#FF6D1E" stroke="#E35000" stroke-width="0.5"/>
<g filter="url(#filter0_i_437_6)">
<path d="M21.5 31.4999C22 30.4999 23 28.9999 23 28.4999C23 27.9999 22 26.5 21.5 24.9999C21 23.4999 21 22.9999 22 20.4999C23 18 24.5 16.9999 26 16.4999C27.5 15.9999 28.9365 15.9466 31 15.9999C31 15.9999 34.5 16.4998 36 18.4999C37.5 20.5 37.717 22.1723 37.3585 24.0862C37 26 36 27.5 35 28.4999C34 29.4998 34 29.4999 35.5 30.4999C37 31.4999 39.4001 32.1655 42 31.9999C44.7142 31.8271 47.921 28.6029 48.5 29.4999C49.0789 30.397 47.5 35.9999 46.5 37.9999C45.5 39.9999 44 41.9999 42 42.9999C40 43.9999 34 44.9999 30 44.4999C26 44 23.5 41.9999 23.5 41.9999C23.5 41.9999 21 39.9999 20.5 37.4999C20 34.9999 21 32.4999 21.5 31.4999Z" fill="#FAB662"/>
</g>
<path d="M21.5 31.4999C22 30.4999 23 28.9999 23 28.4999C23 27.9999 22 26.5 21.5 24.9999C21 23.4999 21 22.9999 22 20.4999C23 18 24.5 16.9999 26 16.4999C27.5 15.9999 28.9365 15.9466 31 15.9999C31 15.9999 34.5 16.4998 36 18.4999C37.5 20.5 37.717 22.1723 37.3585 24.0862C37 26 36 27.5 35 28.4999C34 29.4998 34 29.4999 35.5 30.4999C37 31.4999 39.4001 32.1655 42 31.9999C44.7142 31.8271 47.921 28.6029 48.5 29.4999C49.0789 30.397 47.5 35.9999 46.5 37.9999C45.5 39.9999 44 41.9999 42 42.9999C40 43.9999 34 44.9999 30 44.4999C26 44 23.5 41.9999 23.5 41.9999C23.5 41.9999 21 39.9999 20.5 37.4999C20 34.9999 21 32.4999 21.5 31.4999Z" stroke="#CC7101" stroke-width="0.5"/>
<circle cx="28" cy="23" r="2" fill="#110000"/>
<circle cx="27.5" cy="22.5" r="0.5" fill="#FAD8AF"/>
<path d="M33.5 34.7499C35.1705 34.7499 36.7695 34.7112 37.958 34.8759C38.5529 34.9584 39.0131 35.0891 39.3184 35.2792C39.6082 35.4599 39.75 35.6863 39.75 35.9999C39.75 36.3407 39.5829 36.7786 39.2461 37.2587C38.913 37.7335 38.4301 38.2258 37.8418 38.6718C36.6623 39.566 35.0888 40.2499 33.5 40.2499C31.8735 40.2499 30.4134 39.9195 29.3691 39.3974C28.31 38.8678 27.75 38.1826 27.75 37.4999C27.75 36.8173 28.31 36.1321 29.3691 35.6025C30.4134 35.0803 31.8735 34.7499 33.5 34.7499Z" fill="#FAB662" stroke="#D18932" stroke-width="0.5"/>
<defs>
<filter id="filter0_i_437_6" x="20.1137" y="11.7334" width="28.7604" height="33.1495" filterUnits="userSpaceOnUse" color-interpolation-filters="sRGB">
<feFlood flood-opacity="0" result="BackgroundImageFix"/>
<feBlend mode="normal" in="SourceGraphic" in2="BackgroundImageFix" result="shape"/>
<feColorMatrix in="SourceAlpha" type="matrix" values="0 0 0 0 0 0 0 0 0 0 0 0 0 0 0 0 0 0 127 0" result="hardAlpha"/>
<feOffset dy="-10"/>
<feGaussianBlur stdDeviation="2"/>
<feComposite in2="hardAlpha" operator="arithmetic" k2="-1" k3="1"/>
<feColorMatrix type="matrix" values="0 0 0 0 0.986873 0 0 0 0 0.658443 0 0 0 0 0.0485022 0 0 0 0.2 0"/>
<feBlend mode="normal" in2="shape" result="effect1_innerShadow_437_6"/>
</filter>
</defs>
</svg>
