<svg width="62" height="61" viewBox="0 0 62 61" fill="none" xmlns="http://www.w3.org/2000/svg">
<ellipse cx="30.5966" cy="30.2345" rx="30.5966" ry="30.2345" fill="#FFBD5B"/>
<ellipse cx="30.7776" cy="30.4156" rx="27.1567" ry="26.7946" fill="#3B0434"/>
<circle cx="5.79342" cy="15.9319" r="1.08627" fill="#081940"/>
<circle cx="7.96597" cy="12.3111" r="1.08627" fill="#081940"/>
<circle cx="11.2248" cy="9.05227" r="1.08627" fill="#081940"/>
<circle cx="14.1215" cy="6.87973" r="1.08627" fill="#081940"/>
<circle cx="17.3803" cy="4.70718" r="1.08627" fill="#081940"/>
<circle cx="21.0012" cy="3.25882" r="1.08627" fill="#081940"/>
<circle cx="24.6221" cy="2.17251" r="1.08627" fill="#081940"/>
<circle cx="28.605" cy="1.81045" r="1.08627" fill="#081940"/>
<circle cx="32.5881" cy="1.81045" r="1.08627" fill="#081940"/>
<circle cx="36.209" cy="2.17251" r="1.08627" fill="#081940"/>
<circle cx="39.4678" cy="3.25882" r="1.08627" fill="#081940"/>
<circle cx="43.0886" cy="4.34506" r="1.08627" fill="#081940"/>
<circle cx="45.9854" cy="6.15554" r="1.08627" fill="#081940"/>
<circle cx="48.52" cy="7.96597" r="1.08627" fill="#081940"/>
<circle cx="51.0547" cy="10.1385" r="1.08627" fill="#081940"/>
<circle cx="53.5892" cy="13.0352" r="1.08627" fill="#081940"/>
<circle cx="55.3997" cy="15.9319" r="1.08627" fill="#081940"/>
<circle cx="57.2102" cy="18.8287" r="1.08627" fill="#081940"/>
<circle cx="58.2964" cy="22.0875" r="1.08627" fill="#081940"/>
<circle cx="59.0206" cy="25.3463" r="1.08627" fill="#081940"/>
<circle cx="59.3827" cy="28.243" r="1.08627" fill="#081940"/>
<circle cx="59.3827" cy="31.8639" r="1.08627" fill="#081940"/>
<circle cx="59.0206" cy="35.4848" r="1.08627" fill="#081940"/>
<circle cx="58.2964" cy="38.7436" r="1.08627" fill="#081940"/>
<circle cx="57.2102" cy="41.6403" r="1.08627" fill="#081940"/>
<circle cx="55.7618" cy="44.537" r="1.08627" fill="#081940"/>
<circle cx="53.9514" cy="47.0717" r="1.08627" fill="#081940"/>
<circle cx="51.7788" cy="49.9684" r="1.08627" fill="#081940"/>
<circle cx="49.2442" cy="52.141" r="1.08627" fill="#081940"/>
<circle cx="46.7096" cy="53.9514" r="1.08627" fill="#081940"/>
<circle cx="43.8128" cy="55.7619" r="1.08627" fill="#081940"/>
<circle cx="40.554" cy="57.2102" r="1.08627" fill="#081940"/>
<circle cx="37.2952" cy="58.2965" r="1.08627" fill="#081940"/>
<circle cx="33.6743" cy="58.6585" r="1.08627" fill="#081940"/>
<circle cx="30.0534" cy="59.0206" r="1.08627" fill="#081940"/>
<circle cx="26.7946" cy="58.6585" r="1.08627" fill="#081940"/>
<circle cx="23.1737" cy="57.9344" r="1.08627" fill="#081940"/>
<circle cx="19.9149" cy="56.8481" r="1.08627" fill="#081940"/>
<circle cx="16.6561" cy="55.0376" r="1.08627" fill="#081940"/>
<circle cx="13.7594" cy="53.2272" r="1.08627" fill="#081940"/>
<circle cx="10.8627" cy="51.0547" r="1.08627" fill="#081940"/>
<circle cx="7.96597" cy="48.158" r="1.08627" fill="#081940"/>
<circle cx="5.79342" cy="44.8991" r="1.08627" fill="#081940"/>
<circle cx="4.34503" cy="41.6403" r="1.08627" fill="#081940"/>
<circle cx="2.89668" cy="37.6574" r="1.08627" fill="#081940"/>
<circle cx="1.81044" cy="34.0364" r="1.08627" fill="#081940"/>
<circle cx="1.44833" cy="30.0534" r="1.08627" fill="#081940"/>
<circle cx="1.81044" cy="26.4325" r="1.08627" fill="#081940"/>
<circle cx="2.89668" cy="22.8117" r="1.08627" fill="#081940"/>
<circle cx="4.34503" cy="18.8287" r="1.08627" fill="#081940"/>
<path d="M20.0903 32.1284L25.4824 30.4179" stroke="#8C4706" stroke-width="1.5" stroke-linecap="round"/>
<path d="M27.8428 17.7816L29.3529 22.391" stroke="#8C4706" stroke-width="1.5" stroke-linecap="round"/>
<path d="M36.4011 17.9203L34.2966 22.2846" stroke="#8C4706" stroke-width="1.5" stroke-linecap="round"/>
<path d="M42.2824 24.1876L37.38 26.2614" stroke="#8C4706" stroke-width="1.5" stroke-linecap="round"/>
<path d="M21.1576 23.1832L25.8238 25.4653" stroke="#8C4706" stroke-width="1.5" stroke-linecap="round"/>
<path d="M26.189 39.4237L28.9428 34.542" stroke="#8C4706" stroke-width="1.5" stroke-linecap="round"/>
<path d="M36.3783 31.1686L42.4997 34.1232" stroke="#8C4706" stroke-width="1.5" stroke-linecap="round"/>
<path d="M35.7526 40.4224L33.4308 34.8512" stroke="#8C4706" stroke-width="1.5" stroke-linecap="round"/>
<path d="M29.7059 30.651L30.303 30.1971L29.3951 29.003L28.7981 29.4569L29.7059 30.651ZM21.1843 35.2454C20.8546 35.4961 20.7905 35.9667 21.0412 36.2964C21.2919 36.6261 21.7624 36.6902 22.0921 36.4395L21.1843 35.2454ZM29.252 30.0539L28.7981 29.4569L21.1843 35.2454L21.6382 35.8425L22.0921 36.4395L29.7059 30.651L29.252 30.0539Z" fill="#D67821"/>
<path d="M29.2678 29.1083L30.016 29.1599L30.1191 27.6634L29.3709 27.6119L29.2678 29.1083ZM19.5463 26.935C19.133 26.9065 18.775 27.2184 18.7465 27.6317C18.718 28.0449 19.0299 28.403 19.4432 28.4314L19.5463 26.935ZM29.3361 27.4174L29.8103 27.9985L30.9725 27.0502L30.4984 26.4691L29.3361 27.4174ZM33.7272 27.912L32.979 27.8605L32.8759 29.3569L33.6241 29.4085L33.7272 27.912ZM43.2299 30.0703C43.6431 30.0987 44.0012 29.7868 44.0297 29.3736C44.0582 28.9604 43.7462 28.6023 43.333 28.5738L43.2299 30.0703ZM32.5107 26.6478L31.9989 27.196L33.0953 28.2197L33.6071 27.6715L32.5107 26.6478ZM24.261 18.8244C23.9992 18.5034 23.5267 18.4555 23.2058 18.7174C22.8848 18.9793 22.8369 19.4517 23.0988 19.7727L24.261 18.8244ZM39.9363 20.8926C40.219 20.5898 40.2027 20.1152 39.9 19.8326C39.5972 19.5499 39.1226 19.5662 38.8399 19.8689L39.9363 20.8926ZM29.3193 28.3601L29.3709 27.6119L19.5463 26.935L19.4947 27.6832L19.4432 28.4314L29.2678 29.1083L29.3193 28.3601ZM33.6757 28.6602L33.6241 29.4085L43.2299 30.0703L43.2815 29.322L43.333 28.5738L33.7272 27.912L33.6757 28.6602ZM23.6799 19.2985L23.0988 19.7727L29.3361 27.4174L29.9173 26.9432L30.4984 26.4691L24.261 18.8244L23.6799 19.2985ZM33.0589 27.1597L33.6071 27.6715L39.9363 20.8926L39.3881 20.3808L38.8399 19.8689L32.5107 26.6478L33.0589 27.1597Z" fill="#D67821"/>
<path d="M31.4342 31.1061L31.2027 41.0108" stroke="#D67821" stroke-width="1.5" stroke-linecap="square" stroke-linejoin="round"/>
<path d="M34.2716 29.834L33.7424 29.3025L32.6794 30.3608L33.2086 30.8923L34.2716 29.834ZM39.9566 37.6703C40.2488 37.9639 40.7237 37.9649 41.0172 37.6727C41.3108 37.3804 41.3118 36.9056 41.0196 36.612L39.9566 37.6703ZM33.7401 30.3632L33.2086 30.8923L39.9566 37.6703L40.4881 37.1412L41.0196 36.612L34.2716 29.834L33.7401 30.3632Z" fill="#D67821"/>
<path d="M31.2946 26.5872L31.9749 16.7134" stroke="#D67821" stroke-width="1.5" stroke-linecap="round" stroke-linejoin="round"/>
<path d="M32.3682 13.7946C33.6836 13.8852 34.1279 14.1345 34.2881 14.3301C34.3605 14.4186 34.4061 14.5325 34.4243 14.7115C34.4439 14.9031 34.4291 15.1253 34.4085 15.424C34.3894 15.7021 34.3426 15.816 34.1851 15.9108C33.9552 16.0489 33.4198 16.1821 32.2095 16.0987C31.0802 16.0208 30.5806 15.7995 30.3607 15.5964C30.1777 15.4272 30.1187 15.2028 30.1465 14.7995L30.1465 14.7985C30.1846 14.2455 30.2249 14.0932 30.3629 13.9882C30.4439 13.9267 30.6054 13.8499 30.9355 13.8045C31.2643 13.7593 31.7245 13.7502 32.3682 13.7946Z" fill="#D51010" stroke="#D51010"/>
<path d="M42.5858 18.3864C43.3061 19.0488 43.4699 19.5298 43.4904 19.8177C43.506 20.0371 43.445 20.207 43.3739 20.3454L43.3019 20.4739C43.2132 20.6244 43.0057 20.7848 42.6425 20.7747C42.2708 20.7643 41.7023 20.5683 40.982 19.9056L40.9671 19.893C40.4369 19.4424 40.0375 18.969 39.8476 18.5366C39.6903 18.1783 39.6863 17.8833 39.8389 17.6193L39.9138 17.5086C40.0487 17.3336 40.1793 17.2442 40.3011 17.2021C40.4231 17.1601 40.5786 17.1511 40.7869 17.2036C41.1719 17.3007 41.6744 17.5941 42.3065 18.1375L42.5858 18.3864Z" fill="#D51010" stroke="#D51010"/>
<path d="M44.3219 29.4086C44.3591 28.2663 44.5621 27.7502 44.7591 27.5267C44.8941 27.3737 45.0795 27.303 45.4131 27.3294L45.5657 27.3466C45.8374 27.3858 46.0221 27.408 46.1832 27.4562C46.3266 27.4992 46.4065 27.5519 46.4644 27.6233C46.5274 27.7009 46.6053 27.8515 46.6473 28.1629C46.6789 28.3978 46.6882 28.706 46.6641 29.1101L46.6283 29.5472C46.5142 30.6862 46.3375 31.2009 46.1318 31.4714C45.9669 31.6881 45.7456 31.7967 45.2889 31.9232C44.8545 31.7319 44.6816 31.642 44.555 31.4327C44.4178 31.2057 44.3109 30.7814 44.3137 29.8435L44.3219 29.4086Z" fill="#D51010" stroke="#D51010"/>
<path d="M30.527 44.5989C29.6255 44.5069 29.0546 44.3226 28.7346 44.0997C28.5825 43.9937 28.4974 43.8861 28.4516 43.7839C28.4175 43.7076 28.3965 43.6159 28.3978 43.5017L28.4076 43.3799C28.4443 43.0984 28.459 42.9196 28.5014 42.7548C28.5383 42.6114 28.5838 42.5393 28.6433 42.4879C28.7097 42.4308 28.8483 42.3528 29.1547 42.3054C29.3853 42.2697 29.6902 42.2538 30.0941 42.2677L30.532 42.2918C31.7315 42.3789 32.2921 42.5556 32.5672 42.7646C32.7765 42.9237 32.8754 43.1463 32.9088 43.6464C32.8011 44.0015 32.6127 44.2464 32.3099 44.4055C32.0072 44.5644 31.5441 44.6623 30.8426 44.6239L30.527 44.5989Z" fill="#D51010" stroke="#D51010"/>
<path d="M16.0726 26.8395C16.2217 25.9355 16.4242 25.3704 16.6533 25.0605C16.761 24.9148 16.863 24.8408 16.9557 24.804C17.0247 24.7767 17.1101 24.7616 17.2209 24.7695L17.3409 24.7857C17.62 24.8397 17.798 24.8653 17.96 24.9179C18.1008 24.9636 18.1701 25.0134 18.2176 25.076C18.2706 25.1459 18.3399 25.2891 18.3683 25.5977C18.3897 25.83 18.3858 26.1353 18.3471 26.5376L18.2959 26.974C18.1339 28.1741 17.9411 28.7287 17.7269 28.9951C17.5734 29.186 17.372 29.2727 16.8765 29.2755C16.5287 29.1461 16.2958 28.943 16.1558 28.631C16.0159 28.319 15.9466 27.8508 16.0282 27.153L16.0726 26.8395Z" fill="#D51010" stroke="#D51010"/>
<path d="M18.8716 38.1609C18.3343 37.4313 18.0872 36.8845 18.0374 36.4977C18.0139 36.3139 18.0364 36.1786 18.0813 36.076C18.1149 35.9995 18.1688 35.9223 18.2543 35.8466L18.351 35.772C18.5843 35.6101 18.7266 35.5009 18.8771 35.4216C19.0082 35.3527 19.0921 35.3379 19.1702 35.3475C19.2571 35.3583 19.4079 35.4086 19.6489 35.6037C19.8302 35.7506 20.0468 35.9658 20.3079 36.2743L20.5841 36.6149C21.3253 37.5621 21.5709 38.096 21.6009 38.4402C21.6236 38.7021 21.5251 38.9249 21.1771 39.2856C20.8417 39.4443 20.5337 39.4693 20.2125 39.3518C19.8914 39.2343 19.5078 38.957 19.065 38.4115L18.8716 38.1609Z" fill="#D51010" stroke="#D51010"/>
<path d="M41.0847 38.554C41.8827 37.7357 42.3806 37.4916 42.6768 37.4595C42.8797 37.4375 43.0643 37.5104 43.2928 37.7549L43.3938 37.8705C43.568 38.0827 43.6894 38.2237 43.7757 38.3679C43.8526 38.4964 43.8761 38.5892 43.8707 38.681C43.8648 38.7808 43.8208 38.9445 43.6417 39.2027C43.5067 39.3975 43.3056 39.6313 43.0153 39.9134L42.694 40.2119C41.8415 40.9759 41.3639 41.2366 41.0296 41.2976C40.7617 41.3464 40.5251 41.2773 40.1025 41.0626C39.9109 40.6285 39.8439 40.4454 39.8916 40.2055C39.9434 39.9453 40.1506 39.56 40.7853 38.8695L41.0847 38.554Z" fill="#D51010" stroke="#D51010"/>
<path d="M23.4636 19.1543C22.7788 19.7485 22.2532 20.0389 21.8716 20.1192C21.6903 20.1574 21.5542 20.1451 21.4484 20.1085C21.3433 20.072 21.2346 19.9989 21.1239 19.8639C20.9439 19.6443 20.8236 19.5112 20.7326 19.3675C20.6534 19.2423 20.632 19.1598 20.6354 19.0812C20.6392 18.9937 20.6773 18.8394 20.8525 18.5836C20.9845 18.3912 21.1817 18.1581 21.4684 17.8732L21.7858 17.5707C22.6709 16.7563 23.1835 16.4688 23.5242 16.4115C23.7835 16.3679 24.0134 16.4483 24.4007 16.7664C24.5857 17.0881 24.6352 17.3931 24.5437 17.7227C24.4522 18.0521 24.2064 18.4566 23.698 18.9415L23.4636 19.1543Z" fill="#D51010" stroke="#D51010"/>
<path d="M32.157 29.7372C32.21 29.8683 32.2852 30.057 32.3816 30.2944C32.5811 30.786 32.8677 31.4887 33.2129 32.3313C33.9032 34.0166 34.8305 36.2623 35.7795 38.5055C36.7291 40.7499 37.6983 42.9878 38.4727 44.658C38.8604 45.4944 39.1954 46.1803 39.4525 46.6515C39.5661 46.8598 39.6612 47.0142 39.732 47.1191C40.3522 47.0534 40.7827 46.9687 41.343 46.797C41.3105 46.7113 41.2698 46.611 41.221 46.4954C41.011 45.9982 40.6747 45.2883 40.2481 44.4315C39.3963 42.7212 38.2016 40.4561 36.986 38.1928C35.7709 35.9304 34.537 33.6737 33.6064 31.9827C33.1412 31.1372 32.7518 30.433 32.4789 29.9405C32.394 29.7873 32.3207 29.6543 32.2596 29.5441L32.157 29.7372Z" fill="#1B3E8F" stroke="#1B3E8F"/>
<path d="M30.9187 29.652C30.8728 29.7661 30.8165 29.9087 30.7494 30.0753C30.556 30.5555 30.2794 31.2416 29.9459 32.0656C29.2785 33.7143 28.3838 35.915 27.4747 38.1218C26.5654 40.3291 25.6422 42.5405 24.9181 44.2125C24.5559 45.049 24.2453 45.7466 24.0118 46.2394C23.8946 46.4869 23.7995 46.6765 23.7296 46.8036C23.718 46.8248 23.7058 46.8422 23.6966 46.8581C23.6193 46.8816 23.5086 46.9122 23.3643 46.9395C23.1474 46.9805 22.8892 47.0143 22.631 47.0325C22.3714 47.0507 22.124 47.0522 21.9235 47.0335C21.9217 47.0333 21.9195 47.0318 21.9178 47.0317C21.9551 46.9341 22.0024 46.819 22.0583 46.6869C22.2774 46.1695 22.6184 45.4394 23.0455 44.563C23.8985 42.8122 25.0806 40.5039 26.2794 38.2021C27.4777 35.9012 28.6912 33.6103 29.6048 31.894C30.0615 31.0359 30.4429 30.321 30.7105 29.8213C30.7565 29.7354 30.7987 29.6555 30.8378 29.5826L30.9187 29.652Z" fill="#1B3E8F" stroke="#1B3E8F" stroke-linejoin="round"/>
<path d="M29.1148 17.264C35.6961 15.9737 42.1222 20.3482 43.441 27.0746C44.7598 33.801 40.4615 40.2783 33.8803 41.5688C27.299 42.8592 20.873 38.4846 19.5541 31.7582C18.2352 25.0318 22.5334 18.5544 29.1148 17.264Z" stroke="#FFBD5B" stroke-width="2"/>
<circle cx="31.5623" cy="28.8464" r="1.81672" transform="rotate(3.94125 31.5623 28.8464)" stroke="#FFBD5B"/>
<path d="M31.5963 28.3547C31.8677 28.3735 32.0721 28.609 32.0534 28.8805C32.0346 29.1518 31.7999 29.3562 31.5286 29.3377C31.2571 29.319 31.0518 29.0842 31.0704 28.8128C31.0891 28.5412 31.3247 28.336 31.5963 28.3547Z" stroke="#1B3E8F"/>
</svg>
