<svg width="62" height="61" viewBox="0 0 62 61" fill="none" xmlns="http://www.w3.org/2000/svg">
<ellipse cx="30.5966" cy="30.2345" rx="30.5966" ry="30.2345" fill="#FFBD5B"/>
<ellipse cx="30.7776" cy="30.4156" rx="27.1567" ry="26.7946" fill="#3B0434"/>
<circle cx="5.79345" cy="15.9319" r="1.08627" fill="#081940"/>
<circle cx="7.966" cy="12.3111" r="1.08627" fill="#081940"/>
<circle cx="11.2248" cy="9.05227" r="1.08627" fill="#081940"/>
<circle cx="14.1215" cy="6.87973" r="1.08627" fill="#081940"/>
<circle cx="17.3803" cy="4.70718" r="1.08627" fill="#081940"/>
<circle cx="21.0012" cy="3.25882" r="1.08627" fill="#081940"/>
<circle cx="24.6221" cy="2.17251" r="1.08627" fill="#081940"/>
<circle cx="28.6051" cy="1.81045" r="1.08627" fill="#081940"/>
<circle cx="32.5881" cy="1.81045" r="1.08627" fill="#081940"/>
<circle cx="36.209" cy="2.17251" r="1.08627" fill="#081940"/>
<circle cx="39.4678" cy="3.25882" r="1.08627" fill="#081940"/>
<circle cx="43.0886" cy="4.34506" r="1.08627" fill="#081940"/>
<circle cx="45.9854" cy="6.15554" r="1.08627" fill="#081940"/>
<circle cx="48.52" cy="7.96597" r="1.08627" fill="#081940"/>
<circle cx="51.0547" cy="10.1385" r="1.08627" fill="#081940"/>
<circle cx="53.5893" cy="13.0352" r="1.08627" fill="#081940"/>
<circle cx="55.3997" cy="15.9319" r="1.08627" fill="#081940"/>
<circle cx="57.2102" cy="18.8287" r="1.08627" fill="#081940"/>
<circle cx="58.2965" cy="22.0875" r="1.08627" fill="#081940"/>
<circle cx="59.0207" cy="25.3463" r="1.08627" fill="#081940"/>
<circle cx="59.3827" cy="28.243" r="1.08627" fill="#081940"/>
<circle cx="59.3827" cy="31.8639" r="1.08627" fill="#081940"/>
<circle cx="59.0207" cy="35.4848" r="1.08627" fill="#081940"/>
<circle cx="58.2965" cy="38.7436" r="1.08627" fill="#081940"/>
<circle cx="57.2102" cy="41.6403" r="1.08627" fill="#081940"/>
<circle cx="55.7618" cy="44.537" r="1.08627" fill="#081940"/>
<circle cx="53.9514" cy="47.0717" r="1.08627" fill="#081940"/>
<circle cx="51.7788" cy="49.9684" r="1.08627" fill="#081940"/>
<circle cx="49.2442" cy="52.141" r="1.08627" fill="#081940"/>
<circle cx="46.7096" cy="53.9514" r="1.08627" fill="#081940"/>
<circle cx="43.8129" cy="55.7619" r="1.08627" fill="#081940"/>
<circle cx="40.5541" cy="57.2102" r="1.08627" fill="#081940"/>
<circle cx="37.2953" cy="58.2965" r="1.08627" fill="#081940"/>
<circle cx="33.6743" cy="58.6585" r="1.08627" fill="#081940"/>
<circle cx="30.0535" cy="59.0206" r="1.08627" fill="#081940"/>
<circle cx="26.7946" cy="58.6585" r="1.08627" fill="#081940"/>
<circle cx="23.1737" cy="57.9344" r="1.08627" fill="#081940"/>
<circle cx="19.9149" cy="56.8481" r="1.08627" fill="#081940"/>
<circle cx="16.6561" cy="55.0376" r="1.08627" fill="#081940"/>
<circle cx="13.7594" cy="53.2272" r="1.08627" fill="#081940"/>
<circle cx="10.8627" cy="51.0547" r="1.08627" fill="#081940"/>
<circle cx="7.966" cy="48.158" r="1.08627" fill="#081940"/>
<circle cx="5.79345" cy="44.8991" r="1.08627" fill="#081940"/>
<circle cx="4.34506" cy="41.6403" r="1.08627" fill="#081940"/>
<circle cx="2.89672" cy="37.6574" r="1.08627" fill="#081940"/>
<circle cx="1.81045" cy="34.0364" r="1.08627" fill="#081940"/>
<circle cx="1.44836" cy="30.0534" r="1.08627" fill="#081940"/>
<circle cx="1.81045" cy="26.4325" r="1.08627" fill="#081940"/>
<circle cx="2.89672" cy="22.8117" r="1.08627" fill="#081940"/>
<circle cx="4.34506" cy="18.8287" r="1.08627" fill="#081940"/>
<path d="M16 20C17.1053 19.5358 17.4139 19.0861 17.5 18C17.692 19.1596 17.9834 19.633 19 20C18.1119 20.2285 17.7564 20.6167 17.5 22C17.3814 21.0322 17.2618 20.5108 16 20Z" fill="#D9D9D9" stroke="#D9D9D9" stroke-width="0.3"/>
<path d="M19 47C20.1053 46.5358 20.4139 46.0861 20.5 45C20.692 46.1596 20.9834 46.633 22 47C21.1119 47.2285 20.7564 47.6167 20.5 49C20.3814 48.0322 20.2618 47.5108 19 47Z" fill="#D9D9D9" stroke="#D9D9D9" stroke-width="0.3"/>
<path d="M46.5176 24.9319C47.7054 24.7695 48.1199 24.4151 48.4842 23.3882C48.3695 24.558 48.5284 25.0907 49.4154 25.7083C48.4984 25.6991 48.0545 25.9821 47.4489 27.2519C47.5848 26.2864 47.6042 25.7518 46.5176 24.9319Z" fill="#D9D9D9" stroke="#D9D9D9" stroke-width="0.3"/>
<path d="M43.2775 29.3943L44.2068 34.7953M45.6953 30.2517L45.5091 32.3787M48.4851 31.3097L45.3227 35.3966M51.2744 35.9311L46.0665 36.6884M46.0664 37.5793L50.1579 40.6751M45.1362 39.3054L46.2515 44.3612M42.9635 38.661L38.871 43.5832M42.0507 37.0149L36.4708 37.5717M42.3045 35.2078L37.8411 31.9115M42.5327 36.1205L40.8588 35.6639M39.5569 35.4078L37.883 34.9512M42.7185 37.557L41.2304 38.537M40.4864 39.027L38.4403 40.1518M44.0203 38.704L43.6481 40.2854M43.462 41.5215L43.0898 43.1028M45.5083 38.615L46.6241 40.1072M47.1819 40.8533L48.2977 42.3455M46.2524 37.2341L48.2983 37.8911M49.6002 38.1472L51.2741 38.6038M46.0666 35.7975L47.5547 34.8175M48.8567 34.1828L50.3448 33.2028M43.2768 34.7396L42.1611 33.2474M41.6032 32.5012L40.4874 31.009M38.0678 44.4058C38.0678 44.4058 36.5796 46.2766 36.0215 47.3123" stroke="#1B3E8F" stroke-width="0.75" stroke-linecap="round"/>
<path d="M19.4151 29.3943L18.4858 34.7953M16.9973 30.2517L17.1835 32.3787M14.2075 31.3097L17.3699 35.3966M11.4182 35.9311L16.6261 36.6884M16.6262 37.5793L12.5347 40.6751M17.5564 39.3054L16.4411 44.3612M19.7291 38.661L23.8215 43.5832M20.6419 37.0149L26.2218 37.5717M20.3881 35.2078L24.8515 31.9115M20.1599 36.1205L21.8338 35.6639M23.1357 35.4078L24.8096 34.9512M19.9741 37.557L21.4622 38.537M22.2062 39.027L24.2523 40.1518M18.6723 38.704L19.0445 40.2854M19.2306 41.5215L19.6028 43.1028M17.1843 38.615L16.0685 40.1072M15.5106 40.8533L14.3949 42.3455M16.4402 37.2341L14.3943 37.8911M13.0924 38.1472L11.4185 38.6038M16.626 35.7975L15.1379 34.8175M13.8359 34.1828L12.3478 33.2028M19.4157 34.7396L20.5315 33.2474M21.0894 32.5012L22.2052 31.009M24.6248 44.4058C24.6248 44.4058 26.113 46.2766 26.6711 47.3123" stroke="#FD90C7" stroke-width="0.75" stroke-linecap="round"/>
<path d="M27 14.2941L32.3333 21.4118M31 13.6471L32.3333 16.8824M35.6667 13L34.3333 21.4118M43 17.5294L36.3333 22.7059M37 24L45 25.2941M37 27.2353L42.3333 33.7059M33.5 28L31.5 38.3529M31 26.3235L23.6667 31.5M30 23.5L21.3333 22.2059M31 24.6471L28.3333 25.2941M26.3333 25.9412L23.6667 26.5882M32.3333 26.5882L31 29.1765M30.3333 30.4706L28.3333 33.7059M35 27.2353L35.6667 29.8235M36.3333 31.7647L37 34.3529M37 25.9412L39.6667 27.2353M41 27.8824L43.6667 29.1765M37 23.3529L40.3333 22.7059M42.3333 22.0588L45 21.4118M35.6667 21.4118L37 18.8235M38.3333 16.8824L39.6667 14.2941M31 22.0588L28.3333 20.7647M27 20.1176L24.3333 18.8235M31 40.1765C31 40.1765 30.3333 44.0588 30.3333 46" stroke="#D9D9D9" stroke-linecap="round"/>
</svg>
