<svg width="62" height="61" viewBox="0 0 62 61" fill="none" xmlns="http://www.w3.org/2000/svg">
<ellipse cx="30.5966" cy="30.2345" rx="30.5966" ry="30.2345" fill="#FFBD5B"/>
<ellipse cx="30.7776" cy="30.4156" rx="27.1567" ry="26.7946" fill="#3B0434"/>
<circle cx="5.79342" cy="15.9319" r="1.08627" fill="#081940"/>
<circle cx="7.96597" cy="12.3111" r="1.08627" fill="#081940"/>
<circle cx="11.2248" cy="9.05227" r="1.08627" fill="#081940"/>
<circle cx="14.1215" cy="6.87973" r="1.08627" fill="#081940"/>
<circle cx="17.3803" cy="4.70718" r="1.08627" fill="#081940"/>
<circle cx="21.0012" cy="3.25882" r="1.08627" fill="#081940"/>
<circle cx="24.6221" cy="2.17254" r="1.08627" fill="#081940"/>
<circle cx="28.605" cy="1.81045" r="1.08627" fill="#081940"/>
<circle cx="32.5881" cy="1.81045" r="1.08627" fill="#081940"/>
<circle cx="36.209" cy="2.17254" r="1.08627" fill="#081940"/>
<circle cx="39.4677" cy="3.25882" r="1.08627" fill="#081940"/>
<circle cx="43.0886" cy="4.34509" r="1.08627" fill="#081940"/>
<circle cx="45.9854" cy="6.15551" r="1.08627" fill="#081940"/>
<circle cx="48.52" cy="7.96597" r="1.08627" fill="#081940"/>
<circle cx="51.0547" cy="10.1385" r="1.08627" fill="#081940"/>
<circle cx="53.5893" cy="13.0352" r="1.08627" fill="#081940"/>
<circle cx="55.3997" cy="15.9319" r="1.08627" fill="#081940"/>
<circle cx="57.2102" cy="18.8287" r="1.08627" fill="#081940"/>
<circle cx="58.2964" cy="22.0875" r="1.08627" fill="#081940"/>
<circle cx="59.0206" cy="25.3463" r="1.08627" fill="#081940"/>
<circle cx="59.3827" cy="28.243" r="1.08627" fill="#081940"/>
<circle cx="59.3827" cy="31.8639" r="1.08627" fill="#081940"/>
<circle cx="59.0206" cy="35.4848" r="1.08627" fill="#081940"/>
<circle cx="58.2964" cy="38.7436" r="1.08627" fill="#081940"/>
<circle cx="57.2102" cy="41.6403" r="1.08627" fill="#081940"/>
<circle cx="55.7618" cy="44.537" r="1.08627" fill="#081940"/>
<circle cx="53.9514" cy="47.0717" r="1.08627" fill="#081940"/>
<circle cx="51.7788" cy="49.9684" r="1.08627" fill="#081940"/>
<circle cx="49.2442" cy="52.141" r="1.08627" fill="#081940"/>
<circle cx="46.7096" cy="53.9514" r="1.08627" fill="#081940"/>
<circle cx="43.8128" cy="55.7618" r="1.08627" fill="#081940"/>
<circle cx="40.554" cy="57.2102" r="1.08627" fill="#081940"/>
<circle cx="37.2952" cy="58.2965" r="1.08627" fill="#081940"/>
<circle cx="33.6743" cy="58.6585" r="1.08627" fill="#081940"/>
<circle cx="30.0534" cy="59.0206" r="1.08627" fill="#081940"/>
<circle cx="26.7946" cy="58.6585" r="1.08627" fill="#081940"/>
<circle cx="23.1737" cy="57.9344" r="1.08627" fill="#081940"/>
<circle cx="19.9149" cy="56.8481" r="1.08627" fill="#081940"/>
<circle cx="16.6561" cy="55.0377" r="1.08627" fill="#081940"/>
<circle cx="13.7594" cy="53.2272" r="1.08627" fill="#081940"/>
<circle cx="10.8627" cy="51.0547" r="1.08627" fill="#081940"/>
<circle cx="7.96597" cy="48.158" r="1.08627" fill="#081940"/>
<circle cx="5.79342" cy="44.8991" r="1.08627" fill="#081940"/>
<circle cx="4.34503" cy="41.6403" r="1.08627" fill="#081940"/>
<circle cx="2.89668" cy="37.6573" r="1.08627" fill="#081940"/>
<circle cx="1.81044" cy="34.0364" r="1.08627" fill="#081940"/>
<circle cx="1.44833" cy="30.0534" r="1.08627" fill="#081940"/>
<circle cx="1.81044" cy="26.4326" r="1.08627" fill="#081940"/>
<circle cx="2.89668" cy="22.8117" r="1.08627" fill="#081940"/>
<circle cx="4.34503" cy="18.8287" r="1.08627" fill="#081940"/>
<path d="M25.1182 11.8459H28.5008C30.8786 12.3697 32.2116 12.3187 34.5894 11.8459C34.5894 11.8459 35.4534 12.3943 36.1299 12.3943C36.8064 12.3943 39.0534 12.0077 39.7299 13.3294C40.3923 14.6235 34.507 19.2161 34.8963 21.8885C36.3768 22.1767 34.9298 22.0566 34.9298 22.0566C35.6064 24.7 42.031 27.7063 43.3841 32.3322C44.7371 36.9582 43.7913 44.7829 41.2299 46.0566C38.6686 47.3304 25.5704 47.2985 22.0296 46.0566C18.4889 44.8148 19.0296 40.9233 19.0296 35.6365C19.0296 30.3497 24.4297 24.402 24.4297 21.7586C23.9654 21.9487 23.5738 21.9803 24.4219 21.5474C24.2262 18.7486 20.3999 11.829 21.0591 11.185C21.7357 10.5242 25.1182 11.8459 25.1182 11.8459Z" fill="#80A3B5"/>
<path d="M34.9298 22.0566C34.2533 19.4132 40.4064 14.6511 39.7299 13.3294C39.0534 12.0077 36.8064 12.3943 36.1299 12.3943C35.4534 12.3943 34.5894 11.8459 34.5894 11.8459C32.2116 12.3187 30.8786 12.3697 28.5008 11.8459H25.1182C25.1182 11.8459 21.7357 10.5242 21.0591 11.185C20.3826 11.8459 24.4297 19.1152 24.4297 21.7586M34.9298 22.0566C35.6064 24.7 42.031 27.7063 43.3841 32.3322C44.7371 36.9582 43.7913 44.7829 41.2299 46.0566C38.6686 47.3304 25.5704 47.2985 22.0296 46.0566C18.4889 44.8148 19.0296 40.9233 19.0296 35.6365C19.0296 30.3497 24.4297 24.402 24.4297 21.7586M34.9298 22.0566C34.9298 22.0566 36.7656 22.209 34.1859 21.7586C31.6062 21.3083 30.8364 21.0852 30.7298 21.1216C30.6232 21.158 27.2802 20.257 25.3297 21.1216C23.3792 21.9861 23.8472 21.9971 24.4297 21.7586" stroke="#4184A6"/>
<path d="M35.2138 40.0952C34.9188 40.0952 33.1488 40.6852 33.1488 40.6852C33.1488 40.6852 34.3288 41.5702 34.3288 41.8652C34.3288 42.1602 34.0338 42.4552 33.7388 42.7503C33.4438 43.0453 32.8538 43.0453 32.5588 43.0453C32.2638 43.0453 31.6738 42.7503 31.3788 42.4552C31.0838 42.1602 30.6797 41.3586 30.6797 41.3586C30.6797 41.3586 28.7904 41.6145 28.5091 41.6145H26.845C26.5677 41.9262 26.0687 42.4552 25.7737 42.7503C25.4787 43.0453 25.1837 43.0453 24.8887 43.0453C24.5937 43.0453 24.0037 43.0453 23.7086 42.7503C23.4136 42.4552 23.6177 42.1987 23.7086 41.8652C23.8801 41.2365 24.8887 40.6852 24.8887 40.6852C24.2903 40.1993 24.0939 40.108 23.567 39.0542C23.0401 38.0004 22.8559 37.4225 23.1186 36.2601C23.3814 35.0978 23.403 34.9762 23.7086 34.1951C24.1409 33.0905 24.8887 31.8351 25.1837 31.5401C25.4787 31.2451 26.9537 30.065 26.9537 30.065C26.9537 30.065 27.2487 28.885 27.5437 28.59C27.8387 28.295 28.4287 28.295 28.4287 28.295H29.0187C29.3137 28.295 29.3137 28 29.9038 28C30.4938 28 31.3788 28.885 31.6738 28.885H32.5588C32.5588 28.885 32.8538 28.885 33.1488 29.18C33.4438 29.475 33.4438 30.36 33.4438 30.36C34.0338 30.655 35.2138 32.1301 35.5088 32.7201C35.8038 33.3101 37.2789 36.5551 37.5739 36.8502C37.8689 37.1452 38.4589 37.1452 39.0489 37.1452C39.6389 37.1452 40.7003 37.7351 40.8189 38.0302C40.9376 38.3252 40.8795 38.5083 40.8189 39.2102C40.7583 39.9121 40.3618 41.1124 39.9339 41.2752C39.506 41.4381 39.3439 41.2752 39.0489 41.5702C38.7539 41.8652 38.7539 41.8652 37.8689 42.1602C36.9839 42.4552 36.6889 40.6852 36.3939 40.3902C36.0989 40.0952 35.5088 40.0952 35.2138 40.0952Z" fill="#FF7B34"/>
<path d="M33.1488 40.6852C33.1488 40.6852 34.9188 40.0952 35.2138 40.0952C35.5088 40.0952 36.0989 40.0952 36.3939 40.3902C36.6889 40.6852 36.9839 42.4552 37.8689 42.1602C38.7539 41.8652 38.7539 41.8652 39.0489 41.5702C39.3439 41.2752 39.506 41.4381 39.9339 41.2752C40.3618 41.1124 40.7583 39.9121 40.8189 39.2102C40.8795 38.5083 40.9376 38.3252 40.8189 38.0302C40.7003 37.7351 39.6389 37.1452 39.0489 37.1452C38.4589 37.1452 37.8689 37.1452 37.5739 36.8502C37.2789 36.5551 35.8038 33.3101 35.5088 32.7201C35.2138 32.1301 34.0338 30.655 33.4438 30.36M33.1488 40.6852L30.6797 41.3586M33.1488 40.6852C33.1488 40.6852 34.3288 41.5702 34.3288 41.8652C34.3288 42.1602 34.0338 42.4552 33.7388 42.7503C33.4438 43.0453 32.8538 43.0453 32.5588 43.0453C32.2638 43.0453 31.6738 42.7503 31.3788 42.4552C31.0838 42.1602 30.6797 41.3586 30.6797 41.3586M33.4438 30.36C32.8538 30.065 31.3788 29.77 30.7888 29.77C30.1988 29.77 29.3137 30.065 28.7237 30.36C28.1337 30.655 27.2487 31.5401 26.9537 31.5401C26.6587 31.5401 26.9537 31.5401 26.6587 31.5401C26.3637 31.5401 26.9537 30.065 26.9537 30.065M33.4438 30.36C33.4438 30.36 33.4438 29.475 33.1488 29.18C32.8538 28.885 32.5588 28.885 32.5588 28.885C32.5588 28.885 31.9688 28.885 31.6738 28.885C31.3788 28.885 30.4938 28 29.9038 28C29.3137 28 29.3137 28.295 29.0187 28.295C28.7237 28.295 28.4287 28.295 28.4287 28.295C28.4287 28.295 27.8387 28.295 27.5437 28.59C27.2487 28.885 26.9537 30.065 26.9537 30.065M26.9537 30.065C26.9537 30.065 25.4787 31.2451 25.1837 31.5401C24.8887 31.8351 24.1409 33.0905 23.7086 34.1951C23.403 34.9762 23.3814 35.0978 23.1186 36.2601C22.8559 37.4225 23.0401 38.0004 23.567 39.0542C24.0939 40.108 24.2903 40.1993 24.8887 40.6852M30.6797 41.3586C30.6797 41.3586 28.7904 41.6145 28.5091 41.6145C28.2278 41.6145 27.5392 41.6145 26.845 41.6145M26.845 41.6145C26.0687 41.2779 26.0687 41.2779 26.0687 41.2779C26.0687 41.2779 25.1273 40.8791 24.8887 40.6852M26.845 41.6145C26.5677 41.9262 26.0687 42.4552 25.7737 42.7503C25.4787 43.0453 25.1837 43.0453 24.8887 43.0453C24.5937 43.0453 24.0037 43.0453 23.7086 42.7503C23.4136 42.4552 23.6177 42.1987 23.7086 41.8652C23.8801 41.2365 24.8887 40.6852 24.8887 40.6852" stroke="#281502" stroke-width="0.75"/>
<path d="M26.6587 32.4251C25.7737 32.7201 24.8886 32.1301 24.8886 32.1301C25.0306 31.7303 25.17 31.5427 25.4787 31.2451L26.6587 30.36L26.3637 31.5401C26.3637 31.5401 26.3637 31.8351 26.6587 31.8351C26.9537 31.8351 27.2487 31.5401 27.2487 31.5401C27.9609 31.1313 28.4287 30.36 28.7237 30.36C29.0187 30.36 29.6087 30.6551 29.6087 30.6551L30.7887 31.2451C31.3788 31.5401 31.9688 32.1301 32.2638 32.7201C32.5588 33.3101 33.3606 34.8776 33.6972 36.1589C34.0338 37.4402 33.8197 38.2234 33.6972 38.8139C33.5747 39.4045 33.1488 40.3902 33.1488 40.3902C33.1672 40.5265 32.2859 40.8482 31.9688 40.9802C31.6516 41.1123 32.5588 40.6852 32.8538 39.5052C32.9975 38.9304 32.7467 37.987 32.7147 37.4402C32.6828 36.8933 32.7147 36.5552 32.1247 35.3751C31.5347 34.1951 30.8091 32.5769 29.9241 32.2819C29.0391 31.9869 29.0187 31.8351 28.4287 31.8351C27.8387 31.8351 27.5437 32.1301 26.6587 32.4251Z" fill="white" stroke="#281502" stroke-width="0.75"/>
<path d="M34.0338 32.4251C33.7388 31.8351 34.0338 30.95 34.0338 30.95C34.0338 30.95 34.9188 31.5401 35.2138 32.1301C35.5088 32.7201 36.1079 33.8475 36.3497 34.8522C36.5915 35.8568 35.2138 40.0952 34.9188 40.0952L33.7388 40.3902C34.4138 38.8233 34.7506 37.9359 34.9188 36.2601V34.7851C34.9188 33.9001 34.3288 33.0151 34.0338 32.4251Z" fill="white" stroke="#281502" stroke-width="0.75"/>
<path d="M38.4589 37.1452C38.2784 38.6633 37.9428 39.4523 36.6888 40.6852" stroke="#281502" stroke-width="0.75"/>
<path d="M25.4261 36.7799C25.4261 37.1348 25.1384 37.4225 24.7836 37.4225C24.4287 37.4225 24.141 37.1348 24.141 36.7799C24.141 36.425 24.4287 36.1373 24.7836 36.1373C25.1384 36.1373 25.4261 36.425 25.4261 36.7799Z" fill="#281502"/>
<path d="M30.5667 36.7799C30.5667 37.1348 30.279 37.4225 29.9241 37.4225C29.5692 37.4225 29.2815 37.1348 29.2815 36.7799C29.2815 36.425 29.5692 36.1373 29.9241 36.1373C30.279 36.1373 30.5667 36.425 30.5667 36.7799Z" fill="#281502"/>
</svg>
