<svg width="62" height="61" viewBox="0 0 62 61" fill="none" xmlns="http://www.w3.org/2000/svg">
<ellipse cx="30.5966" cy="30.2345" rx="30.5966" ry="30.2345" fill="#FFBD5B"/>
<ellipse cx="30.7776" cy="30.4156" rx="27.1567" ry="26.7946" fill="#3B0434"/>
<circle cx="5.79342" cy="15.9319" r="1.08627" fill="#081940"/>
<circle cx="7.96597" cy="12.3111" r="1.08627" fill="#081940"/>
<circle cx="11.2248" cy="9.05227" r="1.08627" fill="#081940"/>
<circle cx="14.1215" cy="6.87973" r="1.08627" fill="#081940"/>
<circle cx="17.3803" cy="4.70718" r="1.08627" fill="#081940"/>
<circle cx="21.0012" cy="3.25882" r="1.08627" fill="#081940"/>
<circle cx="24.6221" cy="2.17251" r="1.08627" fill="#081940"/>
<circle cx="28.605" cy="1.81045" r="1.08627" fill="#081940"/>
<circle cx="32.5881" cy="1.81045" r="1.08627" fill="#081940"/>
<circle cx="36.209" cy="2.17251" r="1.08627" fill="#081940"/>
<circle cx="39.4677" cy="3.25882" r="1.08627" fill="#081940"/>
<circle cx="43.0886" cy="4.34506" r="1.08627" fill="#081940"/>
<circle cx="45.9854" cy="6.15554" r="1.08627" fill="#081940"/>
<circle cx="48.52" cy="7.96597" r="1.08627" fill="#081940"/>
<circle cx="51.0547" cy="10.1385" r="1.08627" fill="#081940"/>
<circle cx="53.5893" cy="13.0352" r="1.08627" fill="#081940"/>
<circle cx="55.3997" cy="15.9319" r="1.08627" fill="#081940"/>
<circle cx="57.2102" cy="18.8287" r="1.08627" fill="#081940"/>
<circle cx="58.2964" cy="22.0875" r="1.08627" fill="#081940"/>
<circle cx="59.0206" cy="25.3463" r="1.08627" fill="#081940"/>
<circle cx="59.3827" cy="28.243" r="1.08627" fill="#081940"/>
<circle cx="59.3827" cy="31.8639" r="1.08627" fill="#081940"/>
<circle cx="59.0206" cy="35.4848" r="1.08627" fill="#081940"/>
<circle cx="58.2964" cy="38.7436" r="1.08627" fill="#081940"/>
<circle cx="57.2102" cy="41.6403" r="1.08627" fill="#081940"/>
<circle cx="55.7618" cy="44.537" r="1.08627" fill="#081940"/>
<circle cx="53.9514" cy="47.0717" r="1.08627" fill="#081940"/>
<circle cx="51.7788" cy="49.9684" r="1.08627" fill="#081940"/>
<circle cx="49.2442" cy="52.141" r="1.08627" fill="#081940"/>
<circle cx="46.7096" cy="53.9514" r="1.08627" fill="#081940"/>
<circle cx="43.8128" cy="55.7619" r="1.08627" fill="#081940"/>
<circle cx="40.554" cy="57.2102" r="1.08627" fill="#081940"/>
<circle cx="37.2952" cy="58.2965" r="1.08627" fill="#081940"/>
<circle cx="33.6743" cy="58.6585" r="1.08627" fill="#081940"/>
<circle cx="30.0534" cy="59.0206" r="1.08627" fill="#081940"/>
<circle cx="26.7946" cy="58.6585" r="1.08627" fill="#081940"/>
<circle cx="23.1737" cy="57.9344" r="1.08627" fill="#081940"/>
<circle cx="19.9149" cy="56.8481" r="1.08627" fill="#081940"/>
<circle cx="16.6561" cy="55.0376" r="1.08627" fill="#081940"/>
<circle cx="13.7594" cy="53.2272" r="1.08627" fill="#081940"/>
<circle cx="10.8627" cy="51.0547" r="1.08627" fill="#081940"/>
<circle cx="7.96597" cy="48.158" r="1.08627" fill="#081940"/>
<circle cx="5.79342" cy="44.8991" r="1.08627" fill="#081940"/>
<circle cx="4.34503" cy="41.6403" r="1.08627" fill="#081940"/>
<circle cx="2.89668" cy="37.6574" r="1.08627" fill="#081940"/>
<circle cx="1.81044" cy="34.0364" r="1.08627" fill="#081940"/>
<circle cx="1.44833" cy="30.0534" r="1.08627" fill="#081940"/>
<circle cx="1.81044" cy="26.4325" r="1.08627" fill="#081940"/>
<circle cx="2.89668" cy="22.8117" r="1.08627" fill="#081940"/>
<circle cx="4.34503" cy="18.8287" r="1.08627" fill="#081940"/>
<ellipse cx="30.5" cy="25.5" rx="12.5" ry="15.5" fill="#D9D9D9"/>
<path d="M21.1765 44.4286C20.3529 43.8571 13 44 16 38.8571C19 33.7143 18.5 24 18.5 24L42.5 25.5C42.5 25.5 47.5 39.1429 48 40.5714C48.5 42 46.5882 42.2857 46.5882 42.2857C46.5882 42.2857 45.5 44 44.2353 44.4286C42.9706 44.8571 41.5 44 40.4706 44.4286C39.4412 44.8571 39 46 38.1176 46.1429C37.2353 46.2857 33.5 46.1429 32.4706 46.1429C31.4412 46.1429 29 47 27.7647 47C26.5294 47 25.5 45 24.4706 44.4286C23.4412 43.8571 22 45 21.1765 44.4286Z" fill="#D9D9D9" stroke="#D9D9D9"/>
<path d="M28.5 23C28.5 25.2091 27.3284 27 26.5 27C25.6716 27 24.5 25.2091 24.5 23C24.5 20.7909 25.6716 19 26.5 19C27.3284 19 28.5 20.7909 28.5 23Z" fill="#1A0000"/>
<path d="M35.5 23C35.5 25.2091 34.3284 27 33.5 27C32.6716 27 31.5 25.2091 31.5 23C31.5 20.7909 32.6716 19 33.5 19C34.3284 19 35.5 20.7909 35.5 23Z" fill="#1A0000"/>
<path d="M33 31.5C33 32.8807 31.8807 35.5 30.5 35.5C29.1193 35.5 28 32.8807 28 31.5C28 30.1193 29.1193 29 30.5 29C31.8807 29 33 30.1193 33 31.5Z" fill="#1A0000"/>
</svg>
