<svg width="121" height="101" viewBox="0 0 121 101" fill="none" xmlns="http://www.w3.org/2000/svg">
<path d="M46.5065 98.5C44.5065 96.5 44.1827 93.2633 42.5065 90C40.3486 85.799 38.3023 83.868 36.5065 79.5C33.5645 72.3442 33.8901 67.6863 33.0065 60C32.336 54.1675 32.558 50.8449 32.0065 45C31.8819 43.6795 31.7101 42.2945 31.544 41C31.2673 38.8431 31.0065 36.9374 31.0065 36C31.0065 34.5 30.8559 33.3349 32.0065 32.5C33.2806 31.5754 34.5065 32 36.0065 33C37.5065 34 38.1354 35.8961 39.0065 38C39.4589 39.0928 39.6508 40.06 39.7624 41C39.9506 42.5863 39.9101 44.0953 40.5065 46C40.9692 47.4778 41.754 49.2225 42.5065 50.7455C43.5367 52.8305 44.5065 54.5 44.5065 54.5C44.5065 54.5 44.8555 47.7976 45.0065 43.5C45.5206 28.8644 44.5065 9 45.0065 6C45.5065 3 47.0065 2.5 47.5065 2.5C48.0065 2.5 51.0065 2 52.0065 5C53.0065 8 53.0065 22.5 53.0065 22.5C53.0065 22.5 52.5065 38 53.0065 39.5C53.5065 41 54.5065 42 54.5065 42C54.5065 42 55.5065 42 56.0065 40.5C56.5065 39 56.0065 33.491 56.0065 29V12.5C56.0065 8.98528 55.5065 6 56.0065 3.5C56.5065 1 58.5065 1 59.5065 1C60.5065 1 62.5065 2 63.5065 3.5C64.5065 5 64.5065 6.5 64.5065 11.5V23.5V35V40.5C64.5065 42 65.5065 43 65.5065 43C65.5065 43 67.0065 41 67.0065 39.5V31C67.0065 31 66.915 23.9901 67.0065 19.5C67.102 14.8106 67.0065 9.5 67.5065 7.5C68.0065 5.5 69.5065 4.5 71.0065 4.5C72.5065 4.5 74.0065 7 74.5065 8.5C75.0065 10 74.9004 14.8962 75.0065 19C75.1326 23.8799 75.0065 26.6184 75.0065 31.5C75.0065 35.6005 74.5065 39.5 75.0065 42C75.5065 44.5 76.0065 44.5 76.0065 44.5C76.0065 44.5 77.2259 43.1035 77.5065 42C77.747 41.0538 77.5065 40.4763 77.5065 39.5C77.5065 36.5711 77.3311 34.9237 77.5065 32C77.695 28.8571 78.0065 25.5 78.5065 24C79.0065 22.5 80.0065 22.5 81.0065 22.5C82.0065 22.5 83.0065 23.5 83.0065 25.5V35V41V48.5C83.0065 51.4289 83.0065 71.5 82.0065 75C81.0065 78.5 76.5065 84 76.0065 86C75.5065 88 76.5065 94 76.0065 97C75.5065 100 48.5065 100.5 46.5065 98.5Z" fill="#82487C"/>
<path d="M42.5065 90L43.1736 89.6573L42.5065 90ZM36.5065 79.5L37.2001 79.2148L36.5065 79.5ZM33.0065 60L32.2614 60.0857L33.0065 60ZM32.0065 45L31.2598 45.0705L32.0065 45ZM31.0065 36H30.2565H31.0065ZM32.0065 32.5L31.566 31.893L32.0065 32.5ZM39.0065 38L38.3135 38.2869L39.0065 38ZM44.5065 54.5L43.8579 54.8767C44.0246 55.1637 44.3601 55.307 44.6826 55.229C45.0052 55.1511 45.2382 54.8704 45.2555 54.539L44.5065 54.5ZM45.0065 43.5L44.2569 43.4737L45.0065 43.5ZM53.0065 22.5L53.7561 22.5242L53.7565 22.5121V22.5H53.0065ZM54.5065 42L53.9761 42.5303C54.1168 42.671 54.3076 42.75 54.5065 42.75V42ZM56.0065 3.5L56.7419 3.64709L56.0065 3.5ZM64.5065 11.5L63.7565 11.5V11.5H64.5065ZM65.5065 43L64.9761 43.5303C65.1299 43.6841 65.3428 43.7635 65.5596 43.7481C65.7765 43.7327 65.976 43.6239 66.1065 43.45L65.5065 43ZM67.0065 39.5L67.7565 39.5V39.5H67.0065ZM67.0065 31H67.7565L67.7564 30.9902L67.0065 31ZM67.0065 19.5L67.7563 19.5153L67.0065 19.5ZM75.0065 19L75.7562 18.9806L75.0065 19ZM76.0065 44.5V45.25C76.223 45.25 76.429 45.1564 76.5714 44.9933L76.0065 44.5ZM77.5065 42L76.7796 41.8152L77.5065 42ZM77.5065 32L76.7578 31.9551V31.9551L77.5065 32ZM83.0065 25.5H83.7565V25.5L83.0065 25.5ZM47.5677 56.5025C47.2929 56.1925 46.8189 56.164 46.5089 56.4388C46.199 56.7136 46.1705 57.1876 46.4453 57.4975L47.5677 56.5025ZM55.5065 70L56.2128 69.7478L55.5065 70ZM56.258 86.4514C56.2312 86.8648 56.5445 87.2216 56.9579 87.2484C57.3712 87.2753 57.7281 86.9619 57.7549 86.5486L56.258 86.4514ZM49.5809 52.7537C49.1687 52.7126 48.8013 53.0134 48.7602 53.4256C48.7191 53.8377 49.0199 54.2052 49.432 54.2463L49.5809 52.7537ZM55.0065 54.5L54.78 55.215H54.78L55.0065 54.5ZM71.5065 63.5L71.1857 64.1779L71.5065 63.5ZM79.5568 65.2483C79.9701 65.2205 80.2826 64.8629 80.2548 64.4497C80.227 64.0364 79.8694 63.7239 79.4561 63.7517L79.5568 65.2483ZM50.9876 44.4246C50.6698 44.1589 50.1968 44.2011 49.9311 44.5189C49.6654 44.8367 49.7076 45.3097 50.0254 45.5754L50.9876 44.4246ZM62.0065 51L62.0939 50.2551H62.0939L62.0065 51ZM72.5065 52L72.5557 51.2516H72.5557L72.5065 52ZM76.2076 52.2225C76.6066 52.1115 76.8401 51.698 76.729 51.2989C76.618 50.8999 76.2044 50.6664 75.8054 50.7775L76.2076 52.2225ZM62.7426 46.8563C62.6632 46.4498 62.2693 46.1845 61.8628 46.2639C61.4562 46.3433 61.191 46.7372 61.2704 47.1437L62.7426 46.8563ZM64.0065 79L64.745 79.1307L64.0065 79ZM59.3142 91.2114C59.1548 91.5937 59.3356 92.0329 59.7179 92.1923C60.1002 92.3516 60.5393 92.1709 60.6987 91.7886L59.3142 91.2114ZM74.2172 47.7394C74.3495 47.3469 74.1385 46.9215 73.7459 46.7893C73.3534 46.657 72.928 46.868 72.7957 47.2606L74.2172 47.7394ZM72.0065 77.5L72.7531 77.5714L72.0065 77.5ZM70.0065 87L69.3204 86.697L70.0065 87ZM66.3958 91.5645C66.1553 91.9018 66.2338 92.3701 66.571 92.6106C66.9083 92.8511 67.3766 92.7727 67.6171 92.4355L66.3958 91.5645ZM47.3419 14.3292C46.9714 14.1439 46.5209 14.2941 46.3356 14.6646C46.1504 15.0351 46.3006 15.4856 46.6711 15.6708L47.3419 14.3292ZM51.3419 15.6708C51.7124 15.4856 51.8625 15.0351 51.6773 14.6646C51.492 14.2941 51.0415 14.1439 50.6711 14.3292L51.3419 15.6708ZM33.5065 39L32.8464 38.6439H32.8464L33.5065 39ZM40.5065 46L41.2222 45.7759L40.5065 46ZM38.0065 43L37.5219 42.4276L37.5219 42.4276L38.0065 43ZM35.1882 43.8209C34.8131 43.9967 34.6516 44.4432 34.8273 44.8183C35.0031 45.1933 35.4497 45.3549 35.8247 45.1791L35.1882 43.8209ZM42.5065 50.7455L43.1789 50.4132H43.1789L42.5065 50.7455ZM40.5065 54L40.9523 54.6031H40.9523L40.5065 54ZM37.4079 54.2565C36.9973 54.3109 36.7086 54.6879 36.763 55.0985C36.8174 55.5092 37.1944 55.7979 37.605 55.7435L37.4079 54.2565ZM46.5065 98.5L47.0368 97.9697C46.1612 97.0941 45.6256 95.9214 45.0888 94.4645C44.5657 93.0444 44.0394 91.3429 43.1736 89.6573L42.5065 90L41.8393 90.3427C42.6498 91.9204 43.1235 93.4689 43.6813 94.983C44.2255 96.4602 44.8518 97.9059 45.9761 99.0303L46.5065 98.5ZM42.5065 90L43.1736 89.6573C42.0732 87.515 40.9961 85.9435 40.0003 84.4051C39.0044 82.8664 38.0723 81.3363 37.2001 79.2148L36.5065 79.5L35.8128 79.7852C36.7364 82.0317 37.7255 83.6511 38.7411 85.2202C39.7569 86.7895 40.7819 88.284 41.8393 90.3427L42.5065 90ZM36.5065 79.5L37.2001 79.2148C34.3105 72.1864 34.6475 67.7072 33.7516 59.9143L33.0065 60L32.2614 60.0857C33.1328 67.6654 32.8185 72.5021 35.8128 79.7852L36.5065 79.5ZM33.0065 60L33.7516 59.9143C33.4195 57.0256 33.3082 54.7584 33.2112 52.4729C33.1141 50.1865 33.0311 47.8747 32.7532 44.9295L32.0065 45L31.2598 45.0705C31.5334 47.9702 31.6151 50.2422 31.7125 52.5365C31.81 54.8316 31.923 57.142 32.2614 60.0857L33.0065 60ZM31.0065 36H31.7565C31.7565 35.1822 31.7228 34.63 31.8129 34.1349C31.8901 33.7109 32.0516 33.3939 32.447 33.107L32.0065 32.5L31.566 31.893C30.8108 32.441 30.4723 33.124 30.3372 33.8662C30.2149 34.5375 30.2565 35.3178 30.2565 36H31.0065ZM32.0065 32.5L32.447 33.107C32.9233 32.7614 33.3429 32.6875 33.7911 32.7668C34.2865 32.8545 34.8617 33.1382 35.5905 33.624L36.0065 33L36.4225 32.376C35.6512 31.8618 34.8636 31.4333 34.0524 31.2898C33.1942 31.1379 32.3638 31.314 31.566 31.893L32.0065 32.5ZM36.0065 33L35.5905 33.624C36.1945 34.0267 36.6543 34.629 37.0786 35.4353C37.5109 36.2568 37.8635 37.1998 38.3135 38.2869L39.0065 38L39.6994 37.7131C39.2784 36.6963 38.881 35.6393 38.406 34.7368C37.9231 33.819 37.3185 32.9733 36.4225 32.376L36.0065 33ZM44.5065 54.5C45.2555 54.539 45.2555 54.539 45.2555 54.5389C45.2555 54.5389 45.2555 54.5388 45.2555 54.5387C45.2555 54.5385 45.2555 54.5382 45.2555 54.5378C45.2556 54.5369 45.2556 54.5357 45.2557 54.5341C45.2559 54.5308 45.2561 54.5259 45.2565 54.5195C45.2571 54.5067 45.2581 54.4875 45.2594 54.4624C45.262 54.4122 45.2659 54.338 45.2708 54.2421C45.2806 54.0502 45.2949 53.7714 45.3124 53.4234C45.3475 52.7274 45.3959 51.7547 45.449 50.6475C45.5552 48.4341 45.6804 45.6801 45.756 43.5263L45.0065 43.5L44.2569 43.4737C44.1816 45.6174 44.0568 48.3634 43.9507 50.5757C43.8977 51.6813 43.8494 52.6528 43.8143 53.3478C43.7968 53.6953 43.7826 53.9737 43.7728 54.1652C43.7678 54.2609 43.764 54.3349 43.7614 54.3849C43.7601 54.41 43.7592 54.429 43.7585 54.4418C43.7582 54.4482 43.7579 54.453 43.7577 54.4562C43.7577 54.4578 43.7576 54.459 43.7576 54.4598C43.7575 54.4602 43.7575 54.4605 43.7575 54.4607C43.7575 54.4608 43.7575 54.4609 43.7575 54.4609C43.7575 54.461 43.7575 54.461 44.5065 54.5ZM45.0065 43.5L45.756 43.5263C46.0139 36.1858 45.8884 27.5417 45.7617 20.3734C45.6982 16.7847 45.6345 13.5693 45.6178 11.0619C45.6009 8.51978 45.6345 6.79399 45.7463 6.1233L45.0065 6L44.2667 5.8767C44.1285 6.70601 44.1013 8.58827 44.1179 11.0719C44.1346 13.5901 44.1986 16.818 44.2619 20.3999C44.3887 27.5727 44.5132 36.1786 44.2569 43.4737L45.0065 43.5ZM45.0065 6L45.7463 6.1233C45.9776 4.73506 46.4243 4.01784 46.7868 3.65533C46.9695 3.47261 47.1399 3.37042 47.2707 3.31436C47.3367 3.28606 47.3927 3.26949 47.4353 3.26023C47.4566 3.25561 47.4737 3.25297 47.4864 3.25153C47.4927 3.25081 47.4976 3.25042 47.5011 3.25021C47.5028 3.25011 47.5041 3.25006 47.5051 3.25003C47.5055 3.25001 47.5059 3.25001 47.5061 3.25C47.5062 3.25 47.5063 3.25 47.5064 3.25C47.5067 3.25 47.5062 3.25 47.5065 3.25C47.5067 3.25 47.5062 3.25 47.5065 3.25V2.5V1.75C46.537 1.75 44.8083 2.62689 44.2667 5.8767L45.0065 6ZM47.5065 2.5V3.25C48.2344 3.25 50.5004 2.85341 51.295 5.23717L52.0065 5L52.718 4.76283C52.1253 2.98473 50.9011 2.20404 49.7622 1.90032C49.2099 1.75304 48.687 1.71875 48.2799 1.71875C48.0753 1.71875 47.8968 1.72747 47.758 1.73569C47.6351 1.74297 47.6831 1.74059 47.5843 1.74642C47.5613 1.74777 47.5434 1.74872 47.5291 1.74932C47.5221 1.74961 47.5167 1.74979 47.5127 1.74989C47.5107 1.74994 47.5092 1.74997 47.5081 1.74998C47.5076 1.74999 47.5072 1.75 47.5069 1.75C47.5065 1.75 47.5069 1.75 47.5066 1.75C47.5063 1.75 47.5067 1.75 47.5065 1.75V2.5ZM52.0065 5L51.295 5.23717C51.5111 5.88569 51.695 7.26162 51.8369 9.05903C51.9762 10.8232 52.0695 12.9035 52.1318 14.8984C52.1941 16.8918 52.2253 18.7928 52.2409 20.1958C52.2487 20.8972 52.2526 21.4737 52.2545 21.8747C52.2555 22.0752 52.256 22.2318 52.2562 22.3381C52.2564 22.3913 52.2564 22.4319 52.2564 22.4591C52.2565 22.4728 52.2565 22.483 52.2565 22.4899C52.2565 22.4933 52.2565 22.4959 52.2565 22.4976C52.2565 22.4984 52.2565 22.499 52.2565 22.4994C52.2565 22.4996 52.2565 22.4998 52.2565 22.4999C52.2565 22.5 52.2565 22.5 53.0065 22.5C53.7565 22.5 53.7565 22.4999 53.7565 22.4998C53.7565 22.4997 53.7565 22.4995 53.7565 22.4992C53.7565 22.4988 53.7565 22.4981 53.7565 22.4972C53.7565 22.4953 53.7565 22.4926 53.7565 22.4891C53.7565 22.4819 53.7565 22.4714 53.7564 22.4575C53.7564 22.4297 53.7564 22.3885 53.7562 22.3347C53.756 22.2272 53.7555 22.0693 53.7545 21.8675C53.7526 21.4638 53.7486 20.8841 53.7408 20.1792C53.7251 18.7697 53.6938 16.8582 53.6311 14.8516C53.5685 12.8465 53.4742 10.7393 53.3323 8.94097C53.1929 7.17588 53.0018 5.61431 52.718 4.76283L52.0065 5ZM53.0065 22.5C52.2569 22.4758 52.2569 22.4759 52.2569 22.476C52.2569 22.4761 52.2568 22.4763 52.2568 22.4766C52.2568 22.4771 52.2568 22.4778 52.2568 22.4787C52.2567 22.4807 52.2566 22.4835 52.2565 22.4873C52.2563 22.4948 52.2559 22.506 52.2554 22.5208C52.2545 22.5503 52.2531 22.594 52.2513 22.6511C52.2478 22.7653 52.2427 22.9329 52.2363 23.1466C52.2236 23.5741 52.206 24.1863 52.1864 24.9255C52.1473 26.4037 52.1004 28.391 52.0691 30.426C52.0378 32.4596 52.022 34.5464 52.0456 36.2215C52.0574 37.0582 52.0791 37.7999 52.1143 38.384C52.1318 38.6756 52.1532 38.9356 52.1796 39.1523C52.2042 39.3553 52.2383 39.5673 52.295 39.7372L53.0065 39.5L53.718 39.2628C53.7183 39.2637 53.7162 39.2576 53.7126 39.2424C53.709 39.2277 53.7046 39.2076 53.6997 39.1813C53.6898 39.1283 53.6792 39.0588 53.6686 38.9714C53.6473 38.7963 53.6282 38.5695 53.6116 38.2938C53.5784 37.7431 53.5571 37.0277 53.5455 36.2004C53.5222 34.5474 53.5377 32.4779 53.5689 30.449C53.6001 28.4215 53.6469 26.4401 53.6859 24.9651C53.7054 24.2278 53.723 23.6173 53.7356 23.1912C53.742 22.9782 53.7471 22.8113 53.7506 22.6977C53.7524 22.6409 53.7538 22.5975 53.7547 22.5683C53.7551 22.5537 53.7555 22.5426 53.7557 22.5352C53.7558 22.5315 53.7559 22.5287 53.756 22.5269C53.756 22.526 53.7561 22.5253 53.7561 22.5248C53.7561 22.5246 53.7561 22.5244 53.7561 22.5243C53.7561 22.5242 53.7561 22.5242 53.0065 22.5ZM53.0065 39.5L52.295 39.7372C52.5754 40.5784 52.9922 41.2704 53.3337 41.7484C53.5054 41.9889 53.661 42.1792 53.7756 42.3115C53.8331 42.3778 53.8805 42.4297 53.9148 42.4665C53.932 42.4848 53.946 42.4994 53.9563 42.5101C53.9615 42.5154 53.9657 42.5198 53.9691 42.5232C53.9707 42.5249 53.9722 42.5263 53.9733 42.5275C53.9739 42.5281 53.9745 42.5286 53.9749 42.5291C53.9752 42.5293 53.9754 42.5296 53.9756 42.5298C53.9757 42.5299 53.9758 42.53 53.9759 42.5301C53.976 42.5302 53.9761 42.5303 54.5065 42C55.0368 41.4697 55.0369 41.4698 55.0371 41.4699C55.0371 41.47 55.0372 41.4701 55.0373 41.4701C55.0374 41.4703 55.0375 41.4704 55.0377 41.4705C55.0379 41.4708 55.0381 41.4709 55.0382 41.471C55.0384 41.4713 55.0384 41.4712 55.0381 41.471C55.0376 41.4705 55.0362 41.469 55.0339 41.4667C55.0294 41.462 55.0214 41.4536 55.0102 41.4417C54.988 41.4179 54.9533 41.3801 54.9092 41.3291C54.8207 41.227 54.695 41.0736 54.5543 40.8766C54.2707 40.4796 53.9376 39.9216 53.718 39.2628L53.0065 39.5ZM54.5065 42C54.5065 42.75 54.507 42.75 54.5076 42.75C54.5078 42.75 54.5083 42.75 54.5087 42.75C54.5095 42.75 54.5103 42.75 54.5111 42.75C54.5127 42.75 54.5144 42.75 54.5161 42.7499C54.5196 42.7499 54.5233 42.7498 54.5274 42.7497C54.5354 42.7495 54.5445 42.7492 54.5547 42.7487C54.575 42.7477 54.5994 42.746 54.6276 42.7431C54.6839 42.7373 54.7556 42.7266 54.8392 42.7074C55.0065 42.6688 55.2223 42.5951 55.4548 42.4556C55.9343 42.1679 56.4165 41.6415 56.718 40.7372L56.0065 40.5L55.295 40.2628C55.0964 40.8585 54.8286 41.0821 54.6831 41.1694C54.6031 41.2174 54.5377 41.2375 54.5019 41.2458C54.4839 41.2499 54.4736 41.251 54.4732 41.2511C54.4731 41.2511 54.4756 41.2508 54.481 41.2505C54.4837 41.2504 54.4871 41.2503 54.4914 41.2502C54.4935 41.2501 54.4958 41.2501 54.4983 41.25C54.4996 41.25 54.5009 41.25 54.5022 41.25C54.5029 41.25 54.5036 41.25 54.5043 41.25C54.5047 41.25 54.5052 41.25 54.5054 41.25C54.5059 41.25 54.5065 41.25 54.5065 42ZM56.0065 40.5L56.718 40.7372C56.882 40.2451 56.9438 39.5171 56.9671 38.7239C56.9912 37.9032 56.975 36.9153 56.9436 35.8496C56.8805 33.7004 56.7565 31.2313 56.7565 29H56.0065H55.2565C55.2565 31.2597 55.3825 33.7907 55.4443 35.8937C55.4755 36.9541 55.4905 37.9054 55.4677 38.6798C55.4442 39.4818 55.3809 40.0049 55.295 40.2628L56.0065 40.5ZM56.0065 29H56.7565V12.5H56.0065H55.2565V29H56.0065ZM56.0065 12.5H56.7565C56.7565 10.7227 56.6294 9.05199 56.5683 7.58822C56.5061 6.09787 56.5107 4.8031 56.7419 3.64709L56.0065 3.5L55.271 3.35291C55.0022 4.6969 55.0068 6.14477 55.0696 7.65074C55.1336 9.18329 55.2565 10.7625 55.2565 12.5H56.0065ZM56.0065 3.5L56.7419 3.64709C56.9468 2.62279 57.4213 2.20347 57.8793 1.99527C58.3991 1.75902 58.9914 1.75 59.5065 1.75V1V0.25C59.0215 0.25 58.1139 0.240977 57.2586 0.629725C56.3417 1.04653 55.5662 1.87721 55.271 3.35291L56.0065 3.5ZM59.5065 1V1.75C59.8149 1.75 60.4287 1.92708 61.1286 2.33533C61.8085 2.73194 62.4618 3.28513 62.8824 3.91602L63.5065 3.5L64.1305 3.08398C63.5511 2.21487 62.7045 1.51806 61.8844 1.03967C61.0843 0.572924 60.1981 0.25 59.5065 0.25V1ZM63.5065 3.5L62.8824 3.91602C63.2989 4.54078 63.5199 5.16645 63.6356 6.26601C63.7554 7.4044 63.7565 8.98046 63.7565 11.5L64.5065 11.5L65.2565 11.5C65.2565 9.01954 65.2575 7.3456 65.1274 6.10899C64.9931 4.83355 64.714 3.95922 64.1305 3.08398L63.5065 3.5ZM64.5065 11.5H63.7565V23.5H64.5065H65.2565V11.5H64.5065ZM64.5065 23.5H63.7565V35H64.5065H65.2565V23.5H64.5065ZM64.5065 35H63.7565V40.5H64.5065H65.2565V35H64.5065ZM64.5065 40.5H63.7565C63.7565 41.4178 64.062 42.1713 64.3553 42.6846C64.5028 42.9428 64.651 43.1468 64.7646 43.2888C64.8216 43.3601 64.8704 43.4164 64.9069 43.4568C64.9252 43.4771 64.9404 43.4934 64.9521 43.5056C64.958 43.5118 64.963 43.5169 64.967 43.521C64.969 43.5231 64.9708 43.5249 64.9723 43.5265C64.9731 43.5272 64.9738 43.5279 64.9744 43.5286C64.9747 43.5289 64.975 43.5292 64.9753 43.5295C64.9755 43.5297 64.9757 43.5299 64.9757 43.5299C64.9759 43.5301 64.9761 43.5303 65.5065 43C66.0368 42.4697 66.037 42.4699 66.0372 42.47C66.0372 42.4701 66.0374 42.4703 66.0375 42.4704C66.0378 42.4706 66.038 42.4708 66.0382 42.4711C66.0386 42.4715 66.0389 42.4718 66.0392 42.4721C66.0398 42.4727 66.0401 42.473 66.0402 42.4731C66.0405 42.4734 66.0398 42.4727 66.0383 42.4712C66.0354 42.4681 66.0292 42.4614 66.0201 42.4514C66.0019 42.4313 65.9726 42.3977 65.9359 42.3518C65.862 42.2594 65.7601 42.1197 65.6577 41.9404C65.451 41.5787 65.2565 41.0822 65.2565 40.5H64.5065ZM65.5065 43C66.1065 43.45 66.1066 43.4499 66.1067 43.4498C66.1067 43.4497 66.1068 43.4496 66.1069 43.4495C66.107 43.4493 66.1072 43.449 66.1074 43.4488C66.1078 43.4483 66.1083 43.4476 66.1088 43.4468C66.11 43.4453 66.1115 43.4433 66.1134 43.4408C66.1171 43.4357 66.1222 43.4288 66.1286 43.4201C66.1414 43.4025 66.1594 43.3777 66.1819 43.3461C66.2269 43.2829 66.2899 43.1926 66.3649 43.0801C66.5144 42.8558 66.7142 42.5395 66.9149 42.1716C67.298 41.4693 67.7565 40.4516 67.7565 39.5L67.0065 39.5L66.2565 39.5C66.2565 40.0484 65.965 40.7807 65.5981 41.4534C65.4237 41.773 65.2485 42.0505 65.1168 42.248C65.0512 42.3465 64.997 42.4241 64.9599 42.4762C64.9414 42.5022 64.9272 42.5218 64.918 42.5343C64.9135 42.5406 64.9102 42.545 64.9082 42.5477C64.9072 42.549 64.9066 42.5499 64.9063 42.5503C64.9061 42.5504 64.9061 42.5505 64.9061 42.5505C64.9061 42.5505 64.9062 42.5504 64.9062 42.5503C64.9063 42.5503 64.9063 42.5502 64.9063 42.5502C64.9064 42.5501 64.9065 42.55 65.5065 43ZM67.0065 39.5H67.7565V31H67.0065H66.2565V39.5H67.0065ZM67.0065 31C67.7564 30.9902 67.7564 30.9902 67.7564 30.9902C67.7564 30.9901 67.7564 30.99 67.7564 30.9899C67.7564 30.9897 67.7564 30.9894 67.7564 30.989C67.7564 30.9882 67.7564 30.9869 67.7563 30.9852C67.7563 30.9819 67.7562 30.9769 67.7562 30.9702C67.756 30.9569 67.7557 30.937 67.7554 30.9109C67.7548 30.8587 67.7538 30.7814 67.7527 30.6813C67.7504 30.4813 67.7471 30.1904 67.7436 29.8272C67.7364 29.1008 67.7279 28.0855 67.7222 26.9301C67.7107 24.6175 67.7108 21.7504 67.7563 19.5153L67.0065 19.5L66.2566 19.4847C66.2107 21.7397 66.2107 24.6226 66.2222 26.9375C66.2279 28.0958 66.2365 29.1137 66.2436 29.8419C66.2472 30.2061 66.2505 30.4979 66.2528 30.6987C66.2539 30.7991 66.2549 30.8768 66.2555 30.9294C66.2559 30.9558 66.2561 30.9758 66.2563 30.9893C66.2564 30.996 66.2564 31.0011 66.2565 31.0046C66.2565 31.0063 66.2565 31.0076 66.2565 31.0084C66.2565 31.0089 66.2565 31.0092 66.2565 31.0094C66.2565 31.0095 66.2565 31.0096 66.2565 31.0097C66.2565 31.0098 66.2565 31.0098 67.0065 31ZM67.0065 19.5L67.7563 19.5153C67.8052 17.1154 67.8033 14.7049 67.8546 12.509C67.9057 10.3232 68.0083 8.5851 68.2341 7.6819L67.5065 7.5L66.7789 7.3181C66.5047 8.4149 66.4051 10.3322 66.355 12.474C66.3052 14.6057 66.3033 17.1952 66.2566 19.4847L67.0065 19.5ZM67.5065 7.5L68.2341 7.6819C68.6543 6.0011 69.8655 5.25 71.0065 5.25V4.5V3.75C69.1474 3.75 67.3587 4.9989 66.7789 7.3181L67.5065 7.5ZM71.0065 4.5V5.25C71.1712 5.25 71.3951 5.32006 71.6787 5.52347C71.9595 5.72494 72.2523 6.0247 72.537 6.39478C73.1084 7.13758 73.57 8.06242 73.795 8.73717L74.5065 8.5L75.218 8.26283C74.9429 7.43758 74.4046 6.36241 73.7259 5.48022C73.3856 5.0378 72.991 4.61881 72.553 4.30466C72.1178 3.99244 71.5917 3.75 71.0065 3.75V4.5ZM74.5065 8.5L73.795 8.73717C73.8893 9.02025 73.9716 9.52942 74.0333 10.2595C74.0935 10.9717 74.1299 11.8354 74.1544 12.7928C74.1789 13.749 74.1912 14.7871 74.204 15.8481C74.2167 16.9068 74.23 17.9874 74.2567 19.0194L75.0065 19L75.7562 18.9806C75.7299 17.9607 75.7166 16.8904 75.7038 15.83C75.6911 14.7718 75.6787 13.7227 75.6539 12.7544C75.6292 11.7873 75.5918 10.8892 75.528 10.1332C75.4656 9.39511 75.3736 8.72975 75.218 8.26283L74.5065 8.5ZM75.0065 19L74.2567 19.0194C74.3826 23.889 74.2565 26.5863 74.2565 31.5H75.0065H75.7565C75.7565 26.6506 75.8827 23.8708 75.7562 18.9806L75.0065 19ZM75.0065 31.5H74.2565C74.2565 33.5336 74.1329 35.496 74.0694 37.3242C74.0071 39.1191 74.0017 40.8006 74.271 42.1471L75.0065 42L75.7419 41.8529C75.5112 40.6994 75.5058 39.1811 75.5685 37.3762C75.63 35.6045 75.7565 33.5669 75.7565 31.5H75.0065ZM75.0065 42L74.271 42.1471C74.5272 43.4281 74.7979 44.1517 75.0509 44.5734C75.1798 44.7883 75.3221 44.9551 75.4846 45.0712C75.5675 45.1304 75.6553 45.1761 75.7468 45.2066C75.7923 45.2218 75.8373 45.2327 75.8813 45.2398C75.9033 45.2434 75.9247 45.2459 75.9457 45.2476C75.9562 45.2484 75.9665 45.249 75.9766 45.2494C75.9817 45.2496 75.9867 45.2498 75.9917 45.2499C75.9942 45.2499 75.9967 45.2499 75.9991 45.25C76.0003 45.25 76.0022 45.25 76.0028 45.25C76.0046 45.25 76.0065 45.25 76.0065 44.5C76.0065 43.75 76.0083 43.75 76.0101 43.75C76.0107 43.75 76.0126 43.75 76.0138 43.75C76.0162 43.7501 76.0187 43.7501 76.0211 43.7501C76.0259 43.7502 76.0308 43.7504 76.0356 43.7506C76.0453 43.7509 76.0549 43.7515 76.0644 43.7523C76.0834 43.7538 76.102 43.756 76.1202 43.759C76.1566 43.7648 76.1904 43.7733 76.2212 43.7836C76.2834 43.8044 76.3283 43.8305 76.3565 43.8506C76.4096 43.8886 76.3957 43.8992 76.3371 43.8016C76.2151 43.5983 75.9857 43.0719 75.7419 41.8529L75.0065 42ZM76.0065 44.5C76.5714 44.9933 76.5715 44.9932 76.5716 44.9931C76.5716 44.9931 76.5717 44.993 76.5717 44.9929C76.5719 44.9928 76.572 44.9926 76.5722 44.9924C76.5725 44.9921 76.5729 44.9916 76.5734 44.991C76.5743 44.99 76.5756 44.9885 76.5771 44.9868C76.5802 44.9832 76.5844 44.9783 76.5896 44.9722C76.6002 44.9599 76.615 44.9425 76.6337 44.9203C76.6709 44.876 76.7234 44.8126 76.7867 44.7335C76.9131 44.5758 77.0847 44.3532 77.2663 44.093C77.6142 43.5946 78.0576 42.876 78.2334 42.1848L77.5065 42L76.7796 41.8152C76.6748 42.2274 76.3683 42.7588 76.0363 43.2346C75.8779 43.4614 75.7271 43.657 75.6161 43.7956C75.5607 43.8647 75.5157 43.919 75.4852 43.9554C75.4699 43.9736 75.4583 43.9872 75.4508 43.9959C75.4471 44.0002 75.4444 44.0033 75.4429 44.0052C75.4421 44.0061 75.4416 44.0067 75.4413 44.0069C75.4412 44.007 75.4412 44.0071 75.4412 44.0071C75.4412 44.007 75.4413 44.007 75.4413 44.0069C75.4414 44.0069 75.4414 44.0069 75.4414 44.0068C75.4415 44.0068 75.4415 44.0067 76.0065 44.5ZM77.5065 42L78.2334 42.1848C78.3806 41.6056 78.3783 41.1363 78.3444 40.7028C78.3091 40.2515 78.2565 39.9513 78.2565 39.5H77.5065H76.7565C76.7565 40.0251 76.8241 40.5017 76.849 40.8197C76.8752 41.1556 76.8729 41.4481 76.7796 41.8152L77.5065 42ZM77.5065 39.5H78.2565C78.2565 36.4966 78.0811 34.9448 78.2551 32.0449L77.5065 32L76.7578 31.9551C76.581 34.9025 76.7565 36.6455 76.7565 39.5H77.5065ZM77.5065 32L78.2551 32.0449C78.349 30.4803 78.473 28.8705 78.6347 27.47C78.7986 26.0514 78.995 24.9062 79.218 24.2372L78.5065 24L77.795 23.7628C77.518 24.5938 77.3087 25.8772 77.1446 27.2979C76.9785 28.7367 76.8525 30.3768 76.7578 31.9551L77.5065 32ZM78.5065 24L79.218 24.2372C79.4141 23.6489 79.6607 23.4642 79.8644 23.3769C80.1349 23.2609 80.4722 23.25 81.0065 23.25V22.5V21.75C80.5408 21.75 79.878 21.7391 79.2735 21.9981C78.6022 22.2858 78.0989 22.8511 77.795 23.7628L78.5065 24ZM81.0065 22.5V23.25C81.4065 23.25 82.2565 23.7 82.2565 25.5L83.0065 25.5L83.7565 25.5C83.7565 23.3 82.6065 21.75 81.0065 21.75V22.5ZM83.0065 25.5H82.2565V35H83.0065H83.7565V25.5H83.0065ZM83.0065 35H82.2565V41H83.0065H83.7565V35H83.0065ZM83.0065 41H82.2565V48.5H83.0065H83.7565V41H83.0065ZM83.0065 48.5H82.2565C82.2565 49.964 82.2565 55.707 82.1316 61.5197C82.0692 64.4268 81.9757 67.3449 81.8359 69.7512C81.6939 72.1939 81.508 74.0146 81.2853 74.794L82.0065 75L82.7276 75.206C83.005 74.2353 83.1941 72.2347 83.3333 69.8382C83.4747 67.4053 83.5687 64.4663 83.6313 61.5519C83.7565 55.7219 83.7565 49.965 83.7565 48.5H83.0065ZM82.0065 75L81.2853 74.794C80.8212 76.4185 79.5148 78.5721 78.1862 80.6598C77.5367 81.6806 76.8854 82.6815 76.3701 83.5455C75.8688 84.3863 75.4346 85.1952 75.2789 85.8181L76.0065 86L76.7341 86.1819C76.8284 85.8048 77.1442 85.1762 77.6585 84.3138C78.1589 83.4747 78.7888 82.5069 79.4517 81.4651C80.7482 79.4279 82.1918 77.0815 82.7276 75.206L82.0065 75ZM76.0065 86L75.2789 85.8181C75.1274 86.4241 75.1003 87.2635 75.116 88.1538C75.1319 89.0634 75.1956 90.1123 75.2578 91.169C75.3848 93.3279 75.4996 95.4792 75.2667 96.8767L76.0065 97L76.7463 97.1233C77.0134 95.5208 76.8782 93.172 76.7552 91.081C76.6923 90.0126 76.631 88.9991 76.6157 88.1275C76.6001 87.2365 76.6356 86.5759 76.7341 86.1819L76.0065 86ZM76.0065 97L75.2667 96.8767C75.2814 96.7886 75.3229 96.8155 75.167 96.9315C75.0208 97.0404 74.7769 97.1692 74.4136 97.3057C73.6913 97.5771 72.6437 97.8255 71.3445 98.0414C68.7563 98.4715 65.3076 98.751 61.7924 98.8755C58.28 98.9998 54.7281 98.9683 51.939 98.7829C50.5424 98.69 49.354 98.5597 48.464 98.3953C48.018 98.3129 47.6646 98.2252 47.405 98.1362C47.1217 98.0391 47.0357 97.9686 47.0368 97.9697L46.5065 98.5L45.9761 99.0303C46.2272 99.2814 46.5866 99.4414 46.9187 99.5552C47.2746 99.6771 47.7069 99.7808 48.1916 99.8703C49.1628 100.05 50.4159 100.185 51.8395 100.28C54.6911 100.469 58.2955 100.5 61.8455 100.375C65.3928 100.249 68.9129 99.966 71.5904 99.5211C72.9239 99.2995 74.0834 99.0322 74.9412 98.7099C75.3679 98.5495 75.7573 98.362 76.0625 98.1349C76.358 97.915 76.6691 97.5863 76.7463 97.1233L76.0065 97ZM47.0065 57C46.4453 57.4975 46.4452 57.4975 46.4452 57.4975C46.4452 57.4975 46.4453 57.4975 46.4453 57.4976C46.4454 57.4977 46.4457 57.498 46.446 57.4984C46.4466 57.4991 46.4476 57.5002 46.449 57.5018C46.4518 57.505 46.4562 57.5099 46.462 57.5165C46.4737 57.5298 46.4913 57.5499 46.5145 57.5765C46.5611 57.6298 46.6301 57.7093 46.719 57.8128C46.8968 58.0199 47.154 58.3232 47.4694 58.7053C48.1004 59.4699 48.9629 60.5484 49.8881 61.8029C51.751 64.3291 53.8195 67.5053 54.8001 70.2522L55.5065 70L56.2128 69.7478C55.154 66.7821 52.9725 63.4583 51.0953 60.9127C50.1503 59.6312 49.2703 58.5308 48.6262 57.7505C48.3041 57.3602 48.0406 57.0495 47.8571 56.8358C47.7654 56.7289 47.6936 56.6462 47.6445 56.59C47.6199 56.5618 47.601 56.5403 47.5881 56.5256C47.5817 56.5183 47.5767 56.5127 47.5733 56.5088C47.5716 56.5069 47.5702 56.5054 47.5693 56.5043C47.5688 56.5038 47.5685 56.5034 47.5682 56.5031C47.5681 56.5029 47.5679 56.5028 47.5679 56.5027C47.5678 56.5026 47.5677 56.5025 47.0065 57ZM55.5065 70L54.8001 70.2522C55.8461 73.1819 56.2199 77.2074 56.3226 80.5581C56.3736 82.2219 56.3573 83.6982 56.3283 84.7582C56.3138 85.288 56.2961 85.7132 56.2821 86.005C56.2751 86.1509 56.269 86.2635 56.2647 86.3391C56.2626 86.3769 56.2609 86.4055 56.2597 86.4243C56.2592 86.4338 56.2587 86.4408 56.2584 86.4453C56.2583 86.4476 56.2582 86.4492 56.2581 86.4502C56.2581 86.4508 56.2581 86.4511 56.2581 86.4513C56.258 86.4514 56.258 86.4514 56.258 86.4515C56.258 86.4515 56.258 86.4514 57.0065 86.5C57.7549 86.5486 57.7549 86.5484 57.7549 86.5483C57.7549 86.5482 57.7549 86.548 57.7549 86.5477C57.755 86.5473 57.755 86.5467 57.7551 86.546C57.7552 86.5444 57.7553 86.5423 57.7555 86.5396C57.7558 86.534 57.7563 86.526 57.757 86.5156C57.7582 86.4947 57.76 86.4641 57.7623 86.4242C57.7669 86.3444 57.7732 86.2274 57.7804 86.0769C57.7948 85.7758 57.8129 85.3404 57.8277 84.7993C57.8574 83.7177 57.874 82.2115 57.8219 80.5121C57.7185 77.1362 57.3423 72.9116 56.2128 69.7478L55.5065 70ZM49.5065 53.5C49.432 54.2463 49.432 54.2463 49.432 54.2463C49.432 54.2463 49.432 54.2463 49.432 54.2463C49.4321 54.2463 49.4321 54.2463 49.4323 54.2463C49.4326 54.2464 49.4331 54.2464 49.4338 54.2465C49.4352 54.2466 49.4374 54.2468 49.4404 54.2471C49.4464 54.2477 49.4555 54.2487 49.4678 54.25C49.4922 54.2525 49.5288 54.2564 49.5763 54.2615C49.6715 54.2719 49.8105 54.2875 49.984 54.3083C50.3314 54.3498 50.8161 54.4121 51.3645 54.4945C52.4723 54.6611 53.7986 54.9042 54.78 55.215L55.0065 54.5L55.2329 53.785C54.1331 53.4367 52.7094 53.1799 51.5875 53.0112C51.021 52.926 50.521 52.8618 50.1623 52.8189C49.9829 52.7974 49.8385 52.7812 49.7385 52.7703C49.6885 52.7649 49.6496 52.7608 49.623 52.758C49.6097 52.7566 49.5994 52.7556 49.5923 52.7549C49.5888 52.7545 49.5861 52.7542 49.5841 52.754C49.5832 52.7539 49.5824 52.7539 49.5819 52.7538C49.5816 52.7538 49.5814 52.7538 49.5812 52.7537C49.5812 52.7537 49.5811 52.7537 49.581 52.7537C49.581 52.7537 49.5809 52.7537 49.5065 53.5ZM55.0065 54.5L54.78 55.215C58.3438 56.3436 60.2737 57.4788 62.9915 60.0453L63.5065 59.5L64.0214 58.9547C61.1392 56.233 59.0121 54.9818 55.2329 53.785L55.0065 54.5ZM71.5065 63.5L71.1857 64.1779C72.7507 64.9185 74.8778 65.1717 76.5365 65.2541C77.3806 65.296 78.1322 65.2947 78.673 65.283C78.9437 65.2771 79.1624 65.2686 79.3145 65.2615C79.3905 65.2579 79.45 65.2547 79.491 65.2523C79.5114 65.2512 79.5273 65.2502 79.5384 65.2495C79.5439 65.2491 79.5482 65.2489 79.5513 65.2487C79.5528 65.2486 79.5541 65.2485 79.555 65.2484C79.5555 65.2484 79.5558 65.2484 79.5561 65.2484C79.5563 65.2483 79.5565 65.2483 79.5565 65.2483C79.5567 65.2483 79.5568 65.2483 79.5065 64.5C79.4561 63.7517 79.4562 63.7517 79.4563 63.7517C79.4563 63.7517 79.4563 63.7517 79.4563 63.7517C79.4563 63.7517 79.4562 63.7517 79.4561 63.7517C79.4557 63.7517 79.4551 63.7518 79.4541 63.7518C79.4522 63.7519 79.4491 63.7521 79.4448 63.7524C79.4362 63.753 79.4228 63.7538 79.4048 63.7548C79.3689 63.7569 79.3148 63.7598 79.2444 63.7631C79.1035 63.7697 78.8973 63.7777 78.6404 63.7833C78.1259 63.7945 77.4111 63.7957 76.6109 63.756C74.9811 63.675 73.1082 63.4282 71.8273 62.8221L71.5065 63.5ZM50.5065 45C50.0254 45.5754 50.0255 45.5755 50.0256 45.5756C50.0257 45.5756 50.0259 45.5758 50.026 45.5759C50.0264 45.5762 50.0268 45.5765 50.0273 45.577C50.0283 45.5778 50.0298 45.579 50.0316 45.5805C50.0352 45.5836 50.0404 45.5879 50.0471 45.5934C50.0605 45.6045 50.0801 45.6206 50.1055 45.6414C50.1563 45.683 50.2305 45.7432 50.3263 45.8197C50.5179 45.9726 50.7958 46.1906 51.1444 46.4534C51.8412 46.9785 52.8238 47.6852 53.9678 48.4116C56.2268 49.8459 59.2239 51.4284 61.919 51.7449L62.0065 51L62.0939 50.2551C59.7581 49.9808 57.0052 48.5633 54.7719 47.1453C53.6697 46.4455 52.7207 45.763 52.0473 45.2555C51.7109 45.0019 51.4441 44.7927 51.2622 44.6475C51.1713 44.5749 51.1016 44.5184 51.0552 44.4804C51.032 44.4614 51.0146 44.447 51.0032 44.4376C50.9976 44.433 50.9934 44.4295 50.9908 44.4273C50.9895 44.4262 50.9885 44.4254 50.988 44.425C50.9877 44.4248 50.9876 44.4246 50.9875 44.4246C50.9875 44.4245 50.9875 44.4246 50.9875 44.4245C50.9875 44.4246 50.9876 44.4246 50.5065 45ZM72.5065 52L72.4573 52.7484C73.2479 52.8004 74.2024 52.6587 74.9159 52.5203C75.2819 52.4493 75.6023 52.3755 75.8316 52.3194C75.9465 52.2913 76.0389 52.2675 76.1034 52.2505C76.1356 52.242 76.1609 52.2353 76.1785 52.2305C76.1873 52.2281 76.1942 52.2262 76.199 52.2249C76.2015 52.2242 76.2034 52.2237 76.2048 52.2233C76.2055 52.2231 76.2061 52.2229 76.2066 52.2228C76.2068 52.2228 76.207 52.2227 76.2072 52.2227C76.2072 52.2226 76.2073 52.2226 76.2074 52.2226C76.2075 52.2226 76.2076 52.2225 76.0065 51.5C75.8054 50.7775 75.8055 50.7774 75.8055 50.7774C75.8055 50.7774 75.8056 50.7774 75.8056 50.7774C75.8056 50.7774 75.8056 50.7774 75.8056 50.7774C75.8055 50.7774 75.8054 50.7775 75.805 50.7776C75.8044 50.7777 75.8033 50.778 75.8017 50.7785C75.7984 50.7794 75.7932 50.7808 75.7861 50.7827C75.772 50.7866 75.7503 50.7924 75.7218 50.7999C75.6648 50.8149 75.5807 50.8365 75.4751 50.8624C75.2634 50.9142 74.9672 50.9824 74.6303 51.0477C73.9383 51.1819 73.1428 51.2902 72.5557 51.2516L72.5065 52ZM62.0065 51L61.919 51.7449C62.2399 51.7826 62.4252 51.8002 62.7474 51.8238L62.8021 51.0758L62.8568 50.3278C62.5565 50.3058 62.393 50.2902 62.0939 50.2551L62.0065 51ZM62.0065 47L61.2704 47.1437L62.066 51.2195L62.8021 51.0758L63.5382 50.9321L62.7426 46.8563L62.0065 47ZM62.8021 51.0758L62.0547 51.1383L62.7591 59.5625L63.5065 59.5L64.2539 59.4375L63.5495 51.0133L62.8021 51.0758ZM63.5065 59.5L62.7756 59.6684C64.4629 66.9935 64.5776 71.4673 63.2679 78.8693L64.0065 79L64.745 79.1307C66.0898 71.5303 65.9699 66.8531 64.2373 59.3316L63.5065 59.5ZM64.0065 79L63.2679 78.8693C62.8329 81.3279 61.8509 84.4039 60.9651 86.891C60.5241 88.1289 60.1108 89.2106 59.8078 89.9826C59.6563 90.3684 59.5325 90.6766 59.4468 90.8879C59.4039 90.9935 59.3706 91.0749 59.348 91.1296C59.3368 91.157 59.3282 91.1777 59.3225 91.1914C59.3197 91.1983 59.3175 91.2034 59.3162 91.2067C59.3155 91.2084 59.3149 91.2096 59.3146 91.2104C59.3145 91.2108 59.3143 91.2111 59.3143 91.2113C59.3142 91.2113 59.3142 91.2114 59.3142 91.2114C59.3142 91.2114 59.3142 91.2114 60.0065 91.5C60.6987 91.7886 60.6988 91.7885 60.6988 91.7884C60.6988 91.7883 60.6989 91.7882 60.6989 91.7881C60.6991 91.7878 60.6992 91.7874 60.6994 91.7868C60.6999 91.7858 60.7005 91.7843 60.7013 91.7824C60.7029 91.7785 60.7052 91.7729 60.7083 91.7655C60.7144 91.7507 60.7234 91.729 60.7351 91.7005C60.7586 91.6436 60.7928 91.5599 60.8367 91.4519C60.9243 91.2359 61.0503 90.9224 61.204 90.5307C61.5115 89.7475 61.9307 88.6505 62.3781 87.3943C63.269 84.8931 64.287 81.7191 64.745 79.1307L64.0065 79ZM62.8021 51.0758L62.731 51.8224L71.9354 52.699L72.0065 51.9524L72.0776 51.2058L62.8732 50.3292L62.8021 51.0758ZM72.0065 51.9524L71.9135 52.6966C72.1227 52.7227 72.2469 52.7346 72.4573 52.7484L72.5065 52L72.5557 51.2516C72.3746 51.2397 72.2795 51.2307 72.0994 51.2082L72.0065 51.9524ZM73.5065 47.5L72.7957 47.2606L71.2957 51.7129L72.0065 51.9524L72.7172 52.1918L74.2172 47.7394L73.5065 47.5ZM63.5065 59.5L63.1711 60.1708L70.6711 63.9208L71.0065 63.25L71.3419 62.5792L63.8419 58.8292L63.5065 59.5ZM71.0065 63.25L70.6566 63.9134C70.8593 64.0203 70.9785 64.0799 71.1857 64.1779L71.5065 63.5L71.8273 62.8221C71.6397 62.7333 71.5399 62.6834 71.3563 62.5866L71.0065 63.25ZM72.0065 51.9524L71.2594 51.8863L70.2594 63.1839L71.0065 63.25L71.7535 63.3161L72.7535 52.0185L72.0065 51.9524ZM71.0065 63.25L70.2772 63.425C71.5594 68.7691 71.7831 71.9578 71.2599 77.4286L72.0065 77.5L72.7531 77.5714C73.2921 71.9356 73.0566 68.5803 71.7358 63.075L71.0065 63.25ZM72.0065 77.5L71.2599 77.4286C70.8972 81.2206 70.7953 83.3572 69.3204 86.697L70.0065 87L70.6925 87.303C72.2808 83.7065 72.3938 81.3275 72.7531 77.5714L72.0065 77.5ZM70.0065 87L69.3204 86.697C68.8851 87.6828 68.1615 88.8924 67.5303 89.8761C67.2176 90.3633 66.9331 90.7868 66.7269 91.0882C66.6238 91.2388 66.5405 91.3587 66.4832 91.4405C66.4546 91.4815 66.4324 91.5129 66.4176 91.5338C66.4102 91.5443 66.4046 91.5522 66.4009 91.5574C66.3991 91.5599 66.3978 91.5618 66.3969 91.563C66.3965 91.5636 66.3962 91.5641 66.396 91.5643C66.3959 91.5644 66.3958 91.5645 66.3958 91.5646C66.3958 91.5646 66.3958 91.5646 66.3958 91.5646C66.3958 91.5646 66.3958 91.5645 67.0065 92C67.6171 92.4355 67.6171 92.4354 67.6172 92.4353C67.6172 92.4353 67.6173 92.4352 67.6173 92.4352C67.6174 92.435 67.6175 92.4348 67.6177 92.4346C67.618 92.4342 67.6185 92.4335 67.6191 92.4327C67.6202 92.4311 67.6219 92.4288 67.624 92.4258C67.6283 92.4198 67.6345 92.411 67.6425 92.3996C67.6586 92.3769 67.6821 92.3436 67.7121 92.3007C67.7721 92.2149 67.8585 92.0906 67.9648 91.9352C68.1774 91.6246 68.4704 91.1886 68.7927 90.6862C69.4315 89.6907 70.208 88.4003 70.6925 87.303L70.0065 87ZM47.0065 15L46.6711 15.6708C47.8559 16.2632 49.0287 16.2566 49.8798 16.1148C50.307 16.0436 50.6632 15.9369 50.915 15.8469C51.0413 15.8018 51.1426 15.7605 51.2148 15.7292C51.251 15.7135 51.28 15.7003 51.3013 15.6903C51.3119 15.6854 51.3207 15.6812 51.3275 15.6779C51.3309 15.6762 51.3338 15.6748 51.3362 15.6736C51.3374 15.6731 51.3385 15.6725 51.3394 15.6721C51.3399 15.6718 51.3403 15.6716 51.3407 15.6714C51.3409 15.6713 51.3412 15.6711 51.3413 15.6711C51.3416 15.671 51.3419 15.6708 51.0065 15C50.6711 14.3292 50.6713 14.3291 50.6716 14.3289C50.6716 14.3289 50.6719 14.3288 50.672 14.3287C50.6723 14.3286 50.6726 14.3284 50.6728 14.3283C50.6733 14.3281 50.6736 14.3279 50.6738 14.3278C50.6743 14.3276 50.6743 14.3276 50.6739 14.3278C50.673 14.3282 50.6702 14.3295 50.6658 14.3316C50.6568 14.3358 50.6409 14.3431 50.6184 14.3528C50.5735 14.3723 50.5029 14.4013 50.4105 14.4343C50.2248 14.5006 49.9559 14.5814 49.6332 14.6352C48.9842 14.7434 48.157 14.7368 47.3419 14.3292L47.0065 15ZM32.0065 45L32.7532 44.9295C32.6273 43.5955 32.4541 42.1998 32.2879 40.9046L31.544 41L30.8001 41.0954C30.9661 42.3892 31.1365 43.7635 31.2598 45.0705L32.0065 45ZM31.544 41L32.2879 40.9046C32.0061 38.7079 31.7565 36.8747 31.7565 36H31.0065H30.2565C30.2565 37.0001 30.5285 38.9783 30.8001 41.0954L31.544 41ZM31.544 41C31.9817 41.609 31.9818 41.609 31.9819 41.6089C31.9819 41.6089 31.982 41.6088 31.9821 41.6088C31.9822 41.6086 31.9824 41.6085 31.9826 41.6084C31.983 41.6081 31.9835 41.6078 31.984 41.6073C31.9852 41.6065 31.9866 41.6055 31.9885 41.6041C31.9921 41.6015 31.9971 41.5979 32.0034 41.5933C32.0159 41.5841 32.0336 41.571 32.0559 41.5544C32.1004 41.5211 32.1633 41.4734 32.2399 41.4135C32.3926 41.2939 32.6021 41.1238 32.8296 40.9209C33.2654 40.5322 33.8408 39.9598 34.1665 39.3561L33.5065 39L32.8464 38.6439C32.6525 39.0033 32.2467 39.4308 31.8312 39.8014C31.633 39.9781 31.4493 40.1274 31.3152 40.2324C31.2484 40.2847 31.1945 40.3255 31.1581 40.3527C31.1399 40.3663 31.1261 40.3765 31.1173 40.383C31.1129 40.3862 31.1097 40.3885 31.1078 40.3899C31.1069 40.3905 31.1063 40.391 31.106 40.3911C31.1059 40.3912 31.1059 40.3913 31.1059 40.3912C31.1059 40.3912 31.106 40.3912 31.106 40.3912C31.1061 40.3911 31.1061 40.3911 31.1061 40.3911C31.1062 40.391 31.1063 40.391 31.544 41ZM33.5065 39L34.1665 39.3561C34.5759 38.5973 34.6313 37.7316 34.539 36.9312C34.4461 36.1256 34.196 35.3175 33.9177 34.6143C33.6379 33.907 33.3191 33.2799 33.0716 32.831C32.9474 32.6059 32.8401 32.4237 32.7631 32.2966C32.7246 32.233 32.6935 32.1831 32.6717 32.1483C32.6607 32.131 32.6521 32.1174 32.6459 32.1078C32.6429 32.103 32.6404 32.0992 32.6386 32.0964C32.6377 32.095 32.637 32.0938 32.6364 32.0929C32.6361 32.0925 32.6358 32.0921 32.6356 32.0918C32.6355 32.0916 32.6354 32.0914 32.6354 32.0914C32.6353 32.0912 32.6352 32.091 32.0065 32.5C31.3778 32.909 31.3777 32.9089 31.3776 32.9087C31.3776 32.9087 31.3776 32.9086 31.3776 32.9086C31.3775 32.9085 31.3775 32.9086 31.3776 32.9086C31.3776 32.9088 31.3779 32.9091 31.3783 32.9098C31.3791 32.911 31.3806 32.9133 31.3826 32.9165C31.3868 32.923 31.3933 32.9333 31.4021 32.9473C31.4198 32.9753 31.4463 33.018 31.4802 33.0739C31.5481 33.1859 31.645 33.3503 31.758 33.5554C31.9851 33.9671 32.2732 34.535 32.523 35.1662C32.7743 35.8014 32.9765 36.475 33.0489 37.103C33.1219 37.7364 33.0555 38.2563 32.8464 38.6439L33.5065 39ZM39.0065 38L38.3135 38.2869C38.7322 39.2983 38.9115 40.1942 39.0176 41.0884L39.7624 41L40.5072 40.9116C40.3902 39.9258 40.1856 38.8873 39.6994 37.7131L39.0065 38ZM39.7624 41L39.0176 41.0884C39.1924 42.5611 39.1668 44.2313 39.7907 46.2241L40.5065 46L41.2222 45.7759C40.6534 43.9593 40.7089 42.6115 40.5072 40.9116L39.7624 41ZM39.7624 41C39.1551 40.5599 39.1551 40.5599 39.1551 40.5599C39.1551 40.5598 39.1551 40.5598 39.1551 40.5598C39.1552 40.5598 39.1552 40.5598 39.1551 40.5598C39.1551 40.5598 39.155 40.56 39.1549 40.5602C39.1546 40.5606 39.1541 40.5613 39.1533 40.5623C39.1519 40.5643 39.1495 40.5676 39.1462 40.572C39.1398 40.5809 39.1298 40.5944 39.1167 40.6121C39.0905 40.6474 39.0517 40.6994 39.0025 40.7642C38.9038 40.894 38.7642 41.074 38.601 41.2737C38.2664 41.6835 37.8632 42.1386 37.5219 42.4276L38.0065 43L38.491 43.5724C38.943 43.1899 39.4178 42.645 39.7628 42.2226C39.9394 42.0063 40.09 41.8122 40.1967 41.6719C40.2501 41.6017 40.2927 41.5446 40.3222 41.5047C40.337 41.4848 40.3485 41.4691 40.3565 41.4582C40.3605 41.4527 40.3636 41.4484 40.3658 41.4454C40.367 41.4439 40.3678 41.4426 40.3685 41.4418C40.3688 41.4413 40.3691 41.441 40.3693 41.4407C40.3694 41.4405 40.3694 41.4404 40.3695 41.4403C40.3696 41.4403 40.3696 41.4402 40.3696 41.4402C40.3697 41.4401 40.3697 41.4401 39.7624 41ZM38.0065 43L37.5219 42.4276C37.148 42.744 36.5787 43.0894 36.0701 43.3682C35.8221 43.5041 35.5998 43.6182 35.4398 43.6981C35.3599 43.738 35.2959 43.7692 35.2523 43.7902C35.2306 43.8007 35.214 43.8087 35.2031 43.8138C35.1976 43.8164 35.1936 43.8183 35.1911 43.8195C35.1899 43.8201 35.189 43.8205 35.1885 43.8207C35.1883 43.8209 35.1881 43.8209 35.1881 43.8209C35.188 43.821 35.188 43.821 35.1881 43.8209C35.1881 43.8209 35.1881 43.8209 35.1881 43.8209C35.1882 43.8209 35.1882 43.8209 35.5065 44.5C35.8247 45.1791 35.8248 45.1791 35.8249 45.1791C35.8249 45.179 35.825 45.179 35.825 45.179C35.8252 45.1789 35.8253 45.1789 35.8255 45.1788C35.8258 45.1786 35.8263 45.1784 35.8268 45.1781C35.8279 45.1776 35.8294 45.1769 35.8312 45.1761C35.835 45.1743 35.8402 45.1718 35.8469 45.1686C35.8604 45.1622 35.8796 45.153 35.9042 45.1412C35.9532 45.1175 36.0234 45.0833 36.11 45.04C36.2829 44.9537 36.5227 44.8307 36.7911 44.6835C37.3153 44.3962 37.9959 43.9916 38.491 43.5724L38.0065 43ZM40.5065 46L39.7907 46.2241C40.2712 47.7585 41.0767 49.5449 41.8341 51.0777L42.5065 50.7455L43.1789 50.4132C42.4312 48.9001 41.6672 47.1971 41.2222 45.7759L40.5065 46ZM42.5065 50.7455L41.8341 51.0777C42.3551 52.1321 42.8602 53.0804 43.235 53.7648C43.4225 54.1072 43.5776 54.3842 43.6861 54.576C43.7404 54.6719 43.783 54.7465 43.8123 54.7974C43.8269 54.8229 43.8381 54.8425 43.8458 54.8558C43.8497 54.8624 43.8526 54.8675 43.8547 54.871C43.8557 54.8728 43.8565 54.8741 43.857 54.8751C43.8573 54.8756 43.8575 54.8759 43.8577 54.8762C43.8577 54.8763 43.8578 54.8764 43.8578 54.8765C43.8579 54.8766 43.8579 54.8766 43.8579 54.8766C43.8579 54.8767 43.8579 54.8767 44.5065 54.5C45.155 54.1233 45.155 54.1233 45.155 54.1233C45.155 54.1233 45.155 54.1233 45.155 54.1233C45.155 54.1233 45.155 54.1233 45.1549 54.1232C45.1549 54.1231 45.1547 54.1228 45.1545 54.1225C45.1541 54.1218 45.1535 54.1207 45.1527 54.1193C45.151 54.1163 45.1483 54.1118 45.1448 54.1057C45.1378 54.0936 45.1272 54.0752 45.1133 54.0509C45.0855 54.0024 45.0443 53.9304 44.9916 53.8372C44.8861 53.6508 44.7344 53.38 44.5507 53.0444C44.183 52.3729 43.6881 51.4439 43.1789 50.4132L42.5065 50.7455ZM42.5065 50.7455C41.796 50.5053 41.796 50.5052 41.796 50.5051C41.796 50.5051 41.7961 50.505 41.7961 50.5049C41.7961 50.5049 41.7961 50.5048 41.7961 50.5048C41.7961 50.5048 41.7961 50.5049 41.796 50.5051C41.7959 50.5056 41.7955 50.5067 41.7949 50.5083C41.7938 50.5114 41.792 50.5168 41.7894 50.5242C41.7842 50.539 41.7761 50.5619 41.7651 50.5921C41.743 50.6526 41.7097 50.7417 41.6657 50.8522C41.5776 51.0739 41.4485 51.3777 41.285 51.7058C40.9418 52.395 40.5071 53.0669 40.0607 53.3969L40.5065 54L40.9523 54.6031C41.7055 54.0464 42.2708 53.091 42.6277 52.3746C42.8143 52 42.9602 51.6564 43.0596 51.4064C43.1094 51.281 43.148 51.1783 43.1744 51.1057C43.1876 51.0695 43.1978 51.0407 43.205 51.0203C43.2085 51.0102 43.2113 51.0021 43.2133 50.9963C43.2143 50.9934 43.2151 50.991 43.2157 50.9892C43.2161 50.9883 43.2163 50.9876 43.2165 50.987C43.2166 50.9867 43.2167 50.9864 43.2168 50.9862C43.2168 50.9861 43.2169 50.9859 43.2169 50.9859C43.2169 50.9857 43.217 50.9856 42.5065 50.7455ZM40.5065 54L40.0607 53.3969C39.6894 53.6713 39.0621 53.8934 38.4502 54.0481C38.1584 54.1219 37.8944 54.1746 37.7036 54.2087C37.6085 54.2257 37.5324 54.2379 37.481 54.2458C37.4554 54.2497 37.436 54.2526 37.4235 54.2543C37.4173 54.2552 37.4128 54.2558 37.4102 54.2562C37.4089 54.2564 37.408 54.2565 37.4077 54.2565C37.4075 54.2566 37.4074 54.2566 37.4074 54.2566C37.4075 54.2566 37.4075 54.2566 37.4076 54.2565C37.4076 54.2565 37.4077 54.2565 37.4077 54.2565C37.4078 54.2565 37.4079 54.2565 37.5065 55C37.605 55.7435 37.6051 55.7435 37.6052 55.7435C37.6053 55.7435 37.6054 55.7434 37.6055 55.7434C37.6057 55.7434 37.606 55.7434 37.6062 55.7433C37.6068 55.7433 37.6074 55.7432 37.6082 55.7431C37.6097 55.7429 37.6118 55.7426 37.6143 55.7422C37.6193 55.7416 37.6262 55.7406 37.635 55.7393C37.6524 55.7369 37.6771 55.7333 37.7082 55.7285C37.7705 55.7189 37.859 55.7047 37.9675 55.6853C38.184 55.6466 38.4838 55.5868 38.8179 55.5024C39.4577 55.3406 40.3305 55.0627 40.9523 54.6031L40.5065 54Z" fill="#9E71AD"/>
<path d="M58.0065 15.5C60.0065 16.5 62.0065 15.5 62.0065 15.5" stroke="#9E71AD" stroke-width="1.5" stroke-linecap="round"/>
<path d="M69.0065 17.5C71.0065 18.5 73.0065 17.5 73.0065 17.5" stroke="#9E71AD" stroke-width="1.5" stroke-linecap="round"/>
<path d="M79.5065 32.5C80.5065 33 81.5065 32.5 81.5065 32.5" stroke="#9E71AD" stroke-width="1.5" stroke-linecap="round"/>
<path d="M47.0065 26C49.0065 26.5 51.5065 26 51.5065 26" stroke="#9E71AD" stroke-width="1.5" stroke-linecap="round"/>
<path d="M58.0065 27.5C60.0065 28.5 62.5065 27.5 62.5065 27.5M47.0065 40.5C47.0065 40.5 49.5065 40 51.5065 41" stroke="#9E71AD" stroke-width="1.5" stroke-linecap="round"/>
<path d="M69.0065 32.5C71.0065 33 73.5065 32.5 73.5065 32.5" stroke="#9E71AD" stroke-width="1.5" stroke-linecap="round"/>
<path d="M78.0065 40.5C78.5065 40.5 79.5065 41 81.0065 40.5" stroke="#9E71AD" stroke-width="1.5" stroke-linecap="round"/>
<path d="M58.0065 41.625C58.0065 41.625 60.5065 41.125 62.5065 42.125" stroke="#9E71AD" stroke-width="1.5" stroke-linecap="round"/>
<path d="M69.1273 42.6213C69.1273 42.6213 71.674 42.7401 73.3732 44.1936" stroke="#9E71AD" stroke-width="1.5" stroke-linecap="round"/>
<path d="M78.0065 45.5C78.0065 45.5 79.5065 45.5 81.0065 46.5" stroke="#9E71AD" stroke-width="1.5" stroke-linecap="round"/>
<path d="M46.5065 78C44.0117 74 49.0064 71 49.0064 71C49.0064 71 45.9688 70.9501 44.5064 72C42.197 73.6581 41.6364 76.2934 42.5064 79C43.501 82.0939 46.2989 84.0225 49.5064 83.5C52.0993 83.0776 54.5064 79 54.5064 79C54.5064 79 48.5065 81.2067 46.5065 78Z" fill="#D67821"/>
<path d="M49.0064 71L49.3926 71.6429C49.6796 71.4706 49.8176 71.1289 49.7308 70.8056C49.644 70.4823 49.3535 70.2556 49.0188 70.2501L49.0064 71ZM46.5065 78L47.1428 77.6031L46.5065 78ZM54.5064 79L55.1523 79.3813C55.3135 79.1082 55.2856 78.7633 55.0825 78.5197C54.8794 78.2762 54.5452 78.1866 54.2476 78.2961L54.5064 79ZM49.5064 83.5L49.3859 82.7598L49.5064 83.5ZM42.5064 79L43.2205 78.7705L42.5064 79ZM44.5064 72L44.069 71.3908V71.3908L44.5064 72ZM49.0064 71C48.6203 70.3571 48.62 70.3572 48.6197 70.3574C48.6196 70.3575 48.6193 70.3577 48.619 70.3578C48.6185 70.3581 48.618 70.3585 48.6173 70.3588C48.616 70.3596 48.6144 70.3606 48.6125 70.3617C48.6088 70.3641 48.6038 70.3671 48.5977 70.3709C48.5854 70.3785 48.5686 70.389 48.5476 70.4024C48.5056 70.4292 48.4467 70.4676 48.374 70.5172C48.229 70.6161 48.0279 70.7603 47.7962 70.9458C47.336 71.3144 46.739 71.8588 46.2208 72.5502C45.7035 73.2404 45.242 74.1076 45.1018 75.1154C44.9591 76.1402 45.1572 77.2539 45.8701 78.3969L46.5065 78L47.1428 77.6031C46.6084 76.7461 46.4952 75.9848 46.5875 75.3221C46.6821 74.6424 47.0015 74.0096 47.4211 73.4498C47.8397 72.8912 48.3355 72.4356 48.7338 72.1167C48.9314 71.9585 49.101 71.837 49.2193 71.7563C49.2784 71.716 49.3244 71.6861 49.3543 71.667C49.3693 71.6574 49.3802 71.6506 49.3867 71.6466C49.39 71.6446 49.3921 71.6432 49.3931 71.6426C49.3936 71.6423 49.3938 71.6422 49.3938 71.6423C49.3937 71.6423 49.3936 71.6424 49.3934 71.6425C49.3933 71.6425 49.3931 71.6426 49.3931 71.6427C49.3928 71.6428 49.3926 71.6429 49.0064 71ZM46.5065 78L45.8701 78.3969C47.1149 80.3927 49.533 80.6038 51.3209 80.4497C52.2519 80.3695 53.1088 80.1836 53.7292 80.0198C54.0407 79.9376 54.2957 79.86 54.4746 79.8025C54.5641 79.7737 54.6346 79.7498 54.6839 79.7327C54.7085 79.7242 54.7278 79.7174 54.7415 79.7125C54.7483 79.7101 54.7538 79.7081 54.7577 79.7067C54.7597 79.706 54.7614 79.7054 54.7626 79.7049C54.7633 79.7047 54.7638 79.7045 54.7643 79.7043C54.7645 79.7042 54.7647 79.7041 54.7649 79.7041C54.7651 79.704 54.7653 79.7039 54.5064 79C54.2476 78.2961 54.2477 78.296 54.2479 78.296C54.2479 78.296 54.248 78.2959 54.2481 78.2959C54.2482 78.2959 54.2482 78.2959 54.2481 78.2959C54.2479 78.296 54.2473 78.2962 54.2464 78.2965C54.2446 78.2972 54.2414 78.2983 54.2369 78.3C54.2277 78.3032 54.2131 78.3084 54.1933 78.3153C54.1536 78.329 54.0934 78.3494 54.0149 78.3746C53.8578 78.4252 53.6285 78.495 53.3462 78.5695C52.7791 78.7193 52.011 78.8847 51.1921 78.9553C49.48 79.1029 47.8981 78.814 47.1428 77.6031L46.5065 78ZM54.5064 79C53.8606 78.6187 53.8607 78.6186 53.8607 78.6185C53.8607 78.6185 53.8608 78.6184 53.8608 78.6184C53.8608 78.6183 53.8608 78.6183 53.8608 78.6184C53.8607 78.6185 53.8605 78.6189 53.8601 78.6195C53.8594 78.6207 53.8581 78.6229 53.8562 78.626C53.8525 78.6323 53.8465 78.6422 53.8383 78.6556C53.822 78.6824 53.7969 78.7231 53.7637 78.7758C53.6972 78.8812 53.5981 79.0342 53.4709 79.2201C53.2157 79.5929 52.8509 80.0921 52.4111 80.6014C51.9695 81.1129 51.4648 81.6197 50.9322 82.0182C50.3945 82.4205 49.8702 82.6809 49.3859 82.7598L49.5064 83.5L49.627 84.2402C50.4391 84.108 51.188 83.7002 51.8309 83.2192C52.4788 82.7344 53.0621 82.1426 53.5464 81.5818C54.0325 81.0189 54.4315 80.4723 54.7087 80.0674C54.8477 79.8643 54.957 79.6955 55.0322 79.5763C55.0698 79.5167 55.099 79.4693 55.1192 79.4362C55.1293 79.4196 55.1372 79.4066 55.1427 79.3974C55.1455 79.3928 55.1477 79.3891 55.1493 79.3864C55.1501 79.3851 55.1507 79.384 55.1512 79.3831C55.1515 79.3827 55.1517 79.3823 55.1519 79.382C55.152 79.3819 55.1521 79.3817 55.1521 79.3816C55.1522 79.3814 55.1523 79.3813 54.5064 79ZM49.5064 83.5L49.3859 82.7598C46.5849 83.216 44.1144 81.5514 43.2205 78.7705L42.5064 79L41.7924 79.2295C42.8876 82.6364 46.013 84.829 49.627 84.2402L49.5064 83.5ZM42.5064 79L43.2205 78.7705C42.4269 76.3018 42.9556 74.0368 44.9439 72.6092L44.5064 72L44.069 71.3908C41.4384 73.2795 40.8458 76.2849 41.7924 79.2295L42.5064 79ZM44.5064 72L44.9439 72.6092C45.5113 72.2018 46.4716 71.9672 47.3986 71.8504C47.8428 71.7944 48.2457 71.7692 48.5375 71.7581C48.683 71.7525 48.7998 71.7505 48.879 71.7499C48.9186 71.7496 48.9488 71.7496 48.9683 71.7497C48.9781 71.7497 48.9853 71.7498 48.9896 71.7498C48.9918 71.7499 48.9932 71.7499 48.994 71.7499C48.9944 71.7499 48.9946 71.7499 48.9946 71.7499C48.9946 71.7499 48.9946 71.7499 48.9945 71.7499C48.9945 71.7499 48.9944 71.7499 48.9943 71.7499C48.9942 71.7499 48.9941 71.7499 49.0064 71C49.0188 70.2501 49.0186 70.2501 49.0185 70.2501C49.0184 70.2501 49.0182 70.2501 49.0181 70.2501C49.0178 70.2501 49.0175 70.2501 49.0172 70.2501C49.0165 70.2501 49.0156 70.2501 49.0145 70.25C49.0123 70.25 49.0094 70.25 49.0058 70.2499C48.9985 70.2499 48.9884 70.2498 48.9756 70.2497C48.95 70.2496 48.9134 70.2496 48.8671 70.2499C48.7745 70.2507 48.6425 70.253 48.4804 70.2592C48.157 70.2715 47.709 70.2994 47.211 70.3622C46.2537 70.4828 44.9639 70.7483 44.069 71.3908L44.5064 72Z" fill="#FFBD5B"/>
<path d="M38.772 58.1336C38.8525 57.916 39.1604 57.916 39.2409 58.1336L39.7768 59.5819C39.8022 59.6503 39.8561 59.7043 39.9246 59.7296L41.3728 60.2655C41.5905 60.3461 41.5905 60.6539 41.3728 60.7345L39.9246 61.2704C39.8561 61.2957 39.8022 61.3497 39.7768 61.4181L39.2409 62.8664C39.1604 63.084 38.8525 63.084 38.772 62.8664L38.2361 61.4181C38.2108 61.3497 38.1568 61.2957 38.0884 61.2704L36.6401 60.7345C36.4224 60.6539 36.4224 60.3461 36.6401 60.2655L38.0884 59.7296C38.1568 59.7043 38.2108 59.6503 38.2361 59.5819L38.772 58.1336Z" fill="#FFBD5B"/>
<path d="M76.7656 55.368C76.8333 55.1238 77.1796 55.1238 77.2474 55.368L77.7868 57.3118C77.8059 57.3804 77.8532 57.4376 77.9171 57.4692L79.5521 58.2758C79.7379 58.3675 79.7379 58.6325 79.5521 58.7242L77.9171 59.5308C77.8532 59.5624 77.8059 59.6196 77.7868 59.6882L77.2474 61.632C77.1796 61.8762 76.8333 61.8762 76.7656 61.632L76.2261 59.6882C76.2071 59.6196 76.1597 59.5624 76.0958 59.5308L74.4609 58.7242C74.275 58.6325 74.275 58.3675 74.4609 58.2758L76.0958 57.4692C76.1597 57.4376 76.2071 57.3804 76.2261 57.3118L76.7656 55.368Z" fill="#FFBD5B"/>
<circle cx="49.0065" cy="66.5" r="1" fill="#FFBD5B"/>
<circle cx="50.0065" cy="49.5" r="1" fill="#FFBD5B"/>
<circle cx="61.0065" cy="67.5" r="1" fill="#FFBD5B"/>
<circle cx="75.0065" cy="79.5" r="1" fill="#FFBD5B"/>
<circle cx="49.0065" cy="90.5" r="1" fill="#FFBD5B"/>
<circle cx="0.5" cy="0.5" r="0.5" transform="matrix(1 0 0 -1 67.0065 71.5)" fill="#FFBD5B"/>
<circle cx="0.5" cy="0.5" r="0.5" transform="matrix(1 0 0 -1 76.0065 70.5)" fill="#FFBD5B"/>
<circle cx="0.5" cy="0.5" r="0.5" transform="matrix(1 0 0 -1 52.0065 61.5)" fill="#FFBD5B"/>
<circle cx="54.5065" cy="84" r="0.5" fill="#FFBD5B"/>
<path d="M12 34C14.2105 33.0716 14.8278 32.1723 15 30C15.3841 32.3192 15.9668 33.2661 18 34C16.2238 34.4569 15.5127 35.2333 15 38C14.7627 36.0644 14.5236 35.0216 12 34Z" fill="#AABCCD"/>
<path d="M1 18.5C5.05263 16.7593 6.18432 15.073 6.5 11C7.20415 15.3485 8.27246 17.1239 12 18.5C8.74363 19.3567 7.43995 20.8125 6.5 26C6.06496 22.3707 5.62654 20.4155 1 18.5Z" fill="#AABCCD"/>
<path d="M0 42C1.47368 41.3037 1.88521 40.6292 2 39C2.25606 40.7394 2.64453 41.4496 4 42C2.81586 42.3427 2.3418 42.925 2 45C1.8418 43.5483 1.68238 42.7662 0 42Z" fill="#AABCCD"/>
<path d="M95 20.5C99.0526 18.7593 100.184 17.073 100.5 13C101.204 17.3485 102.272 19.1239 106 20.5C102.744 21.3567 101.44 22.8125 100.5 28C100.065 24.3707 99.6265 22.4155 95 20.5Z" fill="#AABCCD"/>
<path d="M107 39C109.211 38.0716 109.828 37.1723 110 35C110.384 37.3192 110.967 38.2661 113 39C111.224 39.4569 110.513 40.2333 110 43C109.763 41.0644 109.524 40.0216 107 39Z" fill="#FFFCFC" stroke="#FFFCFC" stroke-width="0.3"/>
<path d="M117 27.5C118.474 26.9198 118.885 26.3577 119 25C119.256 26.4495 119.645 27.0413 121 27.5C119.816 27.7856 119.342 28.2708 119 30C118.842 28.7902 118.682 28.1385 117 27.5Z" fill="#AABCCD"/>
</svg>
