<svg width="62" height="61" viewBox="0 0 62 61" fill="none" xmlns="http://www.w3.org/2000/svg">
<ellipse cx="30.5966" cy="30.2345" rx="30.5966" ry="30.2345" fill="#FFBD5B"/>
<ellipse cx="30.7776" cy="30.4156" rx="27.1567" ry="26.7946" fill="#3B0434"/>
<circle cx="5.79345" cy="15.9319" r="1.08627" fill="#081940"/>
<circle cx="7.966" cy="12.311" r="1.08627" fill="#081940"/>
<circle cx="11.2248" cy="9.05226" r="1.08627" fill="#081940"/>
<circle cx="14.1215" cy="6.87971" r="1.08627" fill="#081940"/>
<circle cx="17.3803" cy="4.70718" r="1.08627" fill="#081940"/>
<circle cx="21.0012" cy="3.25883" r="1.08627" fill="#081940"/>
<circle cx="24.6221" cy="2.17254" r="1.08627" fill="#081940"/>
<circle cx="28.6051" cy="1.81044" r="1.08627" fill="#081940"/>
<circle cx="32.5881" cy="1.81044" r="1.08627" fill="#081940"/>
<circle cx="36.209" cy="2.17254" r="1.08627" fill="#081940"/>
<circle cx="39.4678" cy="3.25883" r="1.08627" fill="#081940"/>
<circle cx="43.0886" cy="4.34507" r="1.08627" fill="#081940"/>
<circle cx="45.9854" cy="6.15551" r="1.08627" fill="#081940"/>
<circle cx="48.52" cy="7.96597" r="1.08627" fill="#081940"/>
<circle cx="51.0547" cy="10.1385" r="1.08627" fill="#081940"/>
<circle cx="53.5893" cy="13.0352" r="1.08627" fill="#081940"/>
<circle cx="55.3997" cy="15.9319" r="1.08627" fill="#081940"/>
<circle cx="57.2102" cy="18.8287" r="1.08627" fill="#081940"/>
<circle cx="58.2965" cy="22.0875" r="1.08627" fill="#081940"/>
<circle cx="59.0207" cy="25.3463" r="1.08627" fill="#081940"/>
<circle cx="59.3827" cy="28.243" r="1.08627" fill="#081940"/>
<circle cx="59.3827" cy="31.8639" r="1.08627" fill="#081940"/>
<circle cx="59.0207" cy="35.4848" r="1.08627" fill="#081940"/>
<circle cx="58.2965" cy="38.7436" r="1.08627" fill="#081940"/>
<circle cx="57.2102" cy="41.6403" r="1.08627" fill="#081940"/>
<circle cx="55.7618" cy="44.537" r="1.08627" fill="#081940"/>
<circle cx="53.9514" cy="47.0717" r="1.08627" fill="#081940"/>
<circle cx="51.7788" cy="49.9684" r="1.08627" fill="#081940"/>
<circle cx="49.2442" cy="52.141" r="1.08627" fill="#081940"/>
<circle cx="46.7096" cy="53.9514" r="1.08627" fill="#081940"/>
<circle cx="43.8129" cy="55.7618" r="1.08627" fill="#081940"/>
<circle cx="40.5541" cy="57.2102" r="1.08627" fill="#081940"/>
<circle cx="37.2953" cy="58.2965" r="1.08627" fill="#081940"/>
<circle cx="33.6743" cy="58.6585" r="1.08627" fill="#081940"/>
<circle cx="30.0535" cy="59.0206" r="1.08627" fill="#081940"/>
<circle cx="26.7946" cy="58.6585" r="1.08627" fill="#081940"/>
<circle cx="23.1737" cy="57.9344" r="1.08627" fill="#081940"/>
<circle cx="19.9149" cy="56.8481" r="1.08627" fill="#081940"/>
<circle cx="16.6561" cy="55.0377" r="1.08627" fill="#081940"/>
<circle cx="13.7594" cy="53.2272" r="1.08627" fill="#081940"/>
<circle cx="10.8627" cy="51.0547" r="1.08627" fill="#081940"/>
<circle cx="7.966" cy="48.158" r="1.08627" fill="#081940"/>
<circle cx="5.79345" cy="44.8991" r="1.08627" fill="#081940"/>
<circle cx="4.34506" cy="41.6403" r="1.08627" fill="#081940"/>
<circle cx="2.89671" cy="37.6573" r="1.08627" fill="#081940"/>
<circle cx="1.81047" cy="34.0364" r="1.08627" fill="#081940"/>
<circle cx="1.44836" cy="30.0534" r="1.08627" fill="#081940"/>
<circle cx="1.81047" cy="26.4326" r="1.08627" fill="#081940"/>
<circle cx="2.89671" cy="22.8117" r="1.08627" fill="#081940"/>
<circle cx="4.34506" cy="18.8287" r="1.08627" fill="#081940"/>
<path d="M23.1835 21.6678C23.1835 21.6678 21.9073 20.4962 22.1835 19.6678C22.3581 19.1439 23.1835 18.6678 23.1835 18.6678C23.1835 18.6678 21.5223 18.4726 21.1835 17.6678C20.8711 16.9258 20.9085 15.8858 21.6835 15.6678C22.3612 15.4772 23.1835 16.6678 23.1835 16.6678C23.1835 16.6678 22.3102 14.6044 23.1835 14.1678C23.9645 13.7773 24.5977 14.9725 25.1835 15.1678L26.6835 15.6678C26.6835 15.6678 27.1318 14.6941 27.6835 14.6678C28.3867 14.6343 28.5428 15.478 28.6835 16.1678C28.8443 16.9567 28.1835 18.1678 28.1835 18.1678H30.1835C30.1835 18.1678 28.668 14.5467 30.1835 14.1678C30.5623 14.0731 30.813 14.0443 31.1835 14.1678C31.5844 14.3014 31.8315 14.7741 31.9797 15.2264C31.8001 14.157 31.7002 12.5148 32.6835 12.1678C33.2359 11.9728 33.6541 11.917 34.1835 12.1678C34.8197 12.4692 35.1835 12.9638 35.1835 13.6678C35.1835 14.3718 34.1835 15.1678 34.1835 15.1678L36.6835 17.1678C36.6835 17.1678 36.9805 15.7069 37.6835 15.6678C38.1194 15.6436 38.4215 15.8185 38.6835 16.1678C39.0349 16.6364 38.9142 17.1294 38.6835 17.6678C38.4659 18.1754 37.6835 18.6678 37.6835 18.6678C37.6835 18.6678 38.7469 18.7312 39.1835 19.1678C39.6201 19.6044 39.7197 20.0514 39.6835 20.6678C39.6186 21.7705 37.6835 22.6678 37.6835 22.6678H24.6835L23.1835 21.6678Z" fill="#F7E7C9" stroke="#F7E7C9"/>
<path d="M23.9673 20.1883C22.7067 20.7516 24.4673 23.6883 24.4673 23.6883L32.9673 25.1883L37.9673 23.1883C37.9673 23.1883 40.3935 21.1146 39.4673 20.1883C39.1586 19.8796 38.9032 19.714 38.4673 19.6883C37.6403 19.6397 36.9673 21.1883 36.9673 21.1883H35.9673C35.9673 21.1883 36.675 20.3288 36.9673 19.6883C37.3015 18.9559 37.5291 18.4911 37.4673 17.6883C37.42 17.0727 37.475 16.5398 36.9673 16.1883C36.4857 15.8549 35.9696 15.887 35.4673 16.1883C34.6301 16.6907 35.4673 18.6883 35.4673 18.6883C35.4673 18.6883 34.4967 18.4376 33.9673 18.6883C33.3311 18.9897 32.9673 20.1883 32.9673 20.1883L31.4673 19.6883C31.4673 19.6883 32.4245 18.1892 32.9673 17.1883C33.3836 16.4207 34.4517 15.9149 33.9673 15.1883C33.6248 14.6746 33.0606 14.5174 32.4673 14.6883C31.7908 14.8833 32.0786 15.839 31.4673 16.1883C30.7892 16.5759 29.4673 16.1883 29.4673 16.1883C29.4673 16.1883 29.8166 14.8869 29.4673 14.1883C29.2203 13.6944 29.0089 13.2967 28.4673 13.1883C27.777 13.0503 27.3995 13.6326 26.9673 14.1883C26.1282 15.2673 26.9673 17.6883 26.9673 17.6883C26.9673 17.6883 26.4651 16.6862 25.9673 16.1883C25.4695 15.6905 25.1713 15.198 24.4673 15.1883C23.2325 15.1714 22.8647 17.1104 23.4673 18.1883C23.9804 19.1062 25.9673 19.1883 25.9673 19.1883V21.6818C25.967 21.5887 25.9526 20.5243 25.4673 20.1883C24.9857 19.8549 24.5021 19.9494 23.9673 20.1883Z" fill="white" stroke="white"/>
<path d="M25.6835 18.1678C26.1835 21.1678 24.1835 21.6678 24.1835 21.6678L28.6835 21.6678C28.6835 21.6678 28.1835 19.9729 28.1835 19.1678C28.1835 18.3627 28.3239 17.6557 27.6835 17.1678C27.0622 16.6944 25.5551 17.3974 25.6835 18.1678Z" fill="#E0C899"/>
<path d="M29.6835 18.6678C30.1198 17.7729 31.6835 17.6678 31.6835 17.6678C31.6835 17.6678 31.4712 16.0431 32.1835 15.6678C33.0472 15.2127 33.8294 16.2579 34.1835 17.1678C34.5446 18.0956 34.1656 18.7966 33.6835 19.6678C33.0781 20.7617 35.6835 22.1678 35.6835 22.1678C35.6835 22.1678 29.5888 22.8903 29.1835 22.1678C28.7896 21.4656 29.3306 19.3914 29.6835 18.6678Z" fill="#E0C899"/>
<path d="M35.1835 19.6678C35.5977 18.9774 36.0498 18.6711 36.6835 19.1678C37.0271 19.4371 37.1217 19.7355 37.1835 20.1678C37.2708 20.779 36.6835 21.6678 36.6835 21.6678H35.1835C35.1835 21.6678 34.7693 20.3581 35.1835 19.6678Z" fill="#E0C899"/>
<path d="M25.6835 18.1678C26.1835 21.1678 24.1835 21.6678 24.1835 21.6678L28.6835 21.6678C28.6835 21.6678 28.1835 19.9729 28.1835 19.1678C28.1835 18.3627 28.3239 17.6557 27.6835 17.1678C27.0622 16.6944 25.5551 17.3974 25.6835 18.1678Z" stroke="#E0C899"/>
<path d="M29.6835 18.6678C30.1198 17.7729 31.6835 17.6678 31.6835 17.6678C31.6835 17.6678 31.4712 16.0431 32.1835 15.6678C33.0472 15.2127 33.8294 16.2579 34.1835 17.1678C34.5446 18.0956 34.1656 18.7966 33.6835 19.6678C33.0781 20.7617 35.6835 22.1678 35.6835 22.1678C35.6835 22.1678 29.5888 22.8903 29.1835 22.1678C28.7896 21.4656 29.3306 19.3914 29.6835 18.6678Z" stroke="#E0C899"/>
<path d="M35.1835 19.6678C35.5977 18.9774 36.0498 18.6711 36.6835 19.1678C37.0271 19.4371 37.1217 19.7355 37.1835 20.1678C37.2708 20.779 36.6835 21.6678 36.6835 21.6678H35.1835C35.1835 21.6678 34.7693 20.3581 35.1835 19.6678Z" stroke="#E0C899"/>
<path d="M26.1835 47.6678L22.1835 21.1678C22.1835 21.1678 22.4215 21.5805 22.6835 21.6678C23.0977 21.8059 23.248 21.1997 23.6835 21.1678C24.3856 21.1164 24.4849 22.0805 25.1835 22.1678C26.05 22.2761 26.3102 21.1678 27.1835 21.1678C28.0567 21.1678 28.3102 22.1678 29.1835 22.1678C30.0567 22.1678 30.317 21.0595 31.1835 21.1678C31.8821 21.2551 31.9945 22.0228 32.6835 22.1678C33.7124 22.3844 34.1342 21.0989 35.1835 21.1678C35.7996 21.2083 36.1835 21.6678 37.1835 21.6678C38.1835 21.6678 39.6835 20.1678 39.6835 21.1678C39.6835 22.1678 36.1835 47.6678 36.1835 47.6678H26.1835Z" fill="#D9D9D9"/>
<path d="M22.1835 21.1678L22.6166 20.918C22.4965 20.7098 22.2453 20.6165 22.0184 20.6958C21.7915 20.7752 21.6532 21.0048 21.6891 21.2424L22.1835 21.1678ZM26.1835 47.6678L25.6891 47.7424C25.726 47.987 25.9361 48.1678 26.1835 48.1678V47.6678ZM36.1835 47.6678V48.1678C36.4333 48.1678 36.6448 47.9833 36.6788 47.7358L36.1835 47.6678ZM35.1835 21.1678L35.1507 21.6667L35.1835 21.1678ZM32.6835 22.1678L32.7865 21.6785L32.6835 22.1678ZM31.1835 21.1678L31.1215 21.6639L31.1835 21.1678ZM25.1835 22.1678L25.1215 22.6639L25.1835 22.1678ZM23.6835 21.1678L23.72 21.6665L23.6835 21.1678ZM22.6835 21.6678L22.5254 22.1421L22.6835 21.6678ZM22.1835 21.1678L21.6891 21.2424L25.6891 47.7424L26.1835 47.6678L26.6779 47.5932L22.6779 21.0932L22.1835 21.1678ZM26.1835 47.6678V48.1678H36.1835V47.6678V47.1678H26.1835V47.6678ZM36.1835 47.6678C36.6788 47.7358 36.6788 47.7357 36.6789 47.7355C36.6789 47.7353 36.6789 47.735 36.679 47.7346C36.6791 47.7338 36.6793 47.7327 36.6795 47.7311C36.6799 47.728 36.6805 47.7234 36.6814 47.7173C36.6831 47.705 36.6856 47.6867 36.6889 47.6626C36.6955 47.6143 36.7053 47.5426 36.7181 47.4491C36.7438 47.262 36.7814 46.9876 36.8292 46.6379C36.925 45.9387 37.0617 44.9386 37.2258 43.7354C37.5539 41.3289 37.9915 38.1099 38.429 34.8595C38.8665 31.6093 39.3042 28.3271 39.6324 25.7946C39.7966 24.5285 39.9335 23.4487 40.0295 22.6535C40.0774 22.2561 40.1154 21.9282 40.1414 21.6829C40.1659 21.4517 40.1835 21.2629 40.1835 21.1678H39.6835H39.1835C39.1835 21.1671 39.1835 21.1695 39.1832 21.1761C39.183 21.1823 39.1826 21.1908 39.1819 21.2018C39.1805 21.2239 39.1784 21.2529 39.1752 21.2893C39.169 21.362 39.1596 21.4582 39.147 21.5775C39.1217 21.8156 39.0844 22.1381 39.0367 22.5337C38.9412 23.3244 38.8048 24.4009 38.6407 25.666C38.3128 28.196 37.8754 31.4763 37.4379 34.7261C37.0005 37.9757 36.563 41.1942 36.2349 43.6002C36.0709 44.8033 35.9342 45.8032 35.8385 46.5023C35.7906 46.8519 35.753 47.1263 35.7274 47.3133C35.7146 47.4068 35.7048 47.4784 35.6982 47.5267C35.6948 47.5508 35.6923 47.5691 35.6906 47.5813C35.6898 47.5875 35.6892 47.5921 35.6888 47.5952C35.6885 47.5967 35.6884 47.5979 35.6883 47.5986C35.6882 47.599 35.6882 47.5993 35.6882 47.5995C35.6881 47.5997 35.6881 47.5998 36.1835 47.6678ZM39.6835 21.1678H40.1835C40.1835 20.9961 40.1541 20.7764 40.0102 20.5933C39.8463 20.3846 39.617 20.324 39.4335 20.324C39.2668 20.324 39.1072 20.3715 38.9825 20.4177C38.8511 20.4663 38.7145 20.5308 38.5849 20.5956C38.3061 20.735 38.062 20.8725 37.7929 20.9922C37.5255 21.111 37.3241 21.1678 37.1835 21.1678L37.1835 21.6678L37.1835 22.1678C37.5429 22.1678 37.9039 22.0371 38.199 21.906C38.4924 21.7756 38.8109 21.6006 39.0321 21.49C39.1524 21.4298 39.2503 21.3849 39.3298 21.3554C39.416 21.3235 39.4439 21.324 39.4335 21.324C39.4062 21.324 39.3019 21.3103 39.2239 21.2111C39.1659 21.1373 39.1835 21.0895 39.1835 21.1678H39.6835ZM37.1835 21.6678L37.1835 21.1678C36.7714 21.1678 36.4921 21.0761 36.2262 20.9691C35.9769 20.8688 35.6266 20.6958 35.2162 20.6689L35.1835 21.1678L35.1507 21.6667C35.3565 21.6802 35.5062 21.7573 35.8528 21.8968C36.183 22.0297 36.5956 22.1678 37.1835 22.1678L37.1835 21.6678ZM35.1835 21.1678L35.2162 20.6689C34.469 20.6198 33.9494 21.07 33.6178 21.3294C33.2376 21.6268 33.0488 21.7337 32.7865 21.6785L32.6835 22.1678L32.5805 22.6571C33.3471 22.8185 33.8837 22.391 34.2339 22.117C34.6328 21.805 34.8487 21.6469 35.1507 21.6667L35.1835 21.1678ZM32.6835 22.1678L32.7865 21.6785C32.6233 21.6442 32.5247 21.5484 32.3065 21.3092C32.1099 21.0937 31.7963 20.7405 31.2455 20.6717L31.1835 21.1678L31.1215 21.6639C31.2693 21.6824 31.3612 21.7567 31.5677 21.9831C31.7526 22.1858 32.0547 22.5464 32.5805 22.6571L32.6835 22.1678ZM31.1835 21.1678L31.2455 20.6717C30.554 20.5852 30.1111 21.0133 29.845 21.2616C29.5313 21.5541 29.3905 21.6678 29.1835 21.6678V22.1678V22.6678C29.8497 22.6678 30.2757 22.2273 30.5271 21.9928C30.826 21.714 30.9464 21.6421 31.1215 21.6639L31.1835 21.1678ZM29.1835 22.1678V21.6678C28.9614 21.6678 28.8134 21.5583 28.5154 21.2938C28.25 21.0583 27.8346 20.6678 27.1835 20.6678V21.1678V21.6678C27.4055 21.6678 27.5536 21.7773 27.8516 22.0418C28.1169 22.2773 28.5323 22.6678 29.1835 22.6678V22.1678ZM27.1835 21.1678V20.6678C26.5173 20.6678 26.0913 21.1083 25.8399 21.3428C25.541 21.6216 25.4205 21.6935 25.2455 21.6717L25.1835 22.1678L25.1215 22.6639C25.8129 22.7504 26.2558 22.3223 26.522 22.074C26.8357 21.7815 26.9764 21.6678 27.1835 21.6678V21.1678ZM25.1835 22.1678L25.2455 21.6717C25.1315 21.6574 25.0565 21.5874 24.8225 21.3001C24.6389 21.0745 24.2857 20.6224 23.647 20.6691L23.6835 21.1678L23.72 21.6665C23.7834 21.6618 23.8309 21.666 24.0471 21.9315C24.2129 22.1351 24.5368 22.5909 25.1215 22.6639L25.1835 22.1678ZM23.6835 21.1678L23.647 20.6691C23.2096 20.7011 22.9219 21.0318 22.8289 21.1211C22.7552 21.192 22.7356 21.2023 22.7372 21.2015C22.7657 21.1878 22.8126 21.1838 22.8416 21.1935L22.6835 21.6678L22.5254 22.1421C22.7614 22.2208 22.9825 22.1928 23.1692 22.1033C23.3292 22.0267 23.452 21.9093 23.5221 21.8419C23.7167 21.6547 23.7219 21.6663 23.72 21.6665L23.6835 21.1678ZM22.6835 21.6678L22.8416 21.1935C22.861 21.1999 22.8537 21.202 22.8212 21.174C22.7918 21.1487 22.7583 21.113 22.724 21.0707C22.6906 21.0293 22.6622 20.9888 22.6422 20.9584C22.6324 20.9435 22.625 20.9317 22.6205 20.9244C22.6183 20.9208 22.6168 20.9183 22.6161 20.9172C22.6158 20.9166 22.6157 20.9164 22.6157 20.9165C22.6158 20.9166 22.6159 20.9167 22.616 20.917C22.6161 20.9171 22.6162 20.9172 22.6163 20.9174C22.6163 20.9175 22.6164 20.9176 22.6164 20.9177C22.6164 20.9177 22.6165 20.9178 22.6165 20.9178C22.6165 20.9179 22.6166 20.918 22.1835 21.1678C21.7504 21.4176 21.7504 21.4177 21.7505 21.4178C21.7505 21.4178 21.7505 21.4179 21.7506 21.418C21.7506 21.4181 21.7507 21.4182 21.7508 21.4183C21.7509 21.4186 21.7511 21.4189 21.7513 21.4192C21.7517 21.4199 21.7521 21.4206 21.7526 21.4215C21.7536 21.4232 21.7548 21.4253 21.7563 21.4277C21.7592 21.4327 21.7631 21.4392 21.7679 21.447C21.7775 21.4626 21.7908 21.4837 21.8073 21.5089C21.8401 21.5586 21.8876 21.6267 21.9464 21.6994C22.0448 21.8211 22.2472 22.0494 22.5254 22.1421L22.6835 21.6678Z" fill="#D9D9D9"/>
<path d="M24.1835 22.6678L27.1835 46.1678M31.1835 31.6678C30.1388 31.6678 29.0664 31.9304 28.1835 32.4181M31.1835 31.6678V22.6678M31.1835 31.6678C32.2281 31.6678 33.3005 31.9304 34.1835 32.4181M31.1835 39.1678C30.2716 39.1678 29.348 39.0037 28.5465 38.6678M31.1835 39.1678V46.1678M31.1835 39.1678C32.0438 39.1678 32.9146 39.0217 33.6835 38.7231M28.1835 32.4181C26.9529 33.0978 26.0903 34.2149 26.1835 35.6678C26.2776 37.1364 27.253 38.1257 28.5465 38.6678M28.1835 32.4181L27.6835 22.6678M28.5465 38.6678L29.1835 46.1678M34.6835 22.6678L34.1835 32.4181M34.1835 32.4181C35.414 33.0978 36.2766 34.2149 36.1835 35.6678C36.086 37.1878 35.0446 38.1944 33.6835 38.7231M33.6835 38.7231L33.1835 46.1678M38.1835 22.6678L35.1835 46.1678" stroke="#D51010" stroke-linecap="round"/>
</svg>
