<svg width="62" height="61" viewBox="0 0 62 61" fill="none" xmlns="http://www.w3.org/2000/svg">
<ellipse cx="30.5966" cy="30.2345" rx="30.5966" ry="30.2345" fill="#FFBD5B"/>
<ellipse cx="30.7776" cy="30.4156" rx="27.1567" ry="26.7946" fill="#3B0434"/>
<circle cx="5.79345" cy="15.9319" r="1.08627" fill="#081940"/>
<circle cx="7.966" cy="12.311" r="1.08627" fill="#081940"/>
<circle cx="11.2248" cy="9.05226" r="1.08627" fill="#081940"/>
<circle cx="14.1215" cy="6.87971" r="1.08627" fill="#081940"/>
<circle cx="17.3803" cy="4.70718" r="1.08627" fill="#081940"/>
<circle cx="21.0012" cy="3.25883" r="1.08627" fill="#081940"/>
<circle cx="24.6221" cy="2.17254" r="1.08627" fill="#081940"/>
<circle cx="28.6051" cy="1.81044" r="1.08627" fill="#081940"/>
<circle cx="32.5881" cy="1.81044" r="1.08627" fill="#081940"/>
<circle cx="36.209" cy="2.17254" r="1.08627" fill="#081940"/>
<circle cx="39.4678" cy="3.25883" r="1.08627" fill="#081940"/>
<circle cx="43.0887" cy="4.34507" r="1.08627" fill="#081940"/>
<circle cx="45.9854" cy="6.15551" r="1.08627" fill="#081940"/>
<circle cx="48.52" cy="7.96597" r="1.08627" fill="#081940"/>
<circle cx="51.0547" cy="10.1385" r="1.08627" fill="#081940"/>
<circle cx="53.5893" cy="13.0352" r="1.08627" fill="#081940"/>
<circle cx="55.3997" cy="15.9319" r="1.08627" fill="#081940"/>
<circle cx="57.2102" cy="18.8287" r="1.08627" fill="#081940"/>
<circle cx="58.2965" cy="22.0875" r="1.08627" fill="#081940"/>
<circle cx="59.0207" cy="25.3463" r="1.08627" fill="#081940"/>
<circle cx="59.3827" cy="28.243" r="1.08627" fill="#081940"/>
<circle cx="59.3827" cy="31.8639" r="1.08627" fill="#081940"/>
<circle cx="59.0207" cy="35.4848" r="1.08627" fill="#081940"/>
<circle cx="58.2965" cy="38.7436" r="1.08627" fill="#081940"/>
<circle cx="57.2102" cy="41.6403" r="1.08627" fill="#081940"/>
<circle cx="55.7618" cy="44.537" r="1.08627" fill="#081940"/>
<circle cx="53.9514" cy="47.0717" r="1.08627" fill="#081940"/>
<circle cx="51.7788" cy="49.9684" r="1.08627" fill="#081940"/>
<circle cx="49.2442" cy="52.141" r="1.08627" fill="#081940"/>
<circle cx="46.7096" cy="53.9514" r="1.08627" fill="#081940"/>
<circle cx="43.8129" cy="55.7618" r="1.08627" fill="#081940"/>
<circle cx="40.5541" cy="57.2102" r="1.08627" fill="#081940"/>
<circle cx="37.2952" cy="58.2965" r="1.08627" fill="#081940"/>
<circle cx="33.6743" cy="58.6585" r="1.08627" fill="#081940"/>
<circle cx="30.0535" cy="59.0206" r="1.08627" fill="#081940"/>
<circle cx="26.7946" cy="58.6585" r="1.08627" fill="#081940"/>
<circle cx="23.1737" cy="57.9344" r="1.08627" fill="#081940"/>
<circle cx="19.9149" cy="56.8481" r="1.08627" fill="#081940"/>
<circle cx="16.6561" cy="55.0377" r="1.08627" fill="#081940"/>
<circle cx="13.7594" cy="53.2272" r="1.08627" fill="#081940"/>
<circle cx="10.8627" cy="51.0547" r="1.08627" fill="#081940"/>
<circle cx="7.966" cy="48.158" r="1.08627" fill="#081940"/>
<circle cx="5.79345" cy="44.8991" r="1.08627" fill="#081940"/>
<circle cx="4.34506" cy="41.6403" r="1.08627" fill="#081940"/>
<circle cx="2.89671" cy="37.6573" r="1.08627" fill="#081940"/>
<circle cx="1.81047" cy="34.0364" r="1.08627" fill="#081940"/>
<circle cx="1.44836" cy="30.0534" r="1.08627" fill="#081940"/>
<circle cx="1.81047" cy="26.4326" r="1.08627" fill="#081940"/>
<circle cx="2.89671" cy="22.8117" r="1.08627" fill="#081940"/>
<circle cx="4.34506" cy="18.8287" r="1.08627" fill="#081940"/>
<g filter="url(#filter0_i_405_1112)">
<path d="M37.5018 44.5377C35.8231 45.7367 33.1852 46.2164 31.5065 46.4562C29.8277 46.696 26.2306 45.9765 24.5519 45.4969C22.8732 45.0173 19.7556 41.4201 19.7556 41.4201C19.7556 41.4201 18.3167 41.4201 17.1176 41.1803C15.9186 40.9405 15.4389 39.2618 15.4389 38.3026C15.4389 37.3433 15.4389 37.5831 15.6787 36.8637C15.9186 36.1442 16.8778 35.6646 16.638 35.185C16.3982 34.7054 14.7108 32.7078 14.4797 30.3888C14.2486 28.0697 14.0806 25.8681 14.2399 24.3934C14.3992 22.9187 15.3091 21.2913 16.1584 20.0768C17.0076 18.8624 19.7556 17.6787 21.1944 17.4389C22.6333 17.1991 24.6953 16.9845 26.7101 17.6787C26.7101 17.6787 30.3073 19.3574 30.5471 19.1176C30.7869 18.8778 33.1851 17.4389 33.1851 17.4389C33.1851 17.4389 36.3026 16 37.5017 16C38.7007 16 41.8183 16.2398 43.7368 17.9185C45.6553 19.5972 46.2476 20.8714 47.0942 23.1944C47.8346 25.2258 47.7469 26.1238 48.0534 28.4703C48.3599 30.8167 46.1768 36.5176 45.8951 36.3841C45.6134 36.2505 46.3748 36.8637 46.8543 38.5424C47.3339 40.2211 45.5979 41.9495 45.4155 41.8997C43.7368 42.859 41.582 42.1871 40.859 42.1396C40.1361 42.092 39.1804 43.3386 37.5018 44.5377Z" fill="#C66000"/>
</g>
<path d="M37.5018 44.5377C35.8231 45.7367 33.1852 46.2164 31.5065 46.4562C29.8277 46.696 26.2306 45.9765 24.5519 45.4969C22.8732 45.0173 19.7556 41.4201 19.7556 41.4201C19.7556 41.4201 18.3167 41.4201 17.1176 41.1803C15.9186 40.9405 15.4389 39.2618 15.4389 38.3026C15.4389 37.3433 15.4389 37.5831 15.6787 36.8637C15.9186 36.1442 16.8778 35.6646 16.638 35.185C16.3982 34.7054 14.7108 32.7078 14.4797 30.3888C14.2486 28.0697 14.0806 25.8681 14.2399 24.3934C14.3992 22.9187 15.3091 21.2913 16.1584 20.0768C17.0076 18.8624 19.7556 17.6787 21.1944 17.4389C22.6333 17.1991 24.6953 16.9845 26.7101 17.6787C26.7101 17.6787 30.3073 19.3574 30.5471 19.1176C30.7869 18.8778 33.1851 17.4389 33.1851 17.4389C33.1851 17.4389 36.3026 16 37.5017 16C38.7007 16 41.8183 16.2398 43.7368 17.9185C45.6553 19.5972 46.2476 20.8714 47.0942 23.1944C47.8346 25.2258 47.7469 26.1238 48.0534 28.4703C48.3599 30.8167 46.1768 36.5176 45.8951 36.3841C45.6134 36.2505 46.3748 36.8637 46.8543 38.5424C47.3339 40.2211 45.5979 41.9495 45.4155 41.8997C43.7368 42.859 41.582 42.1871 40.859 42.1396C40.1361 42.092 39.1804 43.3386 37.5018 44.5377Z" stroke="#3F1D00"/>
<path d="M39.6599 42.1395L36.7822 39.9812C36.7822 39.9812 36.179 39.5207 35.5925 39.1179C34.9124 38.7476 34.4691 38.4915 34.6238 38.5423C34.8162 38.6055 35.2006 38.8488 35.5925 39.1179C37.022 39.8965 39.4974 41.1803 39.6599 41.1803C39.8997 41.1803 41.1946 42.2527 40.6192 42.1395C40.0437 42.0264 40.4352 41.7594 39.6599 42.1395Z" fill="#571D1D"/>
<path d="M21.9138 41.1803C21.4342 41.4201 19.9953 41.4201 19.9953 41.4201L21.1944 42.6192C21.674 42.1395 27.4295 38.7822 27.4295 38.7822C27.6853 38.4479 22.3934 40.9405 21.9138 41.1803Z" fill="#571D1D"/>
<path d="M21.1944 42.6192C21.674 42.1395 27.4295 38.7822 27.4295 38.7822C27.6853 38.4479 22.3934 40.9405 21.9138 41.1803C21.4342 41.4201 19.9953 41.4201 19.9953 41.4201L21.1944 42.6192ZM21.1944 42.6192C21.674 43.3386 21.674 43.5784 21.674 43.5784M39.6599 42.1395L36.7822 39.9812C36.7822 39.9812 35.104 38.7 34.6238 38.5423C34.1437 38.3847 39.4201 41.1803 39.6599 41.1803C39.8997 41.1803 41.1946 42.2527 40.6192 42.1395C40.0437 42.0264 40.4352 41.7594 39.6599 42.1395Z" stroke="#571D1D"/>
<path d="M30.547 27.511C29.3526 26.3683 28.3403 25.497 26.7101 24.3934" stroke="#673100"/>
<path d="M30.5657 27.5238L34.1474 31.348L34.8637 30.631L30.5657 27.5238Z" fill="#673100" stroke="#673100"/>
<path d="M26.4702 24.6333C25.511 24.8731 25.7508 26.3119 25.7508 27.2712C25.7508 28.2304 26.71 31.1082 26.4702 31.348C26.2304 31.5878 21.674 33.7461 20.9545 33.7461C20.2351 33.7461 19.2759 31.348 19.036 28.7101C18.7962 26.0721 19.2759 25.3527 19.5157 24.6333C19.7555 23.9138 21.1944 22.7148 22.3934 22.7148C23.5169 22.7148 27.1666 24.3989 26.6362 24.4141C26.7641 24.4758 26.7851 24.5545 26.4702 24.6333Z" fill="#3F1D00" stroke="#3F1D00"/>
<ellipse opacity="0.5" cx="30.6108" cy="24.7402" rx="0.479625" ry="0.959249" transform="rotate(-20.3458 30.6108 24.7402)" fill="#D9D9D9"/>
<ellipse opacity="0.5" cx="43.781" cy="22.8111" rx="0.479625" ry="0.959249" transform="rotate(-84.0852 43.781 22.8111)" fill="#D9D9D9"/>
<ellipse opacity="0.5" cx="42.3422" cy="19.4537" rx="0.479625" ry="0.959249" transform="rotate(-35.4542 42.3422 19.4537)" fill="#D9D9D9"/>
<path d="M35.3904 23.674C35.3904 23.674 29.348 18.638 30.3072 19.1176C31.2665 19.5972 32.7255 20.6376 33.5663 21.5157C34.4072 22.3938 36.0744 22.2351 36.0744 22.2351C36.0744 22.2351 37.5029 22.0303 38.5824 22.2351C39.662 22.4399 40.1318 23.1944 40.6192 23.674C41.1065 24.1536 42.1756 27.0137 41.8182 27.0314C41.8182 27.0314 39.4944 23.2054 39.0384 22.9546C38.5824 22.7038 37.2144 22.7435 36.7584 22.9546C36.3024 23.1657 35.3904 23.674 35.3904 23.674Z" fill="#673100" stroke="#673100"/>
<path d="M37.4273 44.7175C35.7457 45.9241 33.1034 46.4067 31.4217 46.6481C29.7401 46.8894 26.1368 46.1654 24.4552 45.6828C22.7737 45.2001 19.6507 41.5803 19.6507 41.5803C19.6507 41.5803 18.1465 41.8216 17.0082 41.3389C15.8698 40.8563 15.3266 39.4084 15.3266 38.4431C15.3266 37.4778 15.3266 37.7191 15.5668 36.9951C15.8071 36.2712 16.768 35.7885 16.5277 35.3059C16.2875 34.8232 14.5972 32.8131 14.3657 30.4794C14.1342 28.1457 13.8225 25.6529 14.1255 24.4463C14.4285 23.2397 15.1966 21.3246 16.0473 20.1025C16.898 18.8804 19.6506 17.6893 21.092 17.448C22.5333 17.2066 24.5989 16.9907 26.6171 17.6893C26.6171 17.6893 30.2205 19.3785 30.4607 19.1372C30.701 18.8959 33.1032 17.448 33.1032 17.448C33.1032 17.448 36.2261 16 37.4272 16C38.6284 16 41.7512 16.2413 43.673 17.9306C45.5948 19.6199 46.1882 20.9021 47.0363 23.2397C47.7779 25.2839 47.701 26.2293 47.9971 28.5488C48.2932 30.8684 46.2429 36.1934 45.8351 36.5125C45.4272 36.8315 46.138 36.5125 46.7959 38.6844C47.4539 40.8563 45.3546 42.0629 45.3546 42.0629C43.673 43.0282 41.5146 42.3521 40.7904 42.3042C40.0661 42.2564 39.1089 43.5109 37.4273 44.7175Z" stroke="#3F1D00"/>
<ellipse opacity="0.5" cx="39.8876" cy="18.4985" rx="0.479625" ry="0.959249" transform="rotate(7.36479 39.8876 18.4985)" fill="white"/>
<ellipse opacity="0.5" cx="29.172" cy="30.9753" rx="0.479625" ry="0.959249" transform="rotate(-20.3458 29.172 30.9753)" fill="white"/>
<ellipse opacity="0.5" cx="44.9996" cy="30.016" rx="0.479625" ry="0.959249" transform="rotate(-20.3458 44.9996 30.016)" fill="white"/>
<g opacity="0.5" filter="url(#filter1_d_405_1112)">
<ellipse cx="22.4572" cy="36.2512" rx="0.479625" ry="0.959249" transform="rotate(-20.3458 22.4572 36.2512)" fill="url(#paint0_linear_405_1112)"/>
</g>
<g opacity="0.5" filter="url(#filter2_d_405_1112)">
<ellipse cx="33.005" cy="40.9108" rx="0.342984" ry="0.959249" transform="rotate(88.3592 33.005 40.9108)" fill="url(#paint1_linear_405_1112)"/>
</g>
<g opacity="0.5" filter="url(#filter3_d_405_1112)">
<ellipse cx="30.1312" cy="42.9659" rx="0.479625" ry="0.959249" transform="rotate(-82.6938 30.1312 42.9659)" fill="url(#paint2_linear_405_1112)"/>
</g>
<ellipse opacity="0.5" cx="31.2366" cy="30.6286" rx="0.222082" ry="0.684955" transform="rotate(-20.3458 31.2366 30.6286)" fill="white"/>
<path opacity="0.5" d="M38.7007 35.4248C39.03 35.2387 39.3459 35.1743 39.4062 35.2811C39.4666 35.3879 39.2485 35.6253 38.9192 35.8115C38.5899 35.9976 38.274 36.062 38.2136 35.9552C38.1533 35.8484 38.3713 35.611 38.7007 35.4248Z" fill="white"/>
<ellipse opacity="0.5" cx="26.4702" cy="21.8821" rx="0.329087" ry="0.901169" transform="rotate(-109.124 26.4702 21.8821)" fill="white"/>
<ellipse opacity="0.5" cx="21.6334" cy="20.2177" rx="0.329087" ry="0.901169" transform="rotate(-86.6836 21.6334 20.2177)" fill="white"/>
<ellipse opacity="0.5" cx="15.8779" cy="27.8917" rx="0.329087" ry="0.901169" transform="rotate(-86.6836 15.8779 27.8917)" fill="white"/>
<ellipse opacity="0.5" cx="40.4355" cy="37.0972" rx="0.380343" ry="0.974639" transform="rotate(-144.021 40.4355 37.0972)" fill="white"/>
<path d="M27.4295 38.7822C28.4269 38.0502 28.8541 37.7365 31.0267 36.1443H31.2665L34.6239 38.5424C31.7551 39.1227 30.1815 39.1603 27.4295 38.7822Z" fill="#3F1D00" stroke="#3F1D00"/>
<ellipse opacity="0.5" cx="18.7557" cy="19.2584" rx="0.329087" ry="0.901169" transform="rotate(-106.151 18.7557 19.2584)" fill="white"/>
<path d="M35.1035 23.674C35.1178 23.6653 35.1328 23.6611 35.1483 23.6612L36.7822 23.1944C36.7822 23.1944 38.4608 22.7147 39.4201 23.1944C40.3793 23.674 41.3386 25.5925 41.3386 25.5925C41.3386 25.5925 42.058 26.5517 41.8182 28.9499C41.5784 31.348 40.1395 34.2257 40.1395 34.2257C40.1395 34.2257 34.1442 32.0674 34.384 31.5878C34.6238 31.1082 36.2045 29.6837 36.3025 28.2304C36.3971 26.8285 35.571 23.6629 35.1483 23.6612L35.1035 23.674Z" fill="#3F1D00" stroke="#3F1D00"/>
<path d="M29.8276 36.6239C29.3969 35.1361 28.8856 34.2112 27.9755 33.0364C27.7223 32.74 27.4632 32.4203 27.1897 32.0674C27.4815 32.4161 27.7417 32.7345 27.9755 33.0364C28.9265 34.1493 29.7944 34.9327 31.0267 35.9044L29.8276 36.6239Z" fill="#571D1D" stroke="#571D1D"/>
<path d="M29.9337 19.4765C29.9118 19.4765 29.9777 19.4765 29.9996 19.4765C30.0606 19.4765 30.1217 19.4761 30.1827 19.4786C30.2099 19.4797 30.2388 19.4799 30.2639 19.4918C30.2917 19.5049 30.3222 19.5244 30.3446 19.5456C30.3636 19.5636 30.3733 19.6019 30.383 19.6254C30.3902 19.6429 30.3864 19.6452 30.373 19.6292C30.3293 19.5775 30.2836 19.5364 30.2275 19.4978C30.184 19.4679 30.1385 19.4335 30.0882 19.4159C30.076 19.4116 30.0616 19.4084 30.0506 19.4014C30.0403 19.3948 30.0291 19.3899 30.0182 19.3843C30.0007 19.3753 30.0048 19.3807 30.0191 19.389C30.0574 19.4115 30.1035 19.4194 30.1449 19.4342C30.1814 19.4473 30.2134 19.4735 30.2392 19.5014C30.2746 19.5396 30.3023 19.5837 30.335 19.6237C30.3738 19.6711 30.2864 19.5086 30.2456 19.4628C30.2095 19.4222 30.1575 19.3772 30.1074 19.3544C30.0524 19.3295 29.9977 19.3167 29.938 19.3062C29.8939 19.2985 29.8496 19.2916 29.8053 19.2845C29.8018 19.2839 29.7794 19.2757 29.7771 19.2777C29.7751 19.2794 29.8163 19.2908 29.8202 19.2913C29.8933 19.3003 29.9555 19.3303 30.0229 19.3574C30.0948 19.3864 30.1846 19.4102 30.2448 19.4613C30.4098 19.6016 30.5107 19.8051 30.6053 19.9959C30.6226 20.031 30.6501 20.0674 30.6624 20.1045C30.6678 20.1205 30.6567 20.0837 30.6541 20.0791C30.5912 19.9681 30.5085 19.8663 30.4338 19.7632C30.3594 19.6606 30.2847 19.5585 30.2042 19.4607C30.188 19.4409 30.1669 19.4182 30.147 19.402C30.136 19.393 30.1803 19.4427 30.1829 19.4453C30.2436 19.506 30.3055 19.5663 30.3623 19.6307C30.3755 19.6457 30.397 19.6702 30.371 19.6431C30.3462 19.6171 30.3164 19.5946 30.2883 19.5725C30.2302 19.5268 30.1705 19.4811 30.1104 19.4383C30.0177 19.3724 29.9206 19.3128 29.81 19.2815C29.7533 19.2654 29.6967 19.2511 29.6381 19.2452C29.5992 19.2413 29.5603 19.2332 29.5214 19.2286C29.4922 19.2251 29.4644 19.223 29.435 19.223C29.4286 19.223 29.403 19.2202 29.4205 19.2286C29.5174 19.2751 29.6256 19.3056 29.7268 19.3414C29.9137 19.4076 30.1153 19.4533 30.2716 19.5819C30.3305 19.6303 30.3865 19.6857 30.4395 19.7406C30.4552 19.7568 30.4743 19.7871 30.4943 19.7982C30.5004 19.8015 30.4803 19.7506 30.4781 19.7468C30.4452 19.6892 30.3986 19.64 30.351 19.5944C30.3489 19.5924 30.3163 19.5595 30.3109 19.5703C30.3016 19.589 30.3264 19.6153 30.3358 19.6275C30.3769 19.6804 30.4125 19.738 30.4466 19.7956C30.4535 19.8073 30.4612 19.8228 30.4728 19.8308C30.4783 19.8346 30.4874 19.8213 30.4905 19.8182" stroke="#C66000" stroke-width="0.08" stroke-linecap="round"/>
<path d="M42.0683 25.986C42.0836 26.1084 42.0677 26.2364 42.0915 26.3611C42.1144 26.4808 42.1276 26.6036 42.1461 26.7242C42.1566 26.7933 42.1637 26.8653 42.1655 26.9352C42.1673 27.006 42.1752 27.0769 42.1752 27.1478C42.1752 27.1513 42.1708 27.2087 42.1633 27.2013C42.157 27.195 42.1606 27.1704 42.1606 27.1638C42.1606 27.1146 42.1606 27.0654 42.1606 27.0162C42.1606 26.8237 42.1606 26.6312 42.1606 26.4388C42.1606 26.4061 42.1606 26.3735 42.1606 26.3408C42.1606 26.3358 42.1606 26.3287 42.1606 26.3389C42.1606 26.3665 42.1606 26.3942 42.1606 26.4218C42.1606 26.6092 42.1377 26.7947 42.1196 26.9811C42.1159 27.0195 42.1121 27.0585 42.1121 27.0971C42.1121 27.1096 42.1157 27.1283 42.1072 27.1389C42.1042 27.1427 42.1029 27.13 42.1026 27.1252C42.1006 27.0849 42.1022 27.044 42.1034 27.0038C42.1066 26.8976 42.1072 26.7916 42.1072 26.6854C42.1072 26.5651 42.1072 26.4449 42.1072 26.3246C42.1072 26.3105 42.1068 26.3033 42.1072 26.3222C42.1083 26.3716 42.1121 26.4207 42.1121 26.4703C42.1121 26.6342 42.0975 26.7973 42.0975 26.9614C42.0975 26.9987 42.1003 27.037 42.0902 27.0734C42.0858 27.0892 42.0804 27.1263 42.084 27.1419C42.0914 27.1745 42.0878 27.1168 42.0878 27.1098C42.0878 27.0687 42.0878 27.0276 42.0878 26.9865C42.0878 26.9184 42.0829 26.8507 42.0829 26.7825C42.0829 26.5636 42.1049 26.3455 42.0829 26.1269C42.0666 25.9642 42.0382 25.8054 42.0149 25.6439C42.0133 25.6326 42.0112 25.5985 42.0101 25.6099C42.0078 25.6324 42.0101 25.6567 42.0101 25.6792C42.0101 25.8099 42.0115 25.9402 42.016 26.0707C42.0226 26.2607 42.0438 26.4496 42.0683 26.6379C42.0832 26.7521 42.0896 26.8668 42.1023 26.9811C42.1036 26.9924 42.1121 27.0712 42.1121 27.0235C42.1121 26.9373 42.1182 26.8518 42.1207 26.7658C42.1247 26.6308 42.1218 26.4953 42.1218 26.3603C42.1218 26.1483 42.0867 25.9436 42.0565 25.7346C42.0517 25.7014 42.0441 25.6012 42.0441 25.6347C42.0441 25.7958 42.0414 25.9572 42.0468 26.1182C42.0512 26.2501 42.0623 26.3818 42.0732 26.5132C42.0785 26.577 42.0878 26.6405 42.0878 26.7045C42.0878 26.7688 42.1072 26.8321 42.1072 26.8956C42.1072 26.9251 42.114 26.8368 42.1169 26.8073C42.1292 26.6824 42.1327 26.5561 42.1312 26.4307C42.1289 26.2325 42.0683 26.0428 42.0683 25.8452" stroke="#C66000" stroke-width="0.08" stroke-linecap="round"/>
<path d="M26.6995 31.5651C26.7841 31.5651 26.8524 31.635 26.915 31.684C26.9753 31.731 27.0193 31.791 27.0673 31.8499C27.1313 31.9285 27.18 32.0316 27.2537 32.1C27.3249 32.1662 27.3668 32.2691 27.4192 32.3497C27.4722 32.4313 27.5058 32.5099 27.5769 32.581" stroke="#571D1D" stroke-opacity="0.5" stroke-linecap="round"/>
<path d="M26.6457 31.5574C26.7717 31.5574 26.879 31.6588 26.9574 31.7498C27.0184 31.8207 27.0868 31.8837 27.1459 31.9559C27.2662 32.103 27.3933 32.2346 27.4692 32.4117" stroke="#571D1D" stroke-linecap="round"/>
<path d="M20.5191 33.9812H20.6586" stroke="#571D1D" stroke-opacity="0.5" stroke-linecap="round"/>
<path d="M20.5191 33.9812C20.1228 33.9812 19.7179 33.9838 19.3338 34.093C19.011 34.1847 18.678 34.3207 18.372 34.4593C17.9811 34.6364 17.6008 34.8448 17.2519 35.0968C17.0395 35.2503 16.8308 35.4068 16.6299 35.575C16.5789 35.6177 16.5063 35.6685 16.4672 35.7233C16.4595 35.734 16.6691 35.6842 16.6819 35.6801C16.895 35.6116 17.103 35.5219 17.3094 35.4355C18.2484 35.0425 19.042 34.3334 20.0908 34.2402C20.3912 34.2135 20.7357 34.1615 21.0172 34.052C21.0948 34.0218 21.2067 34.0556 21.2562 33.9812" stroke="#571D1D" stroke-opacity="0.5" stroke-linecap="round"/>
<path d="M21.6945 33.7864C21.5285 33.7864 20.8047 34.0011 20.6386 34.0011C20.2786 34.0011 19.9463 34.0666 19.6049 34.1804C19.0561 34.3634 18.5662 34.6448 18.0687 34.933C17.6614 35.169 17.2705 35.4344 16.8545 35.6547C16.8006 35.6832 16.749 35.7129 16.6941 35.7388C16.6227 35.7723 16.8192 35.6428 16.88 35.5927C17.3759 35.1841 17.8874 34.7667 18.455 34.4604C18.9467 34.1951 19.4911 34.0013 20.0366 33.8816C20.2554 33.8336 20.4707 33.8085 20.694 33.7864C20.8607 33.77 21.03 33.796 21.1965 33.7809C21.3497 33.767 21.5536 33.7694 21.6945 33.7067C21.8068 33.6568 21.9139 33.7086 21.9933 33.6027" stroke="#571D1D" stroke-linecap="round"/>
<path d="M40.2872 34.4322C41.069 34.4322 41.829 34.6044 42.5378 34.9315C43.1075 35.1944 43.7006 35.3976 44.2408 35.7197C44.6173 35.9441 45.0063 36.1602 45.3625 36.4167C45.4723 36.4958 45.5886 36.5833 45.6914 36.671C45.7332 36.7065 45.8728 36.8316 45.9293 36.794" stroke="#571D1D" stroke-opacity="0.5" stroke-linecap="round"/>
<path d="M40.4919 41.6919C40.6201 41.6919 40.6999 41.7308 40.8154 41.7927C40.9196 41.8486 41.0453 41.9002 41.1389 41.975C41.1701 42 41.2059 42.018 41.2348 42.0469C41.2883 42.1004 41.1252 41.9407 41.0601 41.9023C40.943 41.8335 40.8277 41.7614 40.7044 41.7043C40.439 41.5813 40.1497 41.4759 39.9148 41.2972C39.9109 41.2942 39.8462 41.2548 39.8532 41.267C39.8629 41.284 39.9056 41.2879 39.921 41.2924C39.9774 41.3087 40.0317 41.3314 40.0862 41.3534C40.3775 41.4707 40.6235 41.6614 40.8963 41.8126C41.0854 41.9174 41.2797 42.0135 41.4637 42.1264C41.5306 42.1675 41.6085 42.2035 41.6693 42.2532C41.7342 42.3063 41.6766 42.2538 41.6337 42.2375C41.4182 42.1555 41.1845 42.137 40.9614 42.086C40.7983 42.0487 40.6436 42.0353 40.4768 42.0373C40.3009 42.0395 40.1115 42.086 39.9436 42.136C39.8817 42.1545 39.82 42.1737 39.7599 42.1977C39.7528 42.2006 39.7105 42.2266 39.727 42.2101" stroke="#571D1D" stroke-opacity="0.5" stroke-linecap="round"/>
<defs>
<filter id="filter0_i_405_1112" x="13.6774" y="15.5" width="34.9054" height="35.5036" filterUnits="userSpaceOnUse" color-interpolation-filters="sRGB">
<feFlood flood-opacity="0" result="BackgroundImageFix"/>
<feBlend mode="normal" in="SourceGraphic" in2="BackgroundImageFix" result="shape"/>
<feColorMatrix in="SourceAlpha" type="matrix" values="0 0 0 0 0 0 0 0 0 0 0 0 0 0 0 0 0 0 127 0" result="hardAlpha"/>
<feOffset dy="4"/>
<feGaussianBlur stdDeviation="2"/>
<feComposite in2="hardAlpha" operator="arithmetic" k2="-1" k3="1"/>
<feColorMatrix type="matrix" values="0 0 0 0 0.615535 0 0 0 0 0.228522 0 0 0 0 0.0491753 0 0 0 1 0"/>
<feBlend mode="normal" in2="shape" result="effect1_innerShadow_405_1112"/>
</filter>
<filter id="filter1_d_405_1112" x="17.8973" y="35.3363" width="9.11984" height="9.8298" filterUnits="userSpaceOnUse" color-interpolation-filters="sRGB">
<feFlood flood-opacity="0" result="BackgroundImageFix"/>
<feColorMatrix in="SourceAlpha" type="matrix" values="0 0 0 0 0 0 0 0 0 0 0 0 0 0 0 0 0 0 127 0" result="hardAlpha"/>
<feOffset dy="4"/>
<feGaussianBlur stdDeviation="2"/>
<feComposite in2="hardAlpha" operator="out"/>
<feColorMatrix type="matrix" values="0 0 0 0 0 0 0 0 0 0 0 0 0 0 0 0 0 0 0.25 0"/>
<feBlend mode="normal" in2="BackgroundImageFix" result="effect1_dropShadow_405_1112"/>
<feBlend mode="normal" in="SourceGraphic" in2="effect1_dropShadow_405_1112" result="shape"/>
</filter>
<filter id="filter2_d_405_1112" x="28.0461" y="40.5668" width="9.91782" height="8.68793" filterUnits="userSpaceOnUse" color-interpolation-filters="sRGB">
<feFlood flood-opacity="0" result="BackgroundImageFix"/>
<feColorMatrix in="SourceAlpha" type="matrix" values="0 0 0 0 0 0 0 0 0 0 0 0 0 0 0 0 0 0 127 0" result="hardAlpha"/>
<feOffset dy="4"/>
<feGaussianBlur stdDeviation="2"/>
<feComposite in2="hardAlpha" operator="out"/>
<feColorMatrix type="matrix" values="0 0 0 0 0 0 0 0 0 0 0 0 0 0 0 0 0 0 0.25 0"/>
<feBlend mode="normal" in2="BackgroundImageFix" result="effect1_dropShadow_405_1112"/>
<feBlend mode="normal" in="SourceGraphic" in2="effect1_dropShadow_405_1112" result="shape"/>
</filter>
<filter id="filter3_d_405_1112" x="25.1778" y="42.4747" width="9.90689" height="8.98248" filterUnits="userSpaceOnUse" color-interpolation-filters="sRGB">
<feFlood flood-opacity="0" result="BackgroundImageFix"/>
<feColorMatrix in="SourceAlpha" type="matrix" values="0 0 0 0 0 0 0 0 0 0 0 0 0 0 0 0 0 0 127 0" result="hardAlpha"/>
<feOffset dy="4"/>
<feGaussianBlur stdDeviation="2"/>
<feComposite in2="hardAlpha" operator="out"/>
<feColorMatrix type="matrix" values="0 0 0 0 0 0 0 0 0 0 0 0 0 0 0 0 0 0 0.25 0"/>
<feBlend mode="normal" in2="BackgroundImageFix" result="effect1_dropShadow_405_1112"/>
<feBlend mode="normal" in="SourceGraphic" in2="effect1_dropShadow_405_1112" result="shape"/>
</filter>
<linearGradient id="paint0_linear_405_1112" x1="22.4572" y1="35.2919" x2="22.4572" y2="37.2104" gradientUnits="userSpaceOnUse">
<stop offset="0.4375" stop-color="#D9D9D9"/>
<stop offset="1" stop-color="#737373"/>
</linearGradient>
<linearGradient id="paint1_linear_405_1112" x1="33.005" y1="39.9516" x2="33.005" y2="41.8701" gradientUnits="userSpaceOnUse">
<stop offset="0.4375" stop-color="#D9D9D9"/>
<stop offset="1" stop-color="#737373"/>
</linearGradient>
<linearGradient id="paint2_linear_405_1112" x1="30.1312" y1="42.0067" x2="30.1312" y2="43.9252" gradientUnits="userSpaceOnUse">
<stop offset="0.4375" stop-color="#D9D9D9"/>
<stop offset="1" stop-color="#737373"/>
</linearGradient>
</defs>
</svg>
