<svg width="62" height="61" viewBox="0 0 62 61" fill="none" xmlns="http://www.w3.org/2000/svg">
<ellipse cx="30.5966" cy="30.2345" rx="30.5966" ry="30.2345" fill="#FFBD5B"/>
<ellipse cx="30.7776" cy="30.4156" rx="27.1567" ry="26.7946" fill="#3B0434"/>
<circle cx="5.79342" cy="15.9319" r="1.08627" fill="#081940"/>
<circle cx="7.96597" cy="12.311" r="1.08627" fill="#081940"/>
<circle cx="11.2248" cy="9.05224" r="1.08627" fill="#081940"/>
<circle cx="14.1215" cy="6.8797" r="1.08627" fill="#081940"/>
<circle cx="17.3803" cy="4.70716" r="1.08627" fill="#081940"/>
<circle cx="21.0012" cy="3.25882" r="1.08627" fill="#081940"/>
<circle cx="24.6221" cy="2.17253" r="1.08627" fill="#081940"/>
<circle cx="28.605" cy="1.81042" r="1.08627" fill="#081940"/>
<circle cx="32.5881" cy="1.81042" r="1.08627" fill="#081940"/>
<circle cx="36.209" cy="2.17253" r="1.08627" fill="#081940"/>
<circle cx="39.4677" cy="3.25882" r="1.08627" fill="#081940"/>
<circle cx="43.0886" cy="4.34506" r="1.08627" fill="#081940"/>
<circle cx="45.9854" cy="6.1555" r="1.08627" fill="#081940"/>
<circle cx="48.52" cy="7.96595" r="1.08627" fill="#081940"/>
<circle cx="51.0547" cy="10.1385" r="1.08627" fill="#081940"/>
<circle cx="53.5893" cy="13.0352" r="1.08627" fill="#081940"/>
<circle cx="55.3997" cy="15.9319" r="1.08627" fill="#081940"/>
<circle cx="57.2102" cy="18.8287" r="1.08627" fill="#081940"/>
<circle cx="58.2964" cy="22.0874" r="1.08627" fill="#081940"/>
<circle cx="59.0206" cy="25.3463" r="1.08627" fill="#081940"/>
<circle cx="59.3827" cy="28.243" r="1.08627" fill="#081940"/>
<circle cx="59.3827" cy="31.8639" r="1.08627" fill="#081940"/>
<circle cx="59.0206" cy="35.4848" r="1.08627" fill="#081940"/>
<circle cx="58.2964" cy="38.7436" r="1.08627" fill="#081940"/>
<circle cx="57.2102" cy="41.6403" r="1.08627" fill="#081940"/>
<circle cx="55.7618" cy="44.537" r="1.08627" fill="#081940"/>
<circle cx="53.9514" cy="47.0717" r="1.08627" fill="#081940"/>
<circle cx="51.7788" cy="49.9684" r="1.08627" fill="#081940"/>
<circle cx="49.2442" cy="52.1409" r="1.08627" fill="#081940"/>
<circle cx="46.7096" cy="53.9514" r="1.08627" fill="#081940"/>
<circle cx="43.8128" cy="55.7618" r="1.08627" fill="#081940"/>
<circle cx="40.554" cy="57.2102" r="1.08627" fill="#081940"/>
<circle cx="37.2952" cy="58.2965" r="1.08627" fill="#081940"/>
<circle cx="33.6743" cy="58.6585" r="1.08627" fill="#081940"/>
<circle cx="30.0534" cy="59.0206" r="1.08627" fill="#081940"/>
<circle cx="26.7946" cy="58.6585" r="1.08627" fill="#081940"/>
<circle cx="23.1737" cy="57.9344" r="1.08627" fill="#081940"/>
<circle cx="19.9149" cy="56.8481" r="1.08627" fill="#081940"/>
<circle cx="16.6561" cy="55.0376" r="1.08627" fill="#081940"/>
<circle cx="13.7594" cy="53.2272" r="1.08627" fill="#081940"/>
<circle cx="10.8627" cy="51.0546" r="1.08627" fill="#081940"/>
<circle cx="7.96597" cy="48.158" r="1.08627" fill="#081940"/>
<circle cx="5.79342" cy="44.8991" r="1.08627" fill="#081940"/>
<circle cx="4.34503" cy="41.6403" r="1.08627" fill="#081940"/>
<circle cx="2.89668" cy="37.6573" r="1.08627" fill="#081940"/>
<circle cx="1.81044" cy="34.0364" r="1.08627" fill="#081940"/>
<circle cx="1.44833" cy="30.0534" r="1.08627" fill="#081940"/>
<circle cx="1.81044" cy="26.4325" r="1.08627" fill="#081940"/>
<circle cx="2.89668" cy="22.8116" r="1.08627" fill="#081940"/>
<circle cx="4.34503" cy="18.8287" r="1.08627" fill="#081940"/>
<path d="M41.4755 16.0777C42.6024 16.2686 43.0864 16.5393 43.2812 16.7647C43.4147 16.9191 43.4597 17.1124 43.3886 17.4394L43.3509 17.5882C43.2755 17.8521 43.2286 18.0322 43.1591 18.1853C43.0971 18.3216 43.0341 18.3936 42.9556 18.4414C42.8701 18.4933 42.7104 18.5503 42.3962 18.5498C42.1592 18.5495 41.8526 18.5171 41.4554 18.4388L41.0271 18.3443C39.9139 18.0776 39.4278 17.8331 39.1875 17.5928C38.995 17.4001 38.9173 17.1663 38.8535 16.6966C39.1016 16.2921 39.214 16.1328 39.4385 16.0356C39.682 15.9302 40.1167 15.8816 41.0457 16.0108L41.4755 16.0777Z" fill="#D51010" stroke="#D51010"/>
<path d="M7.83096 34.5L7.08159 34.5306L7.08253 34.5537L7.08489 34.5767L7.83096 34.5ZM32 54.5L31.9625 53.7509L32 54.5ZM9.57379 35.5C9.57379 35.9142 9.90958 36.25 10.3238 36.25C10.738 36.25 11.0738 35.9142 11.0738 35.5H9.57379ZM12.75 38.5C12.75 38.9142 13.0858 39.25 13.5 39.25C13.9142 39.25 14.25 38.9142 14.25 38.5H12.75ZM15.9379 39C15.9379 39.4142 16.2737 39.75 16.6879 39.75C17.1022 39.75 17.4379 39.4142 17.4379 39H15.9379ZM19.2904 38.5C19.2904 38.9142 19.6262 39.25 20.0404 39.25C20.4547 39.25 20.7904 38.9142 20.7904 38.5H19.2904ZM22.75 35C22.75 35.4142 23.0858 35.75 23.5 35.75C23.9142 35.75 24.25 35.4142 24.25 35H22.75ZM11.8523 45.1994L11.2269 45.6133L11.8523 45.1994ZM19.5 52.1358L19.1583 52.8035L19.5 52.1358ZM27.0493 54.355L26.9625 55.1L27.0493 54.355ZM44 50.8172L44.4083 51.4463L44 50.8172ZM48.3138 47.1499L48.867 47.6562L48.3138 47.1499ZM7.83096 34.5L8.58034 34.4694C8.56266 34.0363 8.60789 33.6113 8.72229 33.2018L7.99996 33L7.27763 32.7982C7.11793 33.3697 7.05798 33.9524 7.08159 34.5306L7.83096 34.5ZM10.3238 29H9.57379V35.5H10.3238H11.0738V29H10.3238ZM13.5 27.1737H12.75V38.5H13.5H14.25V27.1737H13.5ZM16.6879 27.1737H15.9379V39H16.6879H17.4379V27.1737H16.6879ZM20.0404 28.5H19.2904V38.5H20.0404H20.7904V28.5H20.0404ZM23.5 30.6002H22.75V35H23.5H24.25V30.6002H23.5ZM15.5 41.4285H14.75V49.4143H15.5H16.25V41.4285H15.5ZM7.83096 34.5C7.08489 34.5767 7.08492 34.5769 7.08494 34.5772C7.08495 34.5773 7.08498 34.5775 7.085 34.5777C7.08504 34.5782 7.0851 34.5787 7.08516 34.5793C7.08528 34.5804 7.08544 34.5819 7.08564 34.5838C7.08604 34.5875 7.08658 34.5925 7.08728 34.5988C7.08869 34.6114 7.09073 34.6293 7.09347 34.6521C7.09896 34.6979 7.10727 34.7637 7.11898 34.8483C7.14241 35.0174 7.17944 35.2615 7.23472 35.5694C7.34524 36.1849 7.52892 37.0567 7.82305 38.0944C8.41041 40.1667 9.44316 42.9181 11.2269 45.6133L11.8523 45.1994L12.4777 44.7854C10.8028 42.2546 9.82483 39.6563 9.2662 37.6854C8.98733 36.7015 8.81418 35.8784 8.71111 35.3043C8.6596 35.0174 8.62566 34.7931 8.6048 34.6425C8.59438 34.5672 8.58722 34.5104 8.58278 34.4734C8.58056 34.4549 8.57902 34.4413 8.57808 34.4329C8.57761 34.4287 8.5773 34.4258 8.57713 34.4242C8.57704 34.4234 8.57699 34.4229 8.57697 34.4228C8.57697 34.4227 8.57697 34.4227 8.57698 34.4228C8.57698 34.4228 8.577 34.423 8.577 34.423C8.57701 34.4231 8.57703 34.4233 7.83096 34.5ZM11.8523 45.1994L11.2269 45.6133C12.2289 47.1274 13.4699 48.6266 15.0045 49.9773L15.5 49.4143L15.9955 48.8514C14.5734 47.5996 13.417 46.2046 12.4777 44.7854L11.8523 45.1994ZM11.8523 40.5H11.1023V45.1994H11.8523H12.6023V40.5H11.8523ZM15.5 49.4143L15.0045 49.9773C16.2032 51.0324 17.5797 51.9956 19.1583 52.8035L19.5 52.1358L19.8417 51.4682C18.3798 50.72 17.1059 49.8287 15.9955 48.8514L15.5 49.4143ZM19.5 41.4285H18.75V52.1358H19.5H20.25V41.4285H19.5ZM19.5 52.1358L19.1583 52.8035C20.2239 53.3488 21.38 53.8226 22.6339 54.2062L22.8533 53.489L23.0727 52.7718C21.9031 52.414 20.8288 51.9733 19.8417 51.4682L19.5 52.1358ZM22.8533 40H22.1033V53.489H22.8533H23.6033V40H22.8533ZM22.8533 53.489L22.6339 54.2062C23.9654 54.6135 25.4056 54.9186 26.9625 55.1L27.0493 54.355L27.1361 53.6101C25.666 53.4388 24.3148 53.1518 23.0727 52.7718L22.8533 53.489ZM27.0493 34.5H26.2993V54.355H27.0493H27.7993V34.5H27.0493ZM27.0493 54.355L26.9625 55.1C28.0376 55.2252 29.1679 55.2914 30.3563 55.2916L30.3564 54.5416L30.3565 53.7916C29.2237 53.7914 28.1513 53.7283 27.1361 53.6101L27.0493 54.355ZM30.3564 54.5416L30.3563 55.2916C30.9042 55.2916 31.4646 55.2777 32.0375 55.2491L32 54.5L31.9625 53.7509C31.4141 53.7784 30.8789 53.7916 30.3565 53.7916L30.3564 54.5416ZM30.3564 26.5H29.6064V54.5416H30.3564H31.1064V26.5H30.3564ZM32 54.5L32.0375 55.2491C32.9236 55.2048 33.7784 55.124 34.6029 55.0098L34.5 54.2669L34.3971 53.524C33.617 53.632 32.8059 53.7088 31.9625 53.7509L32 54.5ZM34.5 20.5923H33.75V54.2669H34.5H35.25V20.5923H34.5ZM34.5 54.2669L34.6029 55.0098C36.4185 54.7583 38.0859 54.3449 39.6162 53.8028L39.3657 53.0958L39.1153 52.3889C37.6828 52.8964 36.1144 53.2861 34.3971 53.524L34.5 54.2669ZM39.3657 19H38.6157V53.0958H39.3657H40.1157V19H39.3657ZM39.3657 53.0958L39.6162 53.8028C41.3963 53.1722 42.9875 52.3685 44.4083 51.4463L44 50.8172L43.5917 50.1881C42.2669 51.0479 40.7814 51.7986 39.1153 52.3889L39.3657 53.0958ZM44 21.1205H43.25V50.8172H44H44.75V21.1205H44ZM44 50.8172L44.4083 51.4463C46.139 50.323 47.6134 49.026 48.867 47.6562L48.3138 47.1499L47.7605 46.6435C46.5842 47.9288 45.2056 49.1405 43.5917 50.1881L44 50.8172ZM48.3138 25H47.5638V47.1499H48.3138H49.0638V25H48.3138ZM48.3138 47.1499L48.867 47.6562C50.766 45.5813 52.1593 43.3386 53.1732 41.274L52.5 40.9434L51.8268 40.6128C50.8618 42.5778 49.544 44.6948 47.7605 46.6435L48.3138 47.1499ZM52.5 40.9434L53.1732 41.274C54.1939 39.1956 54.834 37.2896 55.2196 35.9013C55.4125 35.2067 55.5421 34.6401 55.6239 34.2445C55.6649 34.0466 55.6938 33.8914 55.7128 33.7841C55.7223 33.7305 55.7293 33.6888 55.734 33.6598C55.7364 33.6453 55.7382 33.6339 55.7395 33.6258C55.7401 33.6217 55.7406 33.6185 55.741 33.6161C55.7411 33.6149 55.7413 33.6138 55.7414 33.613C55.7415 33.6126 55.7415 33.6123 55.7416 33.612C55.7416 33.6119 55.7416 33.6117 55.7416 33.6116C55.7417 33.6114 55.7417 33.6113 55 33.5C54.2583 33.3888 54.2583 33.3886 54.2583 33.3885C54.2583 33.3885 54.2583 33.3884 54.2584 33.3883C54.2584 33.3882 54.2584 33.3882 54.2584 33.3882C54.2584 33.3882 54.2583 33.3885 54.2583 33.3889C54.2581 33.3898 54.2579 33.3914 54.2575 33.3939C54.2567 33.3989 54.2554 33.407 54.2536 33.4183C54.2499 33.4409 54.244 33.476 54.2357 33.5228C54.2191 33.6166 54.1929 33.7577 54.155 33.9408C54.0793 34.307 53.9574 34.8408 53.7743 35.4999C53.4079 36.8193 52.7981 38.635 51.8268 40.6128L52.5 40.9434ZM52.5 29.9824H51.75V40.9434H52.5H53.25V29.9824H52.5Z" fill="#8C4706"/>
<path d="M55 33.5C55 33.5 54.4919 36.8872 52.5 40.9434M7.99996 33C7.86291 33.4905 7.81032 33.9944 7.83096 34.5C7.83096 34.5 8.39361 39.9733 11.8523 45.1994M15.5 41.4285V49.4143M15.5 49.4143C14.0216 48.1131 12.8229 46.666 11.8523 45.1994M15.5 49.4143C16.6546 50.4306 17.9797 51.3578 19.5 52.1358M11.8523 40.5V45.1994M19.5 41.4285V52.1358M19.5 52.1358C20.5263 52.6611 21.6416 53.1183 22.8533 53.489M22.8533 40V53.489M22.8533 53.489C24.1401 53.8827 25.5358 54.1787 27.0493 54.355M27.0493 34.5V54.355M27.0493 54.355C28.0945 54.4768 29.1958 54.5414 30.3564 54.5416M30.3564 26.5V54.5416M30.3564 54.5416C30.8916 54.5416 31.4393 54.528 32 54.5C32.8647 54.4568 33.6977 54.378 34.5 54.2669M34.5 20.5923V54.2669M34.5 54.2669C36.2664 54.0222 37.8843 53.6207 39.3657 53.0958M39.3657 19V53.0958M39.3657 53.0958C41.0888 52.4854 42.6272 51.7082 44 50.8172M44 21.1205V50.8172M44 50.8172C45.6723 49.7317 47.0988 48.4774 48.3138 47.1499M48.3138 25V47.1499M48.3138 47.1499C50.155 45.1381 51.5106 42.9582 52.5 40.9434M52.5 29.9824V40.9434" stroke="#D67821" stroke-width="1.5"/>
<path d="M55 33.5C55 33.5 54.037 32.0094 52.5 29.9825C51.3652 28.4859 49.9176 26.6971 48.3138 25C46.9561 23.5635 45.4866 22.1927 44 21.1205C42.4372 19.9934 40.8557 19.1964 39.3657 19C38.9004 18.9387 38.444 18.9359 38 19C36.6668 19.1923 35.5088 19.7719 34.5 20.5923C32.687 22.0667 31.3559 24.3191 30.3564 26.5C29.2111 28.9989 28.5011 31.404 28 32.4375M28 32.4375C26.3258 32.1236 24.8759 31.4103 23.5 30.6002C22.324 29.9078 21.202 29.1448 20.0404 28.5C18.9798 27.9113 17.8861 27.4212 16.6879 27.1737C16.1486 27.0623 15.5881 27 15 27C14.4703 27 13.9703 27.0614 13.5 27.1737C12.2258 27.4779 11.1685 28.156 10.3238 29C9.1258 30.197 8.35538 31.728 7.99996 33C7.86291 33.4905 7.81032 33.9944 7.83096 34.5C7.91553 36.5715 9.22925 38.672 10.9999 40C11.2376 40.1783 11.5248 40.3459 11.8523 40.5C12.804 40.9478 14.0957 41.2813 15.5 41.4285C17.6789 41.6569 20.1289 41.437 22 40.5C22.2987 40.3504 22.5828 40.1828 22.8533 40C24.8993 38.6174 26.1619 36.3685 27.0493 34.5C27.4224 33.7144 27.7292 32.996 28 32.4375Z" stroke="#1B3E8F" stroke-width="1.5" stroke-linecap="round"/>
<path d="M55 33.5C55 33.5 54.037 32.0094 52.5 29.9825C51.3652 28.4859 49.9176 26.6971 48.3138 25C46.9561 23.5635 45.4866 22.1927 44 21.1205C42.4372 19.9934 40.8557 19.1964 39.3657 19C38.9004 18.9387 38.444 18.9359 38 19C36.6668 19.1923 35.5088 19.7719 34.5 20.5923C32.687 22.0667 31.3559 24.3191 30.3564 26.5C29.2111 28.9989 28.5011 31.404 28 32.4375M28 32.4375C26.3258 32.1236 24.8759 31.4103 23.5 30.6002C22.324 29.9078 21.202 29.1448 20.0404 28.5C18.9798 27.9113 17.8861 27.4212 16.6879 27.1737C16.1486 27.0623 15.5881 27 15 27C14.4703 27 13.9703 27.0614 13.5 27.1737C12.2258 27.4779 11.1685 28.156 10.3238 29C9.1258 30.197 8.35538 31.728 7.99996 33C7.86291 33.4905 7.81032 33.9944 7.83096 34.5C7.91553 36.5715 9.22925 38.672 10.9999 40C11.2376 40.1783 11.5248 40.3459 11.8523 40.5C12.804 40.9478 14.0957 41.2813 15.5 41.4285C17.6789 41.6569 20.1289 41.437 22 40.5C22.2987 40.3504 22.5828 40.1828 22.8533 40C24.8993 38.6174 26.1619 36.3685 27.0493 34.5C27.4224 33.7144 27.7292 32.996 28 32.4375Z" stroke="black" stroke-opacity="0.2" stroke-width="1.5" stroke-linecap="round"/>
<path d="M45 18.5C47 20 48 21 48 21" stroke="#FFBD5B" stroke-width="1.5" stroke-linecap="round"/>
<circle cx="49.5" cy="22.5" r="0.5" fill="#FFBD5B"/>
</svg>
