<svg width="62" height="61" viewBox="0 0 62 61" fill="none" xmlns="http://www.w3.org/2000/svg">
<ellipse cx="30.5966" cy="30.2345" rx="30.5966" ry="30.2345" fill="#FFBD5B"/>
<ellipse cx="31.1567" cy="29.7946" rx="27.1567" ry="26.7946" fill="#3B0434"/>
<circle cx="5.79342" cy="15.9319" r="1.08627" fill="#081940"/>
<circle cx="7.96597" cy="12.3111" r="1.08627" fill="#081940"/>
<circle cx="11.2248" cy="9.05227" r="1.08627" fill="#081940"/>
<circle cx="14.1215" cy="6.87973" r="1.08627" fill="#081940"/>
<circle cx="17.3803" cy="4.70718" r="1.08627" fill="#081940"/>
<circle cx="21.0012" cy="3.25882" r="1.08627" fill="#081940"/>
<circle cx="24.6221" cy="2.17254" r="1.08627" fill="#081940"/>
<circle cx="28.605" cy="1.81045" r="1.08627" fill="#081940"/>
<circle cx="32.5881" cy="1.81045" r="1.08627" fill="#081940"/>
<circle cx="36.209" cy="2.17254" r="1.08627" fill="#081940"/>
<circle cx="39.4677" cy="3.25882" r="1.08627" fill="#081940"/>
<circle cx="43.0886" cy="4.34509" r="1.08627" fill="#081940"/>
<circle cx="45.9854" cy="6.15551" r="1.08627" fill="#081940"/>
<circle cx="48.52" cy="7.96597" r="1.08627" fill="#081940"/>
<circle cx="51.0547" cy="10.1385" r="1.08627" fill="#081940"/>
<circle cx="53.5893" cy="13.0352" r="1.08627" fill="#081940"/>
<circle cx="55.3997" cy="15.9319" r="1.08627" fill="#081940"/>
<circle cx="57.2102" cy="18.8287" r="1.08627" fill="#081940"/>
<circle cx="58.2964" cy="22.0875" r="1.08627" fill="#081940"/>
<circle cx="59.0206" cy="25.3463" r="1.08627" fill="#081940"/>
<circle cx="59.3827" cy="28.243" r="1.08627" fill="#081940"/>
<circle cx="59.3827" cy="31.8639" r="1.08627" fill="#081940"/>
<circle cx="59.0206" cy="35.4848" r="1.08627" fill="#081940"/>
<circle cx="58.2964" cy="38.7436" r="1.08627" fill="#081940"/>
<circle cx="57.2102" cy="41.6403" r="1.08627" fill="#081940"/>
<circle cx="55.7618" cy="44.537" r="1.08627" fill="#081940"/>
<circle cx="53.9514" cy="47.0717" r="1.08627" fill="#081940"/>
<circle cx="51.7788" cy="49.9684" r="1.08627" fill="#081940"/>
<circle cx="49.2442" cy="52.141" r="1.08627" fill="#081940"/>
<circle cx="46.7096" cy="53.9514" r="1.08627" fill="#081940"/>
<circle cx="43.8128" cy="55.7619" r="1.08627" fill="#081940"/>
<circle cx="40.554" cy="57.2102" r="1.08627" fill="#081940"/>
<circle cx="37.2952" cy="58.2965" r="1.08627" fill="#081940"/>
<circle cx="33.6743" cy="58.6585" r="1.08627" fill="#081940"/>
<circle cx="30.0534" cy="59.0206" r="1.08627" fill="#081940"/>
<circle cx="26.7946" cy="58.6585" r="1.08627" fill="#081940"/>
<circle cx="23.1737" cy="57.9344" r="1.08627" fill="#081940"/>
<circle cx="19.9149" cy="56.8481" r="1.08627" fill="#081940"/>
<circle cx="16.6561" cy="55.0376" r="1.08627" fill="#081940"/>
<circle cx="13.7594" cy="53.2272" r="1.08627" fill="#081940"/>
<circle cx="10.8627" cy="51.0547" r="1.08627" fill="#081940"/>
<circle cx="7.96597" cy="48.158" r="1.08627" fill="#081940"/>
<circle cx="5.79342" cy="44.8991" r="1.08627" fill="#081940"/>
<circle cx="4.34503" cy="41.6403" r="1.08627" fill="#081940"/>
<circle cx="2.89668" cy="37.6573" r="1.08627" fill="#081940"/>
<circle cx="1.81044" cy="34.0364" r="1.08627" fill="#081940"/>
<circle cx="1.44833" cy="30.0534" r="1.08627" fill="#081940"/>
<circle cx="1.81044" cy="26.4326" r="1.08627" fill="#081940"/>
<circle cx="2.89668" cy="22.8117" r="1.08627" fill="#081940"/>
<circle cx="4.34503" cy="18.8287" r="1.08627" fill="#081940"/>
<path d="M15.2432 31.2353L30.1622 39C32.1038 33.992 33.6167 31.8931 37 29.2941L23.9459 17L18.3514 18.2941L14 25.4118L15.2432 31.2353Z" fill="#8ED9FF" stroke="#72AAA3"/>
<path d="M35.5 42.5C35.5 42.5 32.0187 41.5788 30.7534 39.5993C32.2011 34.4808 33.9926 31.8248 37.5 29.5C40.0793 30.3387 41.3347 30.9451 42.2466 32.9808C41.1992 37.6068 35.5 42.5 35.5 42.5Z" fill="#817F7F" stroke="#615556"/>
<path d="M34 41.5C35.4816 37.0655 42.5 30.5 40.5 32.5" stroke="#615556"/>
<path d="M20.3659 20.5556C21.2317 20.1111 23.5854 20 24.2927 20C25 20 31.0488 25.8333 31.0244 26.6667C31 27.5 27.5 34 25.9756 33.8889C24.4512 33.7778 19 30.5 18.122 29.4444C17.2439 28.3889 17 27 17 25.5556C17 24.1111 19.5 21 20.3659 20.5556Z" fill="#D9D9D9" stroke="#C2C2C2"/>
<circle cx="37.5" cy="38.5" r="0.5" fill="#615556"/>
<circle cx="40.5" cy="35.5" r="0.5" fill="#615556"/>
<circle cx="38.5" cy="35.5" r="0.5" fill="#615556"/>
<circle cx="35.5" cy="40.5" r="0.5" fill="#615556"/>
<circle cx="40.5" cy="33.5" r="0.5" fill="#615556"/>
<circle cx="39.5" cy="37.5" r="0.5" fill="#615556"/>
<rect x="37" y="45" width="2" height="2" fill="#D9D9D9"/>
<rect x="43" y="42" width="2" height="2" fill="#D9D9D9"/>
<rect x="41" y="49" width="2" height="2" fill="#D9D9D9"/>
</svg>
