<svg width="62" height="61" viewBox="0 0 62 61" fill="none" xmlns="http://www.w3.org/2000/svg">
<ellipse cx="30.5966" cy="30.2345" rx="30.5966" ry="30.2345" fill="#FFBD5B"/>
<ellipse cx="30.7776" cy="30.4156" rx="27.1567" ry="26.7946" fill="#3B0434"/>
<circle cx="5.79345" cy="15.9319" r="1.08627" fill="#081940"/>
<circle cx="7.966" cy="12.3111" r="1.08627" fill="#081940"/>
<circle cx="11.2248" cy="9.05227" r="1.08627" fill="#081940"/>
<circle cx="14.1215" cy="6.87973" r="1.08627" fill="#081940"/>
<circle cx="17.3803" cy="4.70718" r="1.08627" fill="#081940"/>
<circle cx="21.0012" cy="3.25882" r="1.08627" fill="#081940"/>
<circle cx="24.6221" cy="2.17251" r="1.08627" fill="#081940"/>
<circle cx="28.6051" cy="1.81045" r="1.08627" fill="#081940"/>
<circle cx="32.5881" cy="1.81045" r="1.08627" fill="#081940"/>
<circle cx="36.209" cy="2.17251" r="1.08627" fill="#081940"/>
<circle cx="39.4678" cy="3.25882" r="1.08627" fill="#081940"/>
<circle cx="43.0886" cy="4.34506" r="1.08627" fill="#081940"/>
<circle cx="45.9854" cy="6.15554" r="1.08627" fill="#081940"/>
<circle cx="48.52" cy="7.96597" r="1.08627" fill="#081940"/>
<circle cx="51.0547" cy="10.1385" r="1.08627" fill="#081940"/>
<circle cx="53.5893" cy="13.0352" r="1.08627" fill="#081940"/>
<circle cx="55.3997" cy="15.9319" r="1.08627" fill="#081940"/>
<circle cx="57.2102" cy="18.8287" r="1.08627" fill="#081940"/>
<circle cx="58.2965" cy="22.0875" r="1.08627" fill="#081940"/>
<circle cx="59.0207" cy="25.3463" r="1.08627" fill="#081940"/>
<circle cx="59.3827" cy="28.243" r="1.08627" fill="#081940"/>
<circle cx="59.3827" cy="31.8639" r="1.08627" fill="#081940"/>
<circle cx="59.0207" cy="35.4848" r="1.08627" fill="#081940"/>
<circle cx="58.2965" cy="38.7436" r="1.08627" fill="#081940"/>
<circle cx="57.2102" cy="41.6403" r="1.08627" fill="#081940"/>
<circle cx="55.7618" cy="44.537" r="1.08627" fill="#081940"/>
<circle cx="53.9514" cy="47.0717" r="1.08627" fill="#081940"/>
<circle cx="51.7788" cy="49.9684" r="1.08627" fill="#081940"/>
<circle cx="49.2442" cy="52.141" r="1.08627" fill="#081940"/>
<circle cx="46.7096" cy="53.9514" r="1.08627" fill="#081940"/>
<circle cx="43.8129" cy="55.7619" r="1.08627" fill="#081940"/>
<circle cx="40.5541" cy="57.2102" r="1.08627" fill="#081940"/>
<circle cx="37.2953" cy="58.2965" r="1.08627" fill="#081940"/>
<circle cx="33.6743" cy="58.6585" r="1.08627" fill="#081940"/>
<circle cx="30.0535" cy="59.0206" r="1.08627" fill="#081940"/>
<circle cx="26.7946" cy="58.6585" r="1.08627" fill="#081940"/>
<circle cx="23.1737" cy="57.9344" r="1.08627" fill="#081940"/>
<circle cx="19.9149" cy="56.8481" r="1.08627" fill="#081940"/>
<circle cx="16.6561" cy="55.0376" r="1.08627" fill="#081940"/>
<circle cx="13.7594" cy="53.2272" r="1.08627" fill="#081940"/>
<circle cx="10.8627" cy="51.0547" r="1.08627" fill="#081940"/>
<circle cx="7.966" cy="48.158" r="1.08627" fill="#081940"/>
<circle cx="5.79345" cy="44.8991" r="1.08627" fill="#081940"/>
<circle cx="4.34506" cy="41.6403" r="1.08627" fill="#081940"/>
<circle cx="2.89671" cy="37.6574" r="1.08627" fill="#081940"/>
<circle cx="1.81047" cy="34.0364" r="1.08627" fill="#081940"/>
<circle cx="1.44836" cy="30.0534" r="1.08627" fill="#081940"/>
<circle cx="1.81047" cy="26.4325" r="1.08627" fill="#081940"/>
<circle cx="2.89671" cy="22.8117" r="1.08627" fill="#081940"/>
<circle cx="4.34506" cy="18.8287" r="1.08627" fill="#081940"/>
<path d="M43.5215 24C43.5215 25.3956 43.3016 26.7399 42.8945 28C42.3537 29.6741 41.4825 31.1997 40.3579 32.5C38.9337 34.1467 37.1028 35.4321 35.0215 36.2001C33.6193 36.7175 32.1034 37 30.5215 37C23.3418 37 17.5215 31.1797 17.5215 24C17.5215 21.8357 18.0504 19.795 18.9859 18C20.3042 15.4706 22.43 13.4291 25.0215 12.2174C26.6919 11.4363 28.5557 11 30.5215 11C32.4872 11 34.3511 11.4363 36.0215 12.2174C40.452 14.289 43.5215 18.7861 43.5215 24Z" fill="#D9D9D9"/>
<path d="M30.5215 11C28.5557 11 26.6919 11.4363 25.0215 12.2174C25.0215 12.2174 29.8433 13.9654 31.5215 16.5C33.4738 19.4486 30.9904 22.3123 32.5215 25.5C34.2982 29.1989 40.3579 32.5 40.3579 32.5C41.4825 31.1997 42.3537 29.6741 42.8945 28C42.8945 28 39.2441 26.1987 38.5215 24C37.6979 21.4941 40.8895 20.0837 40.3579 17.5C39.82 14.8857 36.0215 12.2174 36.0215 12.2174C34.3511 11.4363 32.4872 11 30.5215 11Z" fill="#1B3E8F"/>
<path d="M17.5215 24C17.5215 31.1797 23.3418 37 30.5215 37C32.1034 37 33.6193 36.7175 35.0215 36.2001C35.0215 36.2001 26.2045 33.647 24.0215 29C22.7651 26.3255 24.5901 24.0041 23.0215 21.5C21.9141 19.7321 18.9859 18 18.9859 18C18.0504 19.795 17.5215 21.8357 17.5215 24Z" fill="#FD90C7"/>
<path d="M23.0215 21.5C21.9141 19.732 18.9859 18 18.9859 18C20.3042 15.4706 22.43 13.4291 25.0215 12.2173C25.0215 12.2173 29.8433 13.9654 31.5215 16.5C33.4738 19.4486 30.9904 22.3123 32.5215 25.5C34.2982 29.1989 40.3579 32.5 40.3579 32.5C38.9337 34.1467 37.1028 35.4321 35.0215 36.2001C35.0215 36.2001 26.2044 33.647 24.0215 29C22.7651 26.3255 24.5901 24.0041 23.0215 21.5Z" fill="#D51010"/>
<path d="M29.9385 51.625C30.3896 52.4063 31.4756 52.4552 32.0059 51.7715L32.1035 51.625L34.3721 47.6973L38.3721 40.7686L44.2285 30.625L44.6611 29.875C45.1422 29.0417 44.5412 28.0002 43.5791 28H18.4639C17.5619 28.0002 16.9768 28.9158 17.3037 29.7168L17.3819 29.875L19.5469 33.625L21.1709 36.4385L24.4541 42.125L26.1865 45.125L28.1709 48.5625L29.3613 50.625L29.9385 51.625Z" fill="#D9D9D9" stroke="#D9D9D9" stroke-width="1.5"/>
<path d="M20.2643 34.8682C20.5134 35.2994 21.0595 35.4426 21.484 35.2061L21.568 35.1533L28.8082 30.0234C29.6946 29.3955 29.2508 28.0003 28.1647 28C27.9469 28 27.7344 28.0639 27.5534 28.1826L27.4772 28.2373L20.4899 33.7061C20.1579 33.9659 20.0527 34.4176 20.2262 34.7939L20.2643 34.8682ZM25.194 43.4062C25.4781 43.8979 26.105 44.0533 26.5817 43.7715L26.6754 43.709L44.1002 30.6455C44.2017 30.5694 44.291 30.4785 44.3649 30.376L44.4332 30.2705L44.6618 29.875C45.1427 29.0417 44.5409 28 43.5788 28H42.7477C42.4912 28.0001 42.2418 28.0789 42.0329 28.2246L41.9459 28.292L25.4205 42.126C25.0676 42.4215 24.9614 42.9144 25.152 43.3252L25.194 43.4062ZM29.3698 49.8574L29.4674 49.8232L34.2145 47.6191C34.3491 47.5566 34.467 47.4643 34.5592 47.3496L34.6432 47.2275C35.1384 46.3696 34.1783 45.4353 33.3483 45.8994L33.2682 45.9492L28.9362 48.8848C28.7309 49.0239 28.6503 49.2813 28.7282 49.5078L28.7711 49.6025C28.8935 49.8145 29.1401 49.9146 29.3698 49.8574Z" fill="white" stroke="white" stroke-width="1.5"/>
</svg>
