<svg width="62" height="61" viewBox="0 0 62 61" fill="none" xmlns="http://www.w3.org/2000/svg">
<ellipse cx="30.5966" cy="30.2345" rx="30.5966" ry="30.2345" fill="#FFBD5B"/>
<ellipse cx="30.7776" cy="30.4156" rx="27.1567" ry="26.7946" fill="#3B0434"/>
<circle cx="5.79345" cy="15.9319" r="1.08627" fill="#081940"/>
<circle cx="7.966" cy="12.3111" r="1.08627" fill="#081940"/>
<circle cx="11.2248" cy="9.05227" r="1.08627" fill="#081940"/>
<circle cx="14.1215" cy="6.87973" r="1.08627" fill="#081940"/>
<circle cx="17.3803" cy="4.70718" r="1.08627" fill="#081940"/>
<circle cx="21.0012" cy="3.25882" r="1.08627" fill="#081940"/>
<circle cx="24.6221" cy="2.17251" r="1.08627" fill="#081940"/>
<circle cx="28.6051" cy="1.81045" r="1.08627" fill="#081940"/>
<circle cx="32.5881" cy="1.81045" r="1.08627" fill="#081940"/>
<circle cx="36.209" cy="2.17251" r="1.08627" fill="#081940"/>
<circle cx="39.4678" cy="3.25882" r="1.08627" fill="#081940"/>
<circle cx="43.0887" cy="4.34506" r="1.08627" fill="#081940"/>
<circle cx="45.9854" cy="6.15554" r="1.08627" fill="#081940"/>
<circle cx="48.52" cy="7.96597" r="1.08627" fill="#081940"/>
<circle cx="51.0547" cy="10.1385" r="1.08627" fill="#081940"/>
<circle cx="53.5893" cy="13.0352" r="1.08627" fill="#081940"/>
<circle cx="55.3997" cy="15.9319" r="1.08627" fill="#081940"/>
<circle cx="57.2102" cy="18.8287" r="1.08627" fill="#081940"/>
<circle cx="58.2965" cy="22.0875" r="1.08627" fill="#081940"/>
<circle cx="59.0207" cy="25.3463" r="1.08627" fill="#081940"/>
<circle cx="59.3827" cy="28.243" r="1.08627" fill="#081940"/>
<circle cx="59.3827" cy="31.8639" r="1.08627" fill="#081940"/>
<circle cx="59.0207" cy="35.4848" r="1.08627" fill="#081940"/>
<circle cx="58.2965" cy="38.7436" r="1.08627" fill="#081940"/>
<circle cx="57.2102" cy="41.6403" r="1.08627" fill="#081940"/>
<circle cx="55.7618" cy="44.537" r="1.08627" fill="#081940"/>
<circle cx="53.9514" cy="47.0717" r="1.08627" fill="#081940"/>
<circle cx="51.7788" cy="49.9684" r="1.08627" fill="#081940"/>
<circle cx="49.2442" cy="52.141" r="1.08627" fill="#081940"/>
<circle cx="46.7096" cy="53.9514" r="1.08627" fill="#081940"/>
<circle cx="43.8129" cy="55.7619" r="1.08627" fill="#081940"/>
<circle cx="40.5541" cy="57.2102" r="1.08627" fill="#081940"/>
<circle cx="37.2952" cy="58.2965" r="1.08627" fill="#081940"/>
<circle cx="33.6743" cy="58.6585" r="1.08627" fill="#081940"/>
<circle cx="30.0535" cy="59.0206" r="1.08627" fill="#081940"/>
<circle cx="26.7946" cy="58.6585" r="1.08627" fill="#081940"/>
<circle cx="23.1737" cy="57.9344" r="1.08627" fill="#081940"/>
<circle cx="19.9149" cy="56.8481" r="1.08627" fill="#081940"/>
<circle cx="16.6561" cy="55.0376" r="1.08627" fill="#081940"/>
<circle cx="13.7594" cy="53.2272" r="1.08627" fill="#081940"/>
<circle cx="10.8627" cy="51.0547" r="1.08627" fill="#081940"/>
<circle cx="7.966" cy="48.158" r="1.08627" fill="#081940"/>
<circle cx="5.79345" cy="44.8991" r="1.08627" fill="#081940"/>
<circle cx="4.34506" cy="41.6403" r="1.08627" fill="#081940"/>
<circle cx="2.89671" cy="37.6574" r="1.08627" fill="#081940"/>
<circle cx="1.81047" cy="34.0364" r="1.08627" fill="#081940"/>
<circle cx="1.44836" cy="30.0534" r="1.08627" fill="#081940"/>
<circle cx="1.81047" cy="26.4325" r="1.08627" fill="#081940"/>
<circle cx="2.89671" cy="22.8117" r="1.08627" fill="#081940"/>
<circle cx="4.34506" cy="18.8287" r="1.08627" fill="#081940"/>
<path d="M32 24C33.4737 23.3037 33.8852 22.6292 34 21C34.2561 22.7394 34.6445 23.4496 36 24C34.8159 24.3427 34.3418 24.925 34 27C33.8418 25.5483 33.6824 24.7662 32 24Z" fill="#D9D9D9" stroke="#D9D9D9" stroke-width="0.3"/>
<path d="M19 19.5C21.2105 18.6877 21.8278 17.9007 22 16C22.3841 18.0293 22.9668 18.8578 25 19.5C23.2238 19.8998 22.5127 20.5791 22 23C21.7627 21.3063 21.5236 20.3939 19 19.5Z" fill="#D9D9D9" stroke="#D9D9D9" stroke-width="0.3"/>
<path d="M42 30.5C44.2105 29.6877 44.8278 28.9007 45 27C45.3841 29.0293 45.9668 29.8578 48 30.5C46.2238 30.8998 45.5127 31.5791 45 34C44.7627 32.3063 44.5236 31.3939 42 30.5Z" fill="#D9D9D9" stroke="#D9D9D9" stroke-width="0.3"/>
<path d="M15 38C17.9474 36.8395 18.7704 35.7153 19 33C19.5121 35.899 20.2891 37.0826 23 38C20.6317 38.5711 19.6836 39.5416 19 43C18.6836 40.5805 18.3648 39.277 15 38Z" fill="#D9D9D9" stroke="#D9D9D9" stroke-width="0.3"/>
<path d="M44 18C44.7368 17.5358 44.9426 17.0861 45 16C45.128 17.1596 45.3223 17.633 46 18C45.4079 18.2285 45.1709 18.6167 45 20C44.9209 19.0322 44.8412 18.5108 44 18Z" fill="#D9D9D9" stroke="#D9D9D9" stroke-width="0.3"/>
<path d="M26 30C26.7368 29.5358 26.9426 29.0861 27 28C27.128 29.1596 27.3223 29.633 28 30C27.4079 30.2285 27.1709 30.6167 27 32C26.9209 31.0322 26.8412 30.5108 26 30Z" fill="#D9D9D9" stroke="#D9D9D9" stroke-width="0.3"/>
<path d="M37 44C37.7368 43.5358 37.9426 43.0861 38 42C38.128 43.1596 38.3223 43.633 39 44C38.4079 44.2285 38.1709 44.6167 38 46C37.9209 45.0322 37.8412 44.5108 37 44Z" fill="#D9D9D9" stroke="#D9D9D9" stroke-width="0.3"/>
<path d="M29 40C29.7368 39.5358 29.9426 39.0861 30 38C30.128 39.1596 30.3223 39.633 31 40C30.4079 40.2285 30.1709 40.6167 30 42C29.9209 41.0322 29.8412 40.5108 29 40Z" fill="#D9D9D9" stroke="#D9D9D9" stroke-width="0.3"/>
<path d="M13 25C13.7368 24.5358 13.9426 24.0861 14 23C14.128 24.1596 14.3223 24.633 15 25C14.4079 25.2285 14.1709 25.6167 14 27C13.9209 26.0322 13.8412 25.5108 13 25Z" fill="#D9D9D9" stroke="#D9D9D9" stroke-width="0.3"/>
</svg>
