<svg width="62" height="61" viewBox="0 0 62 61" fill="none" xmlns="http://www.w3.org/2000/svg">
<ellipse cx="30.5966" cy="30.2345" rx="30.5966" ry="30.2345" fill="#FFBD5B"/>
<ellipse cx="30.7776" cy="30.4156" rx="27.1567" ry="26.7946" fill="#3B0434"/>
<circle cx="5.79342" cy="15.9319" r="1.08627" fill="#081940"/>
<circle cx="7.96597" cy="12.3111" r="1.08627" fill="#081940"/>
<circle cx="11.2248" cy="9.05227" r="1.08627" fill="#081940"/>
<circle cx="14.1215" cy="6.87973" r="1.08627" fill="#081940"/>
<circle cx="17.3803" cy="4.70718" r="1.08627" fill="#081940"/>
<circle cx="21.0012" cy="3.25882" r="1.08627" fill="#081940"/>
<circle cx="24.6221" cy="2.17254" r="1.08627" fill="#081940"/>
<circle cx="28.605" cy="1.81045" r="1.08627" fill="#081940"/>
<circle cx="32.5881" cy="1.81045" r="1.08627" fill="#081940"/>
<circle cx="36.209" cy="2.17254" r="1.08627" fill="#081940"/>
<circle cx="39.4678" cy="3.25882" r="1.08627" fill="#081940"/>
<circle cx="43.0886" cy="4.34509" r="1.08627" fill="#081940"/>
<circle cx="45.9854" cy="6.15551" r="1.08627" fill="#081940"/>
<circle cx="48.52" cy="7.96597" r="1.08627" fill="#081940"/>
<circle cx="51.0547" cy="10.1385" r="1.08627" fill="#081940"/>
<circle cx="53.5892" cy="13.0352" r="1.08627" fill="#081940"/>
<circle cx="55.3997" cy="15.9319" r="1.08627" fill="#081940"/>
<circle cx="57.2102" cy="18.8287" r="1.08627" fill="#081940"/>
<circle cx="58.2964" cy="22.0875" r="1.08627" fill="#081940"/>
<circle cx="59.0206" cy="25.3463" r="1.08627" fill="#081940"/>
<circle cx="59.3827" cy="28.243" r="1.08627" fill="#081940"/>
<circle cx="59.3827" cy="31.8639" r="1.08627" fill="#081940"/>
<circle cx="59.0206" cy="35.4848" r="1.08627" fill="#081940"/>
<circle cx="58.2964" cy="38.7436" r="1.08627" fill="#081940"/>
<circle cx="57.2102" cy="41.6403" r="1.08627" fill="#081940"/>
<circle cx="55.7618" cy="44.537" r="1.08627" fill="#081940"/>
<circle cx="53.9514" cy="47.0717" r="1.08627" fill="#081940"/>
<circle cx="51.7788" cy="49.9684" r="1.08627" fill="#081940"/>
<circle cx="49.2442" cy="52.141" r="1.08627" fill="#081940"/>
<circle cx="46.7096" cy="53.9514" r="1.08627" fill="#081940"/>
<circle cx="43.8128" cy="55.7618" r="1.08627" fill="#081940"/>
<circle cx="40.554" cy="57.2102" r="1.08627" fill="#081940"/>
<circle cx="37.2952" cy="58.2965" r="1.08627" fill="#081940"/>
<circle cx="33.6743" cy="58.6585" r="1.08627" fill="#081940"/>
<circle cx="30.0534" cy="59.0206" r="1.08627" fill="#081940"/>
<circle cx="26.7946" cy="58.6585" r="1.08627" fill="#081940"/>
<circle cx="23.1737" cy="57.9344" r="1.08627" fill="#081940"/>
<circle cx="19.9149" cy="56.8481" r="1.08627" fill="#081940"/>
<circle cx="16.6561" cy="55.0377" r="1.08627" fill="#081940"/>
<circle cx="13.7594" cy="53.2272" r="1.08627" fill="#081940"/>
<circle cx="10.8627" cy="51.0547" r="1.08627" fill="#081940"/>
<circle cx="7.96597" cy="48.158" r="1.08627" fill="#081940"/>
<circle cx="5.79342" cy="44.8991" r="1.08627" fill="#081940"/>
<circle cx="4.34503" cy="41.6403" r="1.08627" fill="#081940"/>
<circle cx="2.89668" cy="37.6573" r="1.08627" fill="#081940"/>
<circle cx="1.81044" cy="34.0364" r="1.08627" fill="#081940"/>
<circle cx="1.44833" cy="30.0534" r="1.08627" fill="#081940"/>
<circle cx="1.81044" cy="26.4326" r="1.08627" fill="#081940"/>
<circle cx="2.89668" cy="22.8117" r="1.08627" fill="#081940"/>
<circle cx="4.34503" cy="18.8287" r="1.08627" fill="#081940"/>
<path d="M27.5 12L28.5 14L36.5 15.5L38 14L35.5 12.5C35.5 12.5 37.2547 11.5236 36.5 11.5C35.7453 11.4764 32.2716 10.9786 32.5 11C32.5 11 34 9.5 33.5 9.5C33 9.5 30.5 9.5 30 10C29.5 10.5 30 11 29.5 11.5C29 12 27.5 12 27.5 12Z" fill="#8351BF" stroke="#501D31"/>
<circle cx="24.5" cy="13.5" r="3" fill="#8351BF" stroke="#501D31"/>
<path d="M33.1487 44.8309C32.0166 43.9421 28.9995 39.8369 28.9995 39.8369L38.1715 35.8526C38.1715 35.8526 40.3745 37.8092 41 39.5C41.6255 41.1908 40.7386 42.8 38.8693 44.1325C37 45.465 36.1911 45.2726 35.3694 45.465C34.5477 45.6573 34.2808 45.7198 33.1487 44.8309Z" fill="#8351BF" stroke="#501D31"/>
<circle cx="40.5" cy="16.5" r="3" fill="#8351BF" stroke="#501D31"/>
<path d="M24.8265 44.5C25.8265 44 26.8265 43 27.3265 42C27.8265 41 23.8265 37.5 23.8265 37.5C23.8265 37.5 21.8265 35 20.8265 35C19.8265 35 18.3265 38 18.3265 38C18.3265 38 17.1526 41.2061 18.8265 42.5C20.5004 43.7939 21.2638 44.273 21.8265 44.5C22.3892 44.727 23.8265 45 24.8265 44.5Z" fill="#8351BF" stroke="#501D31"/>
<path d="M31 12.5C36.8212 12.5 41.5 16.9988 41.5 22.5C41.5 28.0012 36.8212 32.5 31 32.5C25.1788 32.5 20.5 28.0012 20.5 22.5C20.5 16.9988 25.1788 12.5 31 12.5Z" fill="#8351BF" stroke="#501D31"/>
<path d="M37.5 20L34.5 21.2L37 23" stroke="#501D31" stroke-linecap="round" stroke-linejoin="round"/>
<ellipse cx="30.5" cy="24" rx="3.5" ry="3" fill="#AB9393" fill-opacity="0.5"/>
<path d="M30.5 23.5L30 25M30 25C28.9553 24.9023 28.7095 24.1303 28.5 23.5M30 25C31 25.5 32 25 32.5 24.5" stroke="#501D31"/>
<path d="M19.5 35.7349C18.4999 32.7349 19.2944 28.3081 19.5 30.2349C19.7056 32.1617 19.5 28.5 21 27C22.5 25.5 23.5 25.5 25.5 25.5C27.5 25.5 30.5 27 30.5 27C30.5 27 33 25.5 34.5 25.5C36 25.5 36.5 25.5 38 26.5C39.5 27.5 39.7621 28.7349 40.2621 30.2349C40.7621 31.7349 40.5 34 40 35.5C39.5 37 38.5 38 37 39.5C35.5 41 32 43.5 30 44C28 44.5 20.5 38.7349 19.5 35.7349Z" fill="#EB497B" stroke="#7C2741"/>
<path d="M22.5 32.5C23.1516 35.25 23.9329 36.5167 26.5 38" stroke="#FFE4EE" stroke-linecap="round"/>
<path d="M39.5807 27.4934C40.2082 27.3908 40.8695 27.6297 41.4367 28.1744C42.004 28.7192 42.4505 29.5503 42.6131 30.5438C42.7756 31.5374 42.6172 32.4674 42.2532 33.1647C41.8891 33.8617 41.3384 34.2989 40.711 34.4016C40.0836 34.5042 39.4222 34.2653 38.855 33.7206C38.2877 33.1758 37.8412 32.3447 37.6787 31.3512C37.5161 30.3577 37.6745 29.4276 38.0385 28.7303C38.4026 28.0333 38.9533 27.5961 39.5807 27.4934Z" fill="#8351BF" stroke="#501D31"/>
<path d="M21.9464 24.7473C22.5197 25.022 22.9255 25.5963 23.0791 26.3675C23.2327 27.1389 23.1235 28.0761 22.6885 28.9839C22.2534 29.8918 21.5915 30.5641 20.894 30.9277C20.1966 31.2912 19.4948 31.3347 18.9215 31.06C18.3482 30.7852 17.9424 30.211 17.7888 29.4397C17.6351 28.6683 17.7444 27.7312 18.1794 26.8233C18.6144 25.9154 19.2764 25.2432 19.9739 24.8796C20.6713 24.5161 21.373 24.4726 21.9464 24.7473Z" fill="#8351BF" stroke="#501D31"/>
<circle cx="26.5" cy="20.5" r="1.5" fill="#501D31"/>
<ellipse cx="24.7409" cy="22.9323" rx="1.65431" ry="0.679001" transform="rotate(9.10843 24.7409 22.9323)" fill="#E1235D"/>
<ellipse cx="36.7409" cy="24.9323" rx="1.65431" ry="0.679001" transform="rotate(9.10843 36.7409 24.9323)" fill="#DF2F66"/>
<path d="M30.9594 21.8652C31.2779 21.9489 31.5213 22.106 31.6637 22.2665C31.8089 22.4302 31.8138 22.548 31.7993 22.6031C31.771 22.711 31.6174 22.941 31.3372 23.1278C31.0664 23.3083 30.7916 23.372 30.5778 23.3158C30.3641 23.2596 30.1562 23.0688 30.0093 22.7785C29.8573 22.4779 29.8368 22.2022 29.8651 22.0943C29.8796 22.0392 29.9419 21.9391 30.1488 21.868C30.3518 21.7983 30.641 21.7814 30.9594 21.8652Z" fill="#501D31" stroke="#501D31"/>
</svg>
