<svg width="62" height="61" viewBox="0 0 62 61" fill="none" xmlns="http://www.w3.org/2000/svg">
<ellipse cx="30.5966" cy="30.2345" rx="30.5966" ry="30.2345" fill="#FFBD5B"/>
<ellipse cx="30.7776" cy="30.4156" rx="27.1567" ry="26.7946" fill="#3B0434"/>
<circle cx="5.79345" cy="15.9319" r="1.08627" fill="#081940"/>
<circle cx="7.966" cy="12.3111" r="1.08627" fill="#081940"/>
<circle cx="11.2248" cy="9.05227" r="1.08627" fill="#081940"/>
<circle cx="14.1215" cy="6.87973" r="1.08627" fill="#081940"/>
<circle cx="17.3803" cy="4.70718" r="1.08627" fill="#081940"/>
<circle cx="21.0012" cy="3.25882" r="1.08627" fill="#081940"/>
<circle cx="24.6221" cy="2.17251" r="1.08627" fill="#081940"/>
<circle cx="28.6051" cy="1.81045" r="1.08627" fill="#081940"/>
<circle cx="32.5881" cy="1.81045" r="1.08627" fill="#081940"/>
<circle cx="36.209" cy="2.17251" r="1.08627" fill="#081940"/>
<circle cx="39.4678" cy="3.25882" r="1.08627" fill="#081940"/>
<circle cx="43.0886" cy="4.34506" r="1.08627" fill="#081940"/>
<circle cx="45.9854" cy="6.15554" r="1.08627" fill="#081940"/>
<circle cx="48.52" cy="7.96597" r="1.08627" fill="#081940"/>
<circle cx="51.0547" cy="10.1385" r="1.08627" fill="#081940"/>
<circle cx="53.5893" cy="13.0352" r="1.08627" fill="#081940"/>
<circle cx="55.3997" cy="15.9319" r="1.08627" fill="#081940"/>
<circle cx="57.2102" cy="18.8287" r="1.08627" fill="#081940"/>
<circle cx="58.2965" cy="22.0875" r="1.08627" fill="#081940"/>
<circle cx="59.0207" cy="25.3463" r="1.08627" fill="#081940"/>
<circle cx="59.3827" cy="28.243" r="1.08627" fill="#081940"/>
<circle cx="59.3827" cy="31.8639" r="1.08627" fill="#081940"/>
<circle cx="59.0207" cy="35.4848" r="1.08627" fill="#081940"/>
<circle cx="58.2965" cy="38.7436" r="1.08627" fill="#081940"/>
<circle cx="57.2102" cy="41.6403" r="1.08627" fill="#081940"/>
<circle cx="55.7618" cy="44.537" r="1.08627" fill="#081940"/>
<circle cx="53.9514" cy="47.0717" r="1.08627" fill="#081940"/>
<circle cx="51.7788" cy="49.9684" r="1.08627" fill="#081940"/>
<circle cx="49.2442" cy="52.141" r="1.08627" fill="#081940"/>
<circle cx="46.7096" cy="53.9514" r="1.08627" fill="#081940"/>
<circle cx="43.8129" cy="55.7619" r="1.08627" fill="#081940"/>
<circle cx="40.5541" cy="57.2102" r="1.08627" fill="#081940"/>
<circle cx="37.2953" cy="58.2965" r="1.08627" fill="#081940"/>
<circle cx="33.6743" cy="58.6585" r="1.08627" fill="#081940"/>
<circle cx="30.0535" cy="59.0206" r="1.08627" fill="#081940"/>
<circle cx="26.7946" cy="58.6585" r="1.08627" fill="#081940"/>
<circle cx="23.1737" cy="57.9344" r="1.08627" fill="#081940"/>
<circle cx="19.9149" cy="56.8481" r="1.08627" fill="#081940"/>
<circle cx="16.6561" cy="55.0376" r="1.08627" fill="#081940"/>
<circle cx="13.7594" cy="53.2272" r="1.08627" fill="#081940"/>
<circle cx="10.8627" cy="51.0547" r="1.08627" fill="#081940"/>
<circle cx="7.966" cy="48.158" r="1.08627" fill="#081940"/>
<circle cx="5.79345" cy="44.8991" r="1.08627" fill="#081940"/>
<circle cx="4.34506" cy="41.6403" r="1.08627" fill="#081940"/>
<circle cx="2.89671" cy="37.6574" r="1.08627" fill="#081940"/>
<circle cx="1.81047" cy="34.0364" r="1.08627" fill="#081940"/>
<circle cx="1.44836" cy="30.0534" r="1.08627" fill="#081940"/>
<circle cx="1.81047" cy="26.4325" r="1.08627" fill="#081940"/>
<circle cx="2.89671" cy="22.8117" r="1.08627" fill="#081940"/>
<circle cx="4.34506" cy="18.8287" r="1.08627" fill="#081940"/>
<mask id="path-53-inside-1_405_1422" fill="white">
<rect x="19.125" y="12" width="23" height="35" rx="1"/>
</mask>
<rect x="19.125" y="12" width="23" height="35" rx="1" fill="#FFBD5B" stroke="#1B3E8F" stroke-width="3" mask="url(#path-53-inside-1_405_1422)"/>
<path d="M24.4824 13.4295H36.539C38.8862 13.4295 40.789 15.3323 40.789 17.6795V43.5984C40.789 44.2888 40.2294 44.8484 39.539 44.8484H21.4824C20.792 44.8484 20.2324 44.2888 20.2324 43.5984V17.6795C20.2324 15.3323 22.1352 13.4295 24.4824 13.4295Z" fill="#B98EC7" stroke="#1B3E8F" stroke-width="1.5"/>
<path d="M32.3773 16.8784C33.7525 16.2937 34.1365 15.7272 34.2437 14.3591C34.4826 15.8198 34.8451 16.4161 36.11 16.8784C35.005 17.1662 34.5626 17.6552 34.2437 19.3977C34.096 18.1786 33.9473 17.5218 32.3773 16.8784Z" fill="#FFFCFC" stroke="#1B3E8F" stroke-width="0.75" stroke-linejoin="round"/>
<path d="M22.5364 39.7203C23.9117 39.1356 24.2957 38.5691 24.4028 37.201C24.6418 38.6617 25.0043 39.2581 26.2692 39.7203C25.1642 40.0081 24.7218 40.4971 24.4028 42.2396C24.2552 41.0205 24.1064 40.3637 22.5364 39.7203Z" fill="#FFFCFC" stroke="#1B3E8F" stroke-width="0.75" stroke-linejoin="round"/>
<path d="M19.4824 43.2473C20.2968 43.2473 22.5364 43.2473 23.5544 43.2473V45.5987" stroke="#050000"/>
<path d="M19.4824 43.2473C20.2968 43.2473 22.5364 43.2473 23.5544 43.2473V45.5987" stroke="#050000"/>
<path d="M19.4824 43C20.2968 43 22.982 43 24 43V45.5987" stroke="#1B3E8F"/>
<path d="M41.2001 42.9114C40.3857 42.9114 38.1461 42.9114 37.1281 42.9114V45.2627" stroke="#1B3E8F"/>
<path d="M19.143 44.5909C19.9575 44.5909 22.1971 44.5909 23.2151 44.5909V46.9423" stroke="#1B3E8F"/>
<path d="M20.0733 12.9483C21.4961 12.4111 22.3023 12.2792 23.7533 12.2988V17.0613H19.4238C19.231 15.3462 19.2036 14.4042 20.0733 12.9483Z" fill="#FFBD5B"/>
<path d="M38.125 13H41.2019C41.9804 14.3428 42.0789 15.273 42.125 17H38.125V13Z" fill="#FFBD5B"/>
<path d="M37 43H41V47H37V43Z" fill="#FFBD5B"/>
<path d="M21.5185 14.5231C21.6219 14.5231 21.6972 14.6049 21.6972 14.695C21.6971 14.7851 21.6219 14.8669 21.5185 14.8669C21.415 14.8669 21.3398 14.7851 21.3398 14.695C21.3398 14.6049 21.415 14.5231 21.5185 14.5231Z" fill="#D9D9D9"/>
<path d="M21.5185 14.5231C21.6219 14.5231 21.6972 14.6049 21.6972 14.695C21.6971 14.7851 21.6219 14.8669 21.5185 14.8669C21.415 14.8669 21.3398 14.7851 21.3398 14.695C21.3398 14.6049 21.415 14.5231 21.5185 14.5231Z" stroke="#1B3E8F"/>
<path d="M21.5185 14.5231C21.6219 14.5231 21.6972 14.6049 21.6972 14.695C21.6971 14.7851 21.6219 14.8669 21.5185 14.8669C21.415 14.8669 21.3398 14.7851 21.3398 14.695C21.3398 14.6049 21.415 14.5231 21.5185 14.5231Z" stroke="#1B3E8F"/>
<path d="M21.5185 14.5231C21.6219 14.5231 21.6972 14.6049 21.6972 14.695C21.6971 14.7851 21.6219 14.8669 21.5185 14.8669C21.415 14.8669 21.3398 14.7851 21.3398 14.695C21.3398 14.6049 21.415 14.5231 21.5185 14.5231Z" stroke="#1B3E8F"/>
<path d="M26.9478 15.5309C27.0513 15.5309 27.1266 15.6127 27.1266 15.7028C27.1265 15.7928 27.0513 15.8746 26.9478 15.8746C26.8444 15.8746 26.7692 15.7929 26.7691 15.7028C26.7691 15.6126 26.8444 15.5309 26.9478 15.5309Z" fill="#D9D9D9"/>
<path d="M26.9478 15.5309C27.0513 15.5309 27.1266 15.6127 27.1266 15.7028C27.1265 15.7928 27.0513 15.8746 26.9478 15.8746C26.8444 15.8746 26.7692 15.7929 26.7691 15.7028C26.7691 15.6126 26.8444 15.5309 26.9478 15.5309Z" stroke="#1B3E8F"/>
<path d="M26.9478 15.5309C27.0513 15.5309 27.1266 15.6127 27.1266 15.7028C27.1265 15.7928 27.0513 15.8746 26.9478 15.8746C26.8444 15.8746 26.7692 15.7929 26.7691 15.7028C26.7691 15.6126 26.8444 15.5309 26.9478 15.5309Z" stroke="#1B3E8F"/>
<path d="M26.9478 15.5309C27.0513 15.5309 27.1266 15.6127 27.1266 15.7028C27.1265 15.7928 27.0513 15.8746 26.9478 15.8746C26.8444 15.8746 26.7692 15.7929 26.7691 15.7028C26.7691 15.6126 26.8444 15.5309 26.9478 15.5309Z" stroke="#1B3E8F"/>
<path d="M20.1157 43.0307L24 43V46.763C24 46.763 21.5045 47.2962 20.5786 46.763C19.6528 46.2298 20.1157 43.0307 20.1157 43.0307Z" fill="#FFBD5B"/>
<path d="M23.8938 12.6795V17.0463H19.4824" stroke="#1B3E8F" stroke-linejoin="round"/>
<path d="M37.8067 12.6795V17.3822H41.5394" stroke="#1B3E8F" stroke-linejoin="round"/>
<path d="M30.6806 18.7182C35.9178 18.7182 40.2001 23.0625 40.2001 28.4672C40.2001 33.872 35.9178 38.2162 30.6806 38.2162C25.6071 38.2162 21.43 34.1395 21.1737 28.9711L21.161 28.4672C21.1611 23.0625 25.4434 18.7182 30.6806 18.7182Z" fill="#E68E09" stroke="#1B3E8F" stroke-width="2"/>
<path d="M30.6806 19.015C35.7662 19.015 39.8963 23.1676 39.8964 28.2992C39.8964 33.4582 35.7397 37.9193 30.6806 37.9193C25.7795 37.9193 21.725 33.7327 21.4765 28.7806L21.4648 28.2992C21.4648 23.1676 25.5949 19.015 30.6806 19.015Z" fill="#FFBD5B" stroke="#1B3E8F" stroke-width="1.25"/>
<path d="M29.6215 31.8905L28.3707 25.81L21.8883 28.7334L29.6215 31.8905Z" fill="#B98EC7" stroke="#1B3E8F" stroke-width="0.75"/>
<path d="M33.6591 25.9086H28.0478L30.8916 19.5092L33.6591 25.9086Z" fill="#B98EC7" stroke="#1B3E8F" stroke-width="0.75"/>
<path d="M31.0126 25.2813L26.5803 28.6937L24.773 21.9156L31.0126 25.2813Z" fill="#B98EC7" stroke="#1B3E8F" stroke-width="0.75"/>
<path d="M35.3132 28.2381L30.8366 24.9511L36.643 21.8777L35.3132 28.2381Z" fill="#B98EC7" stroke="#1B3E8F" stroke-width="0.75"/>
<mask id="path-76-inside-2_405_1422" fill="white">
<path d="M37.6078 35.2452L30.3413 32.9847L34.9941 28.1314L37.6078 35.2452Z"/>
</mask>
<path d="M37.6078 35.2452L30.3413 32.9847L34.9941 28.1314L37.6078 35.2452Z" fill="#B98EC7"/>
<path d="M37.6078 35.2452L37.3815 35.9571C37.6551 36.0422 37.954 35.9661 38.1523 35.7609C38.3507 35.5556 38.4142 35.2567 38.3162 34.9898L37.6078 35.2452ZM30.3413 32.9847L29.7946 32.4712L28.9633 33.3383L30.1149 33.6965L30.3413 32.9847ZM34.9941 28.1314L35.7025 27.876L35.2862 26.743L34.4474 27.6179L34.9941 28.1314ZM37.6078 35.2452L37.8341 34.5333L30.5676 32.2728L30.3413 32.9847L30.1149 33.6965L37.3815 35.9571L37.6078 35.2452ZM30.3413 32.9847L30.8879 33.4982L35.5407 28.6449L34.9941 28.1314L34.4474 27.6179L29.7946 32.4712L30.3413 32.9847ZM34.9941 28.1314L34.2857 28.3868L36.8994 35.5006L37.6078 35.2452L38.3162 34.9898L35.7025 27.876L34.9941 28.1314Z" fill="#1B3E8F" mask="url(#path-76-inside-2_405_1422)"/>
<path d="M33.7252 31.4419L33.6918 25.9341L39.5439 28.7451L33.7252 31.4419Z" fill="#B98EC7" stroke="#1B3E8F" stroke-width="0.75" stroke-linejoin="round"/>
<path d="M33.4483 32.4533H27.9317L30.6817 37.6877L33.4483 32.4533Z" fill="#B98EC7" stroke="#1B3E8F" stroke-width="0.75"/>
<path d="M29.4641 32.4352L26.5048 28.9934L24.0321 34.0021L29.4641 32.4352Z" fill="#B98EC7" stroke="#1B3E8F" stroke-width="0.75"/>
<path d="M31.0197 23.4677C34.0129 23.4677 36.4132 25.7957 36.4132 28.6357C36.413 31.4754 34.0127 33.8027 31.0197 33.8027C28.0268 33.8026 25.6264 31.4753 25.6261 28.6357C25.6261 25.7958 28.0266 23.4678 31.0197 23.4677Z" fill="#E68E09"/>
<path d="M31.0197 23.4677C34.0129 23.4677 36.4132 25.7957 36.4132 28.6357C36.413 31.4754 34.0127 33.8027 31.0197 33.8027C28.0268 33.8026 25.6264 31.4753 25.6261 28.6357C25.6261 25.7958 28.0266 23.4678 31.0197 23.4677Z" stroke="#1B3E8F" stroke-width="0.75"/>
<path d="M31.0197 23.4677C34.0129 23.4677 36.4132 25.7957 36.4132 28.6357C36.413 31.4754 34.0127 33.8027 31.0197 33.8027C28.0268 33.8026 25.6264 31.4753 25.6261 28.6357C25.6261 25.7958 28.0266 23.4678 31.0197 23.4677Z" stroke="#1B3E8F" stroke-width="0.75"/>
<path d="M30.925 24.875C32.927 24.875 34.55 26.498 34.55 28.5C34.55 30.502 32.927 32.125 30.925 32.125C28.923 32.125 27.3 30.502 27.3 28.5C27.3 26.498 28.923 24.875 30.925 24.875Z" fill="#FFBD5B"/>
<path d="M30.925 24.875C32.927 24.875 34.55 26.498 34.55 28.5C34.55 30.502 32.927 32.125 30.925 32.125C28.923 32.125 27.3 30.502 27.3 28.5C27.3 26.498 28.923 24.875 30.925 24.875Z" stroke="#1B3E8F" stroke-width="0.75"/>
<path d="M30.925 24.875C32.927 24.875 34.55 26.498 34.55 28.5C34.55 30.502 32.927 32.125 30.925 32.125C28.923 32.125 27.3 30.502 27.3 28.5C27.3 26.498 28.923 24.875 30.925 24.875Z" stroke="#1B3E8F" stroke-width="0.75"/>
<path d="M30.7619 31.0949C30.7619 31.302 30.9298 31.4699 31.1369 31.4699C31.344 31.4699 31.5119 31.302 31.5119 31.0949H30.7619ZM31.1369 31.0949H31.5119V30.507H31.1369H30.7619V31.0949H31.1369ZM31.1369 30.507H31.5119V29.9192H31.1369H30.7619V30.507H31.1369Z" fill="#1B3E8F"/>
<path d="M31.1726 25.7203C31.1726 25.5132 31.0047 25.3453 30.7976 25.3453C30.5905 25.3453 30.4226 25.5132 30.4226 25.7203H31.1726ZM30.7976 27.064H31.1726V26.3922H30.7976H30.4226V27.064H30.7976ZM30.7976 26.3922H31.1726V25.7203H30.7976H30.4226V26.3922H30.7976Z" fill="#1B3E8F"/>
<path d="M32.3408 27.2729C33.3022 27.619 33.8516 28.6571 33.8516 28.6571C33.8516 28.6571 33.3184 29.1219 32.4943 29.5833C31.6702 30.0447 30.2966 29.814 29.4725 29.5833C28.6484 29.3526 28.0829 28.7725 28.0829 28.7725C28.0829 28.7725 28.7696 27.7343 29.319 27.3883C29.8684 27.0422 31.3793 26.9269 32.3408 27.2729Z" fill="#D9D9D9" stroke="#1B3E8F" stroke-width="0.75"/>
<path d="M28.5921 30.5986C28.502 30.785 28.5809 31.008 28.7681 31.0965C28.9554 31.185 29.1802 31.1057 29.2703 30.9192L28.5921 30.5986ZM29.464 29.6558L29.1249 29.4954L28.5921 30.5986L28.9312 30.7589L29.2703 30.9192L29.8031 29.8161L29.464 29.6558Z" fill="#1B3E8F"/>
<path d="M33.0554 30.8183C33.1654 30.9935 33.3978 31.0474 33.5744 30.9388C33.751 30.8301 33.8049 30.6001 33.6948 30.4249L33.0554 30.8183ZM32.6169 29.4154L32.2972 29.6121L32.6763 30.2152L32.996 30.0185L33.3158 29.8218L32.9367 29.2187L32.6169 29.4154ZM32.996 30.0185L32.6763 30.2152L33.0554 30.8183L33.3751 30.6216L33.6948 30.4249L33.3158 29.8218L32.996 30.0185Z" fill="#1B3E8F"/>
<path d="M33.354 26.1891C33.4273 25.9954 33.3298 25.7789 33.1361 25.7055C32.9424 25.6322 32.726 25.7297 32.6526 25.9234L33.354 26.1891ZM32.4943 27.3999L32.8449 27.5327L33.354 26.1891L33.0033 26.0562L32.6526 25.9234L32.1436 27.267L32.4943 27.3999Z" fill="#1B3E8F"/>
<path d="M28.4109 26.1891C28.3375 25.9954 28.435 25.7789 28.6287 25.7055C28.8224 25.6322 29.0389 25.7297 29.1122 25.9234L28.4109 26.1891ZM29.2706 27.3999L28.9199 27.5327L28.4109 26.1891L28.7616 26.0562L29.1122 25.9234L29.6212 27.267L29.2706 27.3999Z" fill="#1B3E8F"/>
<path d="M30.9714 27.6919C30.9834 27.6998 31.0128 27.7243 31.0486 27.7827C31.1237 27.9058 31.1902 28.1227 31.1902 28.4077C31.1902 28.6926 31.1237 28.9087 31.0486 29.0317C31.0126 29.0907 30.9833 29.1157 30.9714 29.1235C30.9696 29.1248 30.9676 29.1249 30.9666 29.1255C30.9657 29.125 30.9648 29.1243 30.9636 29.1235C30.9518 29.1158 30.9217 29.091 30.8855 29.0317C30.8104 28.9087 30.7439 28.6924 30.7439 28.4077C30.7439 28.1231 30.8105 27.9068 30.8855 27.7837C30.9217 27.7245 30.9518 27.6996 30.9636 27.6919C30.965 27.691 30.9657 27.6895 30.9666 27.689C30.9676 27.6895 30.9694 27.6905 30.9714 27.6919Z" fill="#050000" stroke="#1B3E8F" stroke-width="1.25"/>
<path d="M38.8247 38.7087C38.9282 38.7087 39.0034 38.7904 39.0034 38.8806C39.0034 38.9706 38.9282 39.0524 38.8247 39.0524C38.7212 39.0524 38.646 38.9706 38.646 38.8806C38.646 38.7904 38.7212 38.7087 38.8247 38.7087Z" fill="#D9D9D9"/>
<path d="M38.8247 38.7087C38.9282 38.7087 39.0034 38.7904 39.0034 38.8806C39.0034 38.9706 38.9282 39.0524 38.8247 39.0524C38.7212 39.0524 38.646 38.9706 38.646 38.8806C38.646 38.7904 38.7212 38.7087 38.8247 38.7087Z" stroke="#1B3E8F"/>
<path d="M38.8247 38.7087C38.9282 38.7087 39.0034 38.7904 39.0034 38.8806C39.0034 38.9706 38.9282 39.0524 38.8247 39.0524C38.7212 39.0524 38.646 38.9706 38.646 38.8806C38.646 38.7904 38.7212 38.7087 38.8247 38.7087Z" stroke="#1B3E8F"/>
<path d="M38.8247 38.7087C38.9282 38.7087 39.0034 38.7904 39.0034 38.8806C39.0034 38.9706 38.9282 39.0524 38.8247 39.0524C38.7212 39.0524 38.646 38.9706 38.646 38.8806C38.646 38.7904 38.7212 38.7087 38.8247 38.7087Z" stroke="#1B3E8F"/>
<path d="M21.5185 45.0909C21.6219 45.091 21.6972 45.1727 21.6972 45.2628C21.6971 45.3529 21.6219 45.4347 21.5185 45.4347C21.415 45.4347 21.3398 45.3529 21.3398 45.2628C21.3398 45.1727 21.415 45.0909 21.5185 45.0909Z" fill="#D9D9D9"/>
<path d="M21.5185 45.0909C21.6219 45.091 21.6972 45.1727 21.6972 45.2628C21.6971 45.3529 21.6219 45.4347 21.5185 45.4347C21.415 45.4347 21.3398 45.3529 21.3398 45.2628C21.3398 45.1727 21.415 45.0909 21.5185 45.0909Z" stroke="#1B3E8F"/>
<path d="M21.5185 45.0909C21.6219 45.091 21.6972 45.1727 21.6972 45.2628C21.6971 45.3529 21.6219 45.4347 21.5185 45.4347C21.415 45.4347 21.3398 45.3529 21.3398 45.2628C21.3398 45.1727 21.415 45.0909 21.5185 45.0909Z" stroke="#1B3E8F"/>
<path d="M21.5185 45.0909C21.6219 45.091 21.6972 45.1727 21.6972 45.2628C21.6971 45.3529 21.6219 45.4347 21.5185 45.4347C21.415 45.4347 21.3398 45.3529 21.3398 45.2628C21.3398 45.1727 21.415 45.0909 21.5185 45.0909Z" stroke="#1B3E8F"/>
<path d="M39.5034 44.4191C39.6069 44.4191 39.6821 44.5009 39.6821 44.591C39.6821 44.6811 39.6069 44.7629 39.5034 44.7629C39.4 44.7629 39.3247 44.6811 39.3247 44.591C39.3247 44.5009 39.3999 44.4191 39.5034 44.4191Z" fill="#D9D9D9"/>
<path d="M39.5034 44.4191C39.6069 44.4191 39.6821 44.5009 39.6821 44.591C39.6821 44.6811 39.6069 44.7629 39.5034 44.7629C39.4 44.7629 39.3247 44.6811 39.3247 44.591C39.3247 44.5009 39.3999 44.4191 39.5034 44.4191Z" stroke="#1B3E8F"/>
<path d="M39.5034 44.4191C39.6069 44.4191 39.6821 44.5009 39.6821 44.591C39.6821 44.6811 39.6069 44.7629 39.5034 44.7629C39.4 44.7629 39.3247 44.6811 39.3247 44.591C39.3247 44.5009 39.3999 44.4191 39.5034 44.4191Z" stroke="#1B3E8F"/>
<path d="M39.5034 44.4191C39.6069 44.4191 39.6821 44.5009 39.6821 44.591C39.6821 44.6811 39.6069 44.7629 39.5034 44.7629C39.4 44.7629 39.3247 44.6811 39.3247 44.591C39.3247 44.5009 39.3999 44.4191 39.5034 44.4191Z" stroke="#1B3E8F"/>
<path d="M39.8428 14.5231C39.9462 14.5231 40.0215 14.6049 40.0215 14.695C40.0215 14.7851 39.9462 14.8669 39.8428 14.8669C39.7393 14.8669 39.6641 14.7851 39.6641 14.695C39.6641 14.6049 39.7393 14.5231 39.8428 14.5231Z" fill="#D9D9D9"/>
<path d="M39.8428 14.5231C39.9462 14.5231 40.0215 14.6049 40.0215 14.695C40.0215 14.7851 39.9462 14.8669 39.8428 14.8669C39.7393 14.8669 39.6641 14.7851 39.6641 14.695C39.6641 14.6049 39.7393 14.5231 39.8428 14.5231Z" stroke="#1B3E8F"/>
<path d="M39.8428 14.5231C39.9462 14.5231 40.0215 14.6049 40.0215 14.695C40.0215 14.7851 39.9462 14.8669 39.8428 14.8669C39.7393 14.8669 39.6641 14.7851 39.6641 14.695C39.6641 14.6049 39.7393 14.5231 39.8428 14.5231Z" stroke="#1B3E8F"/>
<path d="M39.8428 14.5231C39.9462 14.5231 40.0215 14.6049 40.0215 14.695C40.0215 14.7851 39.9462 14.8669 39.8428 14.8669C39.7393 14.8669 39.6641 14.7851 39.6641 14.695C39.6641 14.6049 39.7393 14.5231 39.8428 14.5231Z" stroke="#1B3E8F"/>
<rect x="19.875" y="12.75" width="21.5" height="34.5" rx="1.25" stroke="#1B3E8F" stroke-width="1.5"/>
</svg>
